<svg width="52" height="53" viewBox="0 0 52 53" fill="none" xmlns="http://www.w3.org/2000/svg">
<rect y="0.816406" width="52" height="52" rx="10" fill="url(#paint0_linear_39378_2046)"/>
<g opacity="0.5" clip-path="url(#clip0_39378_2046)">
<path d="M31.7079 27.8557C33.3797 25.5623 33.9502 22.2722 33.9502 19.4987C33.9502 14.68 30.3907 13.2461 26 13.2461C21.6092 13.2461 18.0498 14.68 18.0498 19.4987C18.0498 22.2808 18.5631 25.5828 20.2307 27.8771L23.9424 34.206V37.2424H22.9695V41.2461H29.0598V37.2424H28.0508V34.23L31.7079 27.8557ZM28.4599 17.1462H30.0998V18.7862H28.4599V17.1462ZM28.4599 20.4261H30.0998V22.066H28.4599V20.4261ZM28.4599 23.706H30.0998V25.3459H28.4599V23.706ZM25.18 17.1462H26.8199V18.7862H25.18V17.1462ZM25.18 20.4261H26.8199V22.066H25.18V20.4261ZM25.18 23.706H26.8199V25.3459H25.18V23.706ZM23.5401 25.3459H21.9002V23.706H23.5401V25.3459ZM23.5401 22.066H21.9002V20.4261H23.5401V22.066ZM23.5401 18.7862H21.9002V17.1462H23.5401V18.7862ZM27.1984 32.4204H24.7963L23.5762 30.34C24.2941 30.5699 25.0989 30.696 26 30.696C26.8885 30.696 27.6849 30.5658 28.398 30.3293L27.1984 32.4204Z" fill="#104F99"/>
</g>
<defs>
<linearGradient id="paint0_linear_39378_2046" x1="26" y1="52.8164" x2="26" y2="0.816406" gradientUnits="userSpaceOnUse">
<stop stop-color="#ADDCFF"/>
<stop offset="0.5028" stop-color="#EAF6FF"/>
<stop offset="1" stop-color="#EAF6FF"/>
</linearGradient>
<clipPath id="clip0_39378_2046">
<rect width="28" height="28" fill="white" transform="translate(12 13.2461)"/>
</clipPath>
</defs>
</svg>
