<svg width="53" height="53" viewBox="0 0 53 53" fill="none" xmlns="http://www.w3.org/2000/svg">
<rect x="0.566895" y="0.816406" width="52" height="52" rx="10" fill="url(#paint0_linear_39373_13656)"/>
<g opacity="0.5">
<path d="M27.883 15.543C26.6337 14.8161 25.0318 15.2395 24.3049 16.489C23.578 17.7382 24.0015 19.3401 25.2508 20.067C26.5 20.7939 28.1019 20.3704 28.8288 19.1212C29.5557 17.8717 29.1322 16.2698 27.883 15.543ZM24.5522 16.6398C24.608 16.5438 24.7449 16.5159 24.8548 16.5765C24.9647 16.6371 25.0043 16.7676 24.9454 16.8686C24.8865 16.9698 24.7536 16.9998 24.6466 16.9342C24.5398 16.8686 24.4962 16.7358 24.5522 16.6398ZM24.385 17.8138C24.2828 17.8717 24.1689 17.8271 24.1312 17.7111C24.0935 17.5951 24.1406 17.451 24.2362 17.3927C24.3319 17.3346 24.4456 17.3842 24.4898 17.5004C24.5341 17.6168 24.4871 17.7559 24.385 17.8138ZM25.2696 16.1604C25.1467 16.1792 25.0472 16.105 25.0507 15.9932C25.0539 15.8814 25.1561 15.769 25.2756 15.7446C25.3951 15.7202 25.4903 15.7971 25.4903 15.9145C25.4903 16.0316 25.3926 16.1413 25.2696 16.1604ZM28.3811 16.2972C28.4929 16.3004 28.6052 16.4026 28.6297 16.5221C28.6543 16.6415 28.5773 16.7368 28.4598 16.7368C28.3422 16.7368 28.2327 16.639 28.2137 16.5161C28.1948 16.3932 28.2691 16.2937 28.3811 16.2972ZM28.1535 17.561C28.0986 17.6693 27.9682 17.702 27.8631 17.6362C27.7581 17.5701 27.7208 17.429 27.7794 17.3198C27.8383 17.2105 27.9678 17.1745 28.069 17.2416C28.17 17.3084 28.2081 17.4527 28.1535 17.561ZM27.7344 15.7987C27.8304 15.8545 27.8583 15.9914 27.7977 16.1013C27.7371 16.2112 27.6069 16.2508 27.5057 16.1919C27.4047 16.133 27.3744 16.0001 27.4401 15.8931C27.5055 15.7861 27.6382 15.7427 27.7344 15.7987ZM27.2063 16.706C27.311 16.767 27.3454 16.9063 27.2834 17.0154C27.2215 17.1245 27.0847 17.1616 26.9773 17.0993C26.8702 17.0367 26.8346 16.8996 26.899 16.7918C26.9635 16.6843 27.1016 16.6452 27.2063 16.706ZM25.7691 17.0906C25.8782 17.1526 25.9153 17.2894 25.853 17.3967C25.7906 17.5039 25.6533 17.5395 25.5455 17.475C25.438 17.4108 25.3987 17.2726 25.4597 17.1679C25.5207 17.0631 25.66 17.0288 25.7691 17.0906ZM25.9949 16.3052C26.0621 16.2042 26.2062 16.1659 26.3145 16.2208C26.4228 16.2756 26.4556 16.4061 26.3896 16.5111C26.3234 16.6162 26.1823 16.6535 26.0731 16.5948C25.9638 16.5359 25.9278 16.4062 25.9949 16.3052ZM25.2646 17.9843C25.3697 18.0505 25.407 18.1915 25.3483 18.3008C25.2896 18.4101 25.1599 18.4461 25.0587 18.3789C24.9577 18.3118 24.9194 18.1677 24.9743 18.0593C25.0291 17.9512 25.1596 17.9183 25.2646 17.9843ZM24.7467 19.3234C24.6349 19.3201 24.5225 19.218 24.4981 19.0985C24.4737 18.979 24.5506 18.8838 24.668 18.8838C24.7853 18.8838 24.895 18.9815 24.9141 19.1044C24.9329 19.2274 24.8585 19.3267 24.7467 19.3234ZM26.8736 15.7363C26.7574 15.7806 26.6183 15.7336 26.5602 15.6315C26.5023 15.5293 26.5469 15.4154 26.663 15.3777C26.779 15.34 26.9231 15.3871 26.9814 15.4827C27.0395 15.5784 26.9896 15.6921 26.8736 15.7363ZM25.3933 19.8219C25.2971 19.7659 25.2694 19.6291 25.33 19.5192C25.3906 19.4094 25.5209 19.3698 25.6221 19.4286C25.7231 19.4875 25.7533 19.6204 25.6877 19.7274C25.6221 19.8344 25.4895 19.8779 25.3933 19.8219ZM25.9215 18.9143C25.8168 18.8534 25.7824 18.7141 25.8443 18.605C25.9061 18.4959 26.0431 18.4587 26.1504 18.5211C26.2576 18.5836 26.2932 18.7208 26.2287 18.8285C26.1643 18.9363 26.0261 18.9753 25.9215 18.9143ZM26.4494 18.0068C26.3411 17.9437 26.3041 17.8042 26.3672 17.6957C26.4303 17.5872 26.5698 17.5504 26.6783 17.6135C26.7867 17.6767 26.8236 17.8161 26.7605 17.9247C26.6974 18.0332 26.5579 18.0699 26.4494 18.0068ZM26.4648 20.2429C26.3488 20.2806 26.2047 20.2334 26.1464 20.1378C26.0883 20.0422 26.1379 19.9285 26.2541 19.8842C26.3703 19.84 26.5094 19.8869 26.5675 19.9891C26.6254 20.0912 26.5808 20.2051 26.4648 20.2429ZM26.813 19.3998C26.7047 19.3449 26.6718 19.2145 26.738 19.1094C26.8042 19.0044 26.945 18.9671 27.0545 19.0257C27.1638 19.0844 27.1997 19.2141 27.1326 19.3153C27.0656 19.4165 26.9213 19.4546 26.813 19.3998ZM27.3587 18.5299C27.2496 18.468 27.2124 18.3312 27.2748 18.2238C27.3373 18.1167 27.4745 18.0811 27.5822 18.1455C27.69 18.21 27.729 18.3479 27.668 18.4526C27.6071 18.5574 27.4678 18.5917 27.3587 18.5299ZM28.7426 17.8065C28.8448 17.7486 28.9587 17.7932 28.9964 17.9093C29.0341 18.0253 28.9869 18.1694 28.8913 18.2277C28.7957 18.2858 28.682 18.2361 28.6377 18.1199C28.5937 18.0037 28.6406 17.8646 28.7426 17.8065ZM27.8522 19.876C27.7327 19.9006 27.6375 19.8236 27.6375 19.7061C27.6375 19.5885 27.7352 19.479 27.8581 19.46C27.9811 19.4411 28.0804 19.5154 28.0771 19.6272C28.0736 19.7393 27.9716 19.8515 27.8522 19.876ZM28.2729 19.044C28.1631 18.9834 28.1235 18.853 28.1823 18.752C28.2412 18.6508 28.3741 18.6207 28.4811 18.6864C28.5881 18.752 28.6316 18.8847 28.5756 18.9807C28.5198 19.0769 28.3828 19.1046 28.2729 19.044Z" fill="#104F99"/>
<path d="M41.4924 22.137L39.0118 19.6564C37.7248 18.3695 35.5759 18.4316 34.2122 19.7955L29.4727 24.5349C28.5844 25.4232 28.9295 27.326 29.2784 28.5448C29.3467 28.8323 29.3382 29.1938 29.2972 29.6513C29.2703 29.9513 29.3751 30.2443 29.5839 30.453L30.1399 31.0091L30.6959 31.5651C30.9047 31.7738 31.1975 31.8787 31.4977 31.8518C31.9552 31.8106 32.3167 31.8023 32.6042 31.8706C33.8228 32.2192 35.7256 32.5646 36.6141 31.6763L41.3536 26.9368C42.7172 25.5729 42.7793 23.424 41.4924 22.137ZM35.3706 28.6151L32.8966 26.141L32.9476 26.09L33.0952 26.1562C33.1937 26.2003 33.2716 26.212 33.3293 26.1918C33.3868 26.1714 33.4497 26.1273 33.5177 26.0594L36.1749 23.4022C36.2428 23.3343 36.2868 23.2698 36.3072 23.2087C36.3276 23.1475 36.3157 23.0713 36.2715 22.9795L36.2053 22.8318L36.2563 22.7808L37.5544 24.0789L37.5034 24.1299L37.371 24.0791C37.2827 24.0383 37.2055 24.0273 37.1394 24.046C37.0732 24.0646 37.006 24.1079 36.9383 24.1759L34.0368 27.0774L34.8208 27.8614C34.9462 27.9869 35.0693 28.0488 35.1898 28.0471C35.31 28.0454 35.4551 28.014 35.625 27.9528L36.2513 27.7239L36.302 27.7747L35.3706 28.6151Z" fill="#104F99"/>
<path d="M42.694 21.5527L39.5937 18.4524C37.9852 16.844 35.3775 16.844 33.769 18.4524L28.1791 24.0424C27.1313 25.0902 27.6177 27.4136 28.084 28.906C28.3549 29.7729 28.125 30.718 27.4828 31.3602L26.865 31.978L29.1684 34.2814L29.7862 33.6636C30.4284 33.0214 31.3735 32.7915 32.2404 33.0624C33.733 33.5287 36.0562 34.0151 37.104 32.9673L42.694 27.3774C44.3024 25.7689 44.3024 23.1612 42.694 21.5527ZM42.0625 27.1634L36.8833 32.3426C35.9125 33.3134 33.7898 32.8927 32.4278 32.4813C32.1069 32.3997 31.705 32.4021 31.197 32.439C30.8638 32.4632 30.5361 32.3409 30.2999 32.1048L29.6707 31.4757L29.0416 30.8465C28.8053 30.6103 28.6832 30.2826 28.7074 29.9494C28.7443 29.4414 28.7466 29.0395 28.6651 28.7184C28.2537 27.3564 27.8331 25.2335 28.8038 24.2629L33.983 19.0837C35.4733 17.5934 37.8617 17.5657 39.3178 19.0217L42.1243 21.8282C43.5803 23.2847 43.5526 25.6731 42.0625 27.1634Z" fill="#104F99"/>
<path d="M23.9651 34.8718L23.0127 35.8242L25.3162 38.1277L26.2687 37.1753L23.9651 34.8718Z" fill="#104F99"/>
<path d="M22.7282 36.0742C22.0317 36.4625 21.8374 36.7884 21.8374 36.7884L23.097 38.0482L24.3569 39.3079C24.3569 39.3079 24.6828 39.1133 25.071 38.4171L22.7282 36.0742Z" fill="#104F99"/>
<path d="M16.2907 23.726C16.1295 23.7819 15.9675 23.8914 15.8046 24.0544L15.6316 24.2273L17.4948 26.0903L17.6881 25.897C17.8544 25.7307 17.9631 25.5678 18.0139 25.4083C18.0647 25.249 18.0477 25.0758 17.9629 24.8892C17.878 24.7026 17.7153 24.4888 17.4742 24.2477C17.2298 24.0034 17.0119 23.8414 16.82 23.7615C16.6284 23.6819 16.452 23.6702 16.2907 23.726Z" fill="#104F99"/>
<path d="M14.1224 19.6564L11.6418 22.137C10.3548 23.4239 10.417 25.5728 11.7809 26.9365L16.5204 31.6761C17.4087 32.5644 19.3115 32.2192 20.5304 31.8704C20.8178 31.8021 21.1793 31.8104 21.6369 31.8515C21.9368 31.8785 22.2298 31.7736 22.4386 31.5649L22.9946 31.0088L23.5506 30.4528C23.7594 30.2441 23.8642 29.9512 23.8373 29.6511C23.7961 29.1936 23.7879 28.8321 23.8562 28.5446C24.2048 27.326 24.5501 25.423 23.6618 24.5346L18.9223 19.7951C17.5582 18.4318 15.4093 18.3694 14.1224 19.6564ZM18.5687 24.1702C18.6366 24.4248 18.6112 24.7065 18.4923 25.0153C18.3736 25.3241 18.1327 25.66 17.7695 26.023L17.5965 26.196L18.5331 27.1326C18.6655 27.265 18.818 27.2854 18.9912 27.1938L19.1897 27.0868L19.2407 27.1378L17.856 28.5225L17.8051 28.4715L17.8712 28.3341C17.9188 28.246 17.933 28.1704 17.9145 28.1075C17.8959 28.0448 17.8528 27.9795 17.7847 27.9114L15.1174 25.2442C15.0495 25.1763 14.9833 25.134 14.9189 25.117C14.8544 25.1001 14.7763 25.1138 14.6847 25.1578L14.5472 25.2138L14.4962 25.1628L15.7331 23.9259C16.2387 23.4203 16.6968 23.1471 17.1076 23.1063C17.5182 23.0657 17.8745 23.1963 18.1766 23.4984C18.3701 23.6919 18.5008 23.9159 18.5687 24.1702Z" fill="#104F99"/>
<path d="M30.1208 35.8298L25.6512 31.3602C25.0089 30.718 24.779 29.7729 25.0499 28.906C25.5163 27.4136 26.0027 25.0902 24.9549 24.0424L19.3649 18.4524C17.7565 16.844 15.1487 16.844 13.5403 18.4524L10.44 21.5527C8.83153 23.1612 8.83153 25.7689 10.44 27.3776L16.0299 32.9675C17.0777 34.0153 19.4011 33.5289 20.8935 33.0626C21.7605 32.7917 22.7055 33.0216 23.3478 33.6638L27.8174 38.1334L30.1208 35.8298ZM24.4691 28.7188C24.3875 29.0397 24.3898 29.4416 24.4267 29.9496C24.451 30.2828 24.3286 30.6104 24.0925 30.8467L23.4634 31.4759L22.8343 32.105C22.598 32.3413 22.2703 32.4634 21.9371 32.4392C21.4292 32.4023 21.0273 32.3999 20.7061 32.4815C19.3442 32.8929 17.2212 33.3134 16.2506 32.3428L11.0714 27.1636C9.58111 25.6733 9.55341 23.2849 11.0095 21.8288L13.816 19.0223C15.2721 17.5662 17.6605 17.594 19.1508 19.0843L24.33 24.2634C25.301 25.2341 24.8804 27.3568 24.4691 28.7188Z" fill="#104F99"/>
<path d="M30.4056 36.0742L28.063 38.4171C28.4512 39.1133 28.7772 39.3079 28.7772 39.3079L30.0368 38.048L31.2964 36.7884C31.2964 36.7884 31.1021 36.4625 30.4056 36.0742Z" fill="#104F99"/>
</g>
<defs>
<linearGradient id="paint0_linear_39373_13656" x1="26.5669" y1="52.8164" x2="26.5669" y2="0.816406" gradientUnits="userSpaceOnUse">
<stop stop-color="#ADDCFF"/>
<stop offset="0.5028" stop-color="#EAF6FF"/>
<stop offset="1" stop-color="#EAF6FF"/>
</linearGradient>
</defs>
</svg>
