<svg width="53" height="53" viewBox="0 0 53 53" fill="none" xmlns="http://www.w3.org/2000/svg">
<rect x="0.256348" y="0.816406" width="52" height="52" rx="10" fill="url(#paint0_linear_39435_5813)"/>
<g opacity="0.5" clip-path="url(#clip0_39435_5813)">
<path d="M24.8387 16.6234C24.8387 14.7711 23.3371 13.2695 21.4848 13.2695C17.036 13.4462 17.0373 19.8013 21.4849 19.9773C23.3371 19.9773 24.8387 18.4757 24.8387 16.6234Z" fill="#104F99"/>
<path d="M36.9953 16.384C33.9192 13.3636 29.5224 12.5175 25.6968 13.8724C26.229 14.6835 26.5155 15.6319 26.5155 16.6246C26.5154 19.3985 24.2586 21.6554 21.4847 21.6555C20.5675 21.6555 19.688 21.4113 18.9198 20.9543C18.7338 21.5638 18.6028 22.1864 18.5259 22.8143L20.1295 24.4179L29.072 33.3605L30.6934 34.9818C39.5892 33.9522 43.5447 22.7818 36.9953 16.384Z" fill="#104F99"/>
<path d="M20.6998 27.3611L18.491 25.1523C18.5855 26.1806 18.8251 27.1981 19.211 28.1712C19.715 29.4424 19.4539 30.8614 18.6026 31.8757L21.6333 34.9063C22.6475 34.0551 24.0665 33.7939 25.3377 34.298C26.3109 34.6839 27.3287 34.924 28.3572 35.0186L26.1306 32.7921L20.6998 27.3611Z" fill="#104F99"/>
<path d="M20.54 36.1844L17.3243 32.9688L13.2541 36.1071C12.0521 36.9918 11.92 38.7392 12.9754 39.7946L12.983 39.8022L13.7066 40.5258L13.7141 40.5334C14.7695 41.5888 16.5169 41.4567 17.4017 40.2546L20.54 36.1844Z" fill="#104F99"/>
</g>
<defs>
<linearGradient id="paint0_linear_39435_5813" x1="26.2563" y1="52.8164" x2="26.2563" y2="0.816406" gradientUnits="userSpaceOnUse">
<stop stop-color="#ADDCFF"/>
<stop offset="0.5028" stop-color="#EAF6FF"/>
<stop offset="1" stop-color="#EAF6FF"/>
</linearGradient>
<clipPath id="clip0_39435_5813">
<rect width="28" height="28" fill="white" transform="translate(12.2563 13.2461)"/>
</clipPath>
</defs>
</svg>
