<svg width="52" height="53" viewBox="0 0 52 53" fill="none" xmlns="http://www.w3.org/2000/svg">
<rect y="0.816406" width="52" height="52" rx="10" fill="url(#paint0_linear_39378_1767)"/>
<g opacity="0.5" clip-path="url(#clip0_39378_1767)">
<path d="M26 15.2461C19.3835 15.2461 14 20.6296 14 27.2461C14 33.8626 19.3835 39.2461 26 39.2461C32.6165 39.2461 38 33.8626 38 27.2461C38 20.6296 32.6165 15.2461 26 15.2461ZM26.762 19.1446L29.8475 17.4856C31.556 18.1621 33.047 19.2706 34.181 20.6806L33.446 24.0736L31.0925 25.2271L26.762 22.0726V19.1446ZM22.178 17.4766L25.2635 19.1416V22.0726L20.936 25.2271L18.5705 24.0721L17.8355 20.6581C18.9725 19.2511 20.4665 18.1486 22.178 17.4766ZM17.345 33.1771C16.3655 31.7521 15.728 30.0766 15.5525 28.2661L18.092 25.5076L20.408 26.6401L22.1525 31.5946L20.678 33.3616L17.345 33.1771ZM28.6745 37.3876C27.818 37.6141 26.9255 37.7461 26 37.7461C24.881 37.7461 23.804 37.5661 22.7915 37.2406L21.848 34.3036L23.3525 32.4961H28.6535L30.131 34.2451L28.6745 37.3876ZM31.301 33.3106L29.8505 31.5931L31.619 26.6401L33.9245 25.5106L36.449 28.2676C36.2975 29.8291 35.795 31.2856 35.0315 32.5741L31.301 33.3106Z" fill="#104F99"/>
</g>
<defs>
<linearGradient id="paint0_linear_39378_1767" x1="26" y1="52.8164" x2="26" y2="0.816406" gradientUnits="userSpaceOnUse">
<stop stop-color="#ADDCFF"/>
<stop offset="0.5028" stop-color="#EAF6FF"/>
<stop offset="1" stop-color="#EAF6FF"/>
</linearGradient>
<clipPath id="clip0_39378_1767">
<rect width="24" height="24" fill="white" transform="translate(14 15.2461)"/>
</clipPath>
</defs>
</svg>
