<svg width="52" height="53" viewBox="0 0 52 53" fill="none" xmlns="http://www.w3.org/2000/svg">
<rect y="0.816406" width="52" height="52" rx="10" fill="url(#paint0_linear_39378_1733)"/>
<g opacity="0.5" clip-path="url(#clip0_39378_1733)">
<path d="M21.9283 36.907L21.4532 37.3821C19.9109 38.9244 17.4083 38.9278 15.866 37.3888L15.8626 37.3821C14.3202 35.843 14.3202 33.3338 15.8626 31.7949L16.3377 31.3164L21.9283 36.907Z" fill="#104F99"/>
<path d="M16.6914 30.9609L17.7559 29.8964L23.3454 35.4859L22.2809 36.5504L16.6914 30.9609Z" fill="#104F99"/>
<path d="M27.1979 21.6725L20.008 31.435L21.808 33.235L31.5706 26.0485C32.2063 25.53 32.6045 24.7738 32.6613 23.9542C32.8587 21.1806 29.1618 19.2668 27.1979 21.6725ZM26.9938 16.8278C26.9938 16.8278 26.9938 16.8278 26.9904 16.8278L26.9871 16.8213C26.2745 16.1119 25.2641 15.8074 24.2771 16.0115C23.2934 16.2155 22.4805 16.8948 22.1091 17.8282L18.1311 29.5614L19.6467 31.0771C20.2556 30.2507 20.5232 29.8893 20.6303 29.7421C20.6303 29.7421 20.6337 29.7354 20.6404 29.7287C20.6437 29.722 20.6471 29.7187 20.6504 29.7153C20.6504 29.712 20.6538 29.7086 20.6571 29.7053C20.6638 29.6986 20.6671 29.692 20.6705 29.6887V29.6853C20.6771 29.6786 20.6805 29.6753 20.6805 29.6719C20.6905 29.6585 20.6939 29.6552 20.6939 29.6552C20.9582 29.2904 22.2228 27.5808 27.2715 20.7256C28.1547 19.5445 28.0343 17.8717 26.9938 16.8278ZM36.4218 26.2559C35.3713 25.2088 33.6985 25.0884 32.5175 25.9715C25.1068 31.4318 22.7983 33.128 22.1693 33.5963L23.6816 35.1086L35.4215 31.1305C37.4089 30.3377 37.9307 27.7682 36.4218 26.2559Z" fill="#104F99"/>
</g>
<defs>
<linearGradient id="paint0_linear_39378_1733" x1="26" y1="52.8164" x2="26" y2="0.816406" gradientUnits="userSpaceOnUse">
<stop stop-color="#ADDCFF"/>
<stop offset="0.5028" stop-color="#EAF6FF"/>
<stop offset="1" stop-color="#EAF6FF"/>
</linearGradient>
<clipPath id="clip0_39378_1733">
<rect width="24" height="24" fill="white" transform="translate(14 15.2461)"/>
</clipPath>
</defs>
</svg>
