<svg width="14" height="14" viewBox="0 0 14 14" fill="none" xmlns="http://www.w3.org/2000/svg">
<path d="M7.00016 0.332031C10.6822 0.332031 13.6668 3.3167 13.6668 6.9987C13.6668 10.6807 10.6822 13.6654 7.00016 13.6654C3.31816 13.6654 0.333496 10.6807 0.333496 6.9987C0.333496 3.3167 3.31816 0.332031 7.00016 0.332031ZM7.00016 1.66536C5.58567 1.66536 4.22912 2.22727 3.22893 3.22746C2.22873 4.22766 1.66683 5.58421 1.66683 6.9987C1.66683 8.41319 2.22873 9.76974 3.22893 10.7699C4.22912 11.7701 5.58567 12.332 7.00016 12.332C8.41465 12.332 9.77121 11.7701 10.7714 10.7699C11.7716 9.76974 12.3335 8.41319 12.3335 6.9987C12.3335 5.58421 11.7716 4.22766 10.7714 3.22746C9.77121 2.22727 8.41465 1.66536 7.00016 1.66536ZM6.9935 5.66536C7.3655 5.66536 7.66683 5.9667 7.66683 6.3387V9.7547C7.79392 9.82808 7.89324 9.94134 7.94939 10.0769C8.00555 10.2125 8.0154 10.3628 7.97742 10.5046C7.93944 10.6463 7.85574 10.7716 7.73932 10.8609C7.6229 10.9503 7.48025 10.9987 7.3335 10.9987H7.00683C6.91841 10.9987 6.83085 10.9813 6.74916 10.9474C6.66746 10.9136 6.59324 10.864 6.53071 10.8015C6.46819 10.739 6.41859 10.6647 6.38475 10.583C6.35091 10.5013 6.3335 10.4138 6.3335 10.3254V6.9987C6.15669 6.9987 5.98712 6.92846 5.86209 6.80344C5.73707 6.67841 5.66683 6.50884 5.66683 6.33203C5.66683 6.15522 5.73707 5.98565 5.86209 5.86063C5.98712 5.7356 6.15669 5.66536 6.3335 5.66536H6.9935ZM7.00016 3.66536C7.17697 3.66536 7.34654 3.7356 7.47157 3.86063C7.59659 3.98565 7.66683 4.15522 7.66683 4.33203C7.66683 4.50884 7.59659 4.67841 7.47157 4.80344C7.34654 4.92846 7.17697 4.9987 7.00016 4.9987C6.82335 4.9987 6.65378 4.92846 6.52876 4.80344C6.40373 4.67841 6.3335 4.50884 6.3335 4.33203C6.3335 4.15522 6.40373 3.98565 6.52876 3.86063C6.65378 3.7356 6.82335 3.66536 7.00016 3.66536Z" fill="#171719"/>
</svg>
