<svg width="52" height="53" viewBox="0 0 52 53" fill="none" xmlns="http://www.w3.org/2000/svg">
<rect y="0.816406" width="52" height="52" rx="10" fill="url(#paint0_linear_39378_1953)"/>
<g opacity="0.5" clip-path="url(#clip0_39378_1953)">
<path d="M25.0699 34.413C25.0699 35.8961 24.5496 37.2602 23.6815 38.3322C24.1882 38.9036 24.9255 39.2477 25.7088 39.2477C26.4968 39.2477 33.4357 39.2439 34.2232 39.2439C35.3159 39.2439 36.3537 38.7714 37.0709 37.9469C37.788 37.1223 38.1124 36.0292 37.961 34.9469L37.6015 32.3767C37.4534 31.3155 36.8852 30.3967 36.0021 29.7897C35.119 29.1822 34.0577 28.9811 33.0134 29.2225L27.9926 30.3831C26.8315 30.6517 25.6545 30.0906 25.1346 29.0125C25.113 28.9647 21.8191 20.7405 21.7934 20.6758H16.1777L19.3071 28.1941C22.5255 28.4369 25.0699 31.1331 25.0699 34.413ZM27.3138 36.2041C27.3138 35.8155 27.6288 35.5009 28.017 35.5009H34.6071C34.9952 35.5009 35.3102 35.8155 35.3102 36.2041C35.3102 36.5922 34.9952 36.9072 34.6071 36.9072H28.017C27.6288 36.9072 27.3138 36.5922 27.3138 36.2041ZM27.3138 32.9547C27.3138 32.5666 27.6288 32.2516 28.017 32.2516H34.6071C34.9952 32.2516 35.3102 32.5666 35.3102 32.9547C35.3102 33.3433 34.9952 33.6578 34.6071 33.6578H28.017C27.6288 33.6578 27.3138 33.3433 27.3138 32.9547Z" fill="#104F99"/>
<path d="M14.0201 15.4917C13.9655 15.3757 14.05 15.2461 14.1752 15.2461H19.5049C19.5654 15.2461 19.6216 15.2784 19.6521 15.3295L21.2299 19.268H15.5927C15.5848 19.249 14.0293 15.5101 14.0201 15.4917Z" fill="#104F99"/>
<path d="M14.0027 34.4114C14.0027 37.0748 16.1692 39.2419 18.8332 39.2419C21.4924 39.2419 23.6636 37.079 23.6636 34.4114C23.6636 32.1276 22.0708 30.209 19.9375 29.7084C16.9075 28.994 14.0027 31.3087 14.0027 34.4114ZM20.3289 34.4334C20.3289 33.8106 21.0856 33.4939 21.5294 33.9361C21.9686 34.3769 21.6595 35.1365 21.0321 35.1365C20.6453 35.1365 20.3289 34.8237 20.3289 34.4334ZM19.6183 32.3245C19.6183 32.9533 18.8569 33.2605 18.4178 32.8214C17.9797 32.3832 18.2859 31.6214 18.9152 31.6214C19.305 31.6214 19.6183 31.9371 19.6183 32.3245ZM18.4178 36.0455C18.8578 35.6071 19.6183 35.9139 19.6183 36.5428C19.6183 37.1714 18.8576 37.4783 18.4178 37.0401C18.144 36.7653 18.1428 36.3215 18.4178 36.0455Z" fill="#104F99"/>
</g>
<defs>
<linearGradient id="paint0_linear_39378_1953" x1="26" y1="52.8164" x2="26" y2="0.816406" gradientUnits="userSpaceOnUse">
<stop stop-color="#ADDCFF"/>
<stop offset="0.5028" stop-color="#EAF6FF"/>
<stop offset="1" stop-color="#EAF6FF"/>
</linearGradient>
<clipPath id="clip0_39378_1953">
<rect width="24" height="24" fill="white" transform="translate(14 15.2461)"/>
</clipPath>
</defs>
</svg>
