<svg width="68" height="69" viewBox="0 0 68 69" fill="none" xmlns="http://www.w3.org/2000/svg">
<path d="M47.6502 1.94922H20.3502C18.6072 1.94922 17.2002 3.35622 17.2002 5.09922V63.8992C17.2002 65.6422 18.6072 67.0492 20.3502 67.0492H47.6502C49.3932 67.0492 50.8002 65.6422 50.8002 63.8992V5.09922C50.8002 3.35622 49.3932 1.94922 47.6502 1.94922Z" fill="url(#paint0_linear_40688_26461)"/>
<path d="M20.56 61.8C19.2864 61.8 18.25 60.8581 18.25 59.7V5.1C18.25 3.94185 19.1918 3 20.35 3H47.65C48.8081 3 49.75 3.94185 49.75 5.1V59.7C49.75 60.8581 48.7136 61.8 47.44 61.8H20.56Z" fill="url(#paint1_linear_40688_26461)"/>
<path d="M33.9999 14.5508C40.9614 14.5508 46.5999 20.1893 46.5999 27.1508C46.5999 34.1123 40.9614 39.7508 33.9999 39.7508C27.0384 39.7508 21.3999 34.1123 21.3999 27.1508C21.3999 20.1893 27.0384 14.5508 33.9999 14.5508ZM40.7934 23.3708C41.2869 22.6778 41.1504 21.6908 40.4889 21.1658C40.2264 20.9558 39.9114 20.8508 39.5964 20.8508C39.1449 20.8508 38.6934 21.0713 38.3994 21.4808L32.4354 29.8808L29.0754 28.1063C28.8549 27.9908 28.6344 27.9383 28.4034 27.9383C27.8574 27.9383 27.3324 28.2533 27.0699 28.8098C26.7024 29.5868 26.9964 30.5318 27.7419 30.9203L32.2149 33.2828C32.4249 33.3983 32.6559 33.4508 32.8764 33.4508C33.3384 33.4508 33.7794 33.2303 34.0734 32.8208L40.7934 23.3708Z" fill="white"/>
<path d="M42.4001 53.4016V56.5516C42.4001 57.1291 41.9276 57.6016 41.3501 57.6016H26.6501C26.0726 57.6016 25.6001 57.1291 25.6001 56.5516V53.4016C25.6001 52.8241 26.0726 52.3516 26.6501 52.3516H41.3501C41.9276 52.3516 42.4001 52.8241 42.4001 53.4016Z" fill="white"/>
<path d="M40.4886 21.1666C41.1501 21.6916 41.2866 22.6786 40.7931 23.3716L34.0731 32.8216C33.7791 33.2311 33.3381 33.4516 32.8761 33.4516C32.6556 33.4516 32.4246 33.3991 32.2146 33.2836L27.7416 30.9211C26.9961 30.5326 26.7021 29.5876 27.0696 28.8106C27.3321 28.2541 27.8571 27.9391 28.4031 27.9391C28.6341 27.9391 28.8546 27.9916 29.0751 28.1071L32.4351 29.8816L38.3991 21.4816C38.6931 21.0721 39.1446 20.8516 39.5961 20.8516C39.9111 20.8516 40.2261 20.9566 40.4886 21.1666Z" fill="#59EFD2"/>
<path d="M40.2999 10.35H27.6999C27.1203 10.35 26.6499 9.8796 26.6499 9.3C26.6499 8.7204 27.1203 8.25 27.6999 8.25H40.2999C40.8795 8.25 41.3499 8.7204 41.3499 9.3C41.3499 9.8796 40.8795 10.35 40.2999 10.35Z" fill="white"/>
<path d="M42.3998 47.1H25.5998C25.0202 47.1 24.5498 46.6296 24.5498 46.05C24.5498 45.4704 25.0202 45 25.5998 45H42.3998C42.9794 45 43.4498 45.4704 43.4498 46.05C43.4498 46.6296 42.9794 47.1 42.3998 47.1Z" fill="white"/>
<path d="M20.1127 6.96039C21.7948 6.69369 21.6951 3.38829 20.0098 3.65604C18.3277 3.92274 18.4275 7.22814 20.1127 6.96039Z" fill="#59EFD2"/>
<path d="M20.0845 8.64882C20.9256 8.51547 20.7198 7.20822 19.8766 7.34157C19.0366 7.47492 19.2424 8.78217 20.0845 8.64882Z" fill="#59EFD2"/>
<defs>
<linearGradient id="paint0_linear_40688_26461" x1="25.6002" y1="8.45922" x2="63.8332" y2="43.9789" gradientUnits="userSpaceOnUse">
<stop offset="0.0453246" stop-color="#175BE9"/>
<stop offset="1" stop-color="#2CD0FE"/>
</linearGradient>
<linearGradient id="paint1_linear_40688_26461" x1="26.125" y1="8.88" x2="60.7288" y2="42.2479" gradientUnits="userSpaceOnUse">
<stop offset="0.0453246" stop-color="#175BE9"/>
<stop offset="1" stop-color="#2CD0FE"/>
</linearGradient>
</defs>
</svg>
