<svg width="20" height="20" viewBox="0 0 20 20" fill="none" xmlns="http://www.w3.org/2000/svg">
<path d="M13.695 2.5C13.96 2.50005 14.2211 2.56328 14.4568 2.68444C14.6924 2.80559 14.8958 2.98119 15.05 3.19667L15.1242 3.30917L17.1442 6.67583C17.3432 7.00784 17.4625 7.38155 17.4925 7.7675L17.5 7.96167V15.8333C17.5001 16.2538 17.3413 16.6588 17.0554 16.9671C16.7695 17.2754 16.3776 17.4643 15.9583 17.4958L15.8333 17.5H4.16667C3.74619 17.5001 3.34119 17.3413 3.03288 17.0554C2.72456 16.7695 2.5357 16.3776 2.50417 15.9583L2.5 15.8333V7.96167C2.50003 7.57406 2.59018 7.19178 2.76333 6.845L2.85667 6.675L4.875 3.30917C5.01134 3.08179 5.19995 2.89022 5.42517 2.75035C5.6504 2.61049 5.90574 2.52638 6.17 2.505L6.305 2.5H13.695ZM15.8333 8.33333H4.16667V15.8333H15.8333V8.33333ZM9.16667 4.16667H6.305L4.805 6.66667H9.16667V4.16667ZM13.695 4.16667H10.8333V6.66667H15.195L13.695 4.16667Z" fill="#171719"/>
</svg>
