<svg width="40" height="26" viewBox="0 0 40 26" fill="none" xmlns="http://www.w3.org/2000/svg">
<path d="M24.6875 0.109375V25.8906H1.17188C0.524687 25.8906 0 25.3659 0 24.7188V20.8125C0 20.4437 0.173672 20.0963 0.46875 19.875C1.15359 19.3613 1.5625 18.5436 1.5625 17.6875C1.5625 16.8314 1.15359 16.0137 0.46875 15.5C0.323212 15.3908 0.205086 15.2493 0.123726 15.0866C0.0423663 14.9239 6.06377e-06 14.7444 0 14.5625L0 11.4375C0 11.0687 0.173672 10.7213 0.46875 10.5C1.15359 9.98633 1.5625 9.16859 1.5625 8.3125C1.5625 7.45641 1.15359 6.63867 0.46875 6.125C0.323212 6.01584 0.205086 5.87429 0.123726 5.71157C0.0423663 5.54885 6.06377e-06 5.36943 0 5.1875L0 1.28125C0 0.634062 0.524687 0.109375 1.17188 0.109375H24.6875ZM35.2344 10.6562C35.2344 10.0091 34.7097 9.48438 34.0625 9.48438H29.375C28.7278 9.48438 28.2031 10.0091 28.2031 10.6562C28.2031 11.3034 28.7278 11.8281 29.375 11.8281H34.0625C34.7097 11.8281 35.2344 11.3034 35.2344 10.6562ZM35.2344 5.96875C35.2344 5.32156 34.7097 4.79688 34.0625 4.79688H29.375C28.7278 4.79688 28.2031 5.32156 28.2031 5.96875C28.2031 6.61594 28.7278 7.14062 29.375 7.14062H34.0625C34.7097 7.14062 35.2344 6.61594 35.2344 5.96875ZM35.2344 15.3438C35.2344 14.6966 34.7097 14.1719 34.0625 14.1719H29.375C28.7278 14.1719 28.2031 14.6966 28.2031 15.3438C28.2031 15.9909 28.7278 16.5156 29.375 16.5156H34.0625C34.7097 16.5156 35.2344 15.9909 35.2344 15.3438ZM35.2344 20.0312C35.2344 19.3841 34.7097 18.8594 34.0625 18.8594H29.375C28.7278 18.8594 28.2031 19.3841 28.2031 20.0312C28.2031 20.6784 28.7278 21.2031 29.375 21.2031H34.0625C34.7097 21.2031 35.2344 20.6784 35.2344 20.0312Z" fill="#F97316"/>
<path d="M38.4375 8.3125C38.4375 9.16859 38.8464 9.98633 39.5312 10.5C39.8263 10.7213 40 11.0687 40 11.4375V14.5625C40 14.9313 39.8263 15.2787 39.5312 15.5C38.8464 16.0137 38.4375 16.8314 38.4375 17.6875C38.4375 18.5436 38.8464 19.3613 39.5312 19.875C39.8263 20.0963 40 20.4437 40 20.8125V24.7188C40 25.3659 39.4753 25.8906 38.8281 25.8906H24.6875V0.109375H38.8281C39.4753 0.109375 40 0.634062 40 1.28125V5.1875C40 5.55633 39.8263 5.90367 39.5312 6.125C38.8464 6.63867 38.4375 7.45641 38.4375 8.3125ZM35.2344 20.0312C35.2344 19.3841 34.7097 18.8594 34.0625 18.8594H29.375C28.7278 18.8594 28.2031 19.3841 28.2031 20.0312C28.2031 20.6784 28.7278 21.2031 29.375 21.2031H34.0625C34.7097 21.2031 35.2344 20.6784 35.2344 20.0312ZM35.2344 15.3438C35.2344 14.6966 34.7097 14.1719 34.0625 14.1719H29.375C28.7278 14.1719 28.2031 14.6966 28.2031 15.3438C28.2031 15.9909 28.7278 16.5156 29.375 16.5156H34.0625C34.7097 16.5156 35.2344 15.9909 35.2344 15.3438ZM35.2344 10.6562C35.2344 10.0091 34.7097 9.48438 34.0625 9.48438H29.375C28.7278 9.48438 28.2031 10.0091 28.2031 10.6562C28.2031 11.3034 28.7278 11.8281 29.375 11.8281H34.0625C34.7097 11.8281 35.2344 11.3034 35.2344 10.6562ZM35.2344 5.96875C35.2344 5.32156 34.7097 4.79688 34.0625 4.79688H29.375C28.7278 4.79688 28.2031 5.32156 28.2031 5.96875C28.2031 6.61594 28.7278 7.14062 29.375 7.14062H34.0625C34.7097 7.14062 35.2344 6.61594 35.2344 5.96875Z" fill="white"/>
<g clip-path="url(#clip0_39557_20609)">
<path d="M19.8899 14.2647C20.5881 10.3092 17.9475 6.53672 13.9921 5.83855C10.0366 5.14038 6.26407 7.78095 5.5659 11.7364C4.86774 15.6919 7.5083 19.4644 11.4638 20.1626C15.4192 20.8608 19.1918 18.2202 19.8899 14.2647Z" fill="url(#paint0_linear_39557_20609)"/>
<path d="M12.7279 14.3577C13.4782 14.3577 14.0852 13.7496 14.0852 13.0004C14.0852 12.2512 13.4771 11.6431 12.7279 11.6431C11.9788 11.6431 11.3707 12.2512 11.3707 13.0004C11.3707 13.7496 11.9788 14.3577 12.7279 14.3577ZM8.39851 8.94563C7.85452 9.37954 7.71131 10.1063 8.08003 10.569C8.44874 11.0307 9.1883 11.0532 9.73336 10.6193C10.2773 10.1854 10.4206 9.45863 10.0518 8.99586C9.68313 8.53417 8.94356 8.51173 8.39851 8.94563ZM9.73336 15.3826C9.18937 14.9487 8.44874 14.9701 8.08003 15.4328C7.71131 15.8945 7.85452 16.6213 8.39851 17.0562C8.94249 17.4902 9.68313 17.4688 10.0518 17.006C10.4206 16.5443 10.2773 15.8176 9.73336 15.3826ZM15.7225 10.6193C16.2665 11.0532 17.0072 11.0318 17.3759 10.569C17.7446 10.1073 17.6014 9.38061 17.0574 8.94563C16.5134 8.51066 15.7728 8.5331 15.4041 8.99586C15.0353 9.45756 15.1785 10.1843 15.7225 10.6193ZM15.7225 15.3826C15.1785 15.8165 15.0353 16.5433 15.4041 17.006C15.7728 17.4677 16.5123 17.4902 17.0574 17.0562C17.6014 16.6223 17.7446 15.8956 17.3759 15.4328C17.0072 14.9711 16.2676 14.9487 15.7225 15.3826ZM12.7279 6.38281C11.982 6.38281 11.3781 6.76008 11.3781 7.22391C11.3781 7.68774 11.983 8.065 12.7279 8.065C13.4729 8.065 14.0778 7.68774 14.0778 7.22391C14.0778 6.76008 13.4729 6.38281 12.7279 6.38281ZM12.7279 17.9358C11.982 17.9358 11.3781 18.3131 11.3781 18.7769C11.3781 19.2407 11.983 19.618 12.7279 19.618C13.4729 19.618 14.0778 19.2407 14.0778 18.7769C14.0778 18.3131 13.4729 17.9358 12.7279 17.9358ZM6.95144 11.6506C6.48655 11.6506 6.11035 12.2555 6.11035 13.0004C6.11035 13.7453 6.48761 14.3502 6.95144 14.3502C7.41527 14.3502 7.79254 13.7453 7.79254 13.0004C7.79254 12.2555 7.41527 11.6506 6.95144 11.6506ZM18.5044 11.6506C18.0395 11.6506 17.6634 12.2555 17.6634 13.0004C17.6634 13.7453 18.0406 14.3502 18.5044 14.3502C18.9683 14.3502 19.3455 13.7453 19.3455 13.0004C19.3455 12.2555 18.9683 11.6506 18.5044 11.6506Z" fill="url(#paint1_linear_39557_20609)"/>
<path d="M7.19284 11.707C7.37452 11.955 7.48888 12.3226 7.48888 12.7352C7.48888 13.4811 7.11161 14.085 6.64778 14.085C6.56335 14.085 6.48213 14.0647 6.40625 14.0273C6.55267 14.2282 6.7429 14.35 6.9513 14.35C7.4162 14.35 7.7924 13.7451 7.7924 13.0002C7.7924 12.39 7.53911 11.8738 7.19284 11.707Z" fill="white"/>
<path d="M9.73327 15.3838C9.69801 15.3549 9.6606 15.3293 9.62426 15.3047C10.0037 15.7407 10.0689 16.3403 9.7493 16.7421C9.40517 17.1739 8.73615 17.2209 8.20605 16.8715C8.26377 16.9377 8.32789 16.9997 8.3995 17.0574C8.94348 17.4913 9.68411 17.4699 10.0528 17.0072C10.4215 16.5455 10.2783 15.8187 9.73434 15.3838H9.73327Z" fill="white"/>
<path d="M9.77177 8.76279C10.1106 9.22555 9.96308 9.92984 9.43085 10.3541C9.00228 10.6961 8.45296 10.7538 8.05859 10.538C8.06607 10.5486 8.07249 10.5593 8.08104 10.5689C8.44975 11.0306 9.18931 11.0531 9.73437 10.6192C10.2784 10.1853 10.4216 9.45853 10.0528 8.99577C9.97483 8.89745 9.87865 8.8205 9.77177 8.76172V8.76279Z" fill="white"/>
<path d="M13.7755 6.95848C13.7755 7.42338 13.1706 7.79957 12.4257 7.79957C12.0666 7.79957 11.7406 7.71194 11.498 7.56873C11.7097 7.86049 12.1799 8.06462 12.7282 8.06462C13.4741 8.06462 14.078 7.68736 14.078 7.22353C14.078 6.98306 13.9145 6.76611 13.6548 6.61328C13.7306 6.71909 13.7744 6.83558 13.7744 6.95848H13.7755Z" fill="url(#paint2_linear_39557_20609)"/>
<path d="M17.0725 10.3046C16.7284 10.7364 16.0594 10.7834 15.5293 10.4339C15.587 10.5002 15.6511 10.5622 15.7227 10.6199C16.2667 11.0538 17.0074 11.0324 17.3761 10.5697C17.7448 10.108 17.6016 9.38125 17.0576 8.94627C17.0223 8.91742 16.9849 8.89177 16.9486 8.86719C17.328 9.30323 17.3932 9.90279 17.0736 10.3046H17.0725Z" fill="white"/>
<path d="M13.6539 18.168C13.7297 18.2738 13.7736 18.3903 13.7736 18.5132C13.7736 18.9781 13.1687 19.3543 12.4238 19.3543C12.0647 19.3543 11.7387 19.2666 11.4961 19.1234C11.7077 19.4152 12.1779 19.6193 12.7262 19.6193C13.4722 19.6193 14.076 19.242 14.076 18.7782C14.076 18.5378 13.9125 18.3208 13.6528 18.168H13.6539Z" fill="white"/>
<path d="M17.095 15.2003C17.4338 15.663 17.2863 16.3673 16.7541 16.7916C16.3255 17.1336 15.7762 17.1913 15.3818 16.9755C15.3893 16.9861 15.3957 16.9968 15.4043 17.0064C15.773 17.4681 16.5126 17.4906 17.0576 17.0567C17.6016 16.6228 17.7448 15.896 17.3761 15.4333C17.2981 15.3349 17.2019 15.258 17.095 15.1992V15.2003Z" fill="white"/>
<path d="M18.7456 11.707C18.9273 11.955 19.0416 12.3226 19.0416 12.7352C19.0416 13.4811 18.6643 14.085 18.2005 14.085C18.1161 14.085 18.0349 14.0647 17.959 14.0273C18.1054 14.2282 18.2956 14.35 18.504 14.35C18.9689 14.35 19.3451 13.7451 19.3451 13.0002C19.3451 12.39 19.0918 11.8738 18.7456 11.707Z" fill="white"/>
<path d="M13.4611 11.8594C13.6621 12.0956 13.7828 12.4012 13.7828 12.7357C13.7828 13.486 13.1747 14.093 12.4255 14.093C12.1551 14.093 11.904 14.0129 11.6924 13.8771C11.9414 14.171 12.3122 14.3581 12.728 14.3581C13.4782 14.3581 14.0853 13.75 14.0853 13.0008C14.0853 12.5209 13.8363 12.1009 13.4601 11.8594H13.4611Z" fill="white"/>
</g>
<defs>
<linearGradient id="paint0_linear_39557_20609" x1="19.8899" y1="14.2647" x2="5.5659" y2="11.7364" gradientUnits="userSpaceOnUse">
<stop stop-color="#FFC39D"/>
<stop offset="0.997" stop-color="white"/>
</linearGradient>
<linearGradient id="paint1_linear_39557_20609" x1="12.7279" y1="19.618" x2="12.7279" y2="6.38281" gradientUnits="userSpaceOnUse">
<stop stop-color="#EA580C"/>
<stop offset="1" stop-color="#FDBA74"/>
</linearGradient>
<linearGradient id="paint2_linear_39557_20609" x1="12.788" y1="8.06462" x2="12.788" y2="6.61328" gradientUnits="userSpaceOnUse">
<stop stop-color="#EA580C"/>
<stop offset="1" stop-color="#FDBA74"/>
</linearGradient>
<clipPath id="clip0_39557_20609">
<rect width="14.5455" height="14.5455" fill="white" transform="translate(5.45508 5.72656)"/>
</clipPath>
</defs>
</svg>
