<svg width="12" height="12" viewBox="0 0 12 12" fill="none" xmlns="http://www.w3.org/2000/svg">
<path fill-rule="evenodd" clip-rule="evenodd" d="M10.5959 2.73233C10.6896 2.82609 10.7422 2.95325 10.7422 3.08583C10.7422 3.21841 10.6896 3.34557 10.5959 3.43933L4.97485 9.06083C4.92378 9.11193 4.86313 9.15247 4.79639 9.18012C4.72964 9.20778 4.6581 9.22201 4.58585 9.22201C4.5136 9.22201 4.44206 9.20778 4.37532 9.18012C4.30857 9.15247 4.24793 9.11193 4.19685 9.06083L1.40385 6.26783C1.3574 6.22138 1.32055 6.16623 1.29541 6.10553C1.27026 6.04483 1.25732 5.97978 1.25732 5.91408C1.25732 5.84838 1.27026 5.78333 1.29541 5.72263C1.32055 5.66194 1.3574 5.60679 1.40385 5.56033C1.45031 5.51388 1.50546 5.47703 1.56615 5.45188C1.62685 5.42674 1.6919 5.4138 1.7576 5.4138C1.8233 5.4138 1.88835 5.42674 1.94905 5.45188C2.00975 5.47703 2.0649 5.51388 2.11135 5.56033L4.58635 8.03533L9.88835 2.73233C9.98212 2.6386 10.1093 2.58594 10.2419 2.58594C10.3744 2.58594 10.5021 2.6386 10.5959 2.73233Z" fill="#15AF77"/>
</svg>
