<svg width="14" height="14" viewBox="0 0 14 14" fill="none" xmlns="http://www.w3.org/2000/svg">
<path d="M6.99992 0.332031C10.6819 0.332031 13.6666 3.3167 13.6666 6.9987C13.6666 10.6807 10.6819 13.6654 6.99992 13.6654C3.31792 13.6654 0.333252 10.6807 0.333252 6.9987C0.333252 3.3167 3.31792 0.332031 6.99992 0.332031ZM6.99992 1.66536C5.58543 1.66536 4.22888 2.22727 3.22868 3.22746C2.22849 4.22766 1.66659 5.58421 1.66659 6.9987C1.66659 8.41319 2.22849 9.76974 3.22868 10.7699C4.22888 11.7701 5.58543 12.332 6.99992 12.332C8.41441 12.332 9.77096 11.7701 10.7712 10.7699C11.7713 9.76974 12.3333 8.41319 12.3333 6.9987C12.3333 5.58421 11.7713 4.22766 10.7712 3.22746C9.77096 2.22727 8.41441 1.66536 6.99992 1.66536ZM6.99992 2.9987C7.16321 2.99872 7.32081 3.05867 7.44283 3.16717C7.56486 3.27568 7.64281 3.4252 7.66192 3.58736L7.66659 3.66536V6.7227L9.47125 8.52736C9.59082 8.64734 9.66023 8.80832 9.6654 8.97762C9.67057 9.14692 9.61111 9.31184 9.49909 9.43888C9.38706 9.56593 9.23088 9.64557 9.06227 9.66163C8.89365 9.67769 8.72525 9.62897 8.59125 9.52536L8.52859 9.47003L6.52859 7.47003C6.42497 7.36633 6.35843 7.23137 6.33925 7.08603L6.33325 6.9987V3.66536C6.33325 3.48855 6.40349 3.31898 6.52851 3.19396C6.65354 3.06894 6.82311 2.9987 6.99992 2.9987Z" fill="#171719"/>
</svg>
