<svg width="16" height="16" viewBox="0 0 16 16" fill="none" xmlns="http://www.w3.org/2000/svg">
<path d="M8.6665 2.66667C8.6665 2.48986 8.59627 2.32029 8.47124 2.19526C8.34622 2.07024 8.17665 2 7.99984 2C7.82303 2 7.65346 2.07024 7.52843 2.19526C7.40341 2.32029 7.33317 2.48986 7.33317 2.66667V3.33333H6.33317C5.62593 3.33333 4.94765 3.61428 4.44755 4.11438C3.94746 4.61448 3.6665 5.29276 3.6665 6C3.6665 6.70724 3.94746 7.38552 4.44755 7.88562C4.94765 8.38572 5.62593 8.66667 6.33317 8.66667H9.6665C10.0201 8.66667 10.3593 8.80714 10.6093 9.05719C10.8594 9.30724 10.9998 9.64638 10.9998 10C10.9998 10.3536 10.8594 10.6928 10.6093 10.9428C10.3593 11.1929 10.0201 11.3333 9.6665 11.3333H4.6665C4.48969 11.3333 4.32012 11.4036 4.1951 11.5286C4.07008 11.6536 3.99984 11.8232 3.99984 12C3.99984 12.1768 4.07008 12.3464 4.1951 12.4714C4.32012 12.5964 4.48969 12.6667 4.6665 12.6667H7.33317V13.3333C7.33317 13.5101 7.40341 13.6797 7.52843 13.8047C7.65346 13.9298 7.82303 14 7.99984 14C8.17665 14 8.34622 13.9298 8.47124 13.8047C8.59627 13.6797 8.6665 13.5101 8.6665 13.3333V12.6667H9.6665C10.3737 12.6667 11.052 12.3857 11.5521 11.8856C12.0522 11.3855 12.3332 10.7072 12.3332 10C12.3332 9.29276 12.0522 8.61448 11.5521 8.11438C11.052 7.61428 10.3737 7.33333 9.6665 7.33333H6.33317C5.97955 7.33333 5.64041 7.19286 5.39036 6.94281C5.14031 6.69276 4.99984 6.35362 4.99984 6C4.99984 5.64638 5.14031 5.30724 5.39036 5.05719C5.64041 4.80714 5.97955 4.66667 6.33317 4.66667H11.3332C11.51 4.66667 11.6796 4.59643 11.8046 4.4714C11.9296 4.34638 11.9998 4.17681 11.9998 4C11.9998 3.82319 11.9296 3.65362 11.8046 3.5286C11.6796 3.40357 11.51 3.33333 11.3332 3.33333H8.6665V2.66667Z" fill="#6A6A73"/>
</svg>
