<svg width="24" height="24" viewBox="0 0 24 24" fill="none" xmlns="http://www.w3.org/2000/svg">
<path d="M23.9844 13.4899C23.9999 13.4202 23.9962 13.3476 23.9736 13.2799C23.6993 9.31674 20.4199 6.23291 16.4474 6.20246C15.1215 1.75806 10.4438 -0.770084 5.99936 0.555786C1.55492 1.88166 -0.973177 6.5594 0.352643 11.0038C1.05073 13.3438 2.73274 15.2641 4.96044 16.2642C4.17256 16.6857 3.44062 17.2043 2.78169 17.8078L1.64051 18.8538C1.15192 19.3016 1.11882 20.0606 1.56661 20.5492C1.61666 20.6038 1.67166 20.6537 1.73091 20.6981L3.01728 21.6629C4.86894 23.0458 7.11694 23.7951 9.42794 23.7997H10.5727C12.8835 23.7949 15.1312 23.0456 16.9826 21.6629L17.4354 21.3233C21.199 20.8136 24.0049 17.5979 24 13.7999C24 13.6951 23.9884 13.5935 23.9844 13.4899ZM21.8869 9.79997C22.6109 10.7862 23.0533 11.9506 23.1668 13.1687L22.8276 13.3383L20.8637 12.0291L21.5017 9.79997H21.8869ZM19.1805 7.60203C19.9368 7.94077 20.6251 8.41451 21.2117 8.99999H21.2001C21.0215 9.00014 20.8646 9.11864 20.8157 9.29039L20.0661 11.9135L18.7809 12.5063L16.8002 11.1859V9.60838L19.0297 8.04841C19.1716 7.94817 19.2325 7.76782 19.1805 7.60203ZM10.1455 9.49318C10.1026 9.52823 10.0675 9.57183 10.0423 9.62118C10.0377 9.63548 10.0338 9.65003 10.0307 9.66478L8.96595 8.6L10.2367 7.32923C10.5747 7.63652 10.9371 7.91582 11.3203 8.16441H11.3195C10.8779 8.5603 10.484 9.00619 10.1455 9.49318ZM9.61913 10.384C9.16554 11.2815 8.8961 12.2607 8.82675 13.2639C8.45671 12.2166 7.88087 11.2538 7.13319 10.4324L8.39956 9.16439L9.61913 10.384ZM10.5635 10.3288L10.8835 10.4888L11.5291 12.1023L9.92032 13.7131L9.61153 13.5587C9.65078 12.4189 9.97832 11.3076 10.5635 10.3288ZM9.82113 14.5559C9.97512 14.6327 10.1611 14.6025 10.2827 14.4807L12.0963 12.6675L13.6694 13.2967L14.4154 15.9074C14.4227 15.9277 14.4318 15.9472 14.4426 15.9658C13.0485 15.3283 11.5333 14.9989 10.0003 14.9999C9.90592 14.9999 9.81193 15.0039 9.71753 15.0063L9.71673 15.0043C9.68473 14.8251 9.65433 14.6443 9.63673 14.4635L9.82113 14.5559ZM13.9534 12.5503L12.3079 11.8919L11.5719 10.052C11.5355 9.96082 11.4669 9.88622 11.3791 9.84237L11.0191 9.66158C11.7033 8.77105 12.5966 8.06296 13.6198 7.60002C13.5678 7.76577 13.6288 7.94617 13.7706 8.04641L16.0002 9.60838V11.1859L13.9534 12.5503ZM16.4002 11.8799L18.2937 13.1451C18.2969 13.1535 18.2961 13.1623 18.3001 13.1707C18.3075 13.1845 18.3158 13.1979 18.3249 13.2107L17.6985 15.3998H15.1018L14.465 13.1707L16.4002 11.8799ZM18.2213 7.25523V7.25723L18.3253 7.56563L16.4002 8.91159L14.475 7.56363L14.579 7.25523C15.7693 6.91499 17.0311 6.91499 18.2213 7.25523ZM15.625 6.24006C14.3091 6.37615 13.052 6.85574 11.9799 7.63082C11.5607 7.38003 11.1666 7.08949 10.8031 6.76324L14.0474 3.52012C14.7574 4.30675 15.2948 5.23323 15.625 6.24006ZM13.477 2.95733L10.2371 6.19726C9.10454 4.94154 8.42461 3.34302 8.30556 1.65616L8.25916 1.01058C10.1826 0.972926 12.0483 1.66901 13.477 2.95733ZM7.46158 1.06897L7.50758 1.71296C7.63963 3.59217 8.40161 5.37188 9.67033 6.76444L8.40036 8.03441L3.32367 2.95733C4.4761 1.9176 5.92097 1.25822 7.46158 1.06897ZM2.75809 3.52292L7.83477 8.6L6.568 9.86677C5.17413 8.59855 3.39327 7.83752 1.51332 7.70682L0.868931 7.66082C1.05843 6.12016 1.71806 4.67529 2.75809 3.52292ZM0.810932 8.45881L1.45652 8.5048C3.14383 8.6227 4.74329 9.30149 6.00041 10.4332L2.75689 13.6771C1.46892 12.248 0.773133 10.3823 0.810932 8.45881ZM3.31807 14.2483L6.568 10.9999C7.59873 12.1484 8.25356 13.5846 8.44476 15.1159C7.59133 15.2409 6.7563 15.4692 5.95801 15.7958C4.98244 15.4638 4.08436 14.9374 3.31807 14.2483ZM17.8453 20.0085C17.8286 20.0267 17.8103 20.0433 17.7905 20.0582L16.5022 21.0234C14.7895 22.3023 12.7102 22.9953 10.5727 22.9997H9.42794C7.29043 22.9953 5.21118 22.3023 3.49847 21.0234L2.2117 20.0582C2.03495 19.9256 1.9991 19.6749 2.13165 19.4982C2.14645 19.4785 2.1631 19.4601 2.1813 19.4434L3.32048 18.3974C4.13481 17.6552 5.06769 17.0547 6.08041 16.6207C6.14116 16.6093 6.19841 16.584 6.24761 16.5467C9.78933 15.0839 13.8578 15.8056 16.6802 18.3974L17.8209 19.4434C17.9837 19.5927 17.9947 19.8457 17.8453 20.0085ZM17.219 17.8078C16.5258 17.173 15.7519 16.6324 14.9174 16.1998H17.8345L18.7145 17.0798L17.9937 18.5198L17.219 17.8078ZM18.6429 20.2161C18.8046 19.8683 18.7807 19.4626 18.5793 19.1362L19.4473 17.3998H21.7529L21.9308 17.7558C21.1159 18.8964 19.9671 19.7561 18.6429 20.2161ZM22.4228 16.953L22.36 16.821C22.2919 16.6848 22.1524 16.599 22 16.5998H19.3657L18.4493 15.6834L19.1545 13.2151L20.3645 12.6571L22.578 14.1327C22.6972 14.2121 22.8498 14.2217 22.978 14.1579L23.1872 14.0531C23.1522 15.0647 22.891 16.0556 22.4228 16.953Z" fill="#1B84FF"/>
</svg>
