<svg width="40" height="40" viewBox="0 0 40 40" fill="none" xmlns="http://www.w3.org/2000/svg">
<g clip-path="url(#clip0_40702_19737)">
<path d="M18.75 23.5924H0V8.35801C0 7.71082 0.524687 7.18613 1.17188 7.18613H17.5781C18.2253 7.18613 18.75 7.71082 18.75 8.35801V23.5924ZM18.75 23.5924H36.3281C36.9753 23.5924 37.5 24.1171 37.5 24.7643V38.8268C37.5 39.4739 36.9753 39.9986 36.3281 39.9986H18.75V23.5924ZM31.5838 11.3742L35.7505 7.20754C36.2082 6.74988 36.2082 6.00793 35.7505 5.55027C35.2929 5.09262 34.5509 5.09262 34.0933 5.55027L30.7552 8.88832L29.5005 7.63363C29.0429 7.17598 28.3009 7.17598 27.8433 7.63363C27.3856 8.09129 27.3856 8.83324 27.8433 9.2909L29.9266 11.3743C30.3842 11.8318 31.1262 11.8318 31.5838 11.3742ZM10.5961 29.9762L9.375 28.9993L8.15391 29.9762C7.38664 30.59 6.25 30.0437 6.25 29.0611V23.5924H12.5V29.0611C12.5 30.0437 11.3634 30.59 10.5961 29.9762Z" fill="url(#paint0_linear_40702_19737)" fill-opacity="0.4"/>
<path d="M12.5 23.5938V29.0625C12.5 30.0452 11.3634 30.5914 10.5961 29.9776L9.375 29.0007L8.15391 29.9776C7.38664 30.5914 6.25 30.0451 6.25 29.0625V23.5938H0V38.8281C0 39.4753 0.524687 40 1.17188 40H18.75V23.5938H12.5ZM10.5961 13.5713L9.375 12.5945L8.15391 13.5713C7.38664 14.1852 6.25 13.6388 6.25 12.6562V7.1875H12.5V12.6562C12.5 13.6388 11.3634 14.1852 10.5961 13.5713ZM25 29.0625V23.5938H31.25V29.0625C31.25 30.0452 30.1134 30.5914 29.3461 29.9776L28.125 29.0007L26.9039 29.9776C26.1366 30.5914 25 30.0451 25 29.0625ZM31.7969 0C27.2737 0 23.5938 3.67992 23.5938 8.20312C23.5938 12.7263 27.2737 16.4062 31.7969 16.4062C36.3201 16.4062 40 12.7263 40 8.20312C40 3.67992 36.3201 0 31.7969 0ZM35.7505 7.20891L31.5838 11.3755C31.1262 11.8332 30.3842 11.8332 29.9266 11.3755L27.8432 9.29219C27.3855 8.83453 27.3855 8.09258 27.8432 7.63492C28.3009 7.17727 29.0428 7.17727 29.5005 7.63492L30.7552 8.88961L34.0932 5.55156C34.5509 5.09391 35.2928 5.09391 35.7505 5.55156C36.2082 6.00922 36.2082 6.75125 35.7505 7.20891Z" fill="url(#paint1_linear_40702_19737)"/>
</g>
<defs>
<linearGradient id="paint0_linear_40702_19737" x1="18.75" y1="39.9986" x2="18.75" y2="5.20699" gradientUnits="userSpaceOnUse">
<stop stop-color="#2DD8FF"/>
<stop offset="0.9973" stop-color="#2DD8FF" stop-opacity="0.1"/>
</linearGradient>
<linearGradient id="paint1_linear_40702_19737" x1="20" y1="40" x2="20" y2="0" gradientUnits="userSpaceOnUse">
<stop stop-color="#1B84FF"/>
<stop offset="1" stop-color="#2DD8FF"/>
</linearGradient>
<clipPath id="clip0_40702_19737">
<rect width="40" height="40" fill="white"/>
</clipPath>
</defs>
</svg>
