<svg width="40" height="40" viewBox="0 0 40 40" fill="none" xmlns="http://www.w3.org/2000/svg">
<path d="M24.6875 7.10938V32.8906H1.17188C0.524687 32.8906 0 32.3659 0 31.7188V27.8125C0 27.4437 0.173672 27.0963 0.46875 26.875C1.15359 26.3613 1.5625 25.5436 1.5625 24.6875C1.5625 23.8314 1.15359 23.0137 0.46875 22.5C0.323212 22.3908 0.205086 22.2493 0.123726 22.0866C0.0423663 21.9239 6.06377e-06 21.7444 0 21.5625L0 18.4375C0 18.0687 0.173672 17.7213 0.46875 17.5C1.15359 16.9863 1.5625 16.1686 1.5625 15.3125C1.5625 14.4564 1.15359 13.6387 0.46875 13.125C0.323212 13.0158 0.205086 12.8743 0.123726 12.7116C0.0423663 12.5489 6.06377e-06 12.3694 0 12.1875L0 8.28125C0 7.63406 0.524687 7.10938 1.17188 7.10938H24.6875ZM35.2344 17.6562C35.2344 17.0091 34.7097 16.4844 34.0625 16.4844H29.375C28.7278 16.4844 28.2031 17.0091 28.2031 17.6562C28.2031 18.3034 28.7278 18.8281 29.375 18.8281H34.0625C34.7097 18.8281 35.2344 18.3034 35.2344 17.6562ZM35.2344 12.9688C35.2344 12.3216 34.7097 11.7969 34.0625 11.7969H29.375C28.7278 11.7969 28.2031 12.3216 28.2031 12.9688C28.2031 13.6159 28.7278 14.1406 29.375 14.1406H34.0625C34.7097 14.1406 35.2344 13.6159 35.2344 12.9688ZM35.2344 22.3438C35.2344 21.6966 34.7097 21.1719 34.0625 21.1719H29.375C28.7278 21.1719 28.2031 21.6966 28.2031 22.3438C28.2031 22.9909 28.7278 23.5156 29.375 23.5156H34.0625C34.7097 23.5156 35.2344 22.9909 35.2344 22.3438ZM35.2344 27.0312C35.2344 26.3841 34.7097 25.8594 34.0625 25.8594H29.375C28.7278 25.8594 28.2031 26.3841 28.2031 27.0312C28.2031 27.6784 28.7278 28.2031 29.375 28.2031H34.0625C34.7097 28.2031 35.2344 27.6784 35.2344 27.0312Z" fill="url(#paint0_linear_40702_20169)"/>
<path d="M38.4375 15.3125C38.4375 16.1686 38.8464 16.9863 39.5312 17.5C39.8263 17.7213 40 18.0687 40 18.4375V21.5625C40 21.9313 39.8263 22.2787 39.5312 22.5C38.8464 23.0137 38.4375 23.8314 38.4375 24.6875C38.4375 25.5436 38.8464 26.3613 39.5312 26.875C39.8263 27.0963 40 27.4437 40 27.8125V31.7188C40 32.3659 39.4753 32.8906 38.8281 32.8906H24.6875V7.10938H38.8281C39.4753 7.10938 40 7.63406 40 8.28125V12.1875C40 12.5563 39.8263 12.9037 39.5312 13.125C38.8464 13.6387 38.4375 14.4564 38.4375 15.3125ZM35.2344 27.0312C35.2344 26.3841 34.7097 25.8594 34.0625 25.8594H29.375C28.7278 25.8594 28.2031 26.3841 28.2031 27.0312C28.2031 27.6784 28.7278 28.2031 29.375 28.2031H34.0625C34.7097 28.2031 35.2344 27.6784 35.2344 27.0312ZM35.2344 22.3438C35.2344 21.6966 34.7097 21.1719 34.0625 21.1719H29.375C28.7278 21.1719 28.2031 21.6966 28.2031 22.3438C28.2031 22.9909 28.7278 23.5156 29.375 23.5156H34.0625C34.7097 23.5156 35.2344 22.9909 35.2344 22.3438ZM35.2344 17.6562C35.2344 17.0091 34.7097 16.4844 34.0625 16.4844H29.375C28.7278 16.4844 28.2031 17.0091 28.2031 17.6562C28.2031 18.3034 28.7278 18.8281 29.375 18.8281H34.0625C34.7097 18.8281 35.2344 18.3034 35.2344 17.6562ZM35.2344 12.9688C35.2344 12.3216 34.7097 11.7969 34.0625 11.7969H29.375C28.7278 11.7969 28.2031 12.3216 28.2031 12.9688C28.2031 13.6159 28.7278 14.1406 29.375 14.1406H34.0625C34.7097 14.1406 35.2344 13.6159 35.2344 12.9688Z" fill="#1B84FF" fill-opacity="0.1"/>
<g clip-path="url(#clip0_40702_20169)">
<path d="M19.8899 21.2647C20.5881 17.3092 17.9475 13.5367 13.9921 12.8385C10.0366 12.1404 6.26407 14.7809 5.5659 18.7364C4.86774 22.6919 7.5083 26.4644 11.4638 27.1626C15.4192 27.8608 19.1918 25.2202 19.8899 21.2647Z" fill="url(#paint1_linear_40702_20169)"/>
<path d="M12.7279 21.3577C13.4782 21.3577 14.0852 20.7496 14.0852 20.0004C14.0852 19.2512 13.4771 18.6431 12.7279 18.6431C11.9788 18.6431 11.3707 19.2512 11.3707 20.0004C11.3707 20.7496 11.9788 21.3577 12.7279 21.3577ZM8.39851 15.9456C7.85452 16.3795 7.71131 17.1063 8.08003 17.569C8.44874 18.0307 9.1883 18.0532 9.73336 17.6193C10.2773 17.1854 10.4206 16.4586 10.0518 15.9959C9.68313 15.5342 8.94356 15.5117 8.39851 15.9456ZM9.73336 22.3826C9.18937 21.9487 8.44874 21.9701 8.08003 22.4328C7.71131 22.8945 7.85452 23.6213 8.39851 24.0562C8.94249 24.4902 9.68313 24.4688 10.0518 24.006C10.4206 23.5443 10.2773 22.8176 9.73336 22.3826ZM15.7225 17.6193C16.2665 18.0532 17.0072 18.0318 17.3759 17.569C17.7446 17.1073 17.6014 16.3806 17.0574 15.9456C16.5134 15.5107 15.7728 15.5331 15.4041 15.9959C15.0353 16.4576 15.1785 17.1843 15.7225 17.6193ZM15.7225 22.3826C15.1785 22.8165 15.0353 23.5433 15.4041 24.006C15.7728 24.4677 16.5123 24.4902 17.0574 24.0562C17.6014 23.6223 17.7446 22.8956 17.3759 22.4328C17.0072 21.9711 16.2676 21.9487 15.7225 22.3826ZM12.7279 13.3828C11.982 13.3828 11.3781 13.7601 11.3781 14.2239C11.3781 14.6877 11.983 15.065 12.7279 15.065C13.4729 15.065 14.0778 14.6877 14.0778 14.2239C14.0778 13.7601 13.4729 13.3828 12.7279 13.3828ZM12.7279 24.9358C11.982 24.9358 11.3781 25.3131 11.3781 25.7769C11.3781 26.2407 11.983 26.618 12.7279 26.618C13.4729 26.618 14.0778 26.2407 14.0778 25.7769C14.0778 25.3131 13.4729 24.9358 12.7279 24.9358ZM6.95144 18.6506C6.48655 18.6506 6.11035 19.2555 6.11035 20.0004C6.11035 20.7453 6.48761 21.3502 6.95144 21.3502C7.41527 21.3502 7.79254 20.7453 7.79254 20.0004C7.79254 19.2555 7.41527 18.6506 6.95144 18.6506ZM18.5044 18.6506C18.0395 18.6506 17.6634 19.2555 17.6634 20.0004C17.6634 20.7453 18.0406 21.3502 18.5044 21.3502C18.9683 21.3502 19.3455 20.7453 19.3455 20.0004C19.3455 19.2555 18.9683 18.6506 18.5044 18.6506Z" fill="url(#paint2_linear_40702_20169)"/>
<path d="M7.19284 18.707C7.37452 18.955 7.48888 19.3226 7.48888 19.7352C7.48888 20.4811 7.11161 21.085 6.64778 21.085C6.56335 21.085 6.48213 21.0647 6.40625 21.0273C6.55267 21.2282 6.7429 21.35 6.9513 21.35C7.4162 21.35 7.7924 20.7451 7.7924 20.0002C7.7924 19.39 7.53911 18.8738 7.19284 18.707Z" fill="white"/>
<path d="M9.73327 22.3838C9.69801 22.3549 9.6606 22.3293 9.62426 22.3047C10.0037 22.7407 10.0689 23.3403 9.7493 23.7421C9.40517 24.1739 8.73615 24.2209 8.20605 23.8715C8.26377 23.9377 8.32789 23.9997 8.3995 24.0574C8.94348 24.4913 9.68411 24.4699 10.0528 24.0072C10.4215 23.5455 10.2783 22.8187 9.73434 22.3838H9.73327Z" fill="white"/>
<path d="M9.77177 15.7628C10.1106 16.2255 9.96308 16.9298 9.43085 17.3541C9.00228 17.6961 8.45296 17.7538 8.05859 17.538C8.06607 17.5486 8.07249 17.5593 8.08104 17.5689C8.44975 18.0306 9.18931 18.0531 9.73437 17.6192C10.2784 17.1853 10.4216 16.4585 10.0528 15.9958C9.97483 15.8974 9.87865 15.8205 9.77177 15.7617V15.7628Z" fill="white"/>
<path d="M17.0725 17.3046C16.7284 17.7364 16.0594 17.7834 15.5293 17.4339C15.587 17.5002 15.6511 17.5622 15.7227 17.6199C16.2667 18.0538 17.0074 18.0324 17.3761 17.5697C17.7448 17.108 17.6016 16.3812 17.0576 15.9463C17.0223 15.9174 16.9849 15.8918 16.9486 15.8672C17.328 16.3032 17.3932 16.9028 17.0736 17.3046H17.0725Z" fill="white"/>
<path d="M13.6539 25.168C13.7297 25.2738 13.7736 25.3903 13.7736 25.5132C13.7736 25.9781 13.1687 26.3543 12.4238 26.3543C12.0647 26.3543 11.7387 26.2666 11.4961 26.1234C11.7077 26.4152 12.1779 26.6193 12.7262 26.6193C13.4722 26.6193 14.076 26.242 14.076 25.7782C14.076 25.5378 13.9125 25.3208 13.6528 25.168H13.6539Z" fill="white"/>
<path d="M17.095 22.2003C17.4338 22.663 17.2863 23.3673 16.7541 23.7916C16.3255 24.1336 15.7762 24.1913 15.3818 23.9755C15.3893 23.9861 15.3957 23.9968 15.4043 24.0064C15.773 24.4681 16.5126 24.4906 17.0576 24.0567C17.6016 23.6228 17.7448 22.896 17.3761 22.4333C17.2981 22.3349 17.2019 22.258 17.095 22.1992V22.2003Z" fill="white"/>
<path d="M18.7456 18.707C18.9273 18.955 19.0416 19.3226 19.0416 19.7352C19.0416 20.4811 18.6643 21.085 18.2005 21.085C18.1161 21.085 18.0349 21.0647 17.959 21.0273C18.1054 21.2282 18.2956 21.35 18.504 21.35C18.9689 21.35 19.3451 20.7451 19.3451 20.0002C19.3451 19.39 19.0918 18.8738 18.7456 18.707Z" fill="white"/>
<path d="M13.4611 18.8594C13.6621 19.0956 13.7828 19.4012 13.7828 19.7357C13.7828 20.486 13.1747 21.093 12.4255 21.093C12.1551 21.093 11.904 21.0129 11.6924 20.8771C11.9414 21.171 12.3122 21.3581 12.728 21.3581C13.4782 21.3581 14.0853 20.75 14.0853 20.0008C14.0853 19.5209 13.8363 19.1009 13.4601 18.8594H13.4611Z" fill="white"/>
</g>
<defs>
<linearGradient id="paint0_linear_40702_20169" x1="8.80859" y1="9.6875" x2="19.4015" y2="35.746" gradientUnits="userSpaceOnUse">
<stop offset="0.0453246" stop-color="#175BE9"/>
<stop offset="1" stop-color="#2CD0FE"/>
</linearGradient>
<linearGradient id="paint1_linear_40702_20169" x1="19.8899" y1="21.2647" x2="5.5659" y2="18.7364" gradientUnits="userSpaceOnUse">
<stop stop-color="#2DD8FF"/>
<stop offset="0.997" stop-color="white"/>
</linearGradient>
<linearGradient id="paint2_linear_40702_20169" x1="12.7279" y1="26.618" x2="12.7279" y2="13.3828" gradientUnits="userSpaceOnUse">
<stop stop-color="#1B84FF"/>
<stop offset="1" stop-color="#2DD8FF"/>
</linearGradient>
<clipPath id="clip0_40702_20169">
<rect width="14.5455" height="14.5455" fill="white" transform="translate(5.45508 12.7266)"/>
</clipPath>
</defs>
</svg>
