<svg width="12" height="12" viewBox="0 0 12 12" fill="none" xmlns="http://www.w3.org/2000/svg">
<path fill-rule="evenodd" clip-rule="evenodd" d="M10.6667 6.68453e-08C11.0031 -0.000106386 11.327 0.126938 11.5737 0.355665C11.8204 0.584392 11.9714 0.897897 11.9967 1.23333L12 1.33333V10.6667C12.0001 11.0031 11.8731 11.327 11.6443 11.5737C11.4156 11.8204 11.1021 11.9714 10.7667 11.9967L10.6667 12H1.33333C0.996949 12.0001 0.672956 11.8731 0.426301 11.6443C0.179647 11.4156 0.0285623 11.1021 0.00333348 10.7667L6.68453e-08 10.6667V1.33333C-0.000106386 0.996949 0.126938 0.672956 0.355665 0.426301C0.584392 0.179647 0.897897 0.0285623 1.23333 0.00333348L1.33333 6.68453e-08H10.6667ZM10.6667 1.33333H6.66667V10.6667H10.6667V1.33333ZM5.33333 8.66667H1.33333V10.6667H5.33333V8.66667ZM5.33333 4.66667H1.33333V7.33333H5.33333V4.66667ZM5.33333 1.33333H1.33333V3.33333H5.33333V1.33333Z" fill="#171719"/>
</svg>
