<svg width="40" height="40" viewBox="0 0 40 40" fill="none" xmlns="http://www.w3.org/2000/svg">
<path d="M36.6582 3.19922L34.9207 3.87422C34.3707 4.08672 33.7957 4.19505 33.2082 4.19505H22.5541C22.2832 4.19505 22.0124 4.23672 21.7541 4.32422L16.2416 6.16172C15.9249 6.26589 15.6791 6.50755 15.5666 6.82422C15.4541 7.14088 15.4957 7.48255 15.6749 7.76588C15.9416 8.18255 16.4541 8.36172 16.9207 8.20755L21.5916 6.64922C21.9332 6.53672 22.2916 6.47839 22.6541 6.47839H25.3957C25.5957 6.47839 25.7666 6.62005 25.8041 6.81589C25.8416 7.01172 25.7374 7.20755 25.5541 7.28255L22.8457 8.39505C22.5957 8.49922 22.3999 8.69089 22.2999 8.94505C22.1999 9.19505 22.2041 9.47005 22.3124 9.72005C22.5291 10.2117 23.1082 10.4451 23.6082 10.2367L25.4416 9.47005C26.3916 9.07422 27.3916 8.87005 28.4207 8.87005H33.8749C34.6957 8.87005 35.3624 8.20338 35.3624 7.38255V7.10755C35.3624 6.95338 35.4499 6.81172 35.5874 6.73672L37.4582 5.75755L36.6582 3.20755V3.19922Z" fill="#2DD8FF"/>
<path d="M16.0293 18.1779C16.9168 18.1779 17.6376 17.4571 17.6376 16.5696C17.6376 15.6821 16.9168 14.9613 16.0293 14.9613C15.1418 14.9613 14.4209 15.6821 14.4209 16.5696C14.4209 17.4571 15.1418 18.1779 16.0293 18.1779Z" fill="url(#paint0_linear_40714_19794)"/>
<path d="M16.0292 19.0107C10.0542 19.0107 5.17083 23.7649 4.95416 29.6857H27.1083C26.8917 23.7607 22.0083 19.0107 16.0333 19.0107H16.0292Z" fill="url(#paint1_linear_40714_19794)"/>
<path d="M28.5876 31.6029C28.5876 31.007 28.1042 30.5195 27.5042 30.5195H4.55841C3.96258 30.5195 3.47508 31.0029 3.47508 31.6029V32.3904H28.5876V31.6029Z" fill="url(#paint2_linear_40714_19794)"/>
<path d="M14.3709 33.223H17.6917V34.098H14.3709V33.223Z" fill="url(#paint3_linear_40714_19794)"/>
<path d="M27.6792 34.932H4.37925C3.36675 34.932 2.54175 35.757 2.54175 36.7695V36.7986H29.5167V36.7695C29.5167 35.757 28.6917 34.932 27.6792 34.932Z" fill="url(#paint4_linear_40714_19794)"/>
<path d="M16.45 12.2112V10.3112C16.45 10.082 16.2625 9.89453 16.0334 9.89453C15.8042 9.89453 15.6167 10.082 15.6167 10.3112V12.2112C15.6167 12.4404 15.8042 12.6279 16.0334 12.6279C16.2625 12.6279 16.45 12.4404 16.45 12.2112Z" fill="url(#paint5_linear_40714_19794)"/>
<path d="M20.2084 11.9448L18.9501 13.1198C18.7834 13.2781 18.7751 13.5406 18.9293 13.7073C19.0126 13.7948 19.1209 13.8406 19.2334 13.8406C19.3376 13.8406 19.4376 13.8031 19.5168 13.7281L20.7751 12.5531C20.9418 12.3948 20.9501 12.1323 20.7959 11.9656C20.6376 11.7989 20.3751 11.7906 20.2084 11.9448Z" fill="url(#paint6_linear_40714_19794)"/>
<path d="M20.1584 16.6938C20.1417 16.923 20.3167 17.123 20.5459 17.1396L22.0917 17.2438C22.0917 17.2438 22.1126 17.2438 22.1209 17.2438C22.3376 17.2438 22.5209 17.0771 22.5376 16.8563C22.5542 16.6271 22.3792 16.4271 22.1501 16.4105L20.6042 16.3063C20.3667 16.2938 20.1751 16.4646 20.1584 16.6938Z" fill="url(#paint7_linear_40714_19794)"/>
<path d="M12.7292 13.8982C12.8084 13.9732 12.9125 14.0107 13.0125 14.0107C13.125 14.0107 13.2334 13.9649 13.3167 13.8774C13.475 13.7107 13.4625 13.4441 13.2959 13.2899L11.85 11.9399C11.6792 11.7816 11.4167 11.7941 11.2625 11.9607C11.1042 12.1274 11.1167 12.3941 11.2834 12.5482L12.7292 13.8982Z" fill="url(#paint8_linear_40714_19794)"/>
<path d="M9.93756 17.2494C9.93756 17.2494 9.95839 17.2494 9.96673 17.2494L11.8709 17.1202C12.1001 17.1035 12.2751 16.9077 12.2584 16.6785C12.2417 16.4494 12.0417 16.2702 11.8126 16.291L9.90839 16.4202C9.67923 16.4369 9.50423 16.6327 9.52089 16.8619C9.53756 17.0827 9.72089 17.2494 9.93756 17.2494Z" fill="url(#paint9_linear_40714_19794)"/>
<defs>
<linearGradient id="paint0_linear_40714_19794" x1="16" y1="38.5" x2="16.0626" y2="10.5001" gradientUnits="userSpaceOnUse">
<stop stop-color="#175BE9"/>
<stop offset="0.67591" stop-color="#2CD0FE"/>
</linearGradient>
<linearGradient id="paint1_linear_40714_19794" x1="16" y1="38.5" x2="16.0626" y2="10.5001" gradientUnits="userSpaceOnUse">
<stop stop-color="#175BE9"/>
<stop offset="0.67591" stop-color="#2CD0FE"/>
</linearGradient>
<linearGradient id="paint2_linear_40714_19794" x1="16" y1="38.5" x2="16.0626" y2="10.5001" gradientUnits="userSpaceOnUse">
<stop stop-color="#175BE9"/>
<stop offset="0.67591" stop-color="#2CD0FE"/>
</linearGradient>
<linearGradient id="paint3_linear_40714_19794" x1="16" y1="38.5" x2="16.0626" y2="10.5001" gradientUnits="userSpaceOnUse">
<stop stop-color="#175BE9"/>
<stop offset="0.67591" stop-color="#2CD0FE"/>
</linearGradient>
<linearGradient id="paint4_linear_40714_19794" x1="16" y1="38.5" x2="16.0626" y2="10.5001" gradientUnits="userSpaceOnUse">
<stop stop-color="#175BE9"/>
<stop offset="0.67591" stop-color="#2CD0FE"/>
</linearGradient>
<linearGradient id="paint5_linear_40714_19794" x1="16" y1="38.5" x2="16.0626" y2="10.5001" gradientUnits="userSpaceOnUse">
<stop stop-color="#175BE9"/>
<stop offset="0.67591" stop-color="#2CD0FE"/>
</linearGradient>
<linearGradient id="paint6_linear_40714_19794" x1="16" y1="38.5" x2="16.0626" y2="10.5001" gradientUnits="userSpaceOnUse">
<stop stop-color="#175BE9"/>
<stop offset="0.67591" stop-color="#2CD0FE"/>
</linearGradient>
<linearGradient id="paint7_linear_40714_19794" x1="16" y1="38.5" x2="16.0626" y2="10.5001" gradientUnits="userSpaceOnUse">
<stop stop-color="#175BE9"/>
<stop offset="0.67591" stop-color="#2CD0FE"/>
</linearGradient>
<linearGradient id="paint8_linear_40714_19794" x1="16" y1="38.5" x2="16.0626" y2="10.5001" gradientUnits="userSpaceOnUse">
<stop stop-color="#175BE9"/>
<stop offset="0.67591" stop-color="#2CD0FE"/>
</linearGradient>
<linearGradient id="paint9_linear_40714_19794" x1="16" y1="38.5" x2="16.0626" y2="10.5001" gradientUnits="userSpaceOnUse">
<stop stop-color="#175BE9"/>
<stop offset="0.67591" stop-color="#2CD0FE"/>
</linearGradient>
</defs>
</svg>
