<svg width="24" height="24" viewBox="0 0 24 24" fill="none" xmlns="http://www.w3.org/2000/svg">
<g clip-path="url(#clip0_39367_8841)">
<path d="M23.6479 1.82848C23.3116 1.63457 22.8814 1.74993 22.6873 2.08629L18.1727 9.91259L17.5608 9.55938C17.2244 9.36511 16.7943 9.48046 16.6002 9.81683L13.9127 14.4716C13.7062 14.3531 13.4865 14.2507 13.2541 14.1672L5.20424 11.2722C4.23818 10.9246 3.19136 10.9999 2.25679 11.4838C1.29366 11.9826 0.577163 12.8619 0.290786 13.8964C-0.236375 15.802 -0.0481429 17.7902 0.866653 19.975C1.47603 21.4305 2.83485 22.3347 4.41304 22.3347H12.0751C13.3319 22.3347 14.4456 21.7126 15.1266 20.761C15.1688 20.7186 20.2544 11.9266 20.2544 11.9266C20.3478 11.7651 20.3731 11.5732 20.3247 11.393C20.2764 11.2128 20.1587 11.0592 19.9972 10.966L19.3909 10.6159L23.9059 2.78924C24.0998 2.45269 23.9845 2.02257 23.6479 1.82848ZM17.4666 11.1291L18.6847 11.8325L17.9813 13.0507L16.7633 12.3473L17.4666 11.1291ZM15.0024 15.3972L16.06 13.5654L17.2782 14.2687L15.7401 16.9327C15.6167 16.3661 15.3629 15.8434 15.0024 15.3972ZM12.0751 20.928H4.41304C3.39717 20.928 2.55635 20.3687 2.16396 19.4317C1.37587 17.5492 1.2065 15.8613 1.6465 14.2714C1.82869 13.613 2.28682 13.0523 2.90352 12.733C3.24757 12.5546 3.61434 12.4647 3.97908 12.4647C4.23232 12.4647 4.485 12.5081 4.72817 12.5956L12.7782 15.4907C13.7904 15.8547 14.4194 16.7119 14.4194 17.7275V18.5837C14.4194 19.8765 13.3678 20.928 12.0751 20.928Z" fill="#5053D9"/>
<path d="M12.3253 17.4102H4.02655C3.63818 17.4102 3.32324 17.7249 3.32324 18.1133C3.32324 18.5018 3.63818 18.8166 4.02655 18.8166H12.3253C12.7136 18.8166 13.0286 18.5018 13.0286 18.1133C13.0286 17.7249 12.7138 17.4102 12.3253 17.4102Z" fill="#5053D9"/>
<path d="M4.02655 16.0043H7.15253C7.54108 16.0043 7.85584 15.6893 7.85584 15.301C7.85584 14.9126 7.54108 14.5977 7.15253 14.5977H4.02655C3.63818 14.5977 3.32324 14.9126 3.32324 15.301C3.32324 15.6893 3.63818 16.0043 4.02655 16.0043Z" fill="#5053D9"/>
</g>
<defs>
<clipPath id="clip0_39367_8841">
<rect width="24" height="24" fill="white"/>
</clipPath>
</defs>
</svg>
