<svg width="16" height="16" viewBox="0 0 16 16" fill="none" xmlns="http://www.w3.org/2000/svg">
<path fill-rule="evenodd" clip-rule="evenodd" d="M13.3333 8.66537V11.9987C13.3333 12.5291 13.1226 13.0378 12.7475 13.4129C12.3725 13.788 11.8638 13.9987 11.3333 13.9987H8.66667V8.66537H13.3333ZM7.33333 8.66537V13.9987H4.66667C4.13623 13.9987 3.62753 13.788 3.25245 13.4129C2.87738 13.0378 2.66667 12.5291 2.66667 11.9987V8.66537H7.33333ZM6 1.33203C6.37839 1.33158 6.75252 1.41187 7.09741 1.56753C7.44231 1.72319 7.75002 1.95064 8 2.2347C8.24999 1.95064 8.5577 1.72319 8.90259 1.56753C9.24748 1.41187 9.62161 1.33158 10 1.33203H10.3333C10.5986 1.33203 10.8529 1.43739 11.0404 1.62493C11.228 1.81246 11.3333 2.06682 11.3333 2.33203V2.66537C11.3333 3.15137 11.2033 3.6067 10.9767 3.9987H12.6667C13.0203 3.9987 13.3594 4.13918 13.6095 4.38922C13.8595 4.63927 14 4.97841 14 5.33203V6.66537C14 6.90803 13.9353 7.13603 13.8213 7.33203H8.66667V5.33203C8.66667 5.15522 8.59643 4.98565 8.47141 4.86063C8.34638 4.7356 8.17681 4.66537 8 4.66537C7.82319 4.66537 7.65362 4.7356 7.5286 4.86063C7.40357 4.98565 7.33333 5.15522 7.33333 5.33203V7.33203H2.17867C2.06134 7.12947 1.9997 6.89946 2 6.66537V5.33203C2 4.97841 2.14048 4.63927 2.39053 4.38922C2.64057 4.13918 2.97971 3.9987 3.33333 3.9987H5.02333C4.78897 3.59348 4.66592 3.13348 4.66667 2.66537V2.33203C4.66667 2.06682 4.77202 1.81246 4.95956 1.62493C5.1471 1.43739 5.40145 1.33203 5.66667 1.33203H6ZM6 2.66537C6 3.01899 6.14048 3.35813 6.39053 3.60818C6.64057 3.85822 6.97971 3.9987 7.33333 3.9987C7.33333 3.64508 7.19286 3.30594 6.94281 3.05589C6.69276 2.80584 6.35362 2.66537 6 2.66537ZM10 2.66537C9.64638 2.66537 9.30724 2.80584 9.05719 3.05589C8.80714 3.30594 8.66667 3.64508 8.66667 3.9987C9.02029 3.9987 9.35943 3.85822 9.60948 3.60818C9.85952 3.35813 10 3.01899 10 2.66537Z" fill="#84CC16"/>
</svg>
