<svg width="18" height="18" viewBox="0 0 18 18" fill="none" xmlns="http://www.w3.org/2000/svg">
<path d="M15.6522 9.37252C15.6522 8.90736 15.6072 8.4272 15.5322 7.97705H9.03497V10.6329H12.7562C12.6062 11.4882 12.111 12.2385 11.3758 12.7186L13.5965 14.4442C14.9019 13.2288 15.6522 11.4582 15.6522 9.37252Z" fill="#4280EF"/>
<path d="M9.0361 16.0946C10.8967 16.0946 12.4573 15.4794 13.5976 14.429L11.3769 12.7185C10.7617 13.1386 9.96642 13.3787 9.0361 13.3787C7.2355 13.3787 5.71999 12.1633 5.1648 10.5427L2.88403 12.2983C4.05443 14.6241 6.42523 16.0946 9.0361 16.0946Z" fill="#34A353"/>
<path d="M5.16424 10.5277C4.87915 9.67241 4.87915 8.74209 5.16424 7.88681L2.88347 6.11621C1.90815 8.06687 1.90815 10.3626 2.88347 12.2983L5.16424 10.5277Z" fill="#F6B704"/>
<path d="M9.03611 5.05101C10.0114 5.036 10.9718 5.41113 11.677 6.08635L13.6427 4.10569C12.3972 2.93529 10.7467 2.30508 9.03611 2.32009C6.42523 2.32009 4.05443 3.79058 2.88403 6.11636L5.1648 7.88696C5.71999 6.25141 7.2355 5.05101 9.03611 5.05101Z" fill="#E54335"/>
</svg>
