<svg width="18" height="17" viewBox="0 0 18 17" fill="none" xmlns="http://www.w3.org/2000/svg">
<path fill-rule="evenodd" clip-rule="evenodd" d="M9.82343 1.24178C9.53086 1.01419 9.17076 0.890625 8.80009 0.890625C8.42943 0.890625 8.06933 1.01419 7.77676 1.24178L0.790095 6.67512C0.163428 7.16428 0.508428 8.16845 1.30259 8.16845H2.13343V14.8351C2.13343 15.2771 2.30902 15.7011 2.62158 16.0136C2.93414 16.3262 3.35807 16.5018 3.80009 16.5018H7.96676V10.6684C7.96676 10.4474 8.05456 10.2355 8.21084 10.0792C8.36712 9.92291 8.57908 9.83512 8.80009 9.83512C9.02111 9.83512 9.23307 9.92291 9.38935 10.0792C9.54563 10.2355 9.63343 10.4474 9.63343 10.6684V16.5018H13.8001C14.2421 16.5018 14.666 16.3262 14.9786 16.0136C15.2912 15.7011 15.4668 15.2771 15.4668 14.8351V8.16845H16.2976C17.0909 8.16845 17.4376 7.16428 16.8101 6.67595L9.82343 1.24178Z" fill="#1B84FF"/>
</svg>
