<svg width="12" height="12" viewBox="0 0 12 12" fill="none" xmlns="http://www.w3.org/2000/svg">
<path fill-rule="evenodd" clip-rule="evenodd" d="M9.24703 1.90052C10.2945 2.51102 11.0315 3.75052 10.999 5.19652C10.9585 7.00152 9.55403 8.59352 7.15953 10.0155C6.80453 10.2265 6.43053 10.5 6.00003 10.5C5.57753 10.5 5.18753 10.2215 4.84003 10.015C2.44653 8.59352 1.04153 7.00102 1.00103 5.19652C0.968534 3.75052 1.70553 2.51152 2.75303 1.90052C3.73303 1.33002 4.96403 1.32652 6.00003 2.16902C7.03603 1.32652 8.26703 1.32952 9.24703 1.90052ZM8.74353 2.76502C8.04653 2.35902 7.17553 2.37352 6.42153 3.13652C6.36632 3.19212 6.30065 3.23625 6.22831 3.26636C6.15597 3.29648 6.07839 3.31198 6.00003 3.31198C5.92168 3.31198 5.84409 3.29648 5.77175 3.26636C5.69941 3.23625 5.63375 3.19212 5.57853 3.13652C4.82453 2.37352 3.95353 2.35902 3.25653 2.76502C2.53453 3.18602 1.97653 4.07902 2.00103 5.17502C2.02903 6.43052 3.02103 7.77202 5.35103 9.15602C5.55503 9.27752 5.76803 9.43302 6.00003 9.49752C6.23203 9.43302 6.44503 9.27752 6.64903 9.15602C8.97903 7.77202 9.97103 6.43102 9.99903 5.17452C10.024 4.07952 9.46553 3.18602 8.74353 2.76502Z" fill="#1B84FF"/>
</svg>
