<svg width="46" height="48" viewBox="0 0 46 48" fill="none" xmlns="http://www.w3.org/2000/svg">
<path d="M40.5 7.5C41.7614 7.4996 42.9764 7.97602 43.9014 8.83374C44.8263 9.69147 45.3929 10.8671 45.4875 12.125L45.5 12.5V42.5C45.5004 43.7614 45.024 44.9764 44.1663 45.9014C43.3085 46.8263 42.1329 47.3929 40.875 47.4875L40.5 47.5H5.5C4.23856 47.5004 3.02358 47.024 2.09863 46.1663C1.17368 45.3085 0.607109 44.1329 0.512501 42.875L0.5 42.5V12.5C0.499601 11.2386 0.976016 10.0236 1.83374 9.09863C2.69147 8.17368 3.86711 7.60711 5.125 7.5125L5.5 7.5H40.5ZM40.5 12.5H5.5V42.5H7.825L28.595 21.73C29.181 21.1445 29.9754 20.8157 30.8037 20.8157C31.6321 20.8157 32.4265 21.1445 33.0125 21.73L40.5 29.215V12.5ZM30.8025 26.59L14.8925 42.5H40.5V36.2875L30.8025 26.59ZM14.25 17.5C15.2446 17.5 16.1984 17.8951 16.9017 18.5983C17.6049 19.3016 18 20.2554 18 21.25C18 22.2446 17.6049 23.1984 16.9017 23.9017C16.1984 24.6049 15.2446 25 14.25 25C13.2554 25 12.3016 24.6049 11.5983 23.9017C10.8951 23.1984 10.5 22.2446 10.5 21.25C10.5 20.2554 10.8951 19.3016 11.5983 18.5983C12.3016 17.8951 13.2554 17.5 14.25 17.5ZM38 0C38.663 0 39.2989 0.263392 39.7678 0.732233C40.2366 1.20107 40.5 1.83696 40.5 2.5C40.5 3.16304 40.2366 3.79893 39.7678 4.26777C39.2989 4.73661 38.663 5 38 5H8C7.33696 5 6.70107 4.73661 6.23223 4.26777C5.76339 3.79893 5.5 3.16304 5.5 2.5C5.5 1.83696 5.76339 1.20107 6.23223 0.732233C6.70107 0.263392 7.33696 0 8 0H38Z" fill="#1B84FF"/>
</svg>
