<svg width="16" height="16" viewBox="0 0 16 16" fill="none" xmlns="http://www.w3.org/2000/svg">
<path d="M4.82549 11.3403C4.94546 11.2207 5.10645 11.1513 5.27575 11.1461C5.44504 11.141 5.60996 11.2004 5.73701 11.3125C5.86405 11.4245 5.94369 11.5807 5.95975 11.7493C5.97582 11.9179 5.9271 12.0863 5.82349 12.2203L5.76816 12.283L4.23616 13.815C4.09091 13.96 3.89725 14.0463 3.6923 14.0574C3.48734 14.0685 3.28551 14.0035 3.12549 13.875L3.05749 13.815L2.23282 12.9896C2.11326 12.8697 2.04384 12.7087 2.03867 12.5394C2.0335 12.3701 2.09297 12.2052 2.20499 12.0781C2.31701 11.9511 2.47319 11.8714 2.64181 11.8554C2.81042 11.8393 2.97883 11.888 3.11282 11.9916L3.17549 12.047L3.64682 12.5183L4.82549 11.3396V11.3403ZM13.3335 11.9983C13.5103 11.9983 13.6799 12.0685 13.8049 12.1936C13.9299 12.3186 14.0002 12.4882 14.0002 12.665C14.0002 12.8418 13.9299 13.0113 13.8049 13.1364C13.6799 13.2614 13.5103 13.3316 13.3335 13.3316H7.33349C7.15668 13.3316 6.98711 13.2614 6.86208 13.1364C6.73706 13.0113 6.66682 12.8418 6.66682 12.665C6.66682 12.4882 6.73706 12.3186 6.86208 12.1936C6.98711 12.0685 7.15668 11.9983 7.33349 11.9983H13.3335ZM5.76816 6.67296C5.83014 6.73488 5.87931 6.8084 5.91286 6.88934C5.94641 6.97027 5.96368 7.05702 5.96368 7.14463C5.96368 7.23224 5.94641 7.31899 5.91286 7.39992C5.87931 7.48085 5.83014 7.55438 5.76816 7.6163L4.23616 9.1483C4.15877 9.2257 4.0669 9.2871 3.96578 9.329C3.86466 9.37089 3.75628 9.39245 3.64682 9.39245C3.53737 9.39245 3.42899 9.37089 3.32787 9.329C3.22675 9.2871 3.13487 9.2257 3.05749 9.1483L2.23282 8.32296C2.16915 8.26146 2.11836 8.1879 2.08342 8.10656C2.04848 8.02523 2.03009 7.93775 2.02932 7.84923C2.02855 7.76071 2.04542 7.67292 2.07894 7.59099C2.11246 7.50906 2.16196 7.43463 2.22456 7.37203C2.28715 7.30944 2.36159 7.25994 2.44352 7.22641C2.52545 7.19289 2.61324 7.17603 2.70176 7.1768C2.79028 7.17756 2.87776 7.19596 2.95909 7.2309C3.04043 7.26583 3.11399 7.31662 3.17549 7.3803L3.64682 7.85163L4.82549 6.67363C4.95051 6.54865 5.12005 6.47844 5.29682 6.47844C5.4736 6.47844 5.64314 6.54798 5.76816 6.67296ZM13.3335 7.33163C13.5034 7.33182 13.6668 7.39688 13.7904 7.51353C13.914 7.63017 13.9883 7.7896 13.9983 7.95923C14.0082 8.12885 13.953 8.29588 13.844 8.42618C13.7349 8.55649 13.5802 8.64023 13.4115 8.6603L13.3335 8.66496H7.33349C7.16363 8.66461 7.0003 8.59942 6.87687 8.48272C6.75344 8.36602 6.67922 8.20661 6.66935 8.03703C6.65948 7.86746 6.71471 7.70051 6.82377 7.57028C6.93282 7.44005 7.08748 7.35636 7.25616 7.3363L7.33349 7.33163H13.3335ZM4.82549 2.00696C4.94546 1.8874 5.10645 1.81798 5.27575 1.81281C5.44504 1.80764 5.60996 1.86711 5.73701 1.97913C5.86405 2.09115 5.94369 2.24733 5.95975 2.41595C5.97582 2.58456 5.9271 2.75297 5.82349 2.88696L5.76816 2.94963L4.23616 4.48163C4.09091 4.62666 3.89725 4.71298 3.6923 4.72405C3.48734 4.73512 3.28551 4.67016 3.12549 4.54163L3.05749 4.48163L2.23282 3.6563C2.11326 3.53632 2.04384 3.37534 2.03867 3.20604C2.0335 3.03674 2.09297 2.87182 2.20499 2.74478C2.31701 2.61773 2.47319 2.53809 2.64181 2.52203C2.81042 2.50597 2.97883 2.55469 3.11282 2.6583L3.17549 2.71363L3.64682 3.18496L4.82549 2.00696ZM13.3335 2.66496C13.5034 2.66515 13.6668 2.73022 13.7904 2.84686C13.914 2.96351 13.9883 3.12293 13.9983 3.29256C14.0082 3.46219 13.953 3.62922 13.844 3.75952C13.7349 3.88982 13.5802 3.97356 13.4115 3.99363L13.3335 3.9983H7.33349C7.16363 3.99794 7.0003 3.93276 6.87687 3.81606C6.75344 3.69936 6.67922 3.53994 6.66935 3.37037C6.65948 3.20079 6.71471 3.03384 6.82377 2.90361C6.93282 2.77338 7.08748 2.68969 7.25616 2.66963L7.33349 2.66496H13.3335Z" fill="#171719"/>
</svg>
