<svg width="20" height="20" viewBox="0 0 20 20" fill="none" xmlns="http://www.w3.org/2000/svg">
<path d="M13.5356 8.22843C13.6791 8.08495 13.87 7.99875 14.0726 7.98602C14.2751 7.97328 14.4753 8.03488 14.6356 8.15926L14.714 8.22843L16.4815 9.99676C17.3274 10.8436 17.8085 11.9878 17.8218 13.1847C17.8352 14.3816 17.3798 15.5362 16.553 16.4018C15.7262 17.2673 14.5937 17.775 13.3974 17.8165C12.2011 17.8579 11.0362 17.4297 10.1515 16.6234L9.9998 16.4784L8.2323 14.7109C8.08126 14.5613 7.99311 14.3596 7.9859 14.1471C7.97869 13.9347 8.05297 13.7275 8.19352 13.5679C8.33408 13.4084 8.53029 13.3087 8.74199 13.2891C8.95369 13.2695 9.16487 13.3316 9.3323 13.4626L9.41064 13.5318L11.1781 15.3001C11.7146 15.8368 12.439 16.1433 13.1978 16.1545C13.9565 16.1658 14.6897 15.8809 15.2419 15.3603C15.794 14.8398 16.1215 14.1245 16.1548 13.3665C16.1882 12.6084 15.9249 11.8672 15.4206 11.3001L15.3031 11.1751L13.5356 9.40759C13.4582 9.3302 13.3967 9.23829 13.3548 9.13713C13.3128 9.03596 13.2912 8.92752 13.2912 8.81801C13.2912 8.7085 13.3128 8.60006 13.3548 8.49889C13.3967 8.39773 13.4582 8.30582 13.5356 8.22843ZM7.64147 7.63926C7.78496 7.49578 7.97588 7.40959 8.1784 7.39685C8.38092 7.38412 8.58113 7.44572 8.74147 7.57009L8.82064 7.63926L12.3556 11.1751C12.5051 11.3251 12.5919 11.5263 12.5983 11.7379C12.6048 11.9495 12.5305 12.1557 12.3904 12.3145C12.2504 12.4733 12.0552 12.5728 11.8444 12.5929C11.6336 12.613 11.4231 12.5521 11.2556 12.4226L11.1773 12.3534L7.64147 8.81843C7.56399 8.74103 7.50252 8.64912 7.46059 8.54796C7.41865 8.44679 7.39706 8.33836 7.39706 8.22884C7.39706 8.11933 7.41865 8.01089 7.46059 7.90973C7.50252 7.80856 7.56399 7.71665 7.64147 7.63926ZM3.51647 3.51426C4.35047 2.68029 5.47386 2.19992 6.65299 2.17306C7.83211 2.14621 8.97621 2.57495 9.8473 3.37009L9.99897 3.51509L11.7665 5.28176C11.9175 5.43138 12.0057 5.63307 12.0129 5.84555C12.0201 6.05803 11.9458 6.26523 11.8052 6.42474C11.6647 6.58425 11.4685 6.68401 11.2568 6.7036C11.0451 6.72318 10.8339 6.66111 10.6665 6.53009L10.5881 6.46093L8.82064 4.69343C8.2842 4.15674 7.55972 3.85025 6.80099 3.839C6.04227 3.82776 5.30902 4.11264 4.75692 4.63319C4.20481 5.15374 3.8773 5.86897 3.84392 6.62704C3.81055 7.38512 4.07392 8.12636 4.57814 8.69343L4.69564 8.81843L6.46314 10.5851C6.61418 10.7347 6.70233 10.9364 6.70954 11.1489C6.71675 11.3614 6.64247 11.5686 6.50191 11.7281C6.36136 11.8876 6.16515 11.9873 5.95345 12.0069C5.74175 12.0265 5.53057 11.9644 5.36314 11.8334L5.2848 11.7643L3.51814 9.99676C2.65864 9.13722 2.17578 7.97147 2.17578 6.75593C2.17578 5.54039 2.65864 4.37463 3.51814 3.51509L3.51647 3.51426Z" fill="#1B84FF"/>
</svg>
