<svg width="10" height="10" viewBox="0 0 10 10" fill="none" xmlns="http://www.w3.org/2000/svg">
<path d="M8.5 0.5C8.88261 0.499979 9.25076 0.646163 9.52913 0.908642C9.8075 1.17112 9.97505 1.53005 9.9975 1.912L10 2V7C10 7.38261 9.85384 7.75076 9.59136 8.02913C9.32888 8.3075 8.96995 8.47505 8.588 8.4975L8.5 8.5H6.6515L5.3465 9.37C5.25443 9.43131 5.14774 9.46708 5.03732 9.47367C4.9269 9.48026 4.81671 9.45743 4.718 9.4075L4.653 9.37L3.349 8.5H1.5C1.11739 8.50002 0.749243 8.35384 0.47087 8.09136C0.192497 7.82888 0.0249462 7.46995 0.00250006 7.088L2.33022e-09 7V2C-2.13109e-05 1.61739 0.146163 1.24924 0.408642 0.97087C0.671121 0.692497 1.03005 0.524946 1.412 0.5025L1.5 0.5H8.5ZM8.5 1.5H1.5C1.37753 1.50002 1.25933 1.54498 1.16781 1.62636C1.0763 1.70774 1.01783 1.81987 1.0035 1.9415L1 2V7C1.00002 7.12247 1.04498 7.24067 1.12636 7.33219C1.20774 7.4237 1.31987 7.48217 1.4415 7.4965L1.5 7.5H3.3485C3.51722 7.49997 3.6832 7.54262 3.831 7.624L3.9035 7.668L5 8.399L6.0965 7.668C6.23694 7.57433 6.3988 7.51774 6.567 7.5035L6.6515 7.5H8.5C8.62247 7.49998 8.74067 7.45502 8.83219 7.37364C8.9237 7.29226 8.98217 7.18013 8.9965 7.0585L9 7V2C8.99998 1.87753 8.95502 1.75933 8.87364 1.66781C8.79226 1.5763 8.68013 1.51783 8.5585 1.5035L8.5 1.5ZM3.25 4C3.44891 4 3.63968 4.07902 3.78033 4.21967C3.92098 4.36032 4 4.55109 4 4.75C4 4.94891 3.92098 5.13968 3.78033 5.28033C3.63968 5.42098 3.44891 5.5 3.25 5.5C3.05109 5.5 2.86032 5.42098 2.71967 5.28033C2.57902 5.13968 2.5 4.94891 2.5 4.75C2.5 4.55109 2.57902 4.36032 2.71967 4.21967C2.86032 4.07902 3.05109 4 3.25 4ZM6.75 4C6.94891 4 7.13968 4.07902 7.28033 4.21967C7.42098 4.36032 7.5 4.55109 7.5 4.75C7.5 4.94891 7.42098 5.13968 7.28033 5.28033C7.13968 5.42098 6.94891 5.5 6.75 5.5C6.55109 5.5 6.36032 5.42098 6.21967 5.28033C6.07902 5.13968 6 4.94891 6 4.75C6 4.55109 6.07902 4.36032 6.21967 4.21967C6.36032 4.07902 6.55109 4 6.75 4Z" fill="#1B84FF"/>
</svg>
