<svg width="20" height="20" viewBox="0 0 20 20" fill="none" xmlns="http://www.w3.org/2000/svg">
<path d="M10.0003 4C10.1702 4.00019 10.3337 4.06525 10.4572 4.1819C10.5808 4.29855 10.6551 4.45797 10.6651 4.6276C10.6751 4.79722 10.6199 4.96425 10.5108 5.09455C10.4018 5.22486 10.2471 5.3086 10.0783 5.32867L10.0003 5.33333H6.66699C6.5037 5.33335 6.3461 5.3933 6.22408 5.50181C6.10205 5.61032 6.0241 5.75983 6.00499 5.922L6.00033 6V14C6.00035 14.1633 6.0603 14.3209 6.1688 14.4429C6.27731 14.5649 6.42682 14.6429 6.58899 14.662L6.66699 14.6667H9.66699C9.83691 14.6669 10.0003 14.7319 10.1239 14.8486C10.2475 14.9652 10.3218 15.1246 10.3318 15.2943C10.3417 15.4639 10.2865 15.6309 10.1775 15.7612C10.0684 15.8915 9.91372 15.9753 9.74499 15.9953L9.66699 16H6.66699C6.15685 16 5.66598 15.8051 5.29482 15.4551C4.92365 15.1052 4.70025 14.6266 4.67033 14.1173L4.66699 14V6C4.66696 5.48986 4.86188 4.99899 5.21185 4.62783C5.56182 4.25666 6.0404 4.03326 6.54966 4.00333L6.66699 4H10.0003ZM13.805 7.64267L15.6903 9.52867C15.8153 9.65369 15.8855 9.82322 15.8855 10C15.8855 10.1768 15.8153 10.3463 15.6903 10.4713L13.805 12.3573C13.6799 12.4823 13.5103 12.5525 13.3334 12.5525C13.1566 12.5524 12.987 12.4821 12.862 12.357C12.737 12.2319 12.6668 12.0623 12.6669 11.8854C12.6669 11.7086 12.7372 11.539 12.8623 11.414L13.6097 10.6667H10.0003C9.82351 10.6667 9.65395 10.5964 9.52892 10.4714C9.4039 10.3464 9.33366 10.1768 9.33366 10C9.33366 9.82319 9.4039 9.65362 9.52892 9.5286C9.65395 9.40357 9.82351 9.33333 10.0003 9.33333H13.6097L12.8623 8.586C12.7372 8.46099 12.6669 8.29142 12.6669 8.11457C12.6668 7.93772 12.737 7.76809 12.862 7.643C12.987 7.51791 13.1566 7.44759 13.3334 7.44753C13.5103 7.44747 13.6799 7.51766 13.805 7.64267Z" fill="#D4356F"/>
</svg>
