<svg width="16" height="16" viewBox="0 0 16 16" fill="none" xmlns="http://www.w3.org/2000/svg">
<path fill-rule="evenodd" clip-rule="evenodd" d="M8 1.33203C9.5913 1.33203 11.1174 1.96417 12.2426 3.08939C13.3679 4.21461 14 5.74073 14 7.33203C14 9.38136 12.8827 11.0587 11.7053 12.262C11.117 12.8566 10.4752 13.3958 9.788 13.8727L9.504 14.066L9.37067 14.1547L9.11933 14.3147L8.89533 14.4514L8.618 14.6127C8.42967 14.7199 8.2167 14.7763 8 14.7763C7.7833 14.7763 7.57033 14.7199 7.382 14.6127L7.10467 14.4514L6.758 14.238L6.63 14.1547L6.35667 13.9727C5.61532 13.4709 4.92471 12.898 4.29467 12.262C3.11733 11.058 2 9.38136 2 7.33203C2 5.74073 2.63214 4.21461 3.75736 3.08939C4.88258 1.96417 6.4087 1.33203 8 1.33203ZM8 2.66536C6.76232 2.66536 5.57534 3.15703 4.70017 4.0322C3.825 4.90737 3.33333 6.09435 3.33333 7.33203C3.33333 8.88003 4.18133 10.2387 5.24733 11.3294C5.70575 11.7933 6.20116 12.2191 6.72867 12.6027L7.034 12.82C7.13267 12.8887 7.22733 12.9527 7.31867 13.012L7.57867 13.1787L7.80733 13.318L8 13.4307L8.30333 13.2514L8.548 13.098C8.678 13.0154 8.818 12.9227 8.966 12.82L9.27133 12.6027C9.79884 12.2191 10.2943 11.7933 10.7527 11.3294C11.8187 10.2394 12.6667 8.88003 12.6667 7.33203C12.6667 6.09435 12.175 4.90737 11.2998 4.0322C10.4247 3.15703 9.23768 2.66536 8 2.66536ZM8 4.66536C8.70724 4.66536 9.38552 4.94632 9.88562 5.44641C10.3857 5.94651 10.6667 6.62479 10.6667 7.33203C10.6667 8.03928 10.3857 8.71755 9.88562 9.21765C9.38552 9.71775 8.70724 9.9987 8 9.9987C7.29276 9.9987 6.61448 9.71775 6.11438 9.21765C5.61428 8.71755 5.33333 8.03928 5.33333 7.33203C5.33333 6.62479 5.61428 5.94651 6.11438 5.44641C6.61448 4.94632 7.29276 4.66536 8 4.66536ZM8 5.9987C7.64638 5.9987 7.30724 6.13917 7.05719 6.38922C6.80714 6.63927 6.66667 6.97841 6.66667 7.33203C6.66667 7.68565 6.80714 8.02479 7.05719 8.27484C7.30724 8.52489 7.64638 8.66536 8 8.66536C8.35362 8.66536 8.69276 8.52489 8.94281 8.27484C9.19286 8.02479 9.33333 7.68565 9.33333 7.33203C9.33333 6.97841 9.19286 6.63927 8.94281 6.38922C8.69276 6.13917 8.35362 5.9987 8 5.9987Z" fill="#6A6A73"/>
</svg>
