<svg width="24" height="24" viewBox="0 0 24 24" fill="none" xmlns="http://www.w3.org/2000/svg">
<path d="M16.9997 3.66797C17.4417 3.66797 17.8656 3.84356 18.1782 4.15612C18.4907 4.46868 18.6663 4.89261 18.6663 5.33464V14.9896C18.6662 15.4316 18.4906 15.8555 18.178 16.168L14.4997 19.8463C14.1872 20.1589 13.7633 20.3345 13.3213 20.3346H6.99967C6.55765 20.3346 6.13372 20.159 5.82116 19.8465C5.5086 19.5339 5.33301 19.11 5.33301 18.668V5.33464C5.33301 4.89261 5.5086 4.46868 5.82116 4.15612C6.13372 3.84356 6.55765 3.66797 6.99967 3.66797H16.9997ZM16.9997 5.33464H6.99967V18.668H11.9997V14.918C11.9997 14.5864 12.1314 14.2685 12.3658 14.0341C12.6002 13.7997 12.9182 13.668 13.2497 13.668H16.9997V5.33464ZM16.6547 15.3346H13.6663V18.323L16.6547 15.3346ZM10.333 11.168C10.554 11.168 10.766 11.2558 10.9223 11.412C11.0785 11.5683 11.1663 11.7803 11.1663 12.0013C11.1663 12.2223 11.0785 12.4343 10.9223 12.5906C10.766 12.7468 10.554 12.8346 10.333 12.8346H9.49967C9.27866 12.8346 9.0667 12.7468 8.91042 12.5906C8.75414 12.4343 8.66634 12.2223 8.66634 12.0013C8.66634 11.7803 8.75414 11.5683 8.91042 11.412C9.0667 11.2558 9.27866 11.168 9.49967 11.168H10.333ZM14.4997 7.83464C14.7207 7.83464 14.9326 7.92243 15.0889 8.07871C15.2452 8.23499 15.333 8.44696 15.333 8.66797C15.333 8.88898 15.2452 9.10094 15.0889 9.25722C14.9326 9.4135 14.7207 9.5013 14.4997 9.5013H9.49967C9.27866 9.5013 9.0667 9.4135 8.91042 9.25722C8.75414 9.10094 8.66634 8.88898 8.66634 8.66797C8.66634 8.44696 8.75414 8.23499 8.91042 8.07871C9.0667 7.92243 9.27866 7.83464 9.49967 7.83464H14.4997Z" fill="#171719"/>
</svg>
