<svg width="20" height="20" viewBox="0 0 20 20" fill="none" xmlns="http://www.w3.org/2000/svg">
<path opacity="0.2" d="M15.625 6.875L10 12.5H7.5V10L13.125 4.375L15.625 6.875Z" fill="#0B99FF"/>
<path d="M17.9422 4.55733L15.4422 2.05733C15.3841 1.99922 15.3152 1.95312 15.2393 1.92167C15.1635 1.89021 15.0821 1.87402 15 1.87402C14.9179 1.87402 14.8365 1.89021 14.7607 1.92167C14.6848 1.95312 14.6159 1.99922 14.5578 2.05733L7.05781 9.55733C6.99979 9.61541 6.95378 9.68436 6.92242 9.76023C6.89105 9.83611 6.87494 9.91742 6.875 9.99952V12.4995C6.875 12.6653 6.94085 12.8242 7.05806 12.9415C7.17527 13.0587 7.33424 13.1245 7.5 13.1245H10C10.0821 13.1246 10.1634 13.1085 10.2393 13.0771C10.3152 13.0457 10.3841 12.9997 10.4422 12.9417L17.9422 5.4417C18.0003 5.38366 18.0464 5.31473 18.0779 5.23885C18.1093 5.16298 18.1255 5.08165 18.1255 4.99952C18.1255 4.91738 18.1093 4.83605 18.0779 4.76018C18.0464 4.6843 18.0003 4.61537 17.9422 4.55733ZM9.74141 11.8745H8.125V10.2581L13.125 5.25811L14.7414 6.87452L9.74141 11.8745ZM15.625 5.99092L14.0086 4.37452L15 3.38311L16.6164 4.99952L15.625 5.99092ZM17.5 9.99952V16.2495C17.5 16.581 17.3683 16.899 17.1339 17.1334C16.8995 17.3678 16.5815 17.4995 16.25 17.4995H3.75C3.41848 17.4995 3.10054 17.3678 2.86612 17.1334C2.6317 16.899 2.5 16.581 2.5 16.2495V3.74952C2.5 3.41799 2.6317 3.10005 2.86612 2.86563C3.10054 2.63121 3.41848 2.49952 3.75 2.49952H10C10.1658 2.49952 10.3247 2.56536 10.4419 2.68257C10.5592 2.79978 10.625 2.95875 10.625 3.12452C10.625 3.29028 10.5592 3.44925 10.4419 3.56646C10.3247 3.68367 10.1658 3.74952 10 3.74952H3.75V16.2495H16.25V9.99952C16.25 9.83376 16.3158 9.67478 16.4331 9.55757C16.5503 9.44036 16.7092 9.37452 16.875 9.37452C17.0408 9.37452 17.1997 9.44036 17.3169 9.55757C17.4342 9.67478 17.5 9.83376 17.5 9.99952Z" fill="#0B99FF"/>
</svg>
