<svg width="24" height="24" viewBox="0 0 24 24" fill="none" xmlns="http://www.w3.org/2000/svg">
<path fill-rule="evenodd" clip-rule="evenodd" d="M12 12.8346C13.9967 12.8346 15.8125 13.413 17.1483 14.228C17.815 14.6346 18.385 15.1146 18.7967 15.6363C19.2017 16.1488 19.5 16.7621 19.5 17.418C19.5 18.1221 19.1575 18.6771 18.6642 19.073C18.1975 19.448 17.5817 19.6963 16.9275 19.8696C15.6125 20.2171 13.8575 20.3346 12 20.3346C10.1425 20.3346 8.3875 20.218 7.0725 19.8696C6.41833 19.6963 5.8025 19.448 5.33583 19.073C4.84167 18.6763 4.5 18.1221 4.5 17.418C4.5 16.7621 4.79833 16.1488 5.20333 15.6355C5.615 15.1146 6.18417 14.6355 6.85167 14.2271C8.1875 13.4138 10.0042 12.8346 12 12.8346ZM12 14.5013C10.3142 14.5013 8.7975 14.993 7.72 15.6505C7.18083 15.9788 6.77417 16.3355 6.51167 16.6688C6.24167 17.0105 6.16667 17.2688 6.16667 17.418C6.16667 17.5196 6.1975 17.6271 6.37917 17.773C6.58667 17.9396 6.9475 18.1121 7.49917 18.258C8.5975 18.5496 10.1758 18.668 12 18.668C13.825 18.668 15.4025 18.5488 16.5 18.258C17.0525 18.1121 17.4133 17.9396 17.6208 17.773C17.8025 17.6271 17.8333 17.5196 17.8333 17.418C17.8333 17.268 17.7583 17.0105 17.4892 16.6688C17.2258 16.3355 16.8192 15.9788 16.28 15.6505C15.2025 14.9921 13.6858 14.5013 12 14.5013ZM12 3.66797C13.1051 3.66797 14.1649 4.10696 14.9463 4.88836C15.7277 5.66976 16.1667 6.72957 16.1667 7.83464C16.1667 8.9397 15.7277 9.99951 14.9463 10.7809C14.1649 11.5623 13.1051 12.0013 12 12.0013C10.8949 12.0013 9.83512 11.5623 9.05372 10.7809C8.27232 9.99951 7.83333 8.9397 7.83333 7.83464C7.83333 6.72957 8.27232 5.66976 9.05372 4.88836C9.83512 4.10696 10.8949 3.66797 12 3.66797ZM12 5.33464C11.6717 5.33464 11.3466 5.3993 11.0433 5.52494C10.74 5.65057 10.4644 5.83472 10.2322 6.06687C10.0001 6.29902 9.81594 6.57461 9.6903 6.87793C9.56466 7.18124 9.5 7.50633 9.5 7.83464C9.5 8.16294 9.56466 8.48803 9.6903 8.79134C9.81594 9.09466 10.0001 9.37026 10.2322 9.6024C10.4644 9.83455 10.74 10.0187 11.0433 10.1443C11.3466 10.27 11.6717 10.3346 12 10.3346C12.663 10.3346 13.2989 10.0712 13.7678 9.6024C14.2366 9.13356 14.5 8.49768 14.5 7.83464C14.5 7.17159 14.2366 6.53571 13.7678 6.06687C13.2989 5.59803 12.663 5.33464 12 5.33464Z" fill="#171719"/>
</svg>
