<svg width="12" height="12" viewBox="0 0 12 12" fill="none" xmlns="http://www.w3.org/2000/svg">
<path d="M5.33333 6.68453e-08C5.66972 -0.000106386 5.99371 0.126938 6.24037 0.355665C6.48702 0.584392 6.6381 0.897897 6.66333 1.23333L6.66667 1.33333V5.33333C6.66677 5.66972 6.53973 5.99371 6.311 6.24037C6.08228 6.48702 5.76877 6.6381 5.43333 6.66333L5.33333 6.66667H1.33333C0.996949 6.66677 0.672956 6.53973 0.426301 6.311C0.179647 6.08228 0.0285623 5.76877 0.00333348 5.43333L6.68453e-08 5.33333V1.33333C-0.000106386 0.996949 0.126938 0.672956 0.355665 0.426301C0.584392 0.179647 0.897897 0.0285623 1.23333 0.00333348L1.33333 6.68453e-08H5.33333ZM5.33333 1.33333H1.33333V5.33333H5.33333V1.33333ZM3.66667 2.66667C3.74468 2.66664 3.82024 2.69398 3.88017 2.74393C3.94011 2.79387 3.98062 2.86326 3.99467 2.94L4 3V3.66667C4.00003 3.74468 3.97269 3.82024 3.92274 3.88017C3.8728 3.94011 3.80341 3.98062 3.72667 3.99467L3.66667 4H3C2.92198 4.00003 2.84643 3.97269 2.78649 3.92274C2.72656 3.8728 2.68604 3.80341 2.672 3.72667L2.66667 3.66667V3C2.66664 2.92198 2.69398 2.84643 2.74393 2.78649C2.79387 2.72656 2.86326 2.68604 2.94 2.672L3 2.66667H3.66667ZM12 1.33333C12 0.979711 11.8595 0.640573 11.6095 0.390524C11.3594 0.140476 11.0203 6.68453e-08 10.6667 6.68453e-08H9.33333C8.97971 6.68453e-08 8.64057 0.140476 8.39052 0.390524C8.14048 0.640573 8 0.979711 8 1.33333V2.66667C8 3.02029 8.14048 3.35943 8.39052 3.60948C8.64057 3.85952 8.97971 4 9.33333 4H10.6667C11.0203 4 11.3594 3.85952 11.6095 3.60948C11.8595 3.35943 12 3.02029 12 2.66667V1.33333ZM9.33333 1.33333H10.6667V2.66667H9.33333V1.33333ZM2.66667 8C3.02029 8 3.35943 8.14048 3.60948 8.39052C3.85952 8.64057 4 8.97971 4 9.33333V10.6667C4 11.0203 3.85952 11.3594 3.60948 11.6095C3.35943 11.8595 3.02029 12 2.66667 12H1.33333C0.979711 12 0.640573 11.8595 0.390524 11.6095C0.140476 11.3594 6.68453e-08 11.0203 6.68453e-08 10.6667V9.33333C6.68453e-08 8.97971 0.140476 8.64057 0.390524 8.39052C0.640573 8.14048 0.979711 8 1.33333 8H2.66667ZM2.66667 9.33333H1.33333V10.6667H2.66667V9.33333ZM12 9.33333C12 8.97971 11.8595 8.64057 11.6095 8.39052C11.3594 8.14048 11.0203 8 10.6667 8H9.33333C8.97971 8 8.64057 8.14048 8.39052 8.39052C8.14048 8.64057 8 8.97971 8 9.33333V10.6667C8 11.0203 8.14048 11.3594 8.39052 11.6095C8.64057 11.8595 8.97971 12 9.33333 12H10.6667C11.0203 12 11.3594 11.8595 11.6095 11.6095C11.8595 11.3594 12 11.0203 12 10.6667V9.33333ZM9.33333 9.33333H10.6667V10.6667H9.33333V9.33333ZM8 6C8 5.82319 8.07024 5.65362 8.19526 5.5286C8.32029 5.40357 8.48986 5.33333 8.66667 5.33333H11.3333C11.5101 5.33333 11.6797 5.40357 11.8047 5.5286C11.9298 5.65362 12 5.82319 12 6C12 6.17681 11.9298 6.34638 11.8047 6.4714C11.6797 6.59643 11.5101 6.66667 11.3333 6.66667H8.66667C8.48986 6.66667 8.32029 6.59643 8.19526 6.4714C8.07024 6.34638 8 6.17681 8 6ZM6.66667 8.66667C6.66667 8.48986 6.59643 8.32029 6.4714 8.19526C6.34638 8.07024 6.17681 8 6 8C5.82319 8 5.65362 8.07024 5.5286 8.19526C5.40357 8.32029 5.33333 8.48986 5.33333 8.66667V11.3333C5.33333 11.5101 5.40357 11.6797 5.5286 11.8047C5.65362 11.9298 5.82319 12 6 12C6.17681 12 6.34638 11.9298 6.4714 11.8047C6.59643 11.6797 6.66667 11.5101 6.66667 11.3333V8.66667Z" fill="#1B84FF"/>
</svg>
