<svg width="16" height="16" viewBox="0 0 16 16" fill="none" xmlns="http://www.w3.org/2000/svg">
<path d="M11.3334 1.33203C11.8638 1.33203 12.3725 1.54274 12.7476 1.91782C13.1227 2.29289 13.3334 2.8016 13.3334 3.33203V11.332C13.4895 11.3322 13.6405 11.3871 13.7603 11.4872C13.88 11.5873 13.9609 11.7262 13.9887 11.8798C14.0165 12.0333 13.9896 12.1918 13.9126 12.3276C13.8357 12.4633 13.7135 12.5678 13.5674 12.6227L8.23407 14.6227C8.08319 14.6793 7.91694 14.6793 7.76607 14.6227L2.43273 12.6227C2.28665 12.5678 2.16448 12.4633 2.08749 12.3276C2.0105 12.1918 1.98359 12.0333 2.01143 11.8798C2.03927 11.7262 2.12011 11.5873 2.23985 11.4872C2.3596 11.3871 2.51067 11.3322 2.66673 11.332V3.33203C2.66673 2.8016 2.87745 2.29289 3.25252 1.91782C3.62759 1.54274 4.1363 1.33203 4.66673 1.33203H11.3334ZM11.3334 2.66536H4.66673C4.50345 2.66539 4.34584 2.72534 4.22382 2.83384C4.1018 2.94235 4.02384 3.09186 4.00473 3.25403L4.00007 3.33203V11.7867L8.00007 13.2867L12.0001 11.7867V3.33203C12 3.16874 11.9401 3.01114 11.8316 2.88912C11.7231 2.76709 11.5736 2.68914 11.4114 2.67003L11.3334 2.66536ZM8.00007 3.33203C8.16336 3.33205 8.32096 3.392 8.44298 3.50051C8.56501 3.60901 8.64296 3.75853 8.66207 3.9207L8.66673 3.9987V4.66536H10.0001C10.17 4.66555 10.3334 4.73062 10.457 4.84726C10.5805 4.96391 10.6549 5.12333 10.6648 5.29296C10.6748 5.46259 10.6196 5.62962 10.5106 5.75992C10.4015 5.89022 10.2468 5.97396 10.0781 5.99403L10.0001 5.9987H6.66673C6.58344 5.99854 6.5031 6.02958 6.44155 6.0857C6.37999 6.14182 6.34168 6.21896 6.33415 6.30191C6.32662 6.38487 6.35043 6.46764 6.40088 6.53392C6.45133 6.6002 6.52477 6.64519 6.60673 6.66003L6.66673 6.66536H9.3334C9.76666 6.66431 10.1833 6.83201 10.495 7.13293C10.8067 7.43384 10.989 7.84431 11.0032 8.27733C11.0174 8.71036 10.8625 9.1319 10.5712 9.45261C10.2799 9.77333 9.87513 9.968 9.44273 9.99537L9.3334 9.9987H8.66673V10.6654C8.66655 10.8353 8.60148 10.9987 8.48484 11.1223C8.36819 11.2458 8.20877 11.3202 8.03914 11.3301C7.86951 11.3401 7.70248 11.2849 7.57218 11.1759C7.44188 11.0668 7.35814 10.9121 7.33807 10.7434L7.3334 10.6654V9.9987H6.00007C5.83015 9.99851 5.66671 9.93345 5.54316 9.8168C5.4196 9.70015 5.34524 9.54073 5.33529 9.3711C5.32533 9.20147 5.38052 9.03445 5.48958 8.90414C5.59864 8.77384 5.75334 8.6901 5.92207 8.67003L6.00007 8.66536H9.3334C9.4167 8.66552 9.49703 8.63448 9.55859 8.57836C9.62014 8.52224 9.65846 8.44511 9.66598 8.36215C9.67351 8.27919 9.6497 8.19642 9.59925 8.13014C9.5488 8.06386 9.47537 8.01887 9.3934 8.00403L9.3334 7.9987H6.66673C6.23348 7.99975 5.81684 7.83205 5.50512 7.53114C5.19341 7.23022 5.01113 6.81975 4.99691 6.38673C4.98269 5.9537 5.13766 5.53216 5.42896 5.21145C5.72026 4.89074 6.12501 4.69607 6.5574 4.6687L6.66673 4.66536H7.3334V3.9987C7.3334 3.82189 7.40364 3.65232 7.52866 3.52729C7.65369 3.40227 7.82326 3.33203 8.00007 3.33203Z" fill="#171719"/>
</svg>
