<svg width="48" height="48" viewBox="0 0 48 48" fill="none" xmlns="http://www.w3.org/2000/svg">
<g clip-path="url(#clip0_40688_24988)">
<path d="M22.2086 48H3.78731C1.69566 48 0 46.3043 0 44.2127V3.78731C0 1.69566 1.69566 0 3.78731 0H22.2087C24.3004 0 25.996 1.69566 25.996 3.78731V44.2127C25.9959 46.3043 24.3004 48 22.2086 48Z" fill="#F1F7F8"/>
<path d="M22.2086 48H3.78731C1.69566 48 0 46.3043 0 44.2127V3.78731C0 1.69566 1.69566 0 3.78731 0H22.2087C24.3004 0 25.996 1.69566 25.996 3.78731V44.2127C25.9959 46.3043 24.3004 48 22.2086 48Z" fill="url(#paint0_linear_40688_24988)"/>
<path d="M15.7884 3.663H10.2073C9.49772 3.663 8.8471 3.26756 8.51991 2.63737L7.15088 0H18.8449L17.4758 2.63737C17.1487 3.26756 16.4981 3.663 15.7884 3.663Z" fill="#98ECFF"/>
<path d="M45.7785 17.8485C45.3784 17.8485 45.0542 17.5243 45.0542 17.1242C45.0542 13.3378 41.9737 10.2572 38.1872 10.2572C37.7871 10.2572 37.4629 9.93294 37.4629 9.53291C37.4629 9.13287 37.7872 8.80859 38.1872 8.80859C42.7725 8.80859 46.5029 12.539 46.5029 17.1243C46.5028 17.5243 46.1785 17.8485 45.7785 17.8485Z" fill="#2DD8FF"/>
<path d="M42.9109 17.852C42.5108 17.852 42.1866 17.5277 42.1866 17.1277C42.1866 14.9224 40.3925 13.1283 38.1872 13.1283C37.7871 13.1283 37.4629 12.804 37.4629 12.404C37.4629 12.004 37.7872 11.6797 38.1872 11.6797C41.1912 11.6797 43.6353 14.1237 43.6353 17.1278C43.6353 17.5277 43.311 17.852 42.9109 17.852Z" fill="#2DD8FF"/>
<path d="M40.132 17.8466C39.7319 17.8466 39.4077 17.5223 39.4077 17.1223C39.4077 16.4493 38.8602 15.9017 38.1872 15.9017C37.7871 15.9017 37.4629 15.5775 37.4629 15.1774C37.4629 14.7774 37.7872 14.4531 38.1872 14.4531C39.659 14.4531 40.8565 15.6506 40.8565 17.1224C40.8565 17.5223 40.5322 17.8466 40.132 17.8466Z" fill="#2DD8FF"/>
<path d="M10.9318 15.2961H3.89843C3.63171 15.2961 3.41553 15.0799 3.41553 14.8132V7.77978C3.41553 7.51306 3.63171 7.29688 3.89843 7.29688H10.9318C11.1986 7.29688 11.4147 7.51306 11.4147 7.77978V14.8132C11.4147 15.0799 11.1986 15.2961 10.9318 15.2961Z" fill="white"/>
<path d="M22.0983 15.2961H15.0649C14.7982 15.2961 14.582 15.0799 14.582 14.8132V7.77978C14.582 7.51306 14.7982 7.29688 15.0649 7.29688H22.0983C22.3651 7.29688 22.5812 7.51306 22.5812 7.77978V14.8132C22.5812 15.0799 22.365 15.2961 22.0983 15.2961Z" fill="white"/>
<path d="M10.9318 26.6281H3.89843C3.63171 26.6281 3.41553 26.4119 3.41553 26.1452V19.1118C3.41553 18.8451 3.63171 18.6289 3.89843 18.6289H10.9318C11.1986 18.6289 11.4147 18.8451 11.4147 19.1118V26.1452C11.4147 26.4118 11.1986 26.6281 10.9318 26.6281Z" fill="white"/>
<path d="M22.0983 26.6281H15.0649C14.7982 26.6281 14.582 26.4119 14.582 26.1452V19.1118C14.582 18.8451 14.7982 18.6289 15.0649 18.6289H22.0983C22.3651 18.6289 22.5812 18.8451 22.5812 19.1118V26.1452C22.5812 26.4118 22.365 26.6281 22.0983 26.6281Z" fill="white"/>
<path d="M10.9318 37.9602H3.89843C3.63171 37.9602 3.41553 37.744 3.41553 37.4772V30.4438C3.41553 30.1771 3.63171 29.9609 3.89843 29.9609H10.9318C11.1986 29.9609 11.4147 30.1771 11.4147 30.4438V37.4772C11.4147 37.744 11.1986 37.9602 10.9318 37.9602Z" fill="white"/>
<path d="M22.0983 37.9602H15.0649C14.7982 37.9602 14.582 37.744 14.582 37.4772V30.4438C14.582 30.1771 14.7982 29.9609 15.0649 29.9609H22.0983C22.3651 29.9609 22.5812 30.1771 22.5812 30.4438V37.4772C22.5812 37.744 22.365 37.9602 22.0983 37.9602Z" fill="white"/>
<path d="M3.41577 41.776V47.9796C3.53821 47.9915 3.66224 47.998 3.78787 47.998H11.415V41.7759C11.415 41.5092 11.1988 41.293 10.9321 41.293H3.89868C3.63196 41.2931 3.41577 41.5093 3.41577 41.776Z" fill="white"/>
<path d="M14.582 41.7758V47.9979H22.2092C22.3348 47.9979 22.4588 47.9914 22.5812 47.9795V41.7759C22.5812 41.5092 22.3651 41.293 22.0983 41.293H15.0649C14.7983 41.2929 14.582 41.5092 14.582 41.7758Z" fill="white"/>
<path d="M34.061 22.0129H31.2178V11.7458C31.2178 10.9607 31.8542 10.3242 32.6394 10.3242C33.4246 10.3242 34.061 10.9607 34.061 11.7458V22.0129Z" fill="#33C8EA"/>
<path d="M40.4774 39.5184H24.8024C23.7001 39.5184 22.7411 38.7635 22.4824 37.6919L18.9456 23.0469H46.3343L42.7975 37.6919C42.5387 38.7634 41.5797 39.5184 40.4774 39.5184Z" fill="#2DD8FF"/>
<path d="M43.4369 23.0469L39.9001 37.6919C39.6414 38.7635 38.6824 39.5184 37.5801 39.5184H40.4774C41.5797 39.5184 42.5387 38.7635 42.7975 37.6919L46.3343 23.0469H43.4369Z" fill="#33C8EA"/>
<path d="M46.5666 21.3359H18.7135C17.9214 21.3359 17.2793 21.978 17.2793 22.7701C17.2793 23.5622 17.9214 24.2043 18.7135 24.2043H46.5666C47.3587 24.2043 48.0008 23.5622 48.0008 22.7701C48.0008 21.978 47.3587 21.3359 46.5666 21.3359Z" fill="#33C8EA"/>
<path d="M26.9987 27.5C26.5986 27.5 26.2744 27.8243 26.2744 28.2243V35.0524C26.2744 35.4524 26.5987 35.7767 26.9987 35.7767C27.3988 35.7767 27.723 35.4524 27.723 35.0524V28.2243C27.723 27.8243 27.3988 27.5 26.9987 27.5Z" fill="white"/>
<path d="M32.6398 27.5C32.2397 27.5 31.9155 27.8243 31.9155 28.2243V35.0524C31.9155 35.4524 32.2398 35.7767 32.6398 35.7767C33.0399 35.7767 33.3642 35.4524 33.3642 35.0524V28.2243C33.3642 27.8243 33.04 27.5 32.6398 27.5Z" fill="white"/>
<path d="M38.2812 27.5C37.8811 27.5 37.5569 27.8243 37.5569 28.2243V35.0524C37.5569 35.4524 37.8812 35.7767 38.2812 35.7767C38.6812 35.7767 39.0055 35.4524 39.0055 35.0524V28.2243C39.0055 27.8243 38.6813 27.5 38.2812 27.5Z" fill="white"/>
<path d="M6.54473 13.3904C6.35939 13.3904 6.17395 13.3196 6.03257 13.1782L4.94414 12.0898C4.6612 11.8069 4.6612 11.3483 4.94414 11.0654C5.22698 10.7825 5.68561 10.7825 5.96854 11.0654L6.54482 11.6417L8.77514 9.41135C9.05798 9.12851 9.51661 9.12851 9.79954 9.41135C10.0825 9.6942 10.0825 10.1528 9.79954 10.4358L7.05698 13.1783C6.91551 13.3196 6.73017 13.3904 6.54473 13.3904Z" fill="#2DD8FF"/>
<path d="M17.7537 13.3904C17.5684 13.3904 17.3829 13.3196 17.2416 13.1782L16.1531 12.0898C15.8702 11.8069 15.8702 11.3483 16.1531 11.0654C16.436 10.7825 16.8946 10.7825 17.1775 11.0654L17.7538 11.6417L19.9841 9.41135C20.267 9.12851 20.7256 9.12851 21.0085 9.41135C21.2915 9.6942 21.2915 10.1528 21.0085 10.4358L18.266 13.1783C18.1245 13.3196 17.9392 13.3904 17.7537 13.3904Z" fill="#2DD8FF"/>
<path d="M6.5877 36.0584C6.40236 36.0584 6.21692 35.9876 6.07554 35.8462L4.98711 34.7578C4.70417 34.4749 4.70417 34.0163 4.98711 33.7334C5.26995 33.4505 5.72857 33.4505 6.01151 33.7334L6.58779 34.3096L8.81811 32.0793C9.10095 31.7965 9.55957 31.7965 9.84251 32.0793C10.1254 32.3622 10.1254 32.8208 9.84251 33.1037L7.09995 35.8463C6.95839 35.9876 6.77304 36.0584 6.5877 36.0584Z" fill="#2DD8FF"/>
</g>
<defs>
<linearGradient id="paint0_linear_40688_24988" x1="19.497" y1="48" x2="-8.76048" y2="20.4531" gradientUnits="userSpaceOnUse">
<stop offset="0.0453246" stop-color="#175BE9"/>
<stop offset="1" stop-color="#2CD0FE"/>
</linearGradient>
<clipPath id="clip0_40688_24988">
<rect width="48" height="48" fill="white"/>
</clipPath>
</defs>
</svg>
