<svg width="12" height="12" viewBox="0 0 12 12" fill="none" xmlns="http://www.w3.org/2000/svg">
<path fill-rule="evenodd" clip-rule="evenodd" d="M2.5 2C2.5 1.73478 2.60536 1.48043 2.79289 1.29289C2.98043 1.10536 3.23478 1 3.5 1H8.5C8.76522 1 9.01957 1.10536 9.20711 1.29289C9.39464 1.48043 9.5 1.73478 9.5 2V2.93C9.49995 3.34157 9.39829 3.74676 9.20405 4.10961C9.0098 4.47246 8.72898 4.78174 8.3865 5.01L6.9015 6L8.3865 6.99C8.72898 7.21826 9.0098 7.52754 9.20405 7.89039C9.39829 8.25323 9.49995 8.65843 9.5 9.07V10C9.5 10.2652 9.39464 10.5196 9.20711 10.7071C9.01957 10.8946 8.76522 11 8.5 11H3.5C3.23478 11 2.98043 10.8946 2.79289 10.7071C2.60536 10.5196 2.5 10.2652 2.5 10V9.07C2.49999 8.65847 2.60158 8.25331 2.79573 7.89046C2.98989 7.52762 3.27062 7.21831 3.613 6.99L5.099 6L3.614 5.01C3.27143 4.7818 2.99051 4.47255 2.79617 4.10969C2.60184 3.74684 2.5001 3.34162 2.5 2.93V2ZM6 5.399L7.832 4.1775C8.0374 4.04058 8.20583 3.85509 8.32235 3.63747C8.43888 3.41986 8.4999 3.17685 8.5 2.93V2H3.5V2.93C3.5001 3.17685 3.56112 3.41986 3.67765 3.63747C3.79417 3.85509 3.9626 4.04058 4.168 4.1775L6 5.399ZM6 6.601L4.168 7.8225C3.9626 7.95942 3.79417 8.14491 3.67765 8.36253C3.56112 8.58014 3.5001 8.82315 3.5 9.07V10H8.5V9.07C8.4999 8.82315 8.43888 8.58014 8.32235 8.36253C8.20583 8.14491 8.0374 7.95942 7.832 7.8225L6 6.601Z" fill="#EA580C"/>
</svg>
