<svg width="17" height="17" viewBox="0 0 17 17" fill="none" xmlns="http://www.w3.org/2000/svg">
<path fill-rule="evenodd" clip-rule="evenodd" d="M7.74997 0.667969C6.62046 0.668065 5.50735 0.938272 4.50351 1.45605C3.49967 1.97382 2.63421 2.72415 1.97933 3.64443C1.32445 4.56471 0.899142 5.62826 0.738891 6.74634C0.578639 7.86442 0.688092 9.00461 1.05812 10.0718C1.42814 11.139 2.04801 12.1022 2.866 12.8811C3.68399 13.66 4.67639 14.2319 5.7604 14.5493C6.8444 14.8667 7.98859 14.9202 9.09748 14.7054C10.2064 14.4906 11.2478 14.0138 12.135 13.3146L15.1783 16.358C15.3355 16.5098 15.546 16.5938 15.7645 16.5919C15.983 16.59 16.192 16.5023 16.3465 16.3478C16.501 16.1933 16.5886 15.9843 16.5905 15.7658C16.5924 15.5473 16.5084 15.3368 16.3566 15.1796L13.3133 12.1363C14.1366 11.0918 14.6493 9.83664 14.7926 8.51441C14.9358 7.19218 14.704 5.85632 14.1235 4.65971C13.543 3.46311 12.6374 2.4541 11.5102 1.74816C10.3831 1.04222 9.07994 0.667879 7.74997 0.667969ZM2.3333 7.7513C2.3333 6.31471 2.90398 4.93696 3.91981 3.92114C4.93563 2.90532 6.31338 2.33464 7.74997 2.33464C9.18656 2.33464 10.5643 2.90532 11.5801 3.92114C12.596 4.93696 13.1666 6.31471 13.1666 7.7513C13.1666 9.18789 12.596 10.5656 11.5801 11.5815C10.5643 12.5973 9.18656 13.168 7.74997 13.168C6.31338 13.168 4.93563 12.5973 3.91981 11.5815C2.90398 10.5656 2.3333 9.18789 2.3333 7.7513Z" fill="#6A6A73"/>
</svg>
