<svg width="14" height="18" viewBox="0 0 14 18" fill="none" xmlns="http://www.w3.org/2000/svg">
<path fill-rule="evenodd" clip-rule="evenodd" d="M7.00004 0.667969V6.08464C7.00004 6.41616 7.13174 6.7341 7.36616 6.96852C7.60058 7.20294 7.91852 7.33464 8.25004 7.33464H13.6667V15.668C13.6667 16.11 13.4911 16.5339 13.1786 16.8465C12.866 17.159 12.4421 17.3346 12 17.3346H2.00004C1.55801 17.3346 1.13409 17.159 0.821529 16.8465C0.508969 16.5339 0.333374 16.11 0.333374 15.668V2.33464C0.333374 1.89261 0.508969 1.46868 0.821529 1.15612C1.13409 0.843563 1.55801 0.667969 2.00004 0.667969H7.00004ZM9.50004 11.5013H4.50004C4.27903 11.5013 4.06707 11.5891 3.91079 11.7454C3.7545 11.9017 3.66671 12.1136 3.66671 12.3346C3.66671 12.5556 3.7545 12.7676 3.91079 12.9239C4.06707 13.0802 4.27903 13.168 4.50004 13.168H9.50004C9.72105 13.168 9.93302 13.0802 10.0893 12.9239C10.2456 12.7676 10.3334 12.5556 10.3334 12.3346C10.3334 12.1136 10.2456 11.9017 10.0893 11.7454C9.93302 11.5891 9.72105 11.5013 9.50004 11.5013ZM5.33337 8.16797H4.50004C4.27903 8.16797 4.06707 8.25577 3.91079 8.41205C3.7545 8.56833 3.66671 8.78029 3.66671 9.0013C3.66671 9.22232 3.7545 9.43428 3.91079 9.59056C4.06707 9.74684 4.27903 9.83464 4.50004 9.83464H5.33337C5.55439 9.83464 5.76635 9.74684 5.92263 9.59056C6.07891 9.43428 6.16671 9.22232 6.16671 9.0013C6.16671 8.78029 6.07891 8.56833 5.92263 8.41205C5.76635 8.25577 5.55439 8.16797 5.33337 8.16797ZM8.66671 0.703802C8.98244 0.770765 9.27194 0.927962 9.50004 1.1563L13.1784 4.83464C13.4067 5.06274 13.5639 5.35224 13.6309 5.66797H8.66671V0.703802Z" fill="#1B84FF"/>
</svg>
