<svg width="18" height="17" viewBox="0 0 18 17" fill="none" xmlns="http://www.w3.org/2000/svg">
<path d="M14.8332 0.5C15.4962 0.5 16.1321 0.763392 16.6009 1.23223C17.0698 1.70107 17.3332 2.33696 17.3332 3V11.3333C17.3332 11.9964 17.0698 12.6323 16.6009 13.1011C16.1321 13.5699 15.4962 13.8333 14.8332 13.8333H5.11067L2.33317 15.9167C1.6465 16.4317 0.666504 15.9417 0.666504 15.0833V3C0.666504 2.33696 0.929896 1.70107 1.39874 1.23223C1.86758 0.763392 2.50346 0.5 3.1665 0.5H14.8332ZM14.8332 2.16667H3.1665C2.94549 2.16667 2.73353 2.25446 2.57725 2.41074C2.42097 2.56702 2.33317 2.77899 2.33317 3V13.8333L4.11067 12.5C4.39916 12.2836 4.75005 12.1667 5.11067 12.1667H14.8332C15.0542 12.1667 15.2661 12.0789 15.4224 11.9226C15.5787 11.7663 15.6665 11.5543 15.6665 11.3333V3C15.6665 2.77899 15.5787 2.56702 15.4224 2.41074C15.2661 2.25446 15.0542 2.16667 14.8332 2.16667ZM8.1665 8C8.3789 8.00024 8.5832 8.08157 8.73764 8.22737C8.89209 8.37318 8.98503 8.57246 8.99748 8.7845C9.00993 8.99653 8.94094 9.20532 8.80462 9.36819C8.66829 9.53107 8.47492 9.63575 8.264 9.66083L8.1665 9.66667H5.6665C5.4541 9.66643 5.24981 9.5851 5.09536 9.43929C4.94092 9.29349 4.84798 9.09421 4.83553 8.88217C4.82308 8.67014 4.89207 8.46135 5.02839 8.29847C5.16472 8.1356 5.35809 8.03092 5.569 8.00583L5.6665 8H8.1665ZM12.3332 4.66667C12.5542 4.66667 12.7661 4.75446 12.9224 4.91074C13.0787 5.06703 13.1665 5.27899 13.1665 5.5C13.1665 5.72101 13.0787 5.93298 12.9224 6.08926C12.7661 6.24554 12.5542 6.33333 12.3332 6.33333H5.6665C5.44549 6.33333 5.23353 6.24554 5.07725 6.08926C4.92097 5.93298 4.83317 5.72101 4.83317 5.5C4.83317 5.27899 4.92097 5.06703 5.07725 4.91074C5.23353 4.75446 5.44549 4.66667 5.6665 4.66667H12.3332Z" fill="#171719"/>
</svg>
