<svg width="16" height="16" viewBox="0 0 16 16" fill="none" xmlns="http://www.w3.org/2000/svg">
<path d="M6.74259 2.99439C6.79325 2.46439 7.34659 2.02773 7.90459 2.34639C9.06459 3.02573 10.1593 3.79973 11.2179 4.62706C12.5246 5.65906 13.5733 6.63173 14.3159 7.40839C14.6379 7.74639 14.6079 8.28039 14.2999 8.60306C13.5645 9.36377 12.7866 10.0822 11.9699 10.7551C10.6779 11.8131 9.33992 12.8384 7.88325 13.6604C7.38925 13.9391 6.85392 13.6204 6.75858 13.1264L6.74725 13.0511L6.59592 10.6684C5.38525 10.6937 4.21325 11.1097 3.27592 11.8837L3.09925 12.0317L3.01392 12.1011L2.84925 12.2291C2.82259 12.2491 2.79592 12.2691 2.76925 12.2877L2.61592 12.3944C2.5683 12.4257 2.51984 12.4557 2.47059 12.4844L2.33325 12.5584C1.68925 12.8764 1.33325 12.5951 1.33325 11.3337C1.33325 8.39773 3.49659 5.78506 6.42125 5.38906L6.59392 5.36839L6.74259 2.99439ZM8.01525 3.97706L7.88725 6.29173C7.88293 6.37085 7.85056 6.44585 7.79595 6.50327C7.74134 6.56069 7.66806 6.59678 7.58925 6.60506L6.68192 6.69973C4.63859 6.94373 3.01725 8.54106 2.71659 10.6291C3.71594 9.89221 4.90201 9.45058 6.13992 9.35439L6.40459 9.33906L7.54059 9.31506C7.627 9.3132 7.71075 9.34497 7.77418 9.40368C7.83762 9.46238 7.87577 9.54343 7.88059 9.62973L8.01192 12.0271C9.08059 11.3464 10.0993 10.5631 11.1213 9.72706C11.7813 9.17871 12.4168 8.60148 13.0259 7.99706L12.8539 7.82639L12.4833 7.47106C11.8128 6.84299 11.1157 6.244 10.3939 5.67573C9.62838 5.07216 8.83459 4.5053 8.01525 3.97706Z" fill="#171719"/>
</svg>
