<svg width="17" height="16" viewBox="0 0 17 16" fill="none" xmlns="http://www.w3.org/2000/svg">
<path fill-rule="evenodd" clip-rule="evenodd" d="M12.9831 0.5C13.2418 0.5 13.497 0.560242 13.7284 0.675955C13.9599 0.791668 14.1612 0.959673 14.3164 1.16667L16.5564 4.15333C16.6688 4.30064 16.7287 4.48137 16.7264 4.66667H16.7331V5.5C16.7339 6.3121 16.4375 7.09643 15.8997 7.705V13.8333C15.8997 14.2754 15.7241 14.6993 15.4116 15.0118C15.099 15.3244 14.6751 15.5 14.2331 15.5H2.56641C2.12438 15.5 1.70046 15.3244 1.3879 15.0118C1.07534 14.6993 0.899743 14.2754 0.899743 13.8333V7.705C0.361673 7.09663 0.0652035 6.31217 0.0664099 5.5V4.66667H0.0730765C0.0707873 4.48137 0.130638 4.30064 0.243077 4.15333L2.48308 1.16667C2.63832 0.959673 2.83963 0.791668 3.07105 0.675955C3.30248 0.560242 3.55767 0.5 3.81641 0.5H12.9831ZM10.8997 7.705C10.5873 8.06007 10.2026 8.34438 9.77151 8.53896C9.3404 8.73354 8.87273 8.83389 8.39974 8.83333C7.92676 8.83389 7.45909 8.73354 7.02798 8.53896C6.59686 8.34438 6.21222 8.06007 5.89974 7.705C5.51651 8.14082 5.02587 8.46874 4.47662 8.65616C3.92736 8.84358 3.33862 8.88398 2.76891 8.77333L2.56641 8.72833V13.8333H14.2331V8.72833L14.0306 8.77333C13.4608 8.88388 12.872 8.84335 12.3227 8.65578C11.7735 8.46821 11.2829 8.14097 10.8997 7.705ZM15.0664 5.5H11.7331C11.7311 5.93249 11.8974 6.34879 12.1967 6.66096C12.4961 6.97313 12.905 7.15672 13.3372 7.17295C13.7694 7.18918 14.1909 7.03677 14.5128 6.74792C14.8347 6.45908 15.0317 6.05641 15.0622 5.625L15.0664 5.5ZM10.0664 5.5H6.73308C6.73114 5.93249 6.8974 6.34879 7.19673 6.66096C7.49605 6.97313 7.90501 7.15672 8.33719 7.17295C8.76938 7.18918 9.19095 7.03677 9.51284 6.74792C9.83473 6.45908 10.0317 6.05641 10.0622 5.625L10.0664 5.5ZM5.06641 5.5H1.73308C1.73114 5.93249 1.8974 6.34879 2.19673 6.66096C2.49605 6.97313 2.90501 7.15672 3.33719 7.17295C3.76938 7.18918 4.19095 7.03677 4.51284 6.74792C4.83473 6.45908 5.03174 6.05641 5.06224 5.625L5.06641 5.5ZM12.9831 2.16667H3.81641L2.56641 3.83333H14.2331L12.9831 2.16667Z" fill="#171719"/>
</svg>
