<svg width="24" height="24" viewBox="0 0 24 24" fill="none" xmlns="http://www.w3.org/2000/svg">
<path d="M10.897 7.83984C11.2853 7.83984 11.6001 7.52504 11.6001 7.13672C11.6001 6.74839 11.2853 6.43359 10.897 6.43359C10.5086 6.43359 10.1938 6.74839 10.1938 7.13672C10.1938 7.52504 10.5086 7.83984 10.897 7.83984Z" fill="#5053D9"/>
<path d="M12.8857 5.85156C13.2741 5.85156 13.5889 5.53676 13.5889 5.14844C13.5889 4.76011 13.2741 4.44531 12.8857 4.44531C12.4974 4.44531 12.1826 4.76011 12.1826 5.14844C12.1826 5.53676 12.4974 5.85156 12.8857 5.85156Z" fill="#5053D9"/>
<path d="M10.897 11.8203C11.2853 11.8203 11.6001 11.5055 11.6001 11.1172C11.6001 10.7289 11.2853 10.4141 10.897 10.4141C10.5086 10.4141 10.1938 10.7289 10.1938 11.1172C10.1938 11.5055 10.5086 11.8203 10.897 11.8203Z" fill="#5053D9"/>
<path d="M12.8857 9.82812C13.2741 9.82812 13.5889 9.51333 13.5889 9.125C13.5889 8.73667 13.2741 8.42188 12.8857 8.42188C12.4974 8.42188 12.1826 8.73667 12.1826 9.125C12.1826 9.51333 12.4974 9.82812 12.8857 9.82812Z" fill="#5053D9"/>
<path d="M14.8745 7.83984C15.2628 7.83984 15.5776 7.52504 15.5776 7.13672C15.5776 6.74839 15.2628 6.43359 14.8745 6.43359C14.4862 6.43359 14.1714 6.74839 14.1714 7.13672C14.1714 7.52504 14.4862 7.83984 14.8745 7.83984Z" fill="#5053D9"/>
<path d="M16.8633 5.85156C17.2516 5.85156 17.5664 5.53676 17.5664 5.14844C17.5664 4.76011 17.2516 4.44531 16.8633 4.44531C16.475 4.44531 16.1602 4.76011 16.1602 5.14844C16.1602 5.53676 16.475 5.85156 16.8633 5.85156Z" fill="#5053D9"/>
<path d="M12.8857 13.8086C13.2741 13.8086 13.5889 13.4938 13.5889 13.1055C13.5889 12.7171 13.2741 12.4023 12.8857 12.4023C12.4974 12.4023 12.1826 12.7171 12.1826 13.1055C12.1826 13.4938 12.4974 13.8086 12.8857 13.8086Z" fill="#5053D9"/>
<path d="M14.3773 10.62C14.1027 10.8946 14.1027 11.3398 14.3773 11.6144C14.6519 11.889 15.0971 11.889 15.3717 11.6144C15.6463 11.3398 15.6463 10.8946 15.3717 10.62C15.0971 10.3454 14.6519 10.3454 14.3773 10.62Z" fill="#5053D9"/>
<path d="M17.3605 9.62218C17.6351 9.34759 17.6351 8.90241 17.3605 8.62782C17.0859 8.35323 16.6407 8.35323 16.3661 8.62782C16.0915 8.90241 16.0915 9.34759 16.3661 9.62218C16.6406 9.89677 17.0859 9.89677 17.3605 9.62218Z" fill="#5053D9"/>
<path d="M19.3492 7.6339C19.6238 7.3593 19.6238 6.91413 19.3492 6.63954C19.0746 6.36495 18.6295 6.36495 18.3549 6.63954C18.0803 6.91413 18.0803 7.3593 18.3549 7.6339C18.6295 7.90845 19.0746 7.90849 19.3492 7.6339Z" fill="#5053D9"/>
<path d="M16.8633 13.8086C17.2516 13.8086 17.5664 13.4938 17.5664 13.1055C17.5664 12.7171 17.2516 12.4023 16.8633 12.4023C16.475 12.4023 16.1602 12.7171 16.1602 13.1055C16.1602 13.4938 16.475 13.8086 16.8633 13.8086Z" fill="#5053D9"/>
<path d="M19.3492 11.6144C19.6238 11.3398 19.6238 10.8946 19.3492 10.62C19.0746 10.3454 18.6295 10.3454 18.3549 10.62C18.0803 10.8946 18.0803 11.3398 18.3549 11.6144C18.6295 11.889 19.0746 11.889 19.3492 11.6144Z" fill="#5053D9"/>
<path d="M21.2577 14.666C21.3409 14.5884 21.4228 14.5097 21.503 14.4294C23.2208 12.7117 24.0821 10.632 23.9939 8.41511C23.9111 6.33602 22.9677 4.29311 21.3373 2.6627C19.7069 1.03234 17.664 0.0888908 15.5849 0.00615642C13.3681 -0.0820623 11.2884 0.779266 9.57063 2.497C7.84966 4.21797 6.7016 6.61239 6.42087 9.0663C6.27865 10.3094 6.3642 11.4929 6.67516 12.5838C6.68281 12.6107 6.69124 12.6369 6.69912 12.6635C6.40212 13.9544 5.7813 15.1375 4.89026 16.1139C4.70168 16.1069 4.51085 16.1747 4.3669 16.3186L0.205945 20.4795C-0.0686484 20.7541 -0.0686484 21.1993 0.205945 21.4739L2.52616 23.794C2.80076 24.0686 3.24593 24.0686 3.52052 23.794L7.68148 19.6331C7.82543 19.4891 7.89316 19.2983 7.88618 19.1097C8.86254 18.2187 10.0457 17.5979 11.3366 17.3009C11.3632 17.3088 11.3894 17.3172 11.4162 17.3248C12.3424 17.5888 13.3353 17.6897 14.3746 17.6273C14.2328 18.0862 14.1563 18.5734 14.1563 19.0781C14.1563 21.7921 16.3642 24 19.0781 24C21.7921 24 24 21.7921 24 19.0781C24 17.1464 22.8812 15.4713 21.2577 14.666ZM3.02337 22.3025L1.69755 20.9767L4.86415 17.8101L6.18996 19.1359L3.02337 22.3025ZM7.03029 17.9876L6.01245 16.9697C6.65707 16.2439 7.17804 15.425 7.55927 14.5406C7.80691 14.9191 8.0906 15.2695 8.41052 15.5895C8.73044 15.9094 9.08088 16.1931 9.45935 16.4407C8.57501 16.822 7.7561 17.343 7.03029 17.9876ZM14.7739 16.182C12.5854 16.4324 10.6786 15.8688 9.40488 14.5952C8.1312 13.3215 7.56762 11.4147 7.81802 9.22619C8.06332 7.08208 9.06452 4.99183 10.565 3.49141C13.3948 0.66161 17.4156 0.729812 20.3429 3.65716C23.2703 6.5845 23.3384 10.6053 20.5087 13.4351C20.2405 13.7033 19.9531 13.955 19.6503 14.1897C19.4625 14.1679 19.2717 14.1563 19.0781 14.1563C17.4678 14.1563 16.0356 14.9337 15.1371 16.1329C15.0163 16.1515 14.8952 16.1681 14.7739 16.182ZM16.2632 21.1819C15.8233 20.5949 15.5625 19.8664 15.5625 19.0781C15.5625 18.2899 15.8233 17.5614 16.2632 16.9744C16.7165 17.5786 16.9688 18.3162 16.9688 19.0781C16.9688 19.84 16.7165 20.5777 16.2632 21.1819ZM19.0781 22.5938C18.4367 22.5938 17.8353 22.4202 17.317 22.1189C17.9964 21.2566 18.375 20.1858 18.375 19.0781C18.375 17.9705 17.9964 16.8997 17.3171 16.0374C17.8353 15.736 18.4367 15.5625 19.0781 15.5625C19.7196 15.5625 20.321 15.736 20.8392 16.0374C20.1599 16.8997 19.7813 17.9705 19.7813 19.0781C19.7813 20.1858 20.1599 21.2566 20.8392 22.1189C20.321 22.4202 19.7196 22.5938 19.0781 22.5938ZM21.8931 21.1819C21.4398 20.5777 21.1875 19.84 21.1875 19.0781C21.1875 18.3162 21.4398 17.5786 21.8931 16.9744C22.333 17.5614 22.5938 18.2899 22.5938 19.0781C22.5938 19.8664 22.333 20.5949 21.8931 21.1819Z" fill="#5053D9"/>
</svg>
