<svg width="23" height="24" viewBox="0 0 23 24" fill="none" xmlns="http://www.w3.org/2000/svg">
<path fill-rule="evenodd" clip-rule="evenodd" d="M2.03239 5.1349C5.17102 1.50069 10.7764 1.34078 14.1553 4.71979C15.7024 6.26683 16.6316 7.65822 17.0658 8.98197C17.5072 10.3278 17.4175 11.5443 17.0365 12.6873C17.0344 12.6937 17.0322 12.7001 17.0299 12.7064C16.5175 14.1156 16.7891 15.5752 17.8724 16.5387C17.8727 16.539 17.873 16.5393 17.8733 16.5396L20.4028 18.7714C21.1208 19.3368 20.9924 20.3184 20.4553 20.8554L18.6099 22.7009C18.3269 23.041 17.9159 23.1751 17.5625 23.1751C17.2018 23.1751 16.781 23.0354 16.4977 22.6794L14.1964 20.0813C13.2154 19.0451 11.7515 18.7348 10.384 19.2942L10.3786 19.2965C9.2963 19.7294 8.1293 19.8394 6.8492 19.4598C5.59053 19.0864 4.27175 18.2544 2.83461 16.895L2.83345 16.8939C-0.429386 13.7942 -0.952596 8.6174 2.03056 5.13702L2.03239 5.1349ZM3.16852 6.11429C0.752848 8.93375 1.1297 13.2059 3.86607 15.8059C5.20363 17.071 6.32214 17.7388 7.2758 18.0217C8.20723 18.298 9.02698 18.221 9.81898 17.9048C11.7472 17.1172 13.8781 17.5543 15.2962 19.0611C15.3013 19.0666 15.3064 19.0722 15.3115 19.0779L17.5661 21.6234L19.3481 19.8413L16.8788 17.6625L16.8767 17.6607C15.2637 16.2268 14.9339 14.0919 15.6165 12.204C15.9079 11.3249 15.9667 10.4439 15.6405 9.44952C15.306 8.42952 14.5477 7.2334 13.0947 5.78045C10.324 3.00977 5.73007 3.14951 3.16852 6.11429Z" fill="#1B84FF"/>
<path fill-rule="evenodd" clip-rule="evenodd" d="M16.5534 8.09264C16.8474 8.38439 16.8492 8.85921 16.5575 9.15329L6.88249 18.9033C6.59074 19.1973 6.11584 19.1991 5.82182 18.9073C5.5278 18.6156 5.52596 18.1408 5.81773 17.8467L15.4927 8.09669C15.7845 7.80269 16.2594 7.80089 16.5534 8.09264Z" fill="#1B84FF"/>
<path fill-rule="evenodd" clip-rule="evenodd" d="M19.25 2.25C18.4216 2.25 17.75 2.92157 17.75 3.75C17.75 4.57843 18.4216 5.25 19.25 5.25C20.0784 5.25 20.75 4.57843 20.75 3.75C20.75 2.92157 20.0784 2.25 19.25 2.25ZM16.25 3.75C16.25 2.09314 17.5932 0.75 19.25 0.75C20.9068 0.75 22.25 2.09314 22.25 3.75C22.25 5.40686 20.9068 6.75 19.25 6.75C17.5932 6.75 16.25 5.40686 16.25 3.75Z" fill="#1B84FF"/>
</svg>
