<svg width="15" height="18" viewBox="0 0 15 18" fill="none" xmlns="http://www.w3.org/2000/svg">
<path fill-rule="evenodd" clip-rule="evenodd" d="M5.45013 0.667969C5.7439 0.668064 6.03243 0.745806 6.28649 0.89332C6.54054 1.04083 6.75109 1.25288 6.8968 1.50797L7.60013 2.73797L8.30346 1.50797C8.44918 1.25288 8.65972 1.04083 8.91378 0.89332C9.16783 0.745806 9.45636 0.668064 9.75013 0.667969H13.5485C13.7674 0.667893 13.9826 0.72534 14.1724 0.834556C14.3622 0.943773 14.5199 1.10093 14.6299 1.29029C14.7398 1.47965 14.7981 1.69457 14.7989 1.91354C14.7997 2.1325 14.7429 2.34783 14.6343 2.53797L11.816 7.46964C12.6057 8.29543 13.1355 9.33499 13.3396 10.4592C13.5438 11.5835 13.4132 12.7429 12.9642 13.7937C12.5152 14.8444 11.7674 15.7401 10.8138 16.3696C9.86024 16.9991 8.74277 17.3347 7.60013 17.3347C6.45749 17.3347 5.34002 16.9991 4.38642 16.3696C3.43283 15.7401 2.68511 14.8444 2.23609 13.7937C1.78706 12.7429 1.65651 11.5835 1.86063 10.4592C2.06476 9.33499 2.59457 8.29543 3.3843 7.46964L0.565964 2.53797C0.457356 2.34783 0.400599 2.1325 0.401375 1.91354C0.402151 1.69457 0.460434 1.47965 0.570388 1.29029C0.680342 1.10093 0.838109 0.943773 1.0279 0.834556C1.21768 0.72534 1.43283 0.667893 1.6518 0.667969H5.45013ZM7.60013 7.33464C6.49506 7.33464 5.43525 7.77362 4.65385 8.55502C3.87245 9.33643 3.43346 10.3962 3.43346 11.5013C3.43346 12.6064 3.87245 13.6662 4.65385 14.4476C5.43525 15.229 6.49506 15.668 7.60013 15.668C8.7052 15.668 9.76501 15.229 10.5464 14.4476C11.3278 13.6662 11.7668 12.6064 11.7668 11.5013C11.7668 10.3962 11.3278 9.33643 10.5464 8.55502C9.76501 7.77362 8.7052 7.33464 7.60013 7.33464ZM7.60013 9.83464C8.04216 9.83464 8.46608 10.0102 8.77864 10.3228C9.0912 10.6354 9.2668 11.0593 9.2668 11.5013C9.2668 11.9433 9.0912 12.3673 8.77864 12.6798C8.46608 12.9924 8.04216 13.168 7.60013 13.168C7.1581 13.168 6.73418 12.9924 6.42162 12.6798C6.10906 12.3673 5.93346 11.9433 5.93346 11.5013C5.93346 11.0593 6.10906 10.6354 6.42162 10.3228C6.73418 10.0102 7.1581 9.83464 7.60013 9.83464ZM12.831 2.33464H9.75013L8.56013 4.41797L9.44346 5.96547C9.81013 6.08714 10.1601 6.24464 10.4893 6.43214L12.831 2.33464ZM5.45013 2.33464H2.3693L4.71096 6.43214C5.51947 5.97034 6.42727 5.70995 7.35763 5.67297L5.45013 2.33464Z" fill="#171719"/>
</svg>
