<svg width="18" height="16" viewBox="0 0 18 16" fill="none" xmlns="http://www.w3.org/2000/svg">
<path d="M16.9999 9.99986C17.2547 10.0001 17.4999 10.0977 17.6852 10.2727C17.8706 10.4477 17.9821 10.6868 17.997 10.9413C18.012 11.1957 17.9292 11.4462 17.7656 11.6417C17.602 11.8371 17.37 11.9628 17.1169 11.9929L16.9999 11.9999H3.41387L5.70687 14.2929C5.88622 14.4728 5.99034 14.7143 5.9981 14.9682C6.00585 15.2222 5.91665 15.4696 5.74862 15.6601C5.58059 15.8507 5.34632 15.9702 5.09339 15.9943C4.84047 16.0184 4.58786 15.9453 4.38687 15.7899L4.29287 15.7069L0.462869 11.8769C-0.202131 11.2129 0.223869 10.0939 1.12587 10.0059L1.24087 9.99986H16.9999ZM12.2929 0.292861C12.4651 0.120685 12.6942 0.0172534 12.9372 0.00197221C13.1802 -0.013309 13.4205 0.06061 13.6129 0.209861L13.7069 0.292861L17.5369 4.12286C18.2019 4.78686 17.7759 5.90586 16.8739 5.99386L16.7589 5.99986H0.999869C0.744989 5.99958 0.499837 5.90198 0.3145 5.72701C0.129164 5.55204 0.0176337 5.31291 0.0026966 5.05847C-0.0122405 4.80402 0.0705433 4.55348 0.234134 4.35803C0.397724 4.16258 0.629773 4.03696 0.882869 4.00686L0.999869 3.99986H14.5859L12.2929 1.70686C12.1054 1.51933 12.0001 1.26503 12.0001 0.999861C12.0001 0.734697 12.1054 0.480389 12.2929 0.292861Z" fill="#171719"/>
</svg>
