<svg width="21" height="22" viewBox="0 0 21 22" fill="none" xmlns="http://www.w3.org/2000/svg">
<path fill-rule="evenodd" clip-rule="evenodd" d="M13.194 1.89697C12.4703 1.28018 11.5504 0.941406 10.5995 0.941406C9.64859 0.941406 8.72876 1.28018 8.00501 1.89697L7.62901 2.21697C7.30879 2.49013 6.91056 2.65531 6.49101 2.68897L5.99801 2.72897C5.04998 2.80442 4.15984 3.21517 3.48728 3.88756C2.81471 4.55994 2.40371 5.44996 2.32801 6.39797L2.28901 6.89097C2.25562 7.31041 2.09081 7.70863 1.81801 8.02897L1.49701 8.40497C0.879951 9.1288 0.541016 10.0488 0.541016 11C0.541016 11.9511 0.879951 12.8711 1.49701 13.595L1.81701 13.971C2.09017 14.2912 2.25534 14.6894 2.28901 15.109L2.32901 15.602C2.40445 16.55 2.81521 17.4401 3.48759 18.1127C4.15998 18.7853 5.05 19.1963 5.99801 19.272L6.49101 19.311C6.91044 19.3444 7.30866 19.5092 7.62901 19.782L8.00501 20.102C8.72884 20.719 9.64886 21.058 10.6 21.058C11.5512 21.058 12.4712 20.719 13.195 20.102L13.571 19.782C13.8914 19.5092 14.2896 19.3444 14.709 19.311L15.202 19.271C16.15 19.1955 17.0402 18.7848 17.7127 18.1124C18.3853 17.44 18.7963 16.55 18.872 15.602L18.91 15.109C18.9437 14.6894 19.1089 14.2912 19.382 13.971L19.702 13.594C20.3188 12.8702 20.6576 11.9504 20.6576 10.9995C20.6576 10.0485 20.3188 9.12873 19.702 8.40497L19.382 8.02897C19.1089 7.70876 18.9437 7.31052 18.91 6.89097L18.871 6.39797C18.7956 5.44994 18.3848 4.55981 17.7124 3.88724C17.04 3.21467 16.15 2.80367 15.202 2.72797L14.709 2.68897C14.2896 2.65559 13.8914 2.49077 13.571 2.21797L13.194 1.89697ZM9.30301 3.41997C9.66485 3.11171 10.1247 2.9424 10.6 2.9424C11.0754 2.9424 11.5352 3.11171 11.897 3.41997L12.274 3.74097C12.9146 4.28693 13.711 4.61692 14.55 4.68397L15.043 4.72397C15.5168 4.76191 15.9615 4.96731 16.2976 5.30338C16.6337 5.63945 16.8391 6.08422 16.877 6.55797L16.917 7.05097C16.9841 7.88996 17.3141 8.68641 17.86 9.32697L18.18 9.70397C18.4883 10.0658 18.6576 10.5256 18.6576 11.001C18.6576 11.4763 18.4883 11.9361 18.18 12.298L17.86 12.675C17.3141 13.3155 16.9841 14.112 16.917 14.951L16.877 15.444C16.8391 15.9177 16.6337 16.3625 16.2976 16.6986C15.9615 17.0346 15.5168 17.24 15.043 17.278L14.55 17.318C13.711 17.385 12.9146 17.715 12.274 18.261L11.897 18.581C11.5352 18.8892 11.0754 19.0585 10.6 19.0585C10.1247 19.0585 9.66485 18.8892 9.30301 18.581L8.92601 18.261C8.28545 17.715 7.48899 17.385 6.65001 17.318L6.15701 17.278C5.68307 17.2403 5.23807 17.035 4.90179 16.6989C4.56552 16.3628 4.35997 15.9179 4.32201 15.444L4.28201 14.951C4.21524 14.1121 3.8856 13.3157 3.34001 12.675L3.02001 12.298C2.71175 11.9361 2.54244 11.4763 2.54244 11.001C2.54244 10.5256 2.71175 10.0658 3.02001 9.70397L3.34001 9.32697C3.88597 8.68641 4.21596 7.88996 4.28301 7.05097L4.32301 6.55797C4.36071 6.08404 4.56602 5.63903 4.90211 5.30276C5.2382 4.96649 5.68309 4.76094 6.15701 4.72297L6.65001 4.68397C7.48899 4.61692 8.28545 4.28693 8.92601 3.74097L9.30301 3.41997ZM14.307 8.70797C14.4025 8.61573 14.4787 8.50538 14.5311 8.38338C14.5835 8.26137 14.6111 8.13015 14.6123 7.99738C14.6134 7.8646 14.5881 7.73292 14.5378 7.61002C14.4875 7.48712 14.4133 7.37547 14.3194 7.28158C14.2255 7.18769 14.1139 7.11343 13.991 7.06315C13.8681 7.01287 13.7364 6.98757 13.6036 6.98872C13.4708 6.98988 13.3396 7.01746 13.2176 7.06987C13.0956 7.12228 12.9853 7.19846 12.893 7.29397L6.89301 13.294C6.7975 13.3862 6.72132 13.4966 6.66891 13.6186C6.6165 13.7406 6.58891 13.8718 6.58776 14.0046C6.58661 14.1374 6.61191 14.269 6.66219 14.3919C6.71247 14.5148 6.78672 14.6265 6.88061 14.7204C6.97451 14.8143 7.08616 14.8885 7.20905 14.9388C7.33195 14.9891 7.46363 15.0144 7.59641 15.0132C7.72919 15.0121 7.86041 14.9845 7.98241 14.9321C8.10442 14.8797 8.21476 14.8035 8.30701 14.708L14.307 8.70797ZM9.60001 8.49997C9.60001 8.8978 9.44197 9.27933 9.16067 9.56063C8.87936 9.84194 8.49783 9.99997 8.10001 9.99997C7.70218 9.99997 7.32065 9.84194 7.03935 9.56063C6.75804 9.27933 6.60001 8.8978 6.60001 8.49997C6.60001 8.10215 6.75804 7.72062 7.03935 7.43931C7.32065 7.15801 7.70218 6.99997 8.10001 6.99997C8.49783 6.99997 8.87936 7.15801 9.16067 7.43931C9.44197 7.72062 9.60001 8.10215 9.60001 8.49997ZM13.1 15C13.4978 15 13.8794 14.8419 14.1607 14.5606C14.442 14.2793 14.6 13.8978 14.6 13.5C14.6 13.1021 14.442 12.7206 14.1607 12.4393C13.8794 12.158 13.4978 12 13.1 12C12.7022 12 12.3207 12.158 12.0393 12.4393C11.758 12.7206 11.6 13.1021 11.6 13.5C11.6 13.8978 11.758 14.2793 12.0393 14.5606C12.3207 14.8419 12.7022 15 13.1 15Z" fill="#171719"/>
</svg>
