<svg width="16" height="16" viewBox="0 0 16 16" fill="none" xmlns="http://www.w3.org/2000/svg">
<path fill-rule="evenodd" clip-rule="evenodd" d="M2.66634 7.99936C2.66834 7.9887 2.67767 7.93003 2.72967 7.8147C2.78701 7.68736 2.87967 7.52736 3.01234 7.3427C3.27767 6.97403 3.67434 6.54803 4.17567 6.14403C5.18434 5.32936 6.54101 4.66536 7.99967 4.66536C9.45834 4.66536 10.815 5.32936 11.8237 6.1427C12.325 6.5467 12.7217 6.9727 12.987 7.34136C13.1203 7.52603 13.2123 7.68603 13.2697 7.81336C13.3217 7.9287 13.331 7.98736 13.333 7.99803V7.9987C13.331 8.00936 13.3217 8.06803 13.2697 8.18336C13.191 8.34949 13.0963 8.50757 12.987 8.65536C12.7217 9.02403 12.325 9.45003 11.8237 9.85403C10.8157 10.668 9.45901 11.332 7.99967 11.332C6.54101 11.332 5.18434 10.668 4.17567 9.8547C3.67434 9.4507 3.27767 9.0247 3.01234 8.65603C2.90295 8.5083 2.80827 8.35021 2.72967 8.18403C2.70054 8.12553 2.67924 8.06344 2.66634 7.99936ZM7.99967 3.33203C6.14434 3.33203 4.50101 4.16803 3.33901 5.1047C2.75434 5.57536 2.27234 6.08736 1.93034 6.5627C1.76839 6.78269 1.62881 7.01831 1.51367 7.26603C1.41501 7.48536 1.33301 7.73936 1.33301 7.9987C1.33301 8.25736 1.41501 8.5127 1.51301 8.73136C1.61634 8.95936 1.75967 9.19803 1.93034 9.4347C2.27234 9.91003 2.75434 10.4214 3.33901 10.8927C4.50101 11.8294 6.14434 12.6654 7.99967 12.6654C9.85501 12.6654 11.4983 11.8294 12.6603 10.8927C13.245 10.422 13.727 9.91003 14.069 9.4347C14.2403 9.19736 14.383 8.95936 14.4857 8.73136C14.5843 8.5127 14.6663 8.25803 14.6663 7.9987C14.6663 7.74003 14.5843 7.4847 14.4863 7.26603C14.3708 7.01836 14.231 6.78276 14.069 6.5627C13.727 6.08736 13.245 5.57603 12.6603 5.1047C11.4983 4.16803 9.85501 3.33203 7.99967 3.33203ZM7.33301 7.9987C7.33301 7.82189 7.40325 7.65232 7.52827 7.52729C7.65329 7.40227 7.82286 7.33203 7.99967 7.33203C8.17649 7.33203 8.34606 7.40227 8.47108 7.52729C8.5961 7.65232 8.66634 7.82189 8.66634 7.9987C8.66634 8.17551 8.5961 8.34508 8.47108 8.4701C8.34606 8.59513 8.17649 8.66536 7.99967 8.66536C7.82286 8.66536 7.65329 8.59513 7.52827 8.4701C7.40325 8.34508 7.33301 8.17551 7.33301 7.9987ZM7.99967 5.9987C7.46924 5.9987 6.96053 6.20941 6.58546 6.58448C6.21039 6.95956 5.99967 7.46827 5.99967 7.9987C5.99967 8.52913 6.21039 9.03784 6.58546 9.41291C6.96053 9.78798 7.46924 9.9987 7.99967 9.9987C8.53011 9.9987 9.03882 9.78798 9.41389 9.41291C9.78896 9.03784 9.99967 8.52913 9.99967 7.9987C9.99967 7.46827 9.78896 6.95956 9.41389 6.58448C9.03882 6.20941 8.53011 5.9987 7.99967 5.9987Z" fill="#171719"/>
</svg>
