<svg width="24" height="25" viewBox="0 0 24 25" fill="none" xmlns="http://www.w3.org/2000/svg">
<path d="M9 10.9443C10.1046 10.9443 11 10.0489 11 8.94434C11 7.83977 10.1046 6.94434 9 6.94434C7.89543 6.94434 7 7.83977 7 8.94434C7 10.0489 7.89543 10.9443 9 10.9443Z" stroke="#0B99FF" stroke-width="1.5" stroke-linecap="round" stroke-linejoin="round"/>
<path d="M13 2.94434H9C4 2.94434 2 4.94434 2 9.94434V15.9443C2 20.9443 4 22.9443 9 22.9443H15C20 22.9443 22 20.9443 22 15.9443V10.9443" stroke="#0B99FF" stroke-width="1.5" stroke-linecap="round" stroke-linejoin="round"/>
<path d="M18 8.94434V2.94434L20 4.94434" stroke="#0B99FF" stroke-width="1.5" stroke-linecap="round" stroke-linejoin="round"/>
<path d="M18 2.94434L16 4.94434" stroke="#0B99FF" stroke-width="1.5" stroke-linecap="round" stroke-linejoin="round"/>
<path d="M2.66992 19.8944L7.59992 16.5844C8.38992 16.0544 9.52992 16.1144 10.2399 16.7244L10.5699 17.0144C11.3499 17.6844 12.6099 17.6844 13.3899 17.0144L17.5499 13.4444C18.3299 12.7744 19.5899 12.7744 20.3699 13.4444L21.9999 14.8444" stroke="#0B99FF" stroke-width="1.5" stroke-linecap="round" stroke-linejoin="round"/>
</svg>
