<svg width="16" height="18" viewBox="0 0 16 18" fill="none" xmlns="http://www.w3.org/2000/svg">
<path d="M8.19995 9.83464C10.1966 9.83464 12.0125 10.413 13.3483 11.228C14.015 11.6346 14.585 12.1146 14.9966 12.6363C15.4016 13.1488 15.7 13.7621 15.7 14.418C15.7 15.1221 15.3575 15.6771 14.8641 16.073C14.3975 16.448 13.7816 16.6963 13.1275 16.8696C11.8125 17.2171 10.0575 17.3346 8.19995 17.3346C6.34245 17.3346 4.58745 17.218 3.27245 16.8696C2.61828 16.6963 2.00245 16.448 1.53578 16.073C1.04162 15.6763 0.699951 15.1221 0.699951 14.418C0.699951 13.7621 0.998285 13.1488 1.40328 12.6355C1.81495 12.1146 2.38412 11.6355 3.05162 11.2271C4.38745 10.4138 6.20412 9.83464 8.19995 9.83464ZM8.19995 0.667969C9.30502 0.667969 10.3648 1.10696 11.1462 1.88836C11.9276 2.66976 12.3666 3.72957 12.3666 4.83464C12.3666 5.9397 11.9276 6.99951 11.1462 7.78091C10.3648 8.56232 9.30502 9.0013 8.19995 9.0013C7.09488 9.0013 6.03507 8.56232 5.25367 7.78091C4.47227 6.99951 4.03328 5.9397 4.03328 4.83464C4.03328 3.72957 4.47227 2.66976 5.25367 1.88836C6.03507 1.10696 7.09488 0.667969 8.19995 0.667969Z" fill="#1B84FF"/>
</svg>
