<svg width="18" height="18" viewBox="0 0 18 18" fill="none" xmlns="http://www.w3.org/2000/svg">
<path d="M16.6453 7.03281C16.3508 6.725 16.0461 6.40781 15.9312 6.12891C15.825 5.87344 15.8187 5.45 15.8125 5.03984C15.8008 4.27734 15.7883 3.41328 15.1875 2.8125C14.5867 2.21172 13.7227 2.19922 12.9602 2.1875C12.55 2.18125 12.1266 2.175 11.8711 2.06875C11.593 1.95391 11.275 1.64922 10.9672 1.35469C10.4281 0.836719 9.81563 0.25 9 0.25C8.18437 0.25 7.57266 0.836719 7.03281 1.35469C6.725 1.64922 6.40781 1.95391 6.12891 2.06875C5.875 2.175 5.45 2.18125 5.03984 2.1875C4.27734 2.19922 3.41328 2.21172 2.8125 2.8125C2.21172 3.41328 2.20312 4.27734 2.1875 5.03984C2.18125 5.45 2.175 5.87344 2.06875 6.12891C1.95391 6.40703 1.64922 6.725 1.35469 7.03281C0.836719 7.57266 0.25 8.18437 0.25 9C0.25 9.81563 0.836719 10.4273 1.35469 10.9672C1.64922 11.275 1.95391 11.5922 2.06875 11.8711C2.175 12.1266 2.18125 12.55 2.1875 12.9602C2.19922 13.7227 2.21172 14.5867 2.8125 15.1875C3.41328 15.7883 4.27734 15.8008 5.03984 15.8125C5.45 15.8187 5.87344 15.825 6.12891 15.9312C6.40703 16.0461 6.725 16.3508 7.03281 16.6453C7.57188 17.1633 8.18437 17.75 9 17.75C9.81563 17.75 10.4273 17.1633 10.9672 16.6453C11.275 16.3508 11.5922 16.0461 11.8711 15.9312C12.1266 15.825 12.55 15.8187 12.9602 15.8125C13.7227 15.8008 14.5867 15.7883 15.1875 15.1875C15.7883 14.5867 15.8008 13.7227 15.8125 12.9602C15.8187 12.55 15.825 12.1266 15.9312 11.8711C16.0461 11.593 16.3508 11.275 16.6453 10.9672C17.1633 10.4273 17.75 9.81563 17.75 9C17.75 8.18437 17.1633 7.57266 16.6453 7.03281ZM15.743 10.1023C15.3687 10.493 14.9812 10.8969 14.7758 11.393C14.5789 11.8695 14.5703 12.4141 14.5625 12.9414C14.5547 13.4883 14.5461 14.0609 14.3031 14.3031C14.0602 14.5453 13.4914 14.5547 12.9414 14.5625C12.4141 14.5703 11.8695 14.5789 11.393 14.7758C10.8969 14.9812 10.493 15.3687 10.1023 15.743C9.71172 16.1172 9.3125 16.5 9 16.5C8.6875 16.5 8.28516 16.1156 7.89766 15.743C7.51016 15.3703 7.10313 14.9812 6.60703 14.7758C6.13047 14.5789 5.58594 14.5703 5.05859 14.5625C4.51172 14.5547 3.93906 14.5461 3.69687 14.3031C3.45469 14.0602 3.44531 13.4914 3.4375 12.9414C3.42969 12.4141 3.42109 11.8695 3.22422 11.393C3.01875 10.8969 2.63125 10.493 2.25703 10.1023C1.88281 9.71172 1.5 9.3125 1.5 9C1.5 8.6875 1.88437 8.28594 2.25703 7.89766C2.62969 7.50938 3.01875 7.10313 3.22422 6.60703C3.42109 6.13047 3.42969 5.58594 3.4375 5.05859C3.44531 4.51172 3.45391 3.93906 3.69687 3.69687C3.93984 3.45469 4.50859 3.44531 5.05859 3.4375C5.58594 3.42969 6.13047 3.42109 6.60703 3.22422C7.10313 3.01875 7.50703 2.63125 7.89766 2.25703C8.28828 1.88281 8.6875 1.5 9 1.5C9.3125 1.5 9.71484 1.88437 10.1023 2.25703C10.4898 2.62969 10.8969 3.01875 11.393 3.22422C11.8695 3.42109 12.4141 3.42969 12.9414 3.4375C13.4883 3.44531 14.0609 3.45391 14.3031 3.69687C14.5453 3.93984 14.5547 4.50859 14.5625 5.05859C14.5703 5.58594 14.5789 6.13047 14.7758 6.60703C14.9812 7.10313 15.3687 7.50703 15.743 7.89766C16.1172 8.28828 16.5 8.6875 16.5 9C16.5 9.3125 16.1156 9.71406 15.743 10.1023ZM8.375 6.5C8.375 6.12916 8.26503 5.76665 8.05901 5.45831C7.85298 5.14996 7.56014 4.90964 7.21753 4.76773C6.87492 4.62581 6.49792 4.58868 6.13421 4.66103C5.77049 4.73337 5.4364 4.91195 5.17417 5.17417C4.91195 5.4364 4.73337 5.77049 4.66103 6.13421C4.58868 6.49792 4.62581 6.87492 4.76773 7.21753C4.90964 7.56014 5.14996 7.85298 5.45831 8.05901C5.76665 8.26503 6.12916 8.375 6.5 8.375C6.99728 8.375 7.47419 8.17746 7.82583 7.82583C8.17746 7.47419 8.375 6.99728 8.375 6.5ZM5.875 6.5C5.875 6.37639 5.91166 6.25555 5.98033 6.15277C6.04901 6.04999 6.14662 5.96988 6.26082 5.92257C6.37503 5.87527 6.50069 5.86289 6.62193 5.88701C6.74317 5.91112 6.85453 5.97065 6.94194 6.05806C7.02935 6.14547 7.08888 6.25683 7.11299 6.37807C7.13711 6.49931 7.12473 6.62497 7.07743 6.73918C7.03012 6.85338 6.95001 6.95099 6.84723 7.01967C6.74445 7.08834 6.62361 7.125 6.5 7.125C6.33424 7.125 6.17527 7.05915 6.05806 6.94194C5.94085 6.82473 5.875 6.66576 5.875 6.5ZM11.5 9.625C11.1292 9.625 10.7666 9.73497 10.4583 9.94099C10.15 10.147 9.90964 10.4399 9.76773 10.7825C9.62581 11.1251 9.58868 11.5021 9.66103 11.8658C9.73337 12.2295 9.91195 12.5636 10.1742 12.8258C10.4364 13.088 10.7705 13.2666 11.1342 13.339C11.4979 13.4113 11.8749 13.3742 12.2175 13.2323C12.5601 13.0904 12.853 12.85 13.059 12.5417C13.265 12.2334 13.375 11.8708 13.375 11.5C13.375 11.0027 13.1775 10.5258 12.8258 10.1742C12.4742 9.82254 11.9973 9.625 11.5 9.625ZM11.5 12.125C11.3764 12.125 11.2555 12.0883 11.1528 12.0197C11.05 11.951 10.9699 11.8534 10.9226 11.7392C10.8753 11.625 10.8629 11.4993 10.887 11.3781C10.9111 11.2568 10.9706 11.1455 11.0581 11.0581C11.1455 10.9706 11.2568 10.9111 11.3781 10.887C11.4993 10.8629 11.625 10.8753 11.7392 10.9226C11.8534 10.9699 11.951 11.05 12.0197 11.1528C12.0883 11.2555 12.125 11.3764 12.125 11.5C12.125 11.6658 12.0592 11.8247 11.9419 11.9419C11.8247 12.0592 11.6658 12.125 11.5 12.125ZM12.5672 6.31719L6.31719 12.5672C6.25912 12.6253 6.19018 12.6713 6.11431 12.7027C6.03844 12.7342 5.95712 12.7503 5.875 12.7503C5.79288 12.7503 5.71156 12.7342 5.63569 12.7027C5.55982 12.6713 5.49088 12.6253 5.43281 12.5672C5.37474 12.5091 5.32868 12.4402 5.29725 12.3643C5.26583 12.2884 5.24965 12.2071 5.24965 12.125C5.24965 12.0429 5.26583 11.9616 5.29725 11.8857C5.32868 11.8098 5.37474 11.7409 5.43281 11.6828L11.6828 5.43281C11.7409 5.37474 11.8098 5.32868 11.8857 5.29725C11.9616 5.26583 12.0429 5.24965 12.125 5.24965C12.2071 5.24965 12.2884 5.26583 12.3643 5.29725C12.4402 5.32868 12.5091 5.37474 12.5672 5.43281C12.6253 5.49088 12.6713 5.55982 12.7027 5.63569C12.7342 5.71156 12.7503 5.79288 12.7503 5.875C12.7503 5.95712 12.7342 6.03844 12.7027 6.11431C12.6713 6.19018 12.6253 6.25912 12.5672 6.31719Z" fill="#0B99FF"/>
</svg>
