<svg width="24" height="24" viewBox="0 0 24 24" fill="none" xmlns="http://www.w3.org/2000/svg">
<g clip-path="url(#clip0_39367_8820)">
<path d="M12 0C5.36362 0 0 5.36208 0 12C0 18.6366 5.36222 24 12 24C18.6363 24 24 18.6381 24 12C24 5.36358 18.6381 0 12 0ZM12.9811 10.7231C12.1125 9.56334 11.5576 8.1975 11.369 6.768C14.7825 5.86613 18.57 6.25767 21.8556 8.1142C22.3319 9.31791 22.5938 10.6289 22.5938 12C22.5938 12.6645 22.5316 13.3147 22.414 13.9456C20.0107 11.1607 16.3887 10.0256 12.9811 10.7231ZM8.20889 13.7196C6.02756 10.6095 5.27822 6.89972 5.86073 3.3712C7.29492 2.34783 8.99395 1.6733 10.8331 1.47084C9.26869 4.77469 9.69441 8.61333 11.7895 11.4777C10.7939 12.5273 9.56119 13.293 8.20889 13.7196ZM20.7391 6.01912C17.7218 4.80202 14.4161 4.5772 11.3038 5.33395C11.3589 3.9503 11.7519 2.6085 12.4511 1.41652C15.8889 1.56131 18.9079 3.3518 20.7391 6.01912ZM4.2945 4.73794C4.10138 7.95281 4.88803 11.1957 6.73116 14.0427C4.90116 14.2735 3.0488 13.902 1.45158 12.9756C1.42209 12.6542 1.40625 12.329 1.40625 12C1.40625 9.19186 2.50491 6.63577 4.2945 4.73794ZM1.75603 14.7023C5.64483 16.393 10.2353 15.4093 13.0893 12.1377C14.6989 11.7723 16.4043 11.8837 17.972 12.4821C15.399 17.1028 10.2775 20.0682 4.73517 19.7029C3.31763 18.3652 2.26809 16.6418 1.75603 14.7023ZM12 22.5938C10.0301 22.5938 8.18437 22.0527 6.60267 21.1122C11.9293 20.7928 16.6899 17.7426 19.2412 13.0928C20.3036 13.72 21.2307 14.5838 21.948 15.6437C20.4592 19.6955 16.5617 22.5938 12 22.5938Z" fill="#DB2777"/>
</g>
<defs>
<clipPath id="clip0_39367_8820">
<rect width="24" height="24" fill="white"/>
</clipPath>
</defs>
</svg>
