<svg width="36" height="36" viewBox="0 0 36 36" fill="none" xmlns="http://www.w3.org/2000/svg">
<path d="M12.9346 2.50788L17.7474 2.00655L18.349 1.30469H21.758L25.7687 2.80868L29.7793 5.51587L32.5868 9.72705L34.2913 14.8406L34.5921 19.1521L33.1884 23.7643L31.8849 27.2736L29.0775 30.4822L25.0668 33.0891L20.5548 34.5931L15.1405 34.2923L10.4279 32.688L5.31436 28.8779L2.10584 22.1601L1.30371 16.2444L3.4093 10.7297L6.81836 5.91694L12.9346 2.50788Z" fill="white"/>
<mask id="mask0_40583_22778" style="mask-type:alpha" maskUnits="userSpaceOnUse" x="1" y="1" width="34" height="34">
<path d="M12.9346 2.50788L17.7474 2.00655L18.349 1.30469H21.758L25.7687 2.80868L29.7793 5.51587L32.5868 9.72705L34.2913 14.8406L34.5921 19.1521L33.1884 23.7643L31.8849 27.2736L29.0775 30.4822L25.0668 33.0891L20.5548 34.5931L15.1405 34.2923L10.4279 32.688L5.31436 28.8779L2.10584 22.1601L1.30371 16.2444L3.4093 10.7297L6.81836 5.91694L12.9346 2.50788Z" fill="white"/>
</mask>
<g mask="url(#mask0_40583_22778)">
<path d="M34.2402 21.2383H1.74023L2.74023 24.2383L5.74023 29.2383L9.24023 32.2383L14.2402 34.2383L20.7402 34.7383L27.2402 31.7383L31.2402 27.7383L34.2402 21.2383Z" fill="#2EF7DE"/>
<path d="M9.46623 14.3503C9.06023 14.3503 8.66357 14.3059 8.27623 14.2173C7.89357 14.1239 7.57857 14.0003 7.33123 13.8463L7.86323 12.6423C8.09657 12.7776 8.3579 12.8873 8.64723 12.9713C8.93657 13.0506 9.21423 13.0903 9.48023 13.0903C9.7089 13.0903 9.87223 13.0693 9.97023 13.0273C10.0682 12.9806 10.1172 12.9129 10.1172 12.8243C10.1172 12.7216 10.0519 12.6446 9.92123 12.5933C9.79523 12.5419 9.58523 12.4859 9.29123 12.4253C8.91323 12.3459 8.59823 12.2619 8.34623 12.1733C8.09423 12.0799 7.8749 11.9306 7.68823 11.7253C7.50157 11.5153 7.40823 11.2329 7.40823 10.8783C7.40823 10.5703 7.49457 10.2903 7.66723 10.0383C7.8399 9.78628 8.09657 9.58795 8.43723 9.44328C8.78257 9.29861 9.20023 9.22628 9.69023 9.22628C10.0262 9.22628 10.3552 9.26361 10.6772 9.33828C11.0039 9.40828 11.2909 9.51328 11.5382 9.65328L11.0412 10.8503C10.5606 10.6076 10.1056 10.4863 9.67623 10.4863C9.25157 10.4863 9.03923 10.5889 9.03923 10.7943C9.03923 10.8923 9.10223 10.9669 9.22823 11.0183C9.35423 11.0649 9.5619 11.1163 9.85123 11.1723C10.2246 11.2423 10.5396 11.3239 10.7962 11.4173C11.0529 11.5059 11.2746 11.6529 11.4612 11.8583C11.6526 12.0636 11.7482 12.3436 11.7482 12.6983C11.7482 13.0063 11.6619 13.2863 11.4892 13.5383C11.3166 13.7856 11.0576 13.9839 10.7122 14.1333C10.3716 14.2779 9.95623 14.3503 9.46623 14.3503ZM15.9988 13.3843H14.1368L13.8078 14.2383H12.1278L14.2698 9.33828H15.8938L18.0358 14.2383H16.3278L15.9988 13.3843ZM15.5438 12.1943L15.0678 10.9623L14.5918 12.1943H15.5438ZM18.7195 9.33828H20.3715V12.9573H22.5835V14.2383H18.7195V9.33828ZM27.5338 12.9923V14.2383H23.4598V9.33828H27.4428V10.5843H25.0838V11.1583H27.1558V12.3483H25.0838V12.9923H27.5338Z" fill="#284783"/>
<g clip-path="url(#clip0_40583_22778)">
<path d="M21.6759 16.9979C20.8469 16.1037 20.0786 16.1599 19.5789 16.3634C18.7508 16.7012 18.1334 17.6666 17.7405 18.6419C17.3485 17.6696 16.7292 16.7012 15.9011 16.3634C15.4024 16.1629 14.6331 16.1037 13.8051 16.9979C13.175 17.6756 13.1848 18.2871 13.3033 18.681C13.7218 20.0674 17.7405 21.2383 17.7405 21.2383C17.7405 21.2383 21.7582 20.0674 22.1767 18.681C22.2962 18.2871 22.3051 17.6756 21.6759 16.9979ZM14.2588 18.3793C14.2362 18.3071 14.1706 18.0886 14.5292 17.7016C14.8604 17.3448 15.1172 17.2606 15.2926 17.2606C15.3749 17.2614 15.4562 17.2791 15.5317 17.3127C16.2608 17.6134 16.9105 19.0169 17.1466 20.0343C15.8913 19.6674 14.4528 19.0239 14.2588 18.3793ZM21.2222 18.3793C21.0262 19.0229 19.5906 19.6654 18.3343 20.0343C18.5705 19.0209 19.2163 17.6104 19.9493 17.3127C20.0244 17.2791 20.1054 17.2614 20.1874 17.2606C20.3648 17.2606 20.6205 17.3448 20.9518 17.7016C21.3104 18.0876 21.2438 18.3071 21.2222 18.3793Z" fill="#284783"/>
<path d="M25.0868 38.2369H10.6278L9.23535 24.3828H26.0536L25.0868 38.2369Z" fill="#FFC850"/>
<g opacity="0.19">
<path d="M11.5264 38.2369H10.9919L9.79883 24.3828H10.4322L11.5264 38.2369Z" fill="#FF4848"/>
<path d="M12.6883 38.2369H12.1538L11.1719 24.3828H11.8053L12.6883 38.2369Z" fill="#FF4848"/>
<path d="M13.8493 38.2369H13.3147L12.5439 24.3828H13.179L13.8493 38.2369Z" fill="#FF4848"/>
<path d="M15.0105 38.2369H14.4743L13.918 24.3828H14.5514L15.0105 38.2369Z" fill="#FF4848"/>
<path d="M16.1695 38.2369H15.6333L15.2881 24.3828H15.9215L16.1695 38.2369Z" fill="#FF4848"/>
<path d="M17.3314 38.2369H16.7952L16.6611 24.3828H17.2945L17.3314 38.2369Z" fill="#FF4848"/>
<path d="M18.4925 38.2369H17.958L18.0334 24.3828H18.6668L18.4925 38.2369Z" fill="#FF4848"/>
<path d="M19.6544 38.2369H19.1182L19.4064 24.3828H20.0398L19.6544 38.2369Z" fill="#FF4848"/>
<path d="M20.8148 38.2369H20.2803L20.7796 24.3828H21.413L20.8148 38.2369Z" fill="#FF4848"/>
<path d="M21.9766 38.2369H21.4404L22.1526 24.3828H22.786L21.9766 38.2369Z" fill="#FF4848"/>
<path d="M23.138 38.2369H22.6035L23.5251 24.3828H24.1585L23.138 38.2369Z" fill="#FF4848"/>
<path d="M24.2999 38.2369H23.7637L24.8981 24.3828H25.5315L24.2999 38.2369Z" fill="#FF4848"/>
</g>
<g style="mix-blend-mode:multiply" opacity="0.43">
<path d="M26.0017 25.1368L26.0536 24.3828H9.23535L9.31243 25.1368H26.0017Z" fill="#284783"/>
</g>
<path d="M28.0515 19.9648H7.24023V24.3818H28.0515V19.9648Z" fill="#FFC850"/>
<g opacity="0.19">
<path d="M8.46105 19.9648H7.87793V24.3818H8.46105V19.9648Z" fill="#FF4848"/>
<path d="M9.72472 19.9648H9.1416V24.3818H9.72472V19.9648Z" fill="#FF4848"/>
<path d="M10.9874 19.9648H10.4043V24.3818H10.9874V19.9648Z" fill="#FF4848"/>
<path d="M12.2521 19.9648H11.6689V24.3818H12.2521V19.9648Z" fill="#FF4848"/>
<path d="M13.5138 19.9648H12.9307V24.3818H13.5138V19.9648Z" fill="#FF4848"/>
<path d="M14.7775 19.9648H14.1943V24.3818H14.7775V19.9648Z" fill="#FF4848"/>
<path d="M16.0401 19.9648H15.457V24.3818H16.0401V19.9648Z" fill="#FF4848"/>
<path d="M17.3038 19.9648H16.7207V24.3818H17.3038V19.9648Z" fill="#FF4848"/>
<path d="M18.5665 19.9648H17.9834V24.3818H18.5665V19.9648Z" fill="#FF4848"/>
<path d="M19.8302 19.9648H19.2471V24.3818H19.8302V19.9648Z" fill="#FF4848"/>
<path d="M21.0939 19.9648H20.5107V24.3818H21.0939V19.9648Z" fill="#FF4848"/>
<path d="M22.3575 19.9648H21.7744V24.3818H22.3575V19.9648Z" fill="#FF4848"/>
<path d="M23.6183 19.9648H23.0352V24.3818H23.6183V19.9648Z" fill="#FF4848"/>
<path d="M24.8819 19.9648H24.2988V24.3818H24.8819V19.9648Z" fill="#FF4848"/>
<path d="M26.1456 19.9648H25.5625V24.3818H26.1456V19.9648Z" fill="#FF4848"/>
<path d="M27.4093 19.9648H26.8262V24.3818H27.4093V19.9648Z" fill="#FF4848"/>
</g>
<path d="M19.7617 19.9648H15.5273V38.2359H19.7617V19.9648Z" fill="#284783"/>
</g>
</g>
<path d="M18 1.79858C18.4025 1.79858 18.8049 1.9596 19.1013 2.28186C19.3935 2.5993 19.7962 2.76514 20.2032 2.76514C20.4792 2.76514 20.7571 2.68894 21.0042 2.53233C21.2536 2.3741 21.5306 2.29931 21.8039 2.29931C22.3407 2.29931 22.8629 2.58827 23.1318 3.10244C23.3955 3.60658 23.9131 3.90557 24.4579 3.90557C24.6065 3.90557 24.7569 3.88331 24.9049 3.83699C25.0541 3.79027 25.2049 3.76821 25.3527 3.76821C26.0331 3.76821 26.6554 4.23665 26.8124 4.93852C26.966 5.62454 27.5748 6.10822 28.2723 6.10822C28.2931 6.10822 28.3142 6.10782 28.335 6.10682C28.3563 6.10601 28.3774 6.10541 28.3986 6.10541C29.2445 6.10541 29.9281 6.81069 29.8928 7.66435C29.8627 8.38767 30.3546 9.02898 31.0613 9.187C31.9157 9.3783 32.4243 10.259 32.1626 11.0947C31.9464 11.7855 32.2556 12.5323 32.8972 12.868C33.673 13.2739 33.9361 14.2563 33.4673 14.9956C33.0796 15.607 33.1851 16.4084 33.7177 16.8985C34.362 17.4914 34.362 18.5083 33.7177 19.1013C33.1849 19.5916 33.0794 20.3928 33.4673 21.0042C33.9361 21.7435 33.673 22.7259 32.8972 23.1318C32.2556 23.4675 31.9464 24.2141 32.1626 24.9051C32.4241 25.7408 31.9157 26.6215 31.0613 26.8128C30.3548 26.971 29.8627 27.6121 29.8928 28.3354C29.9283 29.1891 29.2445 29.8944 28.3986 29.8944C28.3776 29.8944 28.3563 29.894 28.335 29.893C28.314 29.8922 28.2931 29.8916 28.2723 29.8916C27.5748 29.8916 26.966 30.3753 26.8124 31.0613C26.6552 31.7631 26.0331 32.2316 25.3527 32.2316C25.2047 32.2316 25.0541 32.2093 24.9047 32.1628C24.7567 32.1165 24.6061 32.0942 24.4577 32.0942C23.9129 32.0942 23.3953 32.3932 23.1316 32.8972C22.8627 33.4113 22.3405 33.7003 21.8037 33.7003C21.5306 33.7003 21.2534 33.6255 21.004 33.4673C20.7569 33.3107 20.479 33.2345 20.203 33.2345C19.796 33.2345 19.3933 33.4003 19.1011 33.7177C18.8047 34.04 18.4023 34.201 17.9998 34.201C17.5973 34.201 17.1949 34.04 16.8985 33.7177C16.6063 33.4003 16.2036 33.2345 15.7965 33.2345C15.5206 33.2345 15.2427 33.3107 14.9956 33.4673C14.7462 33.6255 14.4692 33.7003 14.1959 33.7003C13.6591 33.7003 13.1369 33.4113 12.868 32.8972C12.6043 32.393 12.0867 32.0942 11.5418 32.0942C11.3933 32.0942 11.2427 32.1165 11.0949 32.1628C10.9455 32.2095 10.7949 32.2316 10.6469 32.2316C9.96666 32.2316 9.34421 31.7631 9.1872 31.0613C9.03359 30.3753 8.42477 29.8916 7.72732 29.8916C7.70646 29.8916 7.6854 29.892 7.66455 29.893C7.64329 29.8938 7.62224 29.8944 7.60098 29.8944C6.75514 29.8944 6.07152 29.1891 6.10682 28.3354C6.1369 27.6121 5.64499 26.9708 4.93831 26.8128C4.08385 26.6215 3.57529 25.7408 3.83699 24.9051C4.05316 24.2141 3.74394 23.4675 3.10243 23.1318C2.32657 22.7259 2.06348 21.7435 2.53232 21.0042C2.92015 20.3928 2.81447 19.5914 2.28186 19.1013C1.63755 18.5083 1.63755 17.4914 2.28186 16.8985C2.81467 16.4082 2.92015 15.607 2.53232 14.9956C2.06348 14.2561 2.32657 13.2739 3.10243 12.868C3.74394 12.5323 4.05316 11.7857 3.83699 11.0947C3.5755 10.259 4.08385 9.3783 4.93831 9.187C5.64479 9.02878 6.1367 8.38767 6.10682 7.66435C6.07132 6.81069 6.75514 6.10541 7.60098 6.10541C7.62204 6.10541 7.64329 6.10581 7.66455 6.10682C7.6856 6.10762 7.70646 6.10822 7.72732 6.10822C8.42477 6.10822 9.03359 5.62454 9.1872 4.93852C9.34441 4.23665 9.96646 3.76821 10.6469 3.76821C10.7949 3.76821 10.9455 3.79027 11.0949 3.83699C11.2429 3.88331 11.3935 3.90557 11.5418 3.90557C12.0867 3.90557 12.6043 3.60658 12.868 3.10244C13.1371 2.58827 13.6591 2.29931 14.1959 2.29931C14.469 2.29931 14.7462 2.3741 14.9956 2.53233C15.2427 2.68894 15.5206 2.76514 15.7965 2.76514C16.2036 2.76514 16.6063 2.5993 16.8987 2.28186C17.1951 1.9596 17.5975 1.79858 18 1.79858ZM18 0C17.163 0 16.3552 0.321654 15.7476 0.890164C15.2705 0.634886 14.7389 0.500729 14.1961 0.500729C13.0466 0.500729 11.9949 1.0907 11.3959 2.05606C11.1502 1.99871 10.8993 1.96963 10.6471 1.96963C9.17597 1.96963 7.91221 2.91975 7.4941 4.30864C6.64003 4.33692 5.81785 4.70229 5.22407 5.32113C4.66258 5.90649 4.33611 6.68736 4.30884 7.4943C3.51273 7.73634 2.83012 8.27518 2.4116 8.9999C1.99309 9.72482 1.86776 10.5853 2.05626 11.3957C1.34998 11.8354 0.830002 12.5327 0.613427 13.341C0.396852 14.1496 0.498523 15.0133 0.890163 15.7472C0.321854 16.3548 0 17.1628 0 17.9998C0 18.8368 0.321854 19.6448 0.890163 20.2524C0.498523 20.9863 0.396651 21.85 0.613427 22.6586C0.830203 23.4671 1.34998 24.1642 2.05626 24.6039C1.86776 25.4143 1.99309 26.275 2.4116 26.9999C2.83012 27.7248 3.51273 28.2637 4.30884 28.5055C4.33611 29.3124 4.66258 30.0933 5.22407 30.6787C5.81765 31.2975 6.63983 31.6631 7.4941 31.6912C7.91221 33.08 9.17576 34.0302 10.6469 34.0302C10.8991 34.0302 11.15 34.0011 11.3957 33.9437C11.9947 34.9089 13.0464 35.4991 14.1959 35.4991C14.7387 35.4991 15.2703 35.3651 15.7474 35.1098C16.355 35.6781 17.163 36 17.9998 36C18.8368 36 19.6446 35.6783 20.2522 35.1098C20.7292 35.3651 21.2611 35.4991 21.8037 35.4991C22.9532 35.4991 24.0049 34.9091 24.6039 33.9437C24.8498 34.0011 25.1007 34.0302 25.3527 34.0302C26.8238 34.0302 28.0876 33.08 28.5055 31.6912C29.3598 31.6629 30.1817 31.2975 30.7755 30.6787C31.337 30.0933 31.6635 29.3124 31.6908 28.5055C32.4869 28.2635 33.1695 27.7246 33.588 26.9999C34.0065 26.275 34.1318 25.4145 33.9433 24.6041C34.6496 24.1644 35.1696 23.4673 35.3862 22.6588C35.6027 21.8502 35.5011 20.9865 35.1092 20.2526C35.6775 19.645 35.9994 18.837 35.9994 18C35.9994 17.163 35.6775 16.355 35.1092 15.7474C35.5011 15.0135 35.6027 14.1498 35.3862 13.3412C35.1696 12.5327 34.6496 11.8356 33.9433 11.3959C34.1318 10.5855 34.0065 9.72482 33.588 9.0001C33.1695 8.27518 32.4869 7.73634 31.6908 7.4945C31.6635 6.68756 31.337 5.90689 30.7755 5.32153C30.1819 4.70269 29.3598 4.33712 28.5055 4.30884C28.0874 2.91995 26.8238 1.96983 25.3527 1.96983C25.1005 1.96983 24.8496 1.99891 24.6037 2.05626C24.0047 1.0911 22.953 0.501131 21.8037 0.50093C21.2609 0.50093 20.7292 0.634886 20.252 0.890364C19.6448 0.321654 18.837 0 18 0Z" fill="#1B84FF"/>
<path d="M17.9993 2.51639C18.2193 2.51639 18.423 2.60582 18.5724 2.76805C18.7852 2.99927 19.0386 3.17875 19.3256 3.30187C19.6049 3.42159 19.9001 3.48235 20.2025 3.48235C20.6224 3.48235 21.0325 3.36384 21.3925 3.13703C21.5138 3.05943 21.6528 3.01852 21.8034 3.01852C22.0954 3.01852 22.3607 3.17834 22.4946 3.43382C22.6833 3.79558 22.9685 4.09839 23.3228 4.31155C23.6677 4.5163 24.0604 4.62458 24.458 4.62458C24.681 4.62458 24.9042 4.58969 25.1192 4.52151C25.1942 4.49805 25.2732 4.48602 25.3538 4.48602C25.7136 4.48602 26.0318 4.7417 26.11 5.09283C26.2185 5.58373 26.495 6.02711 26.8887 6.34154C27.2799 6.65397 27.7716 6.82623 28.273 6.82623C28.2998 6.82623 28.3285 6.82583 28.3576 6.82443H28.3989C28.6115 6.82443 28.8102 6.90945 28.9582 7.06366C29.1044 7.21566 29.181 7.41479 29.175 7.62515C29.1727 7.65964 29.1723 7.69374 29.1723 7.72562C29.1723 8.7708 29.8844 9.66016 30.9041 9.88836C31.1183 9.93609 31.297 10.0672 31.4071 10.2577C31.5176 10.4487 31.5422 10.6698 31.4769 10.8796C31.4097 11.094 31.3756 11.3172 31.3756 11.5426C31.3756 12.3702 31.8312 13.1217 32.5632 13.5034C32.8214 13.6389 32.9819 13.904 32.9819 14.1954C32.9819 14.3418 32.9408 14.481 32.8601 14.6083C32.6337 14.9646 32.5142 15.3753 32.5142 15.7963C32.5142 16.4133 32.7753 17.0075 33.2299 17.426C33.3924 17.5758 33.482 17.7795 33.482 17.9995C33.482 18.2193 33.3932 18.4218 33.2287 18.5724C32.7747 18.9929 32.5142 19.5871 32.5142 20.2028C32.5142 20.6223 32.6339 21.0326 32.8595 21.3879C32.9408 21.516 32.9819 21.6552 32.9819 21.8016C32.9819 22.093 32.8214 22.3581 32.5636 22.4934C31.6116 22.992 31.1548 24.0969 31.4771 25.1192C31.5009 25.1954 31.5126 25.271 31.5126 25.3502C31.5126 25.7112 31.2561 26.031 30.9035 26.1104C29.8604 26.3447 29.1348 27.2868 29.1746 28.353C29.1748 28.367 29.1754 28.3813 29.1762 28.3951C29.1762 28.8244 28.8276 29.174 28.3991 29.174H28.3871L28.366 29.1722H28.3361H28.2732C27.2268 29.1722 26.3374 29.8845 26.1106 30.904C26.0322 31.2553 25.7142 31.5102 25.354 31.5102C25.2734 31.5102 25.1946 31.4983 25.1218 31.4755C24.9084 31.4079 24.685 31.3734 24.4582 31.3734C23.6286 31.3734 22.8762 31.83 22.4956 32.5626C22.4274 32.6925 22.329 32.796 22.2006 32.8716C22.0819 32.9422 21.9446 32.9795 21.8036 32.9795C21.6578 32.9795 21.5144 32.9376 21.3919 32.8604C21.0363 32.6336 20.625 32.5136 20.2029 32.5136C19.5835 32.5136 18.9889 32.7751 18.576 33.2261C18.4964 33.3116 18.4054 33.3767 18.3079 33.4188C18.2114 33.4602 18.1076 33.4812 17.9997 33.4812C17.7807 33.4812 17.5778 33.3918 17.428 33.2293C17.215 32.9981 16.9623 32.8185 16.675 32.6939C16.3956 32.5742 16.0998 32.5134 15.7962 32.5134C15.3727 32.5134 14.9614 32.6338 14.6141 32.8568C14.4861 32.9368 14.3414 32.9791 14.1954 32.9791C13.905 32.9791 13.6403 32.8191 13.5069 32.5656C13.3197 32.2038 13.0341 31.9004 12.6777 31.6861C12.3328 31.4813 11.9402 31.373 11.5425 31.373C11.3145 31.373 11.0907 31.4073 10.8796 31.4743C10.8046 31.4977 10.7262 31.5098 10.6468 31.5098C10.2866 31.5098 9.96755 31.2541 9.88854 30.9038C9.66154 29.8839 8.77298 29.1716 7.7276 29.1716H7.66463H7.63476L7.6137 29.1734H7.60167C7.3881 29.1734 7.18897 29.0884 7.04078 28.9337C6.89499 28.7817 6.81879 28.5824 6.82561 28.3718C6.82781 28.337 6.82841 28.3025 6.82841 28.2704C6.82841 27.2258 6.11552 26.3372 5.09641 26.1098C4.74307 26.03 4.4866 25.7118 4.4866 25.353C4.4866 25.2762 4.49923 25.1974 4.52309 25.1208C4.59067 24.9074 4.62516 24.6841 4.62516 24.4573C4.62516 23.6301 4.17015 22.8773 3.43761 22.4926C3.17932 22.3573 3.0189 22.0928 3.0189 21.8024C3.0189 21.6568 3.06121 21.5132 3.14062 21.3877C3.36582 21.0332 3.48473 20.6237 3.48473 20.2034C3.48473 19.5841 3.22384 18.9887 2.76743 18.5686C2.606 18.4206 2.51696 18.2181 2.51696 17.9983C2.51696 17.7783 2.6064 17.5746 2.76703 17.4264C3.22304 17.0091 3.48453 16.4137 3.48453 15.793C3.48453 15.3717 3.36562 14.9614 3.14082 14.6079C3.06081 14.4816 3.0187 14.338 3.0187 14.1924C3.0187 13.902 3.17912 13.6377 3.4358 13.503C4.16915 13.1205 4.62476 12.3681 4.62476 11.5393C4.62476 11.3125 4.59047 11.0894 4.52329 10.8778C4.45731 10.6676 4.48158 10.447 4.59167 10.2565C4.70156 10.0662 4.88004 9.93509 5.09481 9.88716C6.14299 9.65254 6.87073 8.70382 6.82561 7.63137C6.81658 7.4188 6.89278 7.21707 7.04017 7.06326C7.18837 6.90865 7.3877 6.82342 7.60147 6.82342H7.64197C7.67025 6.82483 7.69792 6.82523 7.7272 6.82523C8.77198 6.82523 9.66053 6.11314 9.88774 5.09503C9.92784 4.91696 10.0237 4.76416 10.1649 4.65326C10.3028 4.54497 10.4737 4.48521 10.6466 4.48521C10.726 4.48521 10.8042 4.49725 10.877 4.51991C11.0941 4.58869 11.3181 4.62378 11.5423 4.62378C12.3679 4.62378 13.1199 4.16817 13.5045 3.43543C13.6401 3.17774 13.9028 3.01772 14.1952 3.01772C14.3448 3.01772 14.4845 3.05823 14.6099 3.13764C14.9644 3.36283 15.3745 3.48175 15.7958 3.48175C16.4125 3.48175 17.0068 3.22206 17.4276 2.76785C17.5026 2.68644 17.595 2.62046 17.6927 2.57835C17.7891 2.53724 17.8924 2.51639 17.9993 2.51639ZM17.9993 1.79688C17.7977 1.79688 17.5982 1.83638 17.4093 1.91739C17.2222 1.99841 17.0459 2.12074 16.8986 2.28076C16.6054 2.5974 16.2043 2.76284 15.796 2.76284C15.5209 2.76284 15.2422 2.68724 14.9957 2.53082C14.7456 2.3726 14.4687 2.29881 14.1954 2.29881H14.19C13.6557 2.29881 13.1378 2.58838 12.8681 3.10094C12.6037 3.60447 12.0874 3.90487 11.5425 3.90487C11.3931 3.90487 11.2421 3.88141 11.0947 3.83469C10.9453 3.78796 10.7943 3.7663 10.647 3.7663C10.3071 3.7663 9.98138 3.88322 9.72069 4.08836C9.4598 4.2933 9.26568 4.58648 9.18647 4.93722C9.03367 5.62243 8.42565 6.10632 7.7278 6.10632C7.70614 6.10632 7.68649 6.10632 7.66484 6.10451H7.60187C6.75462 6.10451 6.0712 6.80959 6.1073 7.66205C6.13778 8.38698 5.64507 9.02728 4.93819 9.1855C4.08392 9.3762 3.57477 10.2575 3.83747 11.0938C3.8842 11.2412 3.90585 11.3924 3.90585 11.5397C3.90585 12.0848 3.60726 12.6028 3.10372 12.8653C2.58936 13.135 2.29979 13.6566 2.29979 14.1926C2.29979 14.4659 2.37539 14.7431 2.53361 14.9929C2.69002 15.2394 2.76563 15.5163 2.76563 15.7932C2.76563 16.1997 2.60019 16.6044 2.28174 16.8958C1.95989 17.1926 1.79785 17.5954 1.79785 17.9983C1.79785 18.4012 1.95969 18.804 2.28174 19.099C2.59999 19.3922 2.76563 19.7951 2.76563 20.2034C2.76563 20.4785 2.69002 20.7556 2.53361 21.0019C2.37539 21.2519 2.29979 21.5289 2.29979 21.8022C2.29979 22.3382 2.58936 22.8598 3.10372 23.1295C3.60726 23.394 3.90585 23.912 3.90585 24.4569C3.90585 24.6044 3.8842 24.7554 3.83747 24.9028C3.79075 25.052 3.76728 25.2032 3.76728 25.3524C3.76728 26.0322 4.23673 26.6529 4.93819 26.8111C5.62341 26.9639 6.10911 27.5719 6.10911 28.2698C6.10911 28.2896 6.1091 28.3111 6.1073 28.3327C6.0714 29.187 6.75482 29.8921 7.60187 29.8921C7.62172 29.8921 7.64318 29.8921 7.66484 29.8903H7.7278C8.42565 29.8903 9.03367 30.3724 9.18647 31.0594C9.34469 31.7608 9.96715 32.2285 10.647 32.2285C10.7943 32.2285 10.9455 32.2068 11.0947 32.1601C11.2423 32.1134 11.3933 32.0917 11.5425 32.0917C11.8159 32.0917 12.0804 32.1673 12.3106 32.3039C12.5408 32.4425 12.7369 32.642 12.8681 32.8957C13.1378 33.4082 13.6594 33.6978 14.1954 33.6978C14.4687 33.6978 14.7458 33.6222 14.9957 33.4658C15.2422 33.3076 15.5209 33.232 15.796 33.232C15.9992 33.232 16.2025 33.2733 16.3914 33.3543C16.5785 33.4353 16.7512 33.5558 16.8986 33.7158C17.1953 34.0377 17.5982 34.1997 17.9993 34.1997C18.2006 34.1997 18.4021 34.1602 18.591 34.0792C18.7781 33.9982 18.9526 33.8759 19.1018 33.7158C19.3932 33.3974 19.7961 33.232 20.2025 33.232C20.4795 33.232 20.7566 33.3076 21.0047 33.4658C21.2529 33.6222 21.5299 33.6978 21.8032 33.6978C22.0711 33.6978 22.3374 33.6258 22.5676 33.4892C22.7996 33.3525 22.9976 33.1529 23.1323 32.8957C23.3948 32.3903 23.9128 32.0917 24.4578 32.0917C24.6072 32.0917 24.7564 32.1134 24.9038 32.1601C25.053 32.2068 25.2042 32.2285 25.3534 32.2285C26.0332 32.2285 26.6557 31.7608 26.8121 31.0594C26.9649 30.3724 27.5747 29.8903 28.2726 29.8903H28.3355C28.3572 29.8921 28.3768 29.8921 28.3985 29.8921C29.2241 29.8921 29.8949 29.2211 29.8949 28.3939C29.8949 28.3741 29.8931 28.3526 29.8931 28.3327C29.8626 27.6096 30.3553 26.9693 31.0604 26.8111C31.7618 26.6529 32.2313 26.0304 32.2313 25.3488C32.2313 25.2012 32.2096 25.052 32.1629 24.9028C31.9453 24.2122 32.2545 23.4658 32.8966 23.1293C33.411 22.8596 33.7006 22.338 33.7006 21.8002C33.7006 21.5269 33.625 21.2515 33.4668 21.0017C33.3103 20.7552 33.2329 20.4765 33.2329 20.2014C33.2329 19.7949 33.4002 19.392 33.7168 19.0988C34.0387 18.8038 34.2007 18.401 34.2007 17.9981C34.2007 17.5952 34.0389 17.1924 33.7168 16.8956C33.4002 16.6042 33.2329 16.2013 33.2329 15.7948C33.2329 15.5179 33.3103 15.2392 33.4668 14.9927C33.625 14.7427 33.7006 14.4675 33.7006 14.1942C33.7006 13.6564 33.411 13.1348 32.8966 12.8651C32.3931 12.6026 32.0945 12.0862 32.0945 11.5414C32.0945 11.3938 32.1162 11.2428 32.1629 11.0936C32.4238 10.2571 31.9146 9.3758 31.0604 9.1853C30.3769 9.03249 29.8913 8.42448 29.8913 7.72482C29.8913 7.70497 29.8913 7.68351 29.8931 7.66185C29.9272 6.80939 29.2437 6.10431 28.3985 6.10431H28.3355C28.3139 6.10612 28.2924 6.10612 28.2726 6.10612C27.9236 6.10612 27.5964 5.9856 27.3373 5.77885C27.0784 5.5721 26.8877 5.27892 26.8121 4.93701C26.6557 4.23555 26.0332 3.7661 25.3534 3.7661C25.2042 3.7661 25.053 3.78776 24.9038 3.83449C24.7564 3.88121 24.6052 3.90467 24.4578 3.90467C24.1863 3.90467 23.92 3.82907 23.6898 3.69251C23.4596 3.55394 23.2635 3.35261 23.1323 3.10074C22.8626 2.58637 22.3408 2.29861 21.8032 2.29861H21.7942C21.5226 2.29861 21.2491 2.37421 21.0045 2.53062C20.7562 2.68704 20.4793 2.76264 20.2023 2.76264C19.9992 2.76264 19.7977 2.72133 19.6088 2.64032C19.4199 2.5593 19.2472 2.43878 19.1016 2.28056C18.805 1.95871 18.4021 1.79688 17.9993 1.79688Z" fill="#2EF7DE"/>
<path d="M21.0847 5.41972L21.2574 5.97099C21.2829 6.0522 21.3466 6.11577 21.4279 6.14084L21.9797 6.31109C22.1845 6.37426 22.228 6.64478 22.0531 6.76891L21.5823 7.10339C21.5129 7.15272 21.4722 7.23294 21.4734 7.31796L21.482 7.8955C21.4852 8.10987 21.2414 8.2346 21.0693 8.10686L20.6057 7.76234C20.5373 7.71161 20.4485 7.69777 20.3678 7.72524L19.8212 7.91174C19.6184 7.98092 19.4241 7.78761 19.4925 7.58447L19.6768 7.03722C19.7039 6.9566 19.6896 6.86777 19.6387 6.79959L19.2924 6.33736C19.1638 6.1659 19.2878 5.92145 19.5021 5.92366L20.0797 5.92988C20.1647 5.93088 20.2449 5.88977 20.2938 5.82019L20.6263 5.34793C20.7501 5.17287 21.0208 5.21518 21.0847 5.41972Z" fill="#FFC850"/>
<path d="M15.3176 5.41972L15.145 5.97099C15.1195 6.0522 15.0557 6.11577 14.9745 6.14084L14.4226 6.31109C14.2179 6.37426 14.1744 6.64478 14.3492 6.76891L14.8201 7.10339C14.8895 7.15272 14.9302 7.23294 14.929 7.31796L14.9204 7.8955C14.9171 8.10987 15.1612 8.2346 15.3331 8.10686L15.7967 7.76234C15.8651 7.71161 15.9539 7.69777 16.0345 7.72524L16.5812 7.91174C16.7839 7.98092 16.9782 7.78761 16.9096 7.58447L16.7253 7.03722C16.6983 6.9566 16.7125 6.86777 16.7635 6.79959L17.1098 6.33736C17.2383 6.1659 17.1144 5.92145 16.9 5.92366L16.3225 5.92988C16.2375 5.93088 16.1572 5.88977 16.1083 5.82019L15.7758 5.34793C15.6525 5.17287 15.3816 5.21518 15.3176 5.41972Z" fill="#FFC850"/>
<defs>
<clipPath id="clip0_40583_22778">
<rect width="20.8113" height="24" fill="white" transform="translate(7.24023 14.2383)"/>
</clipPath>
</defs>
</svg>
