<svg width="20" height="20" viewBox="0 0 20 20" fill="none" xmlns="http://www.w3.org/2000/svg">
<path fill-rule="evenodd" clip-rule="evenodd" d="M12.5003 3.49425V16.5042C12.5004 16.6728 12.454 16.838 12.3662 16.9819C12.2785 17.1257 12.1528 17.2426 12.0029 17.3197C11.8531 17.3968 11.6849 17.431 11.5169 17.4188C11.3488 17.4065 11.1874 17.3481 11.0503 17.2501L5.56699 13.3326H3.33366C2.89163 13.3326 2.46771 13.157 2.15515 12.8444C1.84259 12.5319 1.66699 12.1079 1.66699 11.6659V8.33258C1.66699 7.89055 1.84259 7.46663 2.15515 7.15407C2.46771 6.84151 2.89163 6.66592 3.33366 6.66592H5.56699L11.0503 2.74925C11.1873 2.65125 11.3487 2.59289 11.5166 2.58058C11.6846 2.56826 11.8528 2.60247 12.0026 2.67945C12.1524 2.75642 12.2781 2.87319 12.3659 3.01693C12.4537 3.16066 12.5002 3.32581 12.5003 3.49425ZM10.8337 4.95258L6.53533 8.02092C6.25291 8.22318 5.91436 8.33214 5.56699 8.33258H3.33366V11.6659H5.56699C5.91418 11.6659 6.25271 11.7742 6.53533 11.9759L10.8337 15.0467V4.95258ZM15.2128 5.71675C15.3602 5.5521 15.567 5.45276 15.7877 5.44057C16.0084 5.42838 16.2248 5.50434 16.3895 5.65175C17.0017 6.19838 17.4915 6.86831 17.8265 7.61757C18.1616 8.36683 18.3344 9.17848 18.3337 9.99925C18.3344 10.82 18.1616 11.6317 17.8265 12.3809C17.4915 13.1302 17.0017 13.8001 16.3895 14.3467C16.3082 14.4209 16.2129 14.4783 16.1093 14.5154C16.0057 14.5526 15.8957 14.5689 15.7858 14.5633C15.6759 14.5578 15.5681 14.5305 15.4688 14.483C15.3694 14.4356 15.2805 14.3689 15.207 14.2869C15.1336 14.2049 15.0772 14.1092 15.0409 14.0052C15.0047 13.9012 14.9895 13.7911 14.9961 13.6812C15.0026 13.5714 15.0309 13.4639 15.0793 13.365C15.1277 13.2661 15.1951 13.1777 15.2778 13.1051C15.7155 12.7148 16.0655 12.2362 16.305 11.7009C16.5444 11.1656 16.6678 10.5857 16.667 9.99925C16.667 8.76592 16.132 7.65758 15.2778 6.89342C15.1132 6.74599 15.0138 6.53921 15.0016 6.31854C14.9895 6.09788 15.0654 5.88141 15.2128 5.71675ZM14.7228 7.51508C15.0726 7.82746 15.3524 8.21027 15.5439 8.63839C15.7353 9.06651 15.8341 9.53027 15.8337 9.99925C15.8342 10.4682 15.7355 10.932 15.544 11.3602C15.3526 11.7883 15.0727 12.1711 14.7228 12.4834C14.5648 12.6238 14.3593 12.6988 14.148 12.6934C13.9368 12.688 13.7354 12.6025 13.5848 12.4542C13.4342 12.3059 13.3456 12.1059 13.3368 11.8947C13.3281 11.6836 13.4 11.4769 13.5378 11.3167L13.6112 11.2417C13.9528 10.9351 14.167 10.4926 14.167 9.99925C14.168 9.57251 14.0044 9.16181 13.7103 8.85258L13.6112 8.75675C13.4489 8.60871 13.3516 8.40257 13.3405 8.18318C13.3294 7.96378 13.4054 7.74888 13.5519 7.58521C13.6984 7.42155 13.9036 7.32236 14.1229 7.30923C14.3422 7.29609 14.5578 7.37008 14.7228 7.51508Z" fill="#1B84FF"/>
</svg>
