<svg width="16" height="16" viewBox="0 0 16 16" fill="none" xmlns="http://www.w3.org/2000/svg">
<path d="M7.99967 1.33203C11.6817 1.33203 14.6663 4.3167 14.6663 7.9987C14.6663 11.6807 11.6817 14.6654 7.99967 14.6654C4.31767 14.6654 1.33301 11.6807 1.33301 7.9987C1.33301 4.3167 4.31767 1.33203 7.99967 1.33203ZM7.99301 6.66536H7.33301C7.16309 6.66555 6.99965 6.73062 6.8761 6.84726C6.75254 6.96391 6.67818 7.12333 6.66823 7.29296C6.65827 7.46259 6.71346 7.62962 6.82252 7.75992C6.93158 7.89022 7.08628 7.97396 7.25501 7.99403L7.33301 7.9987V11.3254C7.33301 11.672 7.59567 11.9587 7.93301 11.9947L8.00634 11.9987H8.33301C8.47322 11.9987 8.60986 11.9545 8.7235 11.8724C8.83714 11.7903 8.922 11.6744 8.966 11.5413C9.01001 11.4081 9.01092 11.2645 8.96861 11.1309C8.9263 10.9972 8.84293 10.8803 8.73034 10.7967L8.66634 10.7547V7.3387C8.66634 6.99203 8.40368 6.70536 8.06634 6.66936L7.99301 6.66536ZM7.99967 4.66536C7.82286 4.66536 7.65329 4.7356 7.52827 4.86063C7.40325 4.98565 7.33301 5.15522 7.33301 5.33203C7.33301 5.50884 7.40325 5.67841 7.52827 5.80344C7.65329 5.92846 7.82286 5.9987 7.99967 5.9987C8.17649 5.9987 8.34606 5.92846 8.47108 5.80344C8.5961 5.67841 8.66634 5.50884 8.66634 5.33203C8.66634 5.15522 8.5961 4.98565 8.47108 4.86063C8.34606 4.7356 8.17649 4.66536 7.99967 4.66536Z" fill="#2563EB"/>
</svg>
