<svg width="24" height="24" viewBox="0 0 24 24" fill="none" xmlns="http://www.w3.org/2000/svg">
<path d="M12 3.66797C13.2936 3.66792 14.537 4.16927 15.4687 5.06669C16.4005 5.96411 16.9482 7.18773 16.9967 8.48047L17 8.66797H17.8333C18.2538 8.66784 18.6588 8.82664 18.9671 9.11255C19.2754 9.39846 19.4643 9.79034 19.4958 10.2096L19.5 10.3346V18.668C19.5001 19.0884 19.3413 19.4934 19.0554 19.8018C18.7695 20.1101 18.3776 20.2989 17.9583 20.3305L17.8333 20.3346H6.16667C5.74619 20.3348 5.34119 20.176 5.03288 19.8901C4.72456 19.6041 4.5357 19.2123 4.50417 18.793L4.5 18.668V10.3346C4.49987 9.91416 4.65867 9.50916 4.94458 9.20085C5.23049 8.89253 5.62237 8.70367 6.04167 8.67214L6.16667 8.66797H7C7 7.34189 7.52678 6.07012 8.46447 5.13243C9.40215 4.19475 10.6739 3.66797 12 3.66797ZM17.8333 10.3346H6.16667V18.668H17.8333V10.3346ZM12 12.0013C12.3555 12.0014 12.7016 12.1152 12.9879 12.326C13.2741 12.5368 13.4854 12.8336 13.591 13.1731C13.6965 13.5126 13.6908 13.8769 13.5746 14.2128C13.4583 14.5488 13.2377 14.8388 12.945 15.0405L12.8333 15.1113V16.168C12.8331 16.3804 12.7518 16.5847 12.606 16.7391C12.4602 16.8936 12.2609 16.9865 12.0488 16.9989C11.8368 17.0114 11.628 16.9424 11.4651 16.8061C11.3023 16.6698 11.1976 16.4764 11.1725 16.2655L11.1667 16.168V15.1113C10.849 14.9278 10.6006 14.6447 10.4603 14.3057C10.3199 13.9668 10.2952 13.591 10.3902 13.2366C10.4852 12.8822 10.6944 12.5691 10.9854 12.3457C11.2765 12.1224 11.6331 12.0013 12 12.0013ZM12 5.33464C11.1159 5.33464 10.2681 5.68582 9.64298 6.31095C9.01786 6.93607 8.66667 7.78391 8.66667 8.66797H15.3333C15.3333 7.78391 14.9821 6.93607 14.357 6.31095C13.7319 5.68582 12.8841 5.33464 12 5.33464Z" fill="#171719"/>
</svg>
