<svg width="16" height="18" viewBox="0 0 16 18" fill="none" xmlns="http://www.w3.org/2000/svg">
<path fill-rule="evenodd" clip-rule="evenodd" d="M11.3333 10.668C12.4071 10.668 13.4393 11.0826 14.2148 11.8252C14.9903 12.5678 15.4492 13.5811 15.4958 14.6538L15.5 14.8346V15.668C15.5001 16.0884 15.3413 16.4934 15.0554 16.8018C14.7695 17.1101 14.3776 17.2989 13.9583 17.3305L13.8333 17.3346H2.16667C1.74619 17.3348 1.34119 17.176 1.03288 16.8901C0.724559 16.6041 0.535703 16.2123 0.504167 15.793L0.5 15.668V14.8346C0.500062 13.7609 0.914618 12.7287 1.65722 11.9532C2.39982 11.1776 3.41313 10.7187 4.48583 10.6721L4.66667 10.668H11.3333ZM11.3333 12.3346H4.66667C4.02899 12.3346 3.4154 12.5782 2.95145 13.0157C2.48749 13.4532 2.20824 14.0514 2.17083 14.688L2.16667 14.8346V15.668H13.8333V14.8346C13.8334 14.197 13.5897 13.5834 13.1523 13.1194C12.7148 12.6555 12.1166 12.3762 11.48 12.3388L11.3333 12.3346ZM8 0.667969C9.10507 0.667969 10.1649 1.10696 10.9463 1.88836C11.7277 2.66976 12.1667 3.72957 12.1667 4.83464C12.1667 5.9397 11.7277 6.99951 10.9463 7.78091C10.1649 8.56232 9.10507 9.0013 8 9.0013C6.89493 9.0013 5.83512 8.56232 5.05372 7.78091C4.27232 6.99951 3.83333 5.9397 3.83333 4.83464C3.83333 3.72957 4.27232 2.66976 5.05372 1.88836C5.83512 1.10696 6.89493 0.667969 8 0.667969ZM8 2.33464C7.6717 2.33464 7.34661 2.3993 7.04329 2.52494C6.73998 2.65057 6.46438 2.83472 6.23223 3.06687C6.00009 3.29902 5.81594 3.57461 5.6903 3.87793C5.56466 4.18124 5.5 4.50633 5.5 4.83464C5.5 5.16294 5.56466 5.48803 5.6903 5.79134C5.81594 6.09466 6.00009 6.37026 6.23223 6.6024C6.46438 6.83455 6.73998 7.0187 7.04329 7.14433C7.34661 7.26997 7.6717 7.33464 8 7.33464C8.66304 7.33464 9.29893 7.07124 9.76777 6.6024C10.2366 6.13356 10.5 5.49768 10.5 4.83464C10.5 4.17159 10.2366 3.53571 9.76777 3.06687C9.29893 2.59803 8.66304 2.33464 8 2.33464Z" fill="#171719"/>
</svg>
