<svg width="52" height="53" viewBox="0 0 52 53" fill="none" xmlns="http://www.w3.org/2000/svg">
<rect y="0.816406" width="52" height="52" rx="10" fill="url(#paint0_linear_39378_1787)"/>
<g opacity="0.5" clip-path="url(#clip0_39378_1787)">
<path d="M28.2414 18.2258C28.7007 17.6924 28.9533 17.012 28.9533 16.3082C28.9533 15.6044 28.7007 14.9239 28.2414 14.3906C27.9226 14.5987 27.6606 14.8831 27.4794 15.2179C27.2981 15.5527 27.2031 15.9274 27.2031 16.3082C27.2031 16.6889 27.2981 17.0637 27.4794 17.3985C27.6606 17.7333 27.9226 18.0176 28.2414 18.2258Z" fill="#104F99"/>
<path d="M24.7969 16.3082C24.7964 15.9275 24.7013 15.553 24.5201 15.2182C24.3389 14.8835 24.0772 14.5991 23.7587 14.3906C23.2995 14.9239 23.0469 15.6044 23.0469 16.3082C23.0469 17.012 23.2995 17.6924 23.7587 18.2258C24.0772 18.0173 24.3389 17.7329 24.5201 17.3981C24.7013 17.0634 24.7964 16.6888 24.7969 16.3082Z" fill="#104F99"/>
<path d="M25.4531 16.3086C25.4526 16.7708 25.3435 17.2265 25.1345 17.6388C24.9255 18.051 24.6225 18.4084 24.25 18.6821C24.7558 19.0585 25.3695 19.2618 26 19.2618C26.6305 19.2618 27.2442 19.0585 27.75 18.6821C27.3771 18.4088 27.0739 18.0515 26.8648 17.6391C26.6558 17.2267 26.5469 16.7709 26.5469 16.3086C26.5469 15.8463 26.6558 15.3905 26.8648 14.9781C27.0739 14.5658 27.3771 14.2085 27.75 13.9352C27.2442 13.5588 26.6305 13.3555 26 13.3555C25.3695 13.3555 24.7558 13.5588 24.25 13.9352C24.6225 14.2088 24.9255 14.5662 25.1345 14.9785C25.3435 15.3908 25.4526 15.8464 25.4531 16.3086Z" fill="#104F99"/>
<path d="M30.4237 38.9022L29.0834 40.0273C28.8983 40.1827 28.8742 40.4586 29.0296 40.6437L29.3109 40.9788C29.4662 41.1638 29.7422 41.1879 29.9272 41.0326L31.2676 39.9074C31.4527 39.7521 31.4768 39.4761 31.3214 39.2911L31.0401 38.956C30.8848 38.7709 30.6088 38.7468 30.4237 38.9022Z" fill="#104F99"/>
<path d="M24.7947 32.202L23.5697 28.184C24.1 26.284 23.557 23.9188 21.9606 22.0153C19.6296 19.2407 15.9406 18.5004 13.7194 20.3642C11.4982 22.2279 11.5862 25.9895 13.9158 28.7642C15.5123 30.6664 17.7466 31.6118 19.7101 31.4193L23.4542 33.3282L24.7947 32.202ZM22.4357 27.1388C22.4085 27.4275 22.349 27.7122 22.2585 27.9876L21.6552 27.2688L22.1579 26.847L22.4165 27.1555L22.4357 27.1388ZM20.1087 25.4256L19.4052 24.5878L19.9078 24.166L20.6113 25.0038L20.1087 25.4256ZM21.0331 25.5065L21.7361 26.3448L21.2335 26.7661L20.5313 25.9283L21.0331 25.5065ZM19.6055 25.8478L19.1028 26.2695L18.3998 25.4317L18.9025 25.0095L19.6055 25.8478ZM18.9834 24.0851L18.2803 23.2473L18.783 22.8255L19.4861 23.6633L18.9834 24.0851ZM18.4807 24.5073L17.978 24.929L17.275 24.0912L17.7777 23.6695L18.4807 24.5073ZM17.4745 25.3508L16.9718 25.7725L16.2696 24.9347L16.7723 24.513L17.4745 25.3508ZM16.8523 23.5885L16.1502 22.7507L16.6528 22.3285L17.3559 23.1668L16.8523 23.5885ZM16.3505 24.0094L15.85 24.432L15.1448 23.5942L15.6475 23.1725L16.3505 24.0094ZM15.3443 24.8529L14.8438 25.2755L14.1394 24.4377L14.6421 24.016L15.3443 24.8529ZM15.766 25.3556L16.4691 26.1934L15.9664 26.6152L15.2642 25.7782L15.766 25.3556ZM16.8908 26.6961L17.5939 27.5343L17.0912 27.9561L16.3881 27.1183L16.8908 26.6961ZM17.3935 26.2743L17.8962 25.8526L18.5993 26.6904L18.0966 27.1122L17.3935 26.2743ZM19.021 27.1931L19.725 28.0344L19.2223 28.4562L18.5188 27.6157L19.021 27.1931ZM19.5237 26.7713L20.0268 26.3496L20.7299 27.1874L20.2268 27.6092L19.5237 26.7713ZM21.1516 27.6901L21.9553 28.6469C21.8403 28.8405 21.7041 29.0206 21.5493 29.1842L20.6498 28.1118L21.1516 27.6901ZM22.0411 24.6587C22.191 25.0294 22.3024 25.4145 22.3736 25.808L22.238 25.9217L21.5375 25.0848L22.0411 24.6587ZM21.7515 24.0462L21.1131 24.5821L20.4101 23.7443L21.1538 23.1195C21.3781 23.4117 21.5782 23.7216 21.7523 24.0462H21.7515ZM20.7325 22.6168L19.9888 23.2416L19.2861 22.4038L19.9245 21.8657C20.214 22.0938 20.4845 22.345 20.7334 22.6168H20.7325ZM18.2961 20.9495C18.6711 21.087 19.0309 21.263 19.3697 21.4745L18.8635 21.8993L18.16 21.0615L18.2961 20.9495ZM18.3604 22.3228L17.8577 22.7446L17.1546 21.9068L17.6573 21.485L18.3604 22.3228ZM16.9967 20.6603L16.977 20.6765L17.2356 20.9828L16.7329 21.4045L16.1305 20.6844C16.4176 20.6433 16.7085 20.6345 16.9976 20.6582L16.9967 20.6603ZM15.4274 20.8712L16.2302 21.828L15.7275 22.2498L14.8276 21.1779C15.0157 21.0529 15.2172 20.9493 15.4283 20.869L15.4274 20.8712ZM14.3249 21.5997L15.2248 22.672L14.723 23.0907L13.9198 22.1347C14.0348 21.9412 14.171 21.761 14.3258 21.5975L14.3249 21.5997ZM13.4394 23.6432C13.4669 23.3546 13.5264 23.0699 13.617 22.7945L14.2203 23.5133L13.7177 23.935L13.4591 23.6288L13.4394 23.6432ZM13.8332 26.1225C13.6832 25.7514 13.5719 25.3659 13.5011 24.9719L13.6367 24.8577L14.3398 25.6955L13.8332 26.1225ZM14.1228 26.735L14.7615 26.1991L15.4646 27.0373L14.7208 27.6621C14.4968 27.37 14.2968 27.0603 14.1228 26.7359V26.735ZM15.1417 28.1657L15.8855 27.5409L16.5885 28.3787L15.9506 28.9147C15.6613 28.6871 15.3908 28.4367 15.1417 28.1657ZM17.5786 29.833C17.2035 29.6952 16.8436 29.5193 16.5045 29.308L17.0112 28.8827L17.7142 29.7205L17.5786 29.833ZM17.5125 28.4597L18.0152 28.0379L18.7183 28.8757L18.2156 29.2975L17.5125 28.4597ZM18.8762 30.1243L18.8959 30.1082L18.6373 29.8019L19.14 29.3802L19.7438 30.0972C19.4569 30.1385 19.1664 30.1476 18.8775 30.1243H18.8762ZM19.6427 28.9567L20.1454 28.5349L21.0453 29.6068C20.8575 29.7308 20.6565 29.8335 20.446 29.913L19.6427 28.9567ZM21.0235 30.8628C21.7433 30.551 22.3567 30.0362 22.7888 29.3815L23.536 31.8293L23.3041 32.024L21.0235 30.8628Z" fill="#104F99"/>
<path d="M20.9656 38.9626L20.6844 39.2977C20.529 39.4828 20.5531 39.7587 20.7382 39.9141L22.0785 41.0392C22.2636 41.1946 22.5396 41.1705 22.6949 40.9854L22.9762 40.6503C23.1315 40.4653 23.1074 40.1893 22.9224 40.034L21.582 38.9088C21.397 38.7535 21.121 38.7776 20.9656 38.9626Z" fill="#104F99"/>
<path d="M38.2805 20.3642C36.0594 18.5005 32.3704 19.2403 30.0407 22.0166C28.4442 23.9189 27.9013 26.284 28.4315 28.1854L27.2065 32.2034L28.5457 33.3282L32.2899 31.4225C34.2534 31.615 36.4877 30.6695 38.0841 28.7673C40.4138 25.9896 40.5017 22.228 38.2805 20.3642ZM38.0802 22.1348L37.2769 23.0907L36.7742 22.669L37.6742 21.5966C37.829 21.7604 37.9652 21.9409 38.0802 22.1348ZM35.6494 24.0095L36.3525 23.1716L36.8552 23.5934L36.1521 24.4312L35.6494 24.0095ZM35.7304 24.9339L35.0273 25.7726L34.5246 25.3508L35.2277 24.513L35.7304 24.9339ZM35.1463 23.5877L34.644 23.166L35.3471 22.3277L35.8498 22.7495L35.1463 23.5877ZM34.725 24.0904L34.0219 24.9282L33.5192 24.5065L34.2223 23.6686L34.725 24.0904ZM33.6002 25.4309L32.8971 26.2687L32.3944 25.847L33.0975 25.0087L33.6002 25.4309ZM33.0161 24.0843L32.5139 23.6625L33.2187 22.8256L33.7209 23.2473L33.0161 24.0843ZM32.5944 24.587L31.8913 25.4248L31.389 25.003L32.0921 24.1652L32.5944 24.587ZM31.4687 25.9283L30.7687 26.7657L30.266 26.344L30.9695 25.5061L31.4687 25.9283ZM30.8474 27.691L31.3505 28.1128L30.4506 29.1851C30.2958 29.0216 30.1597 28.8414 30.0446 28.6478L30.8474 27.691ZM31.2692 27.1883L31.9727 26.3505L32.4754 26.7723L31.7719 27.6101L31.2692 27.1883ZM32.978 27.194L33.4807 27.6158L32.7777 28.4536L32.275 28.0318L32.978 27.194ZM33.3998 26.6913L34.1029 25.8535L34.6055 26.2753L33.9025 27.1131L33.3998 26.6913ZM35.1082 26.6975L35.6109 27.1188L34.9079 27.957L34.4052 27.5353L35.1082 26.6975ZM35.53 26.1948L36.233 25.357L36.7357 25.7783L36.0327 26.6165L35.53 26.1948ZM36.6548 24.8543L37.3579 24.016L37.8605 24.4378L37.1562 25.2782L36.6548 24.8543ZM37.171 21.1753L36.2715 22.2476L35.7689 21.8263L36.5717 20.8691C36.7822 20.9487 36.9832 21.0514 37.171 21.1753ZM35.0024 20.6582C35.2913 20.6346 35.582 20.6434 35.869 20.6845L35.2662 21.4041L34.7635 20.9824L35.022 20.6761L35.0024 20.6582ZM34.8444 21.9068L34.1409 22.7446L33.6387 22.3233L34.3417 21.4851L34.8444 21.9068ZM33.703 20.9496L33.839 21.0633L33.1355 21.9011L32.6294 21.4763C32.9681 21.2641 33.3279 21.0876 33.703 20.9496ZM32.0755 21.8683L32.7138 22.4043L32.0107 23.2421L31.267 22.6173C31.5157 22.3453 31.7861 22.094 32.0755 21.8657V21.8683ZM30.8448 23.12L31.5885 23.7448L30.8855 24.5826L30.2472 24.0466C30.421 23.722 30.6208 23.4124 30.8448 23.12ZM29.958 24.66L30.4642 25.0853L29.7624 25.9226L29.6268 25.8089C29.6976 25.4155 29.8085 25.0308 29.958 24.66ZM29.5835 27.1538L29.842 26.8475L30.3447 27.2693L29.7414 27.9881C29.6509 27.7126 29.5915 27.428 29.5642 27.1393L29.5835 27.1538ZM28.6945 32.024L28.4626 31.8293L29.2099 29.3815C29.6419 30.0363 30.2554 30.551 30.9752 30.8629L28.6945 32.024ZM30.9533 29.6068L31.8532 28.5345L32.3559 28.9563L31.5527 29.9157C31.342 29.8353 31.141 29.7317 30.9533 29.6068ZM33.1224 30.1244C32.8333 30.1477 32.5424 30.1387 32.2553 30.0973L32.8586 29.3785L33.3613 29.8002L33.1027 30.1065L33.1224 30.1244ZM33.2804 28.8758L33.9834 28.0375L34.4861 28.4593L33.783 29.2975L33.2804 28.8758ZM34.4214 29.833L34.2857 29.7193L34.9888 28.8815L35.4954 29.3063C35.1564 29.5182 34.7965 29.6947 34.4214 29.833ZM36.0493 28.9143L35.4105 28.3783L36.1136 27.5405L36.8574 28.1653C36.6086 28.4364 36.3383 28.6866 36.0493 28.9143ZM37.28 27.6626L36.5362 27.0378L37.2393 26.2L37.878 26.736C37.7039 27.0605 37.5039 27.3701 37.28 27.6626ZM38.1668 26.1226L37.6602 25.6973L38.3632 24.8595L38.4989 24.9733C38.428 25.3669 38.3167 25.7518 38.1668 26.1226ZM38.5409 23.6266L38.2823 23.9329L37.78 23.5116L38.3812 22.795C38.4718 23.0702 38.5314 23.3548 38.5588 23.6433L38.5409 23.6266Z" fill="#104F99"/>
<path d="M24.4294 34.4916L25.5717 33.1305L25.2165 32.707L23.876 33.8318L24.4294 34.4916Z" fill="#104F99"/>
<path d="M26.7837 32.707L22.0027 38.4046L23.3432 39.5294L28.1242 33.8318L26.7837 32.707Z" fill="#104F99"/>
<path d="M29.9976 38.4001L27.5708 35.5078L26.4285 36.8689L28.6571 39.5249L28.6575 39.5245L29.9976 38.4001Z" fill="#104F99"/>
</g>
<defs>
<linearGradient id="paint0_linear_39378_1787" x1="26" y1="52.8164" x2="26" y2="0.816406" gradientUnits="userSpaceOnUse">
<stop stop-color="#ADDCFF"/>
<stop offset="0.5028" stop-color="#EAF6FF"/>
<stop offset="1" stop-color="#EAF6FF"/>
</linearGradient>
<clipPath id="clip0_39378_1787">
<rect width="28" height="28" fill="white" transform="translate(12 13.2461)"/>
</clipPath>
</defs>
</svg>
