<svg width="52" height="53" viewBox="0 0 52 53" fill="none" xmlns="http://www.w3.org/2000/svg">
<rect y="0.816406" width="52" height="52" rx="10" fill="url(#paint0_linear_39378_1855)"/>
<g opacity="0.5">
<path d="M14.9507 36.8563C15.8811 37.7104 17.0439 38.2693 18.2921 38.4623C18.4283 37.7774 18.4031 37.0701 18.2185 36.3966C18.034 35.7232 17.6952 35.1019 17.2289 34.582L14.9507 36.8563Z" fill="#104F99"/>
<path d="M26.7155 35.8984C26.3486 35.8984 25.9898 36.0073 25.6847 36.2112C25.3796 36.4151 25.1418 36.7049 25.0013 37.0439C24.8609 37.3829 24.8242 37.756 24.8958 38.116C24.9674 38.4759 25.1441 38.8065 25.4036 39.066C25.6631 39.3255 25.9937 39.5022 26.3536 39.5738C26.7136 39.6454 27.0866 39.6086 27.4257 39.4682C27.7647 39.3277 28.0545 39.0899 28.2584 38.7848C28.4623 38.4796 28.5711 38.1209 28.5711 37.7539C28.5705 37.262 28.3749 36.7903 28.027 36.4425C27.6791 36.0946 27.2075 35.899 26.7155 35.8984Z" fill="#104F99"/>
<path d="M25.6875 31.6815C25.3781 31.7388 25.064 31.7677 24.7493 31.7678C23.4955 31.7679 22.2865 31.3021 21.3568 30.4609L19.6758 32.139L24.0139 36.4695C25.1042 35.2915 25.708 33.7443 25.7037 32.1391C25.7037 31.9857 25.6984 31.8331 25.6875 31.6815Z" fill="#104F99"/>
<path d="M17.6165 34.1968C18.1359 34.7778 18.5158 35.4697 18.7274 36.2198C18.939 36.9699 18.9766 37.7584 18.8374 38.5252C19.7071 38.5876 20.5804 38.4718 21.4039 38.1851C22.2274 37.8984 22.9837 37.4467 23.6266 36.8576L19.2886 32.5273L17.6165 34.1968Z" fill="#104F99"/>
<path d="M30.8117 38.7005C30.7955 38.7116 30.7817 38.7258 30.7711 38.7422C30.7604 38.7586 30.7531 38.777 30.7495 38.7962C30.746 38.8155 30.7463 38.8352 30.7504 38.8544C30.7544 38.8735 30.7623 38.8917 30.7734 38.9078C30.9138 39.1104 31.1287 39.2492 31.3712 39.2937C31.6136 39.3383 31.8639 39.285 32.0671 39.1455L32.93 38.5522C33.0474 38.4711 33.1445 38.3641 33.2139 38.2395L32.2454 37.7148L30.8117 38.7005Z" fill="#104F99"/>
<path d="M31.7052 37.4219L30.1401 36.5742L31.0405 37.879L31.7052 37.4219Z" fill="#104F99"/>
<path d="M36.0719 30.4678L29.8183 30.8717L29.5356 32.1896L35.7883 32.6487C35.955 32.6604 36.1211 32.6185 36.2624 32.5292L37.8876 31.4932L36.7782 30.6717C36.5749 30.5211 36.3242 30.4488 36.0719 30.4678Z" fill="#104F99"/>
<path d="M37.3094 17.9599C37.0397 17.4461 36.6322 17.0176 36.1325 16.7227L35.7312 17.5916L37.1731 18.255L37.3094 17.9599Z" fill="#104F99"/>
<path d="M35.0545 36.1627L29.1435 34.0195L28.8755 35.2691L34.3688 38.2445C34.6062 38.3735 34.8842 38.4061 35.145 38.3355L36.5005 37.9706L35.4236 36.4443C35.3324 36.3148 35.2035 36.2165 35.0545 36.1627Z" fill="#104F99"/>
<path d="M35.8438 33.1988C35.812 33.1988 35.7803 33.1976 35.7486 33.1953L29.4202 32.7305L29.2595 33.4797L35.2413 35.6485C35.2995 35.6698 35.3561 35.6951 35.4108 35.7243L37.6673 34.7708L36.0421 33.1833C35.9765 33.1934 35.9102 33.1986 35.8438 33.1988Z" fill="#104F99"/>
<path d="M27.5569 34.9141L28.4683 30.6492L29.2695 30.8204L28.3581 35.0853L27.5569 34.9141Z" fill="#104F99"/>
<path d="M30.1422 30.3054L31.2288 27.9521C31.0613 27.8981 30.8973 27.8341 30.7374 27.7607C30.5775 27.6868 30.422 27.6036 30.2716 27.5117L29.0242 30.2133L29.6148 30.3395L30.1422 30.3054Z" fill="#104F99"/>
<path d="M27.1741 30.0397L27.1012 29.9339C26.823 29.5315 26.7038 29.0402 26.7665 28.555C26.8119 28.2036 26.7256 27.8479 26.5241 27.5565L19.3103 17.1032C19.0841 16.7769 18.738 16.5535 18.3475 16.4818C17.957 16.41 17.554 16.4958 17.2267 16.7204C17.0648 16.8316 16.9265 16.9735 16.8196 17.1382C16.7127 17.3029 16.6393 17.487 16.6037 17.6801C16.568 17.8732 16.5708 18.0714 16.6119 18.2634C16.653 18.4554 16.7315 18.6374 16.843 18.799L21.5024 25.5504C22.6321 25.928 23.6461 26.5893 24.4471 27.4709C25.2481 28.3526 25.8093 29.4252 26.0771 30.5859C26.3824 30.3018 26.7634 30.1122 27.1741 30.0397ZM17.7953 18.3183C17.7654 18.3382 17.7319 18.352 17.6967 18.3589C17.6615 18.3659 17.6252 18.3658 17.59 18.3588C17.5548 18.3517 17.5213 18.3378 17.4915 18.3178C17.4617 18.2978 17.4361 18.2721 17.4162 18.2422L17.3539 18.1483C17.334 18.1184 17.3202 18.0849 17.3133 18.0497C17.3063 18.0144 17.3064 17.9782 17.3134 17.943C17.3205 17.9078 17.3344 17.8743 17.3544 17.8445C17.3744 17.8146 17.4001 17.789 17.43 17.7691C17.4599 17.7492 17.4934 17.7354 17.5286 17.7285C17.5639 17.7215 17.6001 17.7216 17.6353 17.7287C17.6705 17.7357 17.704 17.7497 17.7338 17.7697C17.7637 17.7897 17.7893 17.8153 17.8092 17.8452L17.8716 17.9391C17.8915 17.969 17.9053 18.0025 17.9122 18.0378C17.9192 18.073 17.9191 18.1093 17.912 18.1445C17.9049 18.1797 17.891 18.2132 17.8709 18.243C17.8509 18.2728 17.8252 18.2984 17.7953 18.3183ZM20.6883 22.6644C20.6584 22.6843 20.6249 22.6981 20.5897 22.7051C20.5544 22.712 20.5182 22.7119 20.483 22.7049C20.4478 22.6978 20.4143 22.6839 20.3845 22.6639C20.3546 22.6439 20.329 22.6182 20.3091 22.5883L17.9704 19.0749C17.9499 19.045 17.9356 19.0114 17.9282 18.9759C17.9208 18.9405 17.9206 18.9039 17.9275 18.8683C17.9344 18.8327 17.9482 18.7989 17.9683 18.7687C17.9884 18.7386 18.0143 18.7127 18.0444 18.6926C18.0746 18.6726 18.1084 18.6587 18.144 18.6518C18.1796 18.6449 18.2162 18.6452 18.2516 18.6526C18.2871 18.6599 18.3207 18.6743 18.3506 18.6948C18.3805 18.7153 18.406 18.7415 18.4256 18.772L20.7644 22.2853C20.8046 22.3457 20.8192 22.4195 20.8049 22.4906C20.7906 22.5617 20.7487 22.6242 20.6884 22.6644H20.6883Z" fill="#104F99"/>
<path d="M27.0141 34.8251L27.9309 30.5512C27.1307 30.4687 26.3849 30.8146 26.2082 31.3736C26.2362 31.6281 26.2502 31.8839 26.2503 32.1399C26.2512 32.8782 26.1345 33.612 25.9045 34.3137C26.2097 34.7181 26.7134 34.7953 27.0141 34.8251Z" fill="#104F99"/>
<path d="M33.4414 21.2494L31.9996 20.5859L31.447 21.7827L32.8889 22.4461L33.4414 21.2494Z" fill="#104F99"/>
<path d="M17.2291 33.8085L18.9015 32.1391L14.5634 27.8086C13.4731 28.9866 12.8693 30.5338 12.8736 32.139C12.8736 32.2902 12.8788 32.4405 12.8894 32.5899C13.6578 32.4502 14.4479 32.4873 15.1999 32.6984C15.9518 32.9096 16.6457 33.2892 17.2291 33.8085Z" fill="#104F99"/>
<path d="M12.9507 33.134C13.1445 34.3812 13.7061 35.5422 14.5635 36.4683L16.842 34.1939C16.3198 33.7279 15.6964 33.3896 15.0212 33.2057C14.3459 33.0218 13.6371 32.9972 12.9507 33.134Z" fill="#104F99"/>
<path d="M20.9698 30.0739C20.4461 29.4973 20.0632 28.8073 19.8511 28.0579C19.6389 27.3085 19.6033 26.5202 19.747 25.7547C19.5944 25.7438 19.4416 25.7383 19.2885 25.7383C17.6825 25.7355 16.1341 26.3364 14.9504 27.4218L19.2885 31.7521L20.9698 30.0739Z" fill="#104F99"/>
<path d="M23.6266 27.4252C22.698 26.5727 21.5378 26.0143 20.2922 25.8203C20.1581 26.5038 20.1845 27.2092 20.3693 27.8807C20.5542 28.5523 20.8924 29.1718 21.3574 29.6904L23.6266 27.4252Z" fill="#104F99"/>
<path d="M25.6254 31.1361C25.4306 29.8915 24.8695 28.7331 24.0137 27.8086L21.7441 30.0739C22.2651 30.5387 22.8867 30.8764 23.56 31.0607C24.2334 31.245 24.9403 31.2708 25.6254 31.1361Z" fill="#104F99"/>
<path d="M29.8807 23.8697L29.9392 23.7431L29.8267 23.6914C29.8435 23.7513 29.8615 23.8108 29.8807 23.8697Z" fill="#104F99"/>
<path d="M34.2539 25.8824C34.3118 25.8585 34.3696 25.8331 34.4272 25.8064L34.3132 25.7539L34.2539 25.8824Z" fill="#104F99"/>
<path d="M29.6939 21.5781C29.6296 22.059 29.6284 22.5462 29.6904 23.0273L30.1684 23.2472L30.7207 22.0505L29.6939 21.5781Z" fill="#104F99"/>
<path d="M31.843 26.0144C32.3929 26.2009 32.9835 26.2319 33.5499 26.1039L33.8164 25.5266L32.3746 24.8633L31.843 26.0144Z" fill="#104F99"/>
<path d="M30.4358 23.9727L30.1699 24.5485C30.4393 25.0626 30.8467 25.4914 31.3463 25.7867L31.8776 24.636L30.4358 23.9727Z" fill="#104F99"/>
<path d="M34.5422 25.2592L35.0195 25.4789C35.4256 25.2126 35.7957 24.8952 36.1209 24.5346L35.0949 24.0625L34.5422 25.2592Z" fill="#104F99"/>
<path d="M33.1563 23.168L32.6038 24.3647L34.0456 25.0281L34.5982 23.8314L33.1563 23.168Z" fill="#104F99"/>
<path d="M36.5143 15.2474C35.9837 15.0046 35.4066 14.8802 34.8231 14.8829C32.6493 14.8829 30.3323 16.5189 29.1256 19.1321C28.2572 21.0127 28.1144 23.0538 28.7336 24.7321C29.1707 25.9165 29.9425 26.7914 30.9659 27.2622C33.5106 28.4331 36.825 26.6902 38.3546 23.3776C39.223 21.4969 39.3658 19.4559 38.7466 17.7776C38.3096 16.5931 37.5377 15.7182 36.5143 15.2474ZM37.7201 23.0863C36.6866 25.3243 34.6971 26.7243 32.8265 26.7243C32.3209 26.7266 31.8207 26.6188 31.3609 26.4083C30.4706 25.9987 29.8005 25.2413 29.423 24.2182C28.8931 22.7824 29.0159 21.0346 29.7601 19.4231C31.0721 16.5818 33.9251 15.0915 36.1193 16.1011C37.0096 16.5107 37.6798 17.268 38.0574 18.2911C38.5872 19.727 38.4643 21.4747 37.7201 23.0863V23.0863Z" fill="#104F99"/>
<path d="M37.4405 18.9805L36.8882 20.1773L37.8201 20.606C37.8596 20.1061 37.828 19.603 37.7264 19.1119L37.4405 18.9805Z" fill="#104F99"/>
<path d="M36.1062 21.8725L37.3914 22.4637C37.554 22.0483 37.6742 21.6175 37.7501 21.1778L36.6589 20.6758L36.1062 21.8725Z" fill="#104F99"/>
<path d="M35.3242 23.5636L36.4821 24.0964C36.7492 23.7424 36.9806 23.3628 37.1729 22.9633L35.8768 22.3672L35.3242 23.5636Z" fill="#104F99"/>
<path d="M34.2232 19.554L32.7813 18.8906L32.2288 20.0874L33.6706 20.7508L34.2232 19.554Z" fill="#104F99"/>
<path d="M36.9436 18.7532L35.5018 18.0898L34.9492 19.2866L36.3911 19.9499L36.9436 18.7532Z" fill="#104F99"/>
<path d="M30.6653 23.4741L32.1071 24.1374L32.6597 22.9407L31.2178 22.2773L30.6653 23.4741Z" fill="#104F99"/>
<path d="M31.5029 20.3573L30.2084 19.7617C30.0288 20.1669 29.8894 20.5888 29.7922 21.0212L30.9504 21.554L31.5029 20.3573Z" fill="#104F99"/>
<path d="M36.1619 20.4446L34.72 19.7812L34.1675 20.978L35.6093 21.6413L36.1619 20.4446Z" fill="#104F99"/>
<path d="M35.6354 16.4945C35.3165 16.3835 34.9811 16.3273 34.6435 16.3281C34.403 16.329 34.1632 16.3551 33.9281 16.406L33.7925 16.6997L35.2343 17.363L35.6354 16.4945Z" fill="#104F99"/>
<path d="M35.3801 22.1399L33.9383 21.4766L33.3857 22.6733L34.8276 23.3366L35.3801 22.1399Z" fill="#104F99"/>
<path d="M32.2845 18.664L31.1974 18.1641C30.911 18.5066 30.6601 18.8773 30.4485 19.2704L31.7319 19.8611L32.2845 18.664Z" fill="#104F99"/>
<path d="M33.0665 16.9699L32.7834 16.8398C32.3447 17.083 31.942 17.386 31.5869 17.7403L32.5139 18.1669L33.0665 16.9699Z" fill="#104F99"/>
<path d="M34.4526 19.0593L35.0051 17.8626L33.5633 17.1992L33.0107 18.3959L34.4526 19.0593Z" fill="#104F99"/>
</g>
<defs>
<linearGradient id="paint0_linear_39378_1855" x1="26" y1="52.8164" x2="26" y2="0.816406" gradientUnits="userSpaceOnUse">
<stop stop-color="#ADDCFF"/>
<stop offset="0.5028" stop-color="#EAF6FF"/>
<stop offset="1" stop-color="#EAF6FF"/>
</linearGradient>
</defs>
</svg>
