<svg width="52" height="53" viewBox="0 0 52 53" fill="none" xmlns="http://www.w3.org/2000/svg">
<rect y="0.816406" width="52" height="52" rx="10" fill="url(#paint0_linear_39378_1810)"/>
<g opacity="0.5" clip-path="url(#clip0_39378_1810)">
<path d="M30.6913 33.5391C28.4414 35.096 25.7807 35.9269 23.0477 35.9269C22.7465 35.9269 22.4447 35.9168 22.1422 35.8965C19.9741 35.7509 17.8982 35.0898 16.075 33.9871C16.494 34.5992 16.9722 35.1772 17.5081 35.7131C19.7753 37.9804 22.7897 39.229 25.9961 39.229C27.9997 39.229 29.9285 38.7413 31.6467 37.8223C31.5918 36.3483 31.2664 34.894 30.6913 33.5391Z" fill="#104F99"/>
<path d="M28.1928 15.4219C25.4964 16.2114 23.1603 17.9226 21.5832 20.2748C20.0148 22.614 19.3213 25.4107 19.6067 28.2025C21.5836 28.2025 23.558 27.7096 25.3078 26.7716C25.3817 24.5234 26.0163 22.3279 27.1543 20.3959C28.11 18.7736 29.399 17.3672 30.924 16.2735C30.0544 15.8817 29.1387 15.5958 28.1928 15.4219Z" fill="#104F99"/>
<path d="M34.2235 26.8157C32.9821 24.2882 30.9073 22.2895 28.3472 21.1406C27.3381 22.8665 26.7765 24.8257 26.7134 26.8319C28.6234 28.02 30.2074 29.6673 31.3115 31.6189C32.2436 33.2663 32.818 35.0965 32.9995 36.9744C33.5224 36.5971 34.0192 36.1758 34.4842 35.7109C34.6996 35.4955 34.9057 35.2733 35.1025 35.0448C35.7923 32.2917 35.484 29.3821 34.2235 26.8157Z" fill="#104F99"/>
<path d="M18.1863 28.1161C17.9276 25.0747 18.7061 22.0402 20.4149 19.4917C21.5966 17.7291 23.1607 16.2892 24.9717 15.2656C22.1518 15.5024 19.5321 16.7138 17.5081 18.7378C15.3384 20.9074 14.1025 23.7614 14 26.8129C15.3044 27.4983 16.7262 27.9401 18.1863 28.1161Z" fill="#104F99"/>
<path d="M25.9561 28.0195C24.0064 29.0612 21.8299 29.6086 19.6274 29.6086V29.6081C17.3938 29.6081 15.7608 29.1773 14.0491 28.4013C14.1386 29.3281 14.3344 30.2321 14.6293 31.0997C16.6738 33.0975 19.3647 34.2998 22.2366 34.4926C25.0331 34.6804 27.7894 33.8914 30.0586 32.2638C29.0689 30.5341 27.6566 29.074 25.9561 28.0195Z" fill="#104F99"/>
<path d="M29.1372 19.9589C31.8978 21.2559 34.1343 23.4462 35.4861 26.1984C36.4326 28.1254 36.8977 30.2262 36.8669 32.3309C37.6087 30.7541 38 29.02 38 27.2257C38 24.0194 36.7513 21.0049 34.4841 18.7376C33.8244 18.0779 33.1009 17.505 32.3282 17.0234C31.0966 17.802 30.0141 18.799 29.1372 19.9589Z" fill="#104F99"/>
</g>
<defs>
<linearGradient id="paint0_linear_39378_1810" x1="26" y1="52.8164" x2="26" y2="0.816406" gradientUnits="userSpaceOnUse">
<stop stop-color="#ADDCFF"/>
<stop offset="0.5028" stop-color="#EAF6FF"/>
<stop offset="1" stop-color="#EAF6FF"/>
</linearGradient>
<clipPath id="clip0_39378_1810">
<rect width="24" height="24" fill="white" transform="translate(14 15.2461)"/>
</clipPath>
</defs>
</svg>
