<svg width="52" height="53" viewBox="0 0 52 53" fill="none" xmlns="http://www.w3.org/2000/svg">
<rect y="0.816406" width="52" height="52" rx="10" fill="url(#paint0_linear_39378_1833)"/>
<g opacity="0.5" clip-path="url(#clip0_39378_1833)">
<path d="M22.4464 18.8567C22.3126 18.5355 22.122 18.2706 21.8741 18.065C21.017 17.3544 19.4264 17.4724 18.948 17.5274C16.5461 19.2751 14.8142 21.8899 14.2166 24.9081C15.743 21.9937 18.7569 19.7487 22.4464 18.8567Z" fill="#104F99"/>
<path d="M25.467 15.2461C23.7601 15.321 22.1448 15.7538 20.6938 16.4712C21.3104 16.5602 21.9886 16.7757 22.5545 17.2449C22.9928 17.6083 23.3102 18.0761 23.5069 18.6419C24.1448 18.5362 24.7994 18.4704 25.4669 18.4475V15.2461H25.467Z" fill="#104F99"/>
<path d="M31.7887 37.7705C31.9173 37.7082 35.0333 35.7208 33.8496 31.1057C33.5132 29.7945 32.5471 28.6436 31.5463 27.4193C30.0239 25.5566 28.2983 23.4456 28.255 20.2855C28.2522 20.0783 28.2604 19.8797 28.2774 19.6881C27.7093 19.5959 27.1268 19.5375 26.533 19.5156V39.2478C28.4316 39.1645 30.1732 38.5537 31.7887 37.7705Z" fill="#104F99"/>
<path d="M26.533 15.2461V18.4475C27.2006 18.4704 27.8552 18.5362 28.493 18.6419C28.6898 18.076 29.0071 17.6083 29.4454 17.2449C30.0113 16.7757 30.6895 16.5602 31.306 16.4712C29.8552 15.7538 28.2399 15.321 26.533 15.2461Z" fill="#104F99"/>
<path d="M14.1793 29.3893C14.3745 31.5643 15.5303 33.4899 16.9013 35.0799C16.6556 34.0045 16.6344 32.6048 17.1223 30.822C17.5392 29.2984 18.554 28.0568 19.6284 26.7424C21.1094 24.9304 22.6409 23.0567 22.6792 20.2686C22.681 20.1409 22.6781 20.0175 22.6706 19.8984C17.7795 21.0881 13.7844 24.9876 14.1793 29.3893Z" fill="#104F99"/>
<path d="M33.0383 17.5196C32.4561 17.4619 30.9392 17.3894 30.1223 18.07C29.8761 18.2752 29.6866 18.5391 29.5535 18.8588C33.2429 19.7509 36.2568 21.9958 37.7834 24.9103C37.1845 21.8863 35.4472 19.2673 33.0383 17.5196Z" fill="#104F99"/>
<path d="M37.8207 29.3893C38.2156 24.9876 34.2205 21.0882 29.3293 19.8984C29.322 20.0175 29.3191 20.1409 29.3208 20.2686C29.3591 23.0567 30.8906 24.9304 32.3716 26.7424C33.446 28.0568 34.4607 29.2984 34.8777 30.822C35.3656 32.6048 35.3444 34.0045 35.0987 35.0799C36.4697 33.4899 37.6256 31.5643 37.8207 29.3893Z" fill="#104F99"/>
<path d="M20.1223 37.7706C21.7424 38.5441 23.5683 39.1646 25.4669 39.2479V19.5156C24.8731 19.5375 24.2906 19.5959 23.7225 19.6881C23.7395 19.8798 23.7478 20.0784 23.7449 20.2855C23.7016 23.4456 21.9761 25.5566 20.4536 27.4193C19.4529 28.6436 18.4925 29.796 18.1503 31.1057C16.8984 35.8985 20.0901 37.7552 20.1223 37.7706Z" fill="#104F99"/>
</g>
<defs>
<linearGradient id="paint0_linear_39378_1833" x1="26" y1="52.8164" x2="26" y2="0.816406" gradientUnits="userSpaceOnUse">
<stop stop-color="#ADDCFF"/>
<stop offset="0.5028" stop-color="#EAF6FF"/>
<stop offset="1" stop-color="#EAF6FF"/>
</linearGradient>
<clipPath id="clip0_39378_1833">
<rect width="24" height="24" fill="white" transform="translate(14 15.2461)"/>
</clipPath>
</defs>
</svg>
