<svg width="14" height="12" viewBox="0 0 14 12" fill="none" xmlns="http://www.w3.org/2000/svg">
<path fill-rule="evenodd" clip-rule="evenodd" d="M2.33325 2.0013C2.15644 2.0013 1.98687 2.07154 1.86185 2.19656C1.73682 2.32159 1.66659 2.49116 1.66659 2.66797V9.33463C1.66659 9.51145 1.73682 9.68102 1.86185 9.80604C1.98687 9.93106 2.15644 10.0013 2.33325 10.0013H7.11325C7.25099 9.61095 7.50641 9.27292 7.84432 9.03383C8.18223 8.79473 8.58598 8.66633 8.99992 8.66633C9.41386 8.66633 9.81761 8.79473 10.1555 9.03383C10.4934 9.27292 10.7489 9.61095 10.8866 10.0013H11.6666C11.8434 10.0013 12.013 9.93106 12.138 9.80604C12.263 9.68102 12.3333 9.51145 12.3333 9.33463V2.66797C12.3333 2.49116 12.263 2.32159 12.138 2.19656C12.013 2.07154 11.8434 2.0013 11.6666 2.0013H10.8866C10.7489 2.39166 10.4934 2.72968 10.1555 2.96878C9.81761 3.20787 9.41386 3.33627 8.99992 3.33627C8.58598 3.33627 8.18223 3.20787 7.84432 2.96878C7.50641 2.72968 7.25099 2.39166 7.11325 2.0013H2.33325ZM0.333252 2.66797C0.333252 2.13754 0.543966 1.62883 0.919038 1.25376C1.29411 0.878682 1.80282 0.667969 2.33325 0.667969H7.66659C7.8434 0.667969 8.01297 0.738207 8.13799 0.863231C8.26301 0.988255 8.33325 1.15782 8.33325 1.33464C8.33325 1.51145 8.40349 1.68102 8.52851 1.80604C8.65354 1.93106 8.82311 2.0013 8.99992 2.0013C9.17673 2.0013 9.3463 1.93106 9.47132 1.80604C9.59635 1.68102 9.66659 1.51145 9.66659 1.33464C9.66659 1.15782 9.73682 0.988255 9.86185 0.863231C9.98687 0.738207 10.1564 0.667969 10.3333 0.667969H11.6666C12.197 0.667969 12.7057 0.878682 13.0808 1.25376C13.4559 1.62883 13.6666 2.13754 13.6666 2.66797V9.33463C13.6666 9.86507 13.4559 10.3738 13.0808 10.7488C12.7057 11.1239 12.197 11.3346 11.6666 11.3346H10.3333C10.1564 11.3346 9.98687 11.2644 9.86185 11.1394C9.73682 11.0143 9.66659 10.8448 9.66659 10.668C9.66659 10.4912 9.59635 10.3216 9.47132 10.1966C9.3463 10.0715 9.17673 10.0013 8.99992 10.0013C8.82311 10.0013 8.65354 10.0715 8.52851 10.1966C8.40349 10.3216 8.33325 10.4912 8.33325 10.668C8.33325 10.8448 8.26301 11.0143 8.13799 11.1394C8.01297 11.2644 7.8434 11.3346 7.66659 11.3346H2.33325C1.80282 11.3346 1.29411 11.1239 0.919038 10.7488C0.543966 10.3738 0.333252 9.86507 0.333252 9.33463V2.66797ZM8.99992 4.0013C9.17673 4.0013 9.3463 4.07154 9.47132 4.19656C9.59635 4.32159 9.66659 4.49116 9.66659 4.66797V5.0013C9.66659 5.17811 9.59635 5.34768 9.47132 5.47271C9.3463 5.59773 9.17673 5.66797 8.99992 5.66797C8.82311 5.66797 8.65354 5.59773 8.52851 5.47271C8.40349 5.34768 8.33325 5.17811 8.33325 5.0013V4.66797C8.33325 4.49116 8.40349 4.32159 8.52851 4.19656C8.65354 4.07154 8.82311 4.0013 8.99992 4.0013ZM9.66659 7.0013C9.66659 6.82449 9.59635 6.65492 9.47132 6.5299C9.3463 6.40487 9.17673 6.33464 8.99992 6.33464C8.82311 6.33464 8.65354 6.40487 8.52851 6.5299C8.40349 6.65492 8.33325 6.82449 8.33325 7.0013V7.33463C8.33325 7.51145 8.40349 7.68102 8.52851 7.80604C8.65354 7.93106 8.82311 8.0013 8.99992 8.0013C9.17673 8.0013 9.3463 7.93106 9.47132 7.80604C9.59635 7.68102 9.66659 7.51145 9.66659 7.33463V7.0013Z" fill="#F8F8F9"/>
</svg>
