<svg width="24" height="24" viewBox="0 0 24 24" fill="none" xmlns="http://www.w3.org/2000/svg">
<g clip-path="url(#clip0_39367_8826)">
<path d="M20.4853 3.51473C18.2188 1.24823 15.2053 0 12 0C8.79462 0 5.78122 1.24823 3.51473 3.51473C1.24823 5.78122 0 8.79467 0 12C0 15.2053 1.24823 18.2187 3.51473 20.4853C5.78122 22.7518 8.79467 24 12 24C15.2053 24 18.2187 22.7518 20.4853 20.4853C22.7518 18.2188 24 15.2053 24 12C24 8.79462 22.7518 5.78122 20.4853 3.51473ZM22.2556 9.33012C20.3881 8.6503 18.2351 8.15876 15.9791 7.88909C15.937 6.61264 16.5242 5.51043 17.6667 4.85947C18.2843 4.49901 18.9132 4.33316 19.2384 4.26562C20.697 5.61838 21.7716 7.43356 22.2556 9.33012ZM12.7031 7.65861V1.42978C14.579 1.55189 16.3603 2.16126 17.8996 3.19757C17.6162 3.30548 17.3109 3.44291 17.0046 3.61795C15.4465 4.50829 14.6056 5.91524 14.5728 7.68673C14.5724 7.70825 14.5728 7.72963 14.5727 7.75109C13.9531 7.70328 13.3287 7.67211 12.7031 7.65861ZM9.42729 7.75484C9.42715 7.73211 9.42762 7.70952 9.4272 7.68673C9.39439 5.91524 8.5535 4.50829 6.99538 3.61795C6.68905 3.44291 6.3838 3.30543 6.10039 3.19757C7.63963 2.16126 9.42101 1.55189 11.2969 1.42978V7.65824C10.6648 7.67169 10.0415 7.70398 9.42729 7.75484ZM4.76155 4.26562C5.08682 4.33316 5.71569 4.49896 6.33327 4.85947C7.46567 5.51047 8.06694 6.59183 8.02034 7.90578C5.76927 8.20437 3.65024 8.76462 1.68248 9.58236C2.13989 7.58652 3.23685 5.68016 4.76155 4.26562ZM1.43404 11.227C3.38296 10.3237 5.50466 9.70015 7.77659 9.36054C7.42958 10.5055 6.75805 11.6008 6.04808 12.6371C5.25697 13.7861 4.25652 14.9163 3.6599 16.2842C3.45534 16.7537 3.28963 17.2765 3.16293 17.8479C2.02012 16.1285 1.40625 14.1115 1.40625 12C1.40625 11.7408 1.41572 11.483 1.43404 11.227ZM4.34662 19.3245C4.45021 18.3597 4.65196 17.5277 4.94901 16.846C5.46744 15.6509 6.4318 14.5651 7.20814 13.4319C8.06272 12.1845 8.92808 10.7469 9.27247 9.17998C9.93575 9.11858 10.6107 9.08 11.2969 9.06472V22.5703C8.67767 22.4022 6.18646 21.2542 4.34662 19.3245ZM12.7031 22.5702V9.06495C13.3812 9.08014 14.0571 9.11693 14.7261 9.17375C15.0696 10.7431 15.9361 12.1829 16.7918 13.4319C17.5265 14.5085 18.5296 15.6456 19.0509 16.846C19.348 17.5277 19.5497 18.3597 19.6533 19.3245C17.8311 21.2396 15.3286 22.4043 12.7031 22.5702ZM20.8372 17.8476C20.7105 17.2763 20.5447 16.7536 20.3401 16.2842C19.7421 14.9145 18.7889 13.8495 17.952 12.6371C17.2367 11.5931 16.5603 10.4894 16.2156 9.33523C18.5347 9.64198 20.7176 10.1941 22.5427 10.9503C22.5766 11.2969 22.5938 11.6471 22.5938 12C22.5938 14.1114 21.9799 16.1284 20.8372 17.8476Z" fill="#65A30D"/>
</g>
<defs>
<clipPath id="clip0_39367_8826">
<rect width="24" height="24" fill="white"/>
</clipPath>
</defs>
</svg>
