<svg width="24" height="24" viewBox="0 0 24 24" fill="none" xmlns="http://www.w3.org/2000/svg">
<g clip-path="url(#clip0_39367_8790)">
<path d="M23.4124 10.8137L19.1916 9.86872L18.7432 5.9149C18.7042 5.56691 18.4312 5.29243 18.0832 5.25493L14.1939 4.81545L13.7304 0.666633C13.7064 0.461142 13.5999 0.27365 13.4334 0.150656C13.2684 0.0261615 13.0599 -0.0263361 12.8544 0.0126621L8.61261 0.762628C8.34113 0.810626 8.11914 1.00112 8.03064 1.26211L3.84433 13.7911L1.84792 15.7875L1.31694 16.3185C0.467979 17.1674 0 18.2983 0 19.4998C0 20.7012 0.467979 21.8322 1.31844 22.6811C2.1674 23.5316 3.29835 23.9996 4.4998 23.9996C5.70124 23.9996 6.83219 23.5316 7.68115 22.6811L8.21213 22.1502L10.2085 20.1538L22.7375 15.9674C22.991 15.8819 23.1815 15.6675 23.2355 15.405L23.9854 11.6941C24.0649 11.2952 23.8114 10.9037 23.4124 10.8137ZM13.8654 6.28543L17.3197 6.67691L17.7127 10.1328L8.29013 16.9274L7.07068 15.708L13.8654 6.28543ZM9.31158 2.16061L12.3279 1.62814L12.7359 5.28797L5.99673 14.634L5.35776 13.995L9.31158 2.16061ZM2.37889 21.6207C1.81192 21.0537 1.49993 20.3008 1.49993 19.4998C1.49993 18.6988 1.81192 17.9459 2.37889 17.3789L6.6207 21.6207C5.48675 22.7546 3.51284 22.7546 2.37889 21.6207ZM7.68115 20.5602L3.43935 16.3184L4.4998 15.2565L8.74311 19.4998L7.68115 20.5602ZM21.8495 14.6835L10.0046 18.6418L9.36558 18.0029L18.6727 11.2907L22.3685 12.1171L21.8495 14.6835Z" fill="#0D9488"/>
</g>
<defs>
<clipPath id="clip0_39367_8790">
<rect width="24" height="24" fill="white"/>
</clipPath>
</defs>
</svg>
