<svg width="16" height="12" viewBox="0 0 16 12" fill="none" xmlns="http://www.w3.org/2000/svg">
<path d="M7.99984 6C9.2485 6 10.3798 6.41333 11.2098 6.99133C11.9985 7.54133 12.6665 8.35867 12.6665 9.238C12.6665 9.72067 12.4605 10.1207 12.1358 10.418C11.8305 10.6987 11.4318 10.8807 11.0212 11.0047C10.2005 11.2533 9.11984 11.3333 7.99984 11.3333C6.87984 11.3333 5.79917 11.2533 4.97851 11.0047C4.56784 10.8807 4.16917 10.6987 3.86317 10.418C3.53984 10.1213 3.33317 9.72133 3.33317 9.23867C3.33317 8.35933 4.00117 7.542 4.78984 6.992C5.61984 6.41333 6.75117 6 7.99984 6ZM12.6665 6.66667C13.3625 6.66667 13.9945 6.89667 14.4618 7.222C14.8885 7.52 15.3332 8.01533 15.3332 8.61933C15.3332 8.964 15.1832 9.25 14.9598 9.45467C14.7558 9.642 14.5038 9.752 14.2738 9.82133C13.9605 9.916 13.5905 9.96467 13.2065 9.986C13.2878 9.756 13.3332 9.506 13.3332 9.238C13.3332 8.21467 12.6938 7.34533 11.9785 6.742C12.2044 6.69198 12.4351 6.66672 12.6665 6.66667ZM3.33317 6.66667C3.57117 6.66667 3.80184 6.69333 4.02117 6.742C3.3065 7.34533 2.6665 8.21467 2.6665 9.238C2.6665 9.506 2.71184 9.756 2.79317 9.986C2.40917 9.96467 2.03984 9.916 1.72584 9.82133C1.49584 9.752 1.24384 9.642 1.03917 9.45467C0.921757 9.34965 0.827861 9.221 0.763637 9.07716C0.699414 8.93332 0.666313 8.77753 0.666505 8.62C0.666505 8.01667 1.1105 7.52067 1.53784 7.22267C2.06634 6.86015 2.69229 6.6663 3.33317 6.66667ZM12.3332 2.66667C12.7752 2.66667 13.1991 2.84226 13.5117 3.15482C13.8242 3.46738 13.9998 3.89131 13.9998 4.33333C13.9998 4.77536 13.8242 5.19928 13.5117 5.51184C13.1991 5.8244 12.7752 6 12.3332 6C11.8911 6 11.4672 5.8244 11.1547 5.51184C10.8421 5.19928 10.6665 4.77536 10.6665 4.33333C10.6665 3.89131 10.8421 3.46738 11.1547 3.15482C11.4672 2.84226 11.8911 2.66667 12.3332 2.66667ZM3.6665 2.66667C4.10853 2.66667 4.53246 2.84226 4.84502 3.15482C5.15758 3.46738 5.33317 3.89131 5.33317 4.33333C5.33317 4.77536 5.15758 5.19928 4.84502 5.51184C4.53246 5.8244 4.10853 6 3.6665 6C3.22448 6 2.80055 5.8244 2.48799 5.51184C2.17543 5.19928 1.99984 4.77536 1.99984 4.33333C1.99984 3.89131 2.17543 3.46738 2.48799 3.15482C2.80055 2.84226 3.22448 2.66667 3.6665 2.66667ZM7.99984 0C8.70708 0 9.38536 0.280951 9.88546 0.781048C10.3856 1.28115 10.6665 1.95942 10.6665 2.66667C10.6665 3.37391 10.3856 4.05219 9.88546 4.55228C9.38536 5.05238 8.70708 5.33333 7.99984 5.33333C7.29259 5.33333 6.61432 5.05238 6.11422 4.55228C5.61412 4.05219 5.33317 3.37391 5.33317 2.66667C5.33317 1.95942 5.61412 1.28115 6.11422 0.781048C6.61432 0.280951 7.29259 0 7.99984 0Z" fill="#F8F8F9"/>
</svg>
