<svg width="16" height="16" viewBox="0 0 16 16" fill="none" xmlns="http://www.w3.org/2000/svg">
<path d="M10.6667 2C10.83 2.00002 10.9876 2.05997 11.1096 2.16848C11.2316 2.27698 11.3096 2.4265 11.3287 2.58867L11.3333 2.66667V3.33333H12.6667C13.0031 3.33323 13.327 3.46027 13.5737 3.689C13.8204 3.91772 13.9714 4.23123 13.9967 4.56667L14 4.66667V12.6667C14.0001 13.0031 13.8731 13.327 13.6443 13.5737C13.4156 13.8204 13.1021 13.9714 12.7667 13.9967L12.6667 14H3.33333C2.99695 14.0001 2.67296 13.8731 2.4263 13.6443C2.17965 13.4156 2.02856 13.1021 2.00333 12.7667L2 12.6667V4.66667C1.99989 4.33028 2.12694 4.00629 2.35566 3.75963C2.58439 3.51298 2.8979 3.3619 3.23333 3.33667L3.33333 3.33333H4.66667V2.66667C4.66686 2.49675 4.73192 2.33331 4.84857 2.20975C4.96521 2.0862 5.12464 2.01184 5.29426 2.00189C5.46389 1.99193 5.63092 2.04712 5.76122 2.15618C5.89152 2.26524 5.97526 2.41994 5.99533 2.58867L6 2.66667V3.33333H10V2.66667C10 2.48986 10.0702 2.32029 10.1953 2.19526C10.3203 2.07024 10.4899 2 10.6667 2ZM12.6667 8H3.33333V12.6667H12.6667V8ZM12.6667 4.66667H3.33333V6.66667H12.6667V4.66667Z" fill="#F8F8F9"/>
</svg>
