<svg width="20" height="21" viewBox="0 0 20 21" fill="none" xmlns="http://www.w3.org/2000/svg">
<path d="M13.3334 11.6944V15.1944C13.3334 18.1111 12.1667 19.2778 9.25008 19.2778H5.75008C2.83341 19.2778 1.66675 18.1111 1.66675 15.1944V11.6944C1.66675 8.77775 2.83341 7.61108 5.75008 7.61108H9.25008C12.1667 7.61108 13.3334 8.77775 13.3334 11.6944Z" stroke="#0B99FF" stroke-width="1.5" stroke-linecap="round" stroke-linejoin="round"/>
<path d="M18.3334 6.69442V10.1944C18.3334 13.1111 17.1667 14.2778 14.2501 14.2778H13.3334V11.6944C13.3334 8.77775 12.1667 7.61108 9.25008 7.61108H6.66675V6.69442C6.66675 3.77775 7.83341 2.61108 10.7501 2.61108H14.2501C17.1667 2.61108 18.3334 3.77775 18.3334 6.69442Z" stroke="#0B99FF" stroke-width="1.5" stroke-linecap="round" stroke-linejoin="round"/>
</svg>
