<svg width="16" height="16" viewBox="0 0 16 16" fill="none" xmlns="http://www.w3.org/2000/svg">
<path fill-rule="evenodd" clip-rule="evenodd" d="M6.00016 1.33203C5.64654 1.33203 5.3074 1.47251 5.05735 1.72256C4.80731 1.9726 4.66683 2.31174 4.66683 2.66536V3.9987H6.00016V2.66536H13.3335V9.9987H12.0002V11.332H13.3335C13.6871 11.332 14.0263 11.1916 14.2763 10.9415C14.5264 10.6915 14.6668 10.3523 14.6668 9.9987V2.66536C14.6668 2.31174 14.5264 1.9726 14.2763 1.72256C14.0263 1.47251 13.6871 1.33203 13.3335 1.33203H6.00016ZM2.66683 4.66536C2.31321 4.66536 1.97407 4.80584 1.72402 5.05589C1.47397 5.30594 1.3335 5.64508 1.3335 5.9987V13.332C1.3335 13.6857 1.47397 14.0248 1.72402 14.2748C1.97407 14.5249 2.31321 14.6654 2.66683 14.6654H10.0002C10.3538 14.6654 10.6929 14.5249 10.943 14.2748C11.193 14.0248 11.3335 13.6857 11.3335 13.332V5.9987C11.3335 5.64508 11.193 5.30594 10.943 5.05589C10.6929 4.80584 10.3538 4.66536 10.0002 4.66536H2.66683ZM2.66683 5.9987H10.0002V13.332H2.66683V5.9987Z" fill="#171719"/>
</svg>
