<svg width="40" height="40" viewBox="0 0 40 40" fill="none" xmlns="http://www.w3.org/2000/svg">
<g clip-path="url(#clip0_40714_19806)">
<path opacity="0.4" d="M24.3137 35.1563H3.51562C1.57711 35.1563 0 33.5791 0 31.6406V11.3281H36.7188V25.2385C35.3468 24.2063 33.6421 23.5938 31.7969 23.5938C27.2737 23.5938 23.5938 27.2737 23.5938 31.7969C23.5938 32.9932 23.8513 34.1304 24.3137 35.1563ZM7.03125 5.85938V1.17188C7.03125 0.524688 6.50656 0 5.85938 0C5.21219 0 4.6875 0.524688 4.6875 1.17188V5.85938C4.6875 6.50656 5.21219 7.03125 5.85938 7.03125C6.50656 7.03125 7.03125 6.50656 7.03125 5.85938ZM11.7188 5.85938V1.17188C11.7188 0.524688 11.1941 0 10.5469 0C9.89969 0 9.375 0.524688 9.375 1.17188V5.85938C9.375 6.50656 9.89969 7.03125 10.5469 7.03125C11.1941 7.03125 11.7188 6.50656 11.7188 5.85938ZM32.0312 5.85938V1.17188C32.0312 0.524688 31.5066 0 30.8594 0C30.2122 0 29.6875 0.524688 29.6875 1.17188V5.85938C29.6875 6.50656 30.2122 7.03125 30.8594 7.03125C31.5066 7.03125 32.0312 6.50656 32.0312 5.85938ZM27.3438 5.85938V1.17188C27.3438 0.524688 26.8191 0 26.1719 0C25.5247 0 25 0.524688 25 1.17188V5.85938C25 6.50656 25.5247 7.03125 26.1719 7.03125C26.8191 7.03125 27.3438 6.50656 27.3438 5.85938ZM31.5207 34.9693L35.9401 30.5499C36.3977 30.0923 36.3977 29.3503 35.9401 28.8927C35.4824 28.435 34.7405 28.435 34.2828 28.8927L30.692 32.4834L29.311 31.1024C28.8534 30.6448 28.1114 30.6448 27.6537 31.1024C27.1961 31.5601 27.1961 32.302 27.6537 32.7597L29.8634 34.9694C30.321 35.427 31.063 35.427 31.5207 34.9693Z" fill="url(#paint0_linear_40714_19806)"/>
<path d="M36.7188 6.64062V11.3281H0V6.64062C0 4.70211 1.57711 3.125 3.51562 3.125H4.6875V5.85938C4.6875 6.50656 5.21219 7.03125 5.85938 7.03125C6.50656 7.03125 7.03125 6.50656 7.03125 5.85938V3.125H9.375V5.85938C9.375 6.50656 9.89969 7.03125 10.5469 7.03125C11.1941 7.03125 11.7188 6.50656 11.7188 5.85938V3.125H25V5.85938C25 6.50656 25.5247 7.03125 26.1719 7.03125C26.8191 7.03125 27.3438 6.50656 27.3438 5.85938V3.125H29.6875V5.85938C29.6875 6.50656 30.2122 7.03125 30.8594 7.03125C31.5066 7.03125 32.0312 6.50656 32.0312 5.85938V3.125H33.2031C35.1416 3.125 36.7188 4.70211 36.7188 6.64062ZM17.0312 17.5781V16.0156C17.0312 15.3684 16.5066 14.8438 15.8594 14.8438C15.2122 14.8438 14.6875 15.3684 14.6875 16.0156V17.5781C14.6875 18.2253 15.2122 18.75 15.8594 18.75C16.5066 18.75 17.0312 18.2253 17.0312 17.5781ZM22.0312 17.5781V16.0156C22.0312 15.3684 21.5066 14.8438 20.8594 14.8438C20.2122 14.8438 19.6875 15.3684 19.6875 16.0156V17.5781C19.6875 18.2253 20.2122 18.75 20.8594 18.75C21.5066 18.75 22.0312 18.2253 22.0312 17.5781ZM27.0312 17.5781V16.0156C27.0312 15.3684 26.5066 14.8438 25.8594 14.8438C25.2122 14.8438 24.6875 15.3684 24.6875 16.0156V17.5781C24.6875 18.2253 25.2122 18.75 25.8594 18.75C26.5066 18.75 27.0312 18.2253 27.0312 17.5781ZM32.0312 17.5781V16.0156C32.0312 15.3684 31.5066 14.8438 30.8594 14.8438C30.2122 14.8438 29.6875 15.3684 29.6875 16.0156V17.5781C29.6875 18.2253 30.2122 18.75 30.8594 18.75C31.5066 18.75 32.0312 18.2253 32.0312 17.5781ZM7.03125 23.8281V22.2656C7.03125 21.6184 6.50656 21.0938 5.85938 21.0938C5.21219 21.0938 4.6875 21.6184 4.6875 22.2656V23.8281C4.6875 24.4753 5.21219 25 5.85938 25C6.50656 25 7.03125 24.4753 7.03125 23.8281ZM12.0312 23.8281V22.2656C12.0312 21.6184 11.5066 21.0938 10.8594 21.0938C10.2122 21.0938 9.6875 21.6184 9.6875 22.2656V23.8281C9.6875 24.4753 10.2122 25 10.8594 25C11.5066 25 12.0312 24.4753 12.0312 23.8281ZM17.0312 23.8281V22.2656C17.0312 21.6184 16.5066 21.0938 15.8594 21.0938C15.2122 21.0938 14.6875 21.6184 14.6875 22.2656V23.8281C14.6875 24.4753 15.2122 25 15.8594 25C16.5066 25 17.0312 24.4753 17.0312 23.8281ZM22.0312 23.8281V22.2656C22.0312 21.6184 21.5066 21.0938 20.8594 21.0938C20.2122 21.0938 19.6875 21.6184 19.6875 22.2656V23.8281C19.6875 24.4753 20.2122 25 20.8594 25C21.5066 25 22.0312 24.4753 22.0312 23.8281ZM7.03125 30.0781V28.5156C7.03125 27.8684 6.50656 27.3438 5.85938 27.3438C5.21219 27.3438 4.6875 27.8684 4.6875 28.5156V30.0781C4.6875 30.7253 5.21219 31.25 5.85938 31.25C6.50656 31.25 7.03125 30.7253 7.03125 30.0781ZM12.0312 30.0781V28.5156C12.0312 27.8684 11.5066 27.3438 10.8594 27.3438C10.2122 27.3438 9.6875 27.8684 9.6875 28.5156V30.0781C9.6875 30.7253 10.2122 31.25 10.8594 31.25C11.5066 31.25 12.0312 30.7253 12.0312 30.0781ZM17.0312 30.0781V28.5156C17.0312 27.8684 16.5066 27.3438 15.8594 27.3438C15.2122 27.3438 14.6875 27.8684 14.6875 28.5156V30.0781C14.6875 30.7253 15.2122 31.25 15.8594 31.25C16.5066 31.25 17.0312 30.7253 17.0312 30.0781ZM40 31.7969C40 36.3201 36.3201 40 31.7969 40C27.2737 40 23.5938 36.3201 23.5938 31.7969C23.5938 27.2737 27.2737 23.5938 31.7969 23.5938C36.3201 23.5938 40 27.2737 40 31.7969ZM35.9401 28.8926C35.4824 28.4349 34.7405 28.4349 34.2828 28.8926L30.692 32.4834L29.311 31.1023C28.8534 30.6447 28.1114 30.6447 27.6537 31.1023C27.1961 31.56 27.1961 32.302 27.6537 32.7596L29.8634 34.9693C30.3211 35.427 31.063 35.427 31.5207 34.9693L35.9401 30.5499C36.3977 30.0922 36.3977 29.3502 35.9401 28.8926Z" fill="#1B84FF"/>
</g>
<defs>
<linearGradient id="paint0_linear_40714_19806" x1="18.3594" y1="35.3125" x2="18" y2="6.94224e-07" gradientUnits="userSpaceOnUse">
<stop stop-color="#2DD8FF"/>
<stop offset="0.997" stop-color="#2DD8FF" stop-opacity="0.1"/>
</linearGradient>
<clipPath id="clip0_40714_19806">
<rect width="40" height="40" fill="white"/>
</clipPath>
</defs>
</svg>
