<svg width="20" height="20" viewBox="0 0 20 20" fill="none" xmlns="http://www.w3.org/2000/svg">
<path d="M11.52 3.33203C11.7998 3.3321 12.0726 3.42022 12.2995 3.5839C12.5265 3.74758 12.6962 3.97853 12.7847 4.24403L13.1467 5.33203H15.3333C15.5101 5.33203 15.6797 5.40227 15.8047 5.52729C15.9298 5.65232 16 5.82189 16 5.9987C16 6.17551 15.9298 6.34508 15.8047 6.4701C15.6797 6.59513 15.5101 6.66536 15.3333 6.66536L15.3313 6.7127L14.7533 14.808C14.7173 15.3124 14.4915 15.7845 14.1214 16.1291C13.7513 16.4737 13.2644 16.6653 12.7587 16.6654H7.24133C6.73564 16.6653 6.24874 16.4737 5.87864 16.1291C5.50855 15.7845 5.28274 15.3124 5.24667 14.808L4.66867 6.71203C4.66746 6.6965 4.66679 6.68094 4.66667 6.66536C4.48986 6.66536 4.32029 6.59513 4.19526 6.4701C4.07024 6.34508 4 6.17551 4 5.9987C4 5.82189 4.07024 5.65232 4.19526 5.52729C4.32029 5.40227 4.48986 5.33203 4.66667 5.33203H6.85333L7.21533 4.24403C7.3038 3.97842 7.47362 3.7474 7.70073 3.58371C7.92784 3.42002 8.20071 3.33196 8.48067 3.33203H11.52ZM13.998 6.66536H6.002L6.57667 14.7127C6.58863 14.8808 6.66385 15.0382 6.78717 15.1531C6.9105 15.268 7.07277 15.332 7.24133 15.332H12.7587C12.9272 15.332 13.0895 15.268 13.2128 15.1531C13.3362 15.0382 13.4114 14.8808 13.4233 14.7127L13.998 6.66536ZM8.66667 8.66536C8.82996 8.66539 8.98756 8.72534 9.10958 8.83384C9.23161 8.94235 9.30956 9.09186 9.32867 9.25403L9.33333 9.33203V12.6654C9.33315 12.8353 9.26808 12.9987 9.15143 13.1223C9.03479 13.2458 8.87536 13.3202 8.70574 13.3301C8.53611 13.3401 8.36908 13.2849 8.23878 13.1759C8.10848 13.0668 8.02474 12.9121 8.00467 12.7434L8 12.6654V9.33203C8 9.15522 8.07024 8.98565 8.19526 8.86063C8.32029 8.7356 8.48986 8.66536 8.66667 8.66536ZM11.3333 8.66536C11.5101 8.66536 11.6797 8.7356 11.8047 8.86063C11.9298 8.98565 12 9.15522 12 9.33203V12.6654C12 12.8422 11.9298 13.0117 11.8047 13.1368C11.6797 13.2618 11.5101 13.332 11.3333 13.332C11.1565 13.332 10.987 13.2618 10.8619 13.1368C10.7369 13.0117 10.6667 12.8422 10.6667 12.6654V9.33203C10.6667 9.15522 10.7369 8.98565 10.8619 8.86063C10.987 8.7356 11.1565 8.66536 11.3333 8.66536ZM11.52 4.66536H8.48L8.258 5.33203H11.742L11.52 4.66536Z" fill="#D4356F"/>
</svg>
