<svg width="40" height="40" viewBox="0 0 40 40" fill="none" xmlns="http://www.w3.org/2000/svg">
<g clip-path="url(#clip0_40702_19756)">
<path d="M20 29.0625C17.1998 29.0625 14.9219 26.7845 14.9219 23.9844C14.9219 21.1843 17.1998 18.9062 20 18.9062C22.8002 18.9062 25.0781 21.1843 25.0781 23.9844C25.0781 26.7845 22.8002 29.0625 20 29.0625ZM36.3228 30.6862C35.6848 31.1397 34.9048 31.4062 34.0625 31.4062C33.2202 31.4062 32.4402 31.1397 31.8022 30.6862C29.6883 31.5709 28.2031 33.6588 28.2031 36.0938V38.8281C28.2031 39.4753 28.7278 40 29.375 40H38.75C39.3972 40 39.9219 39.4753 39.9219 38.8281V36.0938C39.9219 33.6588 38.4367 31.5709 36.3228 30.6862ZM8.19781 30.6862C7.55984 31.1397 6.77977 31.4062 5.9375 31.4062C5.09523 31.4062 4.31516 31.1397 3.67719 30.6862C1.56328 31.5709 0.078125 33.6588 0.078125 36.0938V38.8281C0.078125 39.4753 0.602812 40 1.25 40H10.625C11.2722 40 11.7969 39.4753 11.7969 38.8281V36.0938C11.7969 33.6588 10.3117 31.5709 8.19781 30.6862Z" fill="url(#paint0_linear_40702_19756)"/>
<path d="M28.1526 9.88883C27.8332 9.5775 27.7182 9.1118 27.8561 8.68758C27.9939 8.26336 28.3606 7.95414 28.802 7.89L31.598 7.48375L32.8484 4.95016C33.0458 4.55016 33.4532 4.29695 33.8993 4.29695C34.3454 4.29695 34.7527 4.55023 34.9501 4.95016L36.2005 7.48375L38.9966 7.89C39.438 7.95414 39.8048 8.26336 39.9425 8.68758C40.0804 9.1118 39.9654 9.5775 39.6459 9.88883L37.6228 11.8609L38.1004 14.6456C38.1758 15.0852 37.995 15.5296 37.6341 15.7918C37.4301 15.9401 37.1882 16.0156 36.9452 16.0156C36.7587 16.0156 36.5716 15.9712 36.4 15.881L33.8992 14.5662L31.3984 15.881C31.0033 16.0887 30.5251 16.0539 30.1643 15.7918C29.8034 15.5296 29.6226 15.0853 29.698 14.6456L30.1756 11.8609L28.1526 9.88883ZM11.1979 7.89L8.40187 7.48375L7.15147 4.95016C6.95405 4.55016 6.54671 4.29688 6.10061 4.29688C5.65452 4.29688 5.24718 4.55016 5.04976 4.95008L3.79936 7.48367L1.00335 7.88992C0.561943 7.95406 0.195146 8.26328 0.0574116 8.6875C-0.0804791 9.11172 0.0345209 9.57742 0.353974 9.88875L2.3771 11.8609L1.89952 14.6455C1.82413 15.0852 2.00491 15.5295 2.36577 15.7917C2.72655 16.0538 3.20491 16.0885 3.59991 15.8809L6.10069 14.5662L8.60147 15.8809C8.77296 15.9711 8.96015 16.0155 9.14671 16.0155C9.38968 16.0155 9.63155 15.9401 9.83562 15.7917C10.1965 15.5295 10.3773 15.0852 10.3019 14.6455L9.82429 11.8609L11.8474 9.88875C12.1669 9.57742 12.2819 9.11172 12.144 8.6875C12.0061 8.26336 11.6394 7.95414 11.1979 7.89ZM24.2011 10.3488L23.7235 7.56406L25.7466 5.59195C26.0661 5.28063 26.1811 4.81492 26.0432 4.3907C25.9054 3.96648 25.5387 3.65727 25.0973 3.59313L22.3012 3.18687L21.0508 0.653281C20.8534 0.253281 20.4461 0 20 0C19.5539 0 19.1466 0.253281 18.9491 0.653203L17.6987 3.1868L14.9027 3.59305C14.4613 3.65719 14.0945 3.96641 13.9568 4.39062C13.8189 4.81484 13.9339 5.28055 14.2533 5.59187L16.2765 7.56398L15.7989 10.3487C15.7235 10.7883 15.9043 11.2327 16.2651 11.4948C16.6259 11.757 17.1042 11.7916 17.4993 11.5841L20 10.2694L22.5008 11.5841C22.6723 11.6743 22.8594 11.7188 23.046 11.7188C23.289 11.7188 23.5308 11.6433 23.7349 11.4949C24.0958 11.2327 24.2765 10.7884 24.2011 10.3488ZM28.2031 35.7031V38.8281C28.2031 39.4753 27.6784 40 27.0312 40H12.9687C12.3216 40 11.7969 39.4753 11.7969 38.8281V35.7031C11.7969 32.242 13.9516 29.2746 16.99 28.072C17.8329 28.6943 18.8742 29.0625 20 29.0625C21.1258 29.0625 22.1671 28.6943 23.01 28.072C26.0484 29.2746 28.2031 32.242 28.2031 35.7031ZM37.9687 27.5C37.9687 29.6573 36.2198 31.4062 34.0625 31.4062C31.9051 31.4062 30.1562 29.6573 30.1562 27.5C30.1562 25.3427 31.9051 23.5938 34.0625 23.5938C36.2198 23.5938 37.9687 25.3427 37.9687 27.5ZM9.84374 27.5C9.84374 29.6573 8.09483 31.4062 5.93749 31.4062C3.78015 31.4062 2.03124 29.6573 2.03124 27.5C2.03124 25.3427 3.78015 23.5938 5.93749 23.5938C8.09483 23.5938 9.84374 25.3427 9.84374 27.5Z" fill="url(#paint1_linear_40702_19756)"/>
</g>
<defs>
<linearGradient id="paint0_linear_40702_19756" x1="20" y1="40" x2="20" y2="18.9063" gradientUnits="userSpaceOnUse">
<stop stop-color="#2DD8FF"/>
<stop offset="1" stop-color="#2DD8FF" stop-opacity="0.1"/>
</linearGradient>
<linearGradient id="paint1_linear_40702_19756" x1="20" y1="40.5078" x2="19.9999" y2="1.21094" gradientUnits="userSpaceOnUse">
<stop offset="0.0453246" stop-color="#1B84FF"/>
<stop offset="1" stop-color="#2CD0FE"/>
</linearGradient>
<clipPath id="clip0_40702_19756">
<rect width="40" height="40" fill="white"/>
</clipPath>
</defs>
</svg>
