<svg width="14" height="12" viewBox="0 0 14 12" fill="none" xmlns="http://www.w3.org/2000/svg">
<path fill-rule="evenodd" clip-rule="evenodd" d="M4.68392 0.0707721C4.88905 0.00245098 5.11079 0.00245098 5.31592 0.0707721L8.99992 1.29877L12.5259 0.123439C12.6562 0.0800304 12.7949 0.0681915 12.9306 0.0888973C13.0663 0.109603 13.1952 0.162261 13.3066 0.242533C13.418 0.322805 13.5087 0.428394 13.5713 0.550601C13.6339 0.672809 13.6666 0.808137 13.6666 0.945439V9.76144C13.6666 9.97135 13.6005 10.1759 13.4777 10.3462C13.355 10.5165 13.1817 10.6438 12.9826 10.7101L9.31592 11.9321C9.11059 12.0008 8.88925 12.0008 8.68392 11.9321L4.99992 10.7041L1.47392 11.8794C1.34366 11.9228 1.20495 11.9347 1.06922 11.914C0.93349 11.8933 0.80462 11.8406 0.693229 11.7603C0.581838 11.6801 0.491112 11.5745 0.428526 11.4523C0.365941 11.3301 0.333286 11.1947 0.333252 11.0574V2.24144C0.333271 2.03153 0.399343 1.82695 0.522107 1.65669C0.64487 1.48642 0.8181 1.3591 1.01725 1.29277L4.68392 0.0707721ZM4.33325 9.52144V1.59277L1.66659 2.48211V10.4101L4.33325 9.52077V9.52144ZM5.66659 1.59344V9.52144L8.33325 10.4108V2.48144L5.66659 1.59211V1.59344ZM9.66659 2.48277V10.4108L12.3333 9.52144V1.59277L9.66659 2.48277Z" fill="#6A6A73"/>
</svg>
