<svg width="17" height="16" viewBox="0 0 17 16" fill="none" xmlns="http://www.w3.org/2000/svg">
<path d="M13.8333 9.9987C14.0101 9.9987 14.1797 10.0689 14.3047 10.194C14.4298 10.319 14.5 10.4886 14.5 10.6654V13.332C14.5 13.6857 14.3595 14.0248 14.1095 14.2748C13.8594 14.5249 13.5203 14.6654 13.1667 14.6654H3.83333C3.47971 14.6654 3.14057 14.5249 2.89052 14.2748C2.64048 14.0248 2.5 13.6857 2.5 13.332V10.6654C2.5 10.4886 2.57024 10.319 2.69526 10.194C2.82029 10.0689 2.98986 9.9987 3.16667 9.9987C3.34348 9.9987 3.51305 10.0689 3.63807 10.194C3.7631 10.319 3.83333 10.4886 3.83333 10.6654V13.332H13.1667V10.6654C13.1667 10.4886 13.2369 10.319 13.3619 10.194C13.487 10.0689 13.6565 9.9987 13.8333 9.9987ZM8.5 1.33203C8.67681 1.33203 8.84638 1.40227 8.9714 1.52729C9.09643 1.65232 9.16667 1.82189 9.16667 1.9987V8.82736L10.8573 7.1367C10.9188 7.07302 10.9924 7.02224 11.0737 6.9873C11.1551 6.95236 11.2425 6.93397 11.3311 6.9332C11.4196 6.93243 11.5074 6.9493 11.5893 6.98282C11.6712 7.01634 11.7457 7.06584 11.8083 7.12843C11.8709 7.19103 11.9204 7.26546 11.9539 7.34739C11.9874 7.42933 12.0043 7.51711 12.0035 7.60563C12.0027 7.69415 11.9843 7.78163 11.9494 7.86297C11.9145 7.9443 11.8637 8.01787 11.8 8.07936L9.08933 10.79C9.01195 10.8674 8.92007 10.9288 8.81895 10.9707C8.71783 11.0126 8.60945 11.0342 8.5 11.0342C8.39055 11.0342 8.28217 11.0126 8.18105 10.9707C8.07993 10.9288 7.98805 10.8674 7.91067 10.79L5.2 8.07936C5.13633 8.01787 5.08554 7.9443 5.0506 7.86297C5.01566 7.78163 4.99727 7.69415 4.9965 7.60563C4.99573 7.51711 5.0126 7.42933 5.04612 7.34739C5.07964 7.26546 5.12914 7.19103 5.19174 7.12843C5.25433 7.06584 5.32877 7.01634 5.4107 6.98282C5.49263 6.9493 5.58041 6.93243 5.66893 6.9332C5.75745 6.93397 5.84493 6.95236 5.92627 6.9873C6.00761 7.02224 6.08117 7.07302 6.14267 7.1367L7.83333 8.82736V1.9987C7.83333 1.82189 7.90357 1.65232 8.0286 1.52729C8.15362 1.40227 8.32319 1.33203 8.5 1.33203Z" fill="#1B84FF"/>
</svg>
