<svg width="24" height="24" viewBox="0 0 24 24" fill="none" xmlns="http://www.w3.org/2000/svg">
<path d="M20.4624 3.51746C18.1871 1.24915 15.1816 0 11.9993 0C5.37122 0 0 5.42871 0 12.0007C0 18.6149 5.41516 24 12.0007 24C15.1961 24 18.2084 22.7437 20.4825 20.4624C22.7509 18.1871 24 15.1816 24 11.9993C24 8.80389 22.7437 5.79163 20.4624 3.51746ZM17.0936 17.8464L15.173 14.7017L16.3453 11.3566L19.6013 10.3297L22.582 12.4958C22.4903 14.4745 21.8535 16.3129 20.8185 17.8641L17.0936 17.8464ZM6.85291 17.8423L3.17633 17.8566C2.09875 16.2383 1.45386 14.3086 1.40881 12.2333L4.4187 10.1477L7.74097 11.2784L8.90131 14.8127L6.85291 17.8423ZM3.48523 9.08423L1.52032 10.4458C1.7135 9.13715 2.14691 7.90594 2.77405 6.79816L3.48523 9.08423ZM10.1488 14.1057L9.12964 11.001L11.9949 8.85205L14.9572 11.0665L13.892 14.1057H10.1488ZM20.5618 9.28986L21.3338 6.99243C21.9435 8.12439 22.3531 9.37939 22.5156 10.7095L20.5618 9.28986ZM20.3546 5.49298L19.1801 8.98828L15.9064 10.0206L12.7084 7.63L12.7236 4.22498L15.6762 2.06415C17.5375 2.755 19.1534 3.95453 20.3546 5.49298ZM13.9486 1.58624L12.0026 3.01044L10.0648 1.5835C10.6923 1.46722 11.3386 1.40588 11.9993 1.40588C12.665 1.40588 13.3165 1.46832 13.9486 1.58624ZM8.33844 2.05829L11.3176 4.25208L11.3026 7.61389L8.19214 9.94684L4.87463 8.81781L3.78571 5.31775C4.97424 3.85931 6.54236 2.72186 8.33844 2.05829ZM4.29053 19.2583L6.71228 19.2488L7.44031 21.5614C6.2514 20.9921 5.18463 20.2073 4.29053 19.2583ZM9.11353 22.1942L7.99969 18.6564L10.1257 15.5116H14.0204L15.958 18.6843L14.8464 22.2054C13.9404 22.4583 12.9862 22.5941 12.0007 22.5941C11.0002 22.5941 10.0316 22.4546 9.11353 22.1942ZM16.5178 21.5812L17.2527 19.2532L19.7034 19.2647C18.8002 20.2222 17.7208 21.0117 16.5178 21.5812Z" fill="#F97316"/>
</svg>
