<svg width="18" height="16" viewBox="0 0 18 16" fill="none" xmlns="http://www.w3.org/2000/svg">
<path d="M14.6538 15.5C13.7169 15.5 12.925 15.1831 12.278 14.5492C11.6312 13.9152 11.3077 13.1392 11.3077 12.2212C11.3077 11.303 11.6312 10.527 12.278 9.89319C12.925 9.25919 13.7169 8.94218 14.6538 8.94218C15.5908 8.94218 16.3827 9.25919 17.0295 9.89319C17.6765 10.527 18 11.303 18 12.2212C18 13.1392 17.6765 13.9152 17.0295 14.5492C16.3827 15.1831 15.5908 15.5 14.6538 15.5ZM14.6528 14.0301C15.1624 14.0301 15.5977 13.8537 15.9587 13.5007C16.3196 13.1476 16.5 12.7215 16.5 12.2222C16.5 11.7228 16.3198 11.2962 15.9595 10.9424C15.5993 10.5888 15.1644 10.4121 14.6547 10.4121C14.1451 10.4121 13.7098 10.5886 13.349 10.9417C12.9882 11.2946 12.8077 11.7208 12.8077 12.2202C12.8077 12.7197 12.9878 13.1462 13.348 13.4998C13.7083 13.8533 14.1433 14.0301 14.6528 14.0301ZM8.3655 12.9561H2.25C2.0375 12.9561 1.85942 12.8857 1.71575 12.7447C1.57192 12.6038 1.5 12.4291 1.5 12.2207C1.5 12.0125 1.57192 11.838 1.71575 11.6972C1.85942 11.5566 2.0375 11.4863 2.25 11.4863H8.3655C8.578 11.4863 8.75608 11.5568 8.89975 11.6977C9.04358 11.8386 9.1155 12.0132 9.1155 12.2215C9.1155 12.4299 9.04358 12.6044 8.89975 12.745C8.75608 12.8858 8.578 12.9561 8.3655 12.9561ZM3.34625 7.05781C2.40925 7.05781 1.61733 6.74081 0.9705 6.10681C0.3235 5.47297 0 4.69696 0 3.77879C0 2.86077 0.3235 2.08476 0.9705 1.45076C1.61733 0.81692 2.40925 0.5 3.34625 0.5C4.28308 0.5 5.075 0.81692 5.722 1.45076C6.36883 2.08476 6.69225 2.86077 6.69225 3.77879C6.69225 4.69696 6.36883 5.47297 5.722 6.10681C5.075 6.74081 4.28308 7.05781 3.34625 7.05781ZM3.34525 5.58795C3.85492 5.58795 4.29017 5.4114 4.651 5.0583C5.01183 4.70537 5.19225 4.27919 5.19225 3.77976C5.19225 3.28034 5.01217 2.85383 4.652 2.50025C4.29167 2.14666 3.85675 1.96987 3.34725 1.96987C2.83758 1.96987 2.40225 2.14633 2.04125 2.49927C1.68042 2.85236 1.5 3.27854 1.5 3.77781C1.5 4.27723 1.68017 4.70382 2.0405 5.05757C2.40067 5.41116 2.83558 5.58795 3.34525 5.58795ZM15.75 4.51372H9.6345C9.422 4.51372 9.24392 4.44325 9.10025 4.3023C8.95642 4.16136 8.8845 3.98677 8.8845 3.77854C8.8845 3.57015 8.95642 3.39564 9.10025 3.25502C9.24392 3.11424 9.422 3.04385 9.6345 3.04385H15.75C15.9625 3.04385 16.1406 3.11432 16.2843 3.25527C16.4281 3.39621 16.5 3.57088 16.5 3.77928C16.5 3.98751 16.4281 4.16201 16.2843 4.30279C16.1406 4.44341 15.9625 4.51372 15.75 4.51372Z" fill="#0B99FF"/>
</svg>
