<!DOCTYPE svg PUBLIC "-//W3C//DTD SVG 1.1//EN" "http://www.w3.org/Graphics/SVG/1.1/DTD/svg11.dtd">
<!-- Uploaded to: SVG Repo, www.svgrepo.com, Transformed by: SVG Repo Mixer Tools -->
<svg height="64px" width="64px" version="1.1" id="Layer_1" xmlns="http://www.w3.org/2000/svg" xmlns:xlink="http://www.w3.org/1999/xlink" viewBox="0 0 511.999 511.999" xml:space="preserve" fill="#000000">
<g id="SVGRepo_bgCarrier" stroke-width="0"/>
<g id="SVGRepo_tracerCarrier" stroke-linecap="round" stroke-linejoin="round"/>
<g id="SVGRepo_iconCarrier"> <path style="fill:#6E76E5;" d="M234.667,85.351c-82.344,0-149.333,66.991-149.333,149.333s66.99,149.333,149.333,149.333 S384,317.026,384,234.684S317.01,85.351,234.667,85.351z"/> <path style="fill:#FFFFFF;" d="M234.667,42.684c-105.87,0-192,86.133-192,192s86.13,192,192,192s192-86.131,192-192 S340.535,42.684,234.667,42.684z M234.667,384.017c-82.344,0-149.333-66.99-149.333-149.333s66.99-149.333,149.333-149.333 S384,152.342,384,234.684S317.009,384.017,234.667,384.017z"/> <g> <path style="fill:#999FED;" d="M130.148,213.351h41.071c1.345-25.865,5.183-50.913,11.701-71.896 C156.164,156.364,136.445,182.44,130.148,213.351z"/> <path style="fill:#999FED;" d="M286.414,327.914c26.756-14.909,46.474-40.986,52.772-71.896h-41.071 C296.769,281.881,292.934,306.93,286.414,327.914z"/> <path style="fill:#999FED;" d="M130.148,256.017c6.299,30.909,26.017,56.986,52.772,71.896 c-6.519-20.983-10.355-46.032-11.701-71.896H130.148z"/> <path style="fill:#999FED;" d="M213.948,213.351h41.439c-2.714-46.292-13.835-74.651-20.719-83.396 C227.782,138.698,216.661,167.059,213.948,213.351z"/> <path style="fill:#999FED;" d="M286.414,141.455c6.519,20.983,10.355,46.032,11.701,71.896h41.071 C332.887,182.44,313.169,156.364,286.414,141.455z"/> <path style="fill:#999FED;" d="M234.667,339.412c6.885-8.744,18.005-37.104,20.719-83.396h-41.439 C216.661,302.309,227.782,330.668,234.667,339.412z"/> </g> <path style="fill:#9BC9FF;" d="M414.936,384.746c33.944-40.708,54.397-93.039,54.397-150.061 c0-129.395-105.271-234.667-234.667-234.667S0,105.287,0,234.684s105.271,234.667,234.667,234.667 c57.041,0,109.389-20.467,150.103-54.43l90.813,90.813c4.166,4.167,9.626,6.248,15.084,6.248s10.92-2.082,15.084-6.248 c8.331-8.331,8.331-21.838,0-30.17L414.936,384.746z M234.667,426.684c-105.87,0-192-86.131-192-192s86.13-192,192-192 s192,86.133,192,192S340.535,426.684,234.667,426.684z"/> <g> <path style="fill:#999FED;" d="M234.667,339.412v-83.396h-20.719C216.661,302.309,227.782,330.668,234.667,339.412z"/> <path style="fill:#999FED;" d="M130.148,213.351h41.071c1.345-25.865,5.183-50.913,11.701-71.896 C156.164,156.364,136.445,182.44,130.148,213.351z"/> <path style="fill:#999FED;" d="M234.667,213.351v-83.396c-6.885,8.744-18.005,37.104-20.719,83.396H234.667z"/> <path style="fill:#999FED;" d="M130.148,256.017c6.299,30.909,26.017,56.986,52.772,71.896 c-6.519-20.983-10.355-46.032-11.701-71.896H130.148z"/> </g> <path style="fill:#424EDE;" d="M213.948,256.017h20.719v-42.667h-20.719c2.714-46.292,13.835-74.651,20.719-83.396V85.351 c-82.344,0-149.333,66.991-149.333,149.333s66.99,149.333,149.333,149.333v-44.605C227.782,330.668,216.661,302.309,213.948,256.017 z M130.148,256.017h41.071c1.345,25.865,5.183,50.913,11.701,71.896C156.164,313.003,136.445,286.927,130.148,256.017z M171.218,213.351h-41.071c6.299-30.909,26.017-56.986,52.772-71.896C176.4,162.438,172.564,187.486,171.218,213.351z"/> </g>
</svg>