<svg width="16" height="16" viewBox="0 0 16 16" fill="none" xmlns="http://www.w3.org/2000/svg">
<path d="M2.03352 6.20647C2.00518 6.12184 1.99413 6.03238 2.00101 5.9434C2.00789 5.85442 2.03256 5.76772 2.07357 5.68845C2.11459 5.60918 2.17109 5.53896 2.23975 5.48194C2.30841 5.42491 2.38782 5.38226 2.47327 5.3565C2.55872 5.33074 2.64847 5.3224 2.73721 5.33197C2.82594 5.34155 2.91185 5.36884 2.98984 5.41223C3.06783 5.45563 3.13631 5.51424 3.19122 5.58459C3.24614 5.65495 3.28636 5.73561 3.30952 5.82181C4.70019 10.4791 11.2975 10.4798 12.6895 5.82447C12.7145 5.74051 12.7557 5.66229 12.8109 5.59427C12.8661 5.52625 12.9341 5.46977 13.0111 5.42804C13.0881 5.38632 13.1726 5.36017 13.2597 5.3511C13.3468 5.34202 13.4349 5.35019 13.5189 5.37514C13.6028 5.40009 13.681 5.44133 13.7491 5.49652C13.8171 5.5517 13.8736 5.61974 13.9153 5.69675C13.957 5.77376 13.9832 5.85823 13.9922 5.94535C14.0013 6.03246 13.9931 6.12051 13.9682 6.20447C13.7256 7.0386 13.3142 7.81397 12.7595 8.48247L13.6095 9.33314C13.731 9.45887 13.7982 9.62728 13.7966 9.80207C13.7951 9.97687 13.725 10.1441 13.6014 10.2677C13.4778 10.3913 13.3106 10.4614 13.1358 10.4629C12.961 10.4644 12.7926 10.3972 12.6669 10.2758L11.7929 9.40181C11.3212 9.75748 10.8001 10.0425 10.2462 10.2478L10.4842 11.1378C10.5096 11.2232 10.5176 11.3128 10.5078 11.4013C10.498 11.4898 10.4705 11.5755 10.4271 11.6532C10.3836 11.7309 10.325 11.7992 10.2547 11.8539C10.1845 11.9086 10.1039 11.9487 10.0179 11.9718C9.93189 11.9948 9.84212 12.0004 9.7539 11.9882C9.66567 11.976 9.58079 11.9463 9.50425 11.9007C9.42772 11.8552 9.36108 11.7948 9.30829 11.7231C9.25549 11.6513 9.2176 11.5698 9.19686 11.4831L8.95419 10.5785C8.32286 10.6718 7.67752 10.6718 7.04619 10.5785L6.80352 11.4831C6.78278 11.5698 6.74489 11.6513 6.69209 11.7231C6.63929 11.7948 6.57266 11.8552 6.49613 11.9007C6.41959 11.9463 6.3347 11.976 6.24648 11.9882C6.15826 12.0004 6.06848 11.9948 5.98246 11.9718C5.89644 11.9487 5.81592 11.9086 5.74564 11.8539C5.67537 11.7992 5.61677 11.7309 5.5733 11.6532C5.52984 11.5755 5.50239 11.4898 5.49258 11.4013C5.48277 11.3128 5.4908 11.2232 5.51619 11.1378L5.75419 10.2478C5.20022 10.0423 4.67919 9.75703 4.20752 9.40114L3.33419 10.2758C3.20918 10.401 3.03957 10.4714 2.86266 10.4715C2.68575 10.4716 2.51604 10.4015 2.39086 10.2765C2.26567 10.1515 2.19528 9.98185 2.19515 9.80494C2.19503 9.62804 2.26518 9.45832 2.39019 9.33314L3.24019 8.48314C2.71752 7.85914 2.30019 7.10047 2.03219 6.20714L2.03352 6.20647Z" fill="#171719"/>
</svg>
