<svg width="16" height="17" viewBox="0 0 16 17" fill="none" xmlns="http://www.w3.org/2000/svg">
<path d="M8.00016 1.83203C11.6822 1.83203 14.6668 4.8167 14.6668 8.4987C14.6668 12.1807 11.6822 15.1654 8.00016 15.1654C4.31816 15.1654 1.3335 12.1807 1.3335 8.4987C1.3335 4.8167 4.31816 1.83203 8.00016 1.83203ZM7.9935 7.16536H7.3335C7.16358 7.16555 7.00014 7.23062 6.87658 7.34726C6.75303 7.46391 6.67867 7.62333 6.66871 7.79296C6.65876 7.96259 6.71395 8.12962 6.82301 8.25992C6.93207 8.39022 7.08677 8.47396 7.2555 8.49403L7.3335 8.4987V11.8254C7.3335 12.172 7.59616 12.4587 7.9335 12.4947L8.00683 12.4987H8.3335C8.4737 12.4987 8.61034 12.4545 8.72399 12.3724C8.83763 12.2903 8.92249 12.1744 8.96649 12.0413C9.0105 11.9081 9.01141 11.7645 8.9691 11.6309C8.92679 11.4972 8.84342 11.3803 8.73083 11.2967L8.66683 11.2547V7.8387C8.66683 7.49203 8.40416 7.20536 8.06683 7.16936L7.9935 7.16536ZM8.00016 5.16536C7.82335 5.16536 7.65378 5.2356 7.52876 5.36063C7.40373 5.48565 7.3335 5.65522 7.3335 5.83203C7.3335 6.00884 7.40373 6.17841 7.52876 6.30344C7.65378 6.42846 7.82335 6.4987 8.00016 6.4987C8.17697 6.4987 8.34654 6.42846 8.47157 6.30344C8.59659 6.17841 8.66683 6.00884 8.66683 5.83203C8.66683 5.65522 8.59659 5.48565 8.47157 5.36063C8.34654 5.2356 8.17697 5.16536 8.00016 5.16536Z" fill="#2563EB"/>
</svg>
