<svg width="20" height="20" viewBox="0 0 20 20" fill="none" xmlns="http://www.w3.org/2000/svg">
<path fill-rule="evenodd" clip-rule="evenodd" d="M3.33317 3.33203C2.89114 3.33203 2.46722 3.50763 2.15466 3.82019C1.8421 4.13275 1.6665 4.55667 1.6665 4.9987V14.9987C1.6665 15.4407 1.8421 15.8646 2.15466 16.1772C2.46722 16.4898 2.89114 16.6654 3.33317 16.6654H16.6665C17.1085 16.6654 17.5325 16.4898 17.845 16.1772C18.1576 15.8646 18.3332 15.4407 18.3332 14.9987V4.9987C18.3332 4.55667 18.1576 4.13275 17.845 3.82019C17.5325 3.50763 17.1085 3.33203 16.6665 3.33203H3.33317ZM3.33317 4.9987H16.6665V14.9987H3.33317V4.9987ZM8.5415 8.1237C8.5415 8.51047 8.38786 8.8814 8.11437 9.1549C7.84088 9.42839 7.46994 9.58203 7.08317 9.58203C6.6964 9.58203 6.32546 9.42839 6.05197 9.1549C5.77848 8.8814 5.62484 8.51047 5.62484 8.1237C5.62484 7.73692 5.77848 7.36599 6.05197 7.0925C6.32546 6.81901 6.6964 6.66536 7.08317 6.66536C7.46994 6.66536 7.84088 6.81901 8.11437 7.0925C8.38786 7.36599 8.5415 7.73692 8.5415 8.1237ZM4.1665 12.082C4.1665 11.5295 4.386 10.9996 4.7767 10.6089C5.1674 10.2182 5.6973 9.9987 6.24984 9.9987H7.9165C8.19009 9.9987 8.461 10.0526 8.71376 10.1573C8.96652 10.262 9.19619 10.4154 9.38964 10.6089C9.5831 10.8023 9.73656 11.032 9.84125 11.2848C9.94595 11.5375 9.99984 11.8084 9.99984 12.082V12.4987C9.99984 12.7197 9.91204 12.9317 9.75576 13.088C9.59948 13.2442 9.38752 13.332 9.1665 13.332C8.94549 13.332 8.73353 13.2442 8.57725 13.088C8.42097 12.9317 8.33317 12.7197 8.33317 12.4987V12.082C8.33317 11.9715 8.28927 11.8655 8.21113 11.7874C8.13299 11.7093 8.02701 11.6654 7.9165 11.6654H6.24984C6.13933 11.6654 6.03335 11.7093 5.95521 11.7874C5.87707 11.8655 5.83317 11.9715 5.83317 12.082V12.4987C5.83317 12.7197 5.74537 12.9317 5.58909 13.088C5.43281 13.2442 5.22085 13.332 4.99984 13.332C4.77882 13.332 4.56686 13.2442 4.41058 13.088C4.2543 12.9317 4.1665 12.7197 4.1665 12.4987V12.082ZM10.8332 9.16536C10.8332 8.94435 10.921 8.73239 11.0772 8.57611C11.2335 8.41983 11.4455 8.33203 11.6665 8.33203H13.3332C13.5542 8.33203 13.7661 8.41983 13.9224 8.57611C14.0787 8.73239 14.1665 8.94435 14.1665 9.16536C14.1665 9.38638 14.0787 9.59834 13.9224 9.75462C13.7661 9.9109 13.5542 9.9987 13.3332 9.9987H11.6665C11.4455 9.9987 11.2335 9.9109 11.0772 9.75462C10.921 9.59834 10.8332 9.38638 10.8332 9.16536ZM11.6665 10.832C11.4455 10.832 11.2335 10.9198 11.0772 11.0761C10.921 11.2324 10.8332 11.4444 10.8332 11.6654C10.8332 11.8864 10.921 12.0983 11.0772 12.2546C11.2335 12.4109 11.4455 12.4987 11.6665 12.4987H14.9998C15.2209 12.4987 15.4328 12.4109 15.5891 12.2546C15.7454 12.0983 15.8332 11.8864 15.8332 11.6654C15.8332 11.4444 15.7454 11.2324 15.5891 11.0761C15.4328 10.9198 15.2209 10.832 14.9998 10.832H11.6665Z" fill="#171719"/>
</svg>
