<svg width="16" height="16" viewBox="0 0 16 16" fill="none" xmlns="http://www.w3.org/2000/svg">
<path d="M8.00016 1.33203C11.6822 1.33203 14.6668 4.3167 14.6668 7.9987C14.6668 11.6807 11.6822 14.6654 8.00016 14.6654C4.31816 14.6654 1.3335 11.6807 1.3335 7.9987C1.3335 4.3167 4.31816 1.33203 8.00016 1.33203ZM8.00016 2.66536C6.58567 2.66536 5.22912 3.22727 4.22893 4.22746C3.22873 5.22766 2.66683 6.58421 2.66683 7.9987C2.66683 9.41319 3.22873 10.7697 4.22893 11.7699C5.22912 12.7701 6.58567 13.332 8.00016 13.332C9.41465 13.332 10.7712 12.7701 11.7714 11.7699C12.7716 10.7697 13.3335 9.41319 13.3335 7.9987C13.3335 6.58421 12.7716 5.22766 11.7714 4.22746C10.7712 3.22727 9.41465 2.66536 8.00016 2.66536ZM7.9935 6.66536C8.3655 6.66536 8.66683 6.9667 8.66683 7.3387V10.7547C8.79392 10.8281 8.89324 10.9413 8.94939 11.0769C9.00555 11.2125 9.0154 11.3628 8.97742 11.5046C8.93944 11.6463 8.85574 11.7716 8.73932 11.8609C8.6229 11.9503 8.48025 11.9987 8.3335 11.9987H8.00683C7.91841 11.9987 7.83085 11.9813 7.74916 11.9474C7.66746 11.9136 7.59324 11.864 7.53071 11.8015C7.46819 11.739 7.41859 11.6647 7.38475 11.583C7.35091 11.5013 7.3335 11.4138 7.3335 11.3254V7.9987C7.15669 7.9987 6.98712 7.92846 6.86209 7.80344C6.73707 7.67841 6.66683 7.50884 6.66683 7.33203C6.66683 7.15522 6.73707 6.98565 6.86209 6.86063C6.98712 6.7356 7.15669 6.66536 7.3335 6.66536H7.9935ZM8.00016 4.66536C8.17697 4.66536 8.34654 4.7356 8.47157 4.86063C8.59659 4.98565 8.66683 5.15522 8.66683 5.33203C8.66683 5.50884 8.59659 5.67841 8.47157 5.80344C8.34654 5.92846 8.17697 5.9987 8.00016 5.9987C7.82335 5.9987 7.65378 5.92846 7.52876 5.80344C7.40373 5.67841 7.3335 5.50884 7.3335 5.33203C7.3335 5.15522 7.40373 4.98565 7.52876 4.86063C7.65378 4.7356 7.82335 4.66536 8.00016 4.66536Z" fill="#6A6A73"/>
</svg>
