<svg width="12" height="14" viewBox="0 0 12 14" fill="none" xmlns="http://www.w3.org/2000/svg">
<path fill-rule="evenodd" clip-rule="evenodd" d="M6 0.332031C7.5913 0.332031 9.11742 0.964172 10.2426 2.08939C11.3679 3.21461 12 4.74073 12 6.33203C12 8.38136 10.8827 10.0587 9.70533 11.262C9.11701 11.8566 8.47519 12.3958 7.788 12.8727L7.504 13.066L7.37067 13.1547L7.11933 13.3147L6.89533 13.4514L6.618 13.6127C6.42967 13.7199 6.2167 13.7763 6 13.7763C5.7833 13.7763 5.57033 13.7199 5.382 13.6127L5.10467 13.4514L4.758 13.238L4.63 13.1547L4.35667 12.9727C3.61532 12.4709 2.92471 11.898 2.29467 11.262C1.11733 10.058 0 8.38136 0 6.33203C0 4.74073 0.632141 3.21461 1.75736 2.08939C2.88258 0.964172 4.4087 0.332031 6 0.332031ZM6 1.66536C4.76232 1.66536 3.57534 2.15703 2.70017 3.0322C1.825 3.90737 1.33333 5.09435 1.33333 6.33203C1.33333 7.88003 2.18133 9.2387 3.24733 10.3294C3.70575 10.7933 4.20116 11.2191 4.72867 11.6027L5.034 11.82C5.13267 11.8887 5.22733 11.9527 5.31867 12.012L5.57867 12.1787L5.80733 12.318L6 12.4307L6.30333 12.2514L6.548 12.098C6.678 12.0154 6.818 11.9227 6.966 11.82L7.27133 11.6027C7.79884 11.2191 8.29425 10.7933 8.75267 10.3294C9.81867 9.23936 10.6667 7.88003 10.6667 6.33203C10.6667 5.09435 10.175 3.90737 9.29983 3.0322C8.42466 2.15703 7.23768 1.66536 6 1.66536ZM6 3.66536C6.70724 3.66536 7.38552 3.94632 7.88562 4.44641C8.38572 4.94651 8.66667 5.62479 8.66667 6.33203C8.66667 7.03928 8.38572 7.71755 7.88562 8.21765C7.38552 8.71775 6.70724 8.9987 6 8.9987C5.29276 8.9987 4.61448 8.71775 4.11438 8.21765C3.61428 7.71755 3.33333 7.03928 3.33333 6.33203C3.33333 5.62479 3.61428 4.94651 4.11438 4.44641C4.61448 3.94632 5.29276 3.66536 6 3.66536ZM6 4.9987C5.64638 4.9987 5.30724 5.13917 5.05719 5.38922C4.80714 5.63927 4.66667 5.97841 4.66667 6.33203C4.66667 6.68565 4.80714 7.02479 5.05719 7.27484C5.30724 7.52489 5.64638 7.66536 6 7.66536C6.35362 7.66536 6.69276 7.52489 6.94281 7.27484C7.19286 7.02479 7.33333 6.68565 7.33333 6.33203C7.33333 5.97841 7.19286 5.63927 6.94281 5.38922C6.69276 5.13917 6.35362 4.9987 6 4.9987Z" fill="#6A6A73"/>
</svg>
