<svg width="24" height="24" viewBox="0 0 24 24" fill="none" xmlns="http://www.w3.org/2000/svg">
<path fill-rule="evenodd" clip-rule="evenodd" d="M12.0003 3.66797C16.6028 3.66797 20.3337 7.3988 20.3337 12.0013C20.3337 15.5846 18.072 18.6396 14.8987 19.8163C14.845 19.8458 14.7883 19.8692 14.7295 19.8863L14.6503 19.9046C13.7961 20.1904 12.9011 20.3356 12.0003 20.3346C7.39783 20.3346 3.66699 16.6038 3.66699 12.0013C3.66699 7.3988 7.39783 3.66797 12.0003 3.66797ZM14.4253 5.78964L14.2787 6.5238C14.1841 6.99632 13.9551 7.43144 13.619 7.77681C13.2829 8.12217 12.8542 8.36306 12.3845 8.47047L12.0503 8.54714C11.843 8.59439 11.6617 8.71908 11.5433 8.89569C11.425 9.07229 11.3786 9.28745 11.4137 9.49714L11.5595 10.3705C11.606 10.6504 11.5802 10.9376 11.4846 11.2047C11.389 11.4719 11.2268 11.7103 11.0133 11.8972C10.7998 12.0842 10.5422 12.2135 10.2647 12.273C9.98723 12.3325 9.69918 12.3201 9.42783 12.2371L8.35283 11.9088C7.84079 11.7523 7.39252 11.4355 7.07403 11.0051C6.75554 10.5747 6.58365 10.0534 6.58366 9.51797V8.1138C5.79462 9.21234 5.35839 10.5249 5.33287 11.8772C5.30736 13.2295 5.69377 14.5576 6.44081 15.6851C7.18785 16.8126 8.26018 17.6863 9.51542 18.19C10.7707 18.6937 12.1494 18.8038 13.4687 18.5055L12.9845 16.8121C12.9454 16.676 12.8723 16.5521 12.772 16.4521L11.7403 15.4196C11.616 15.2954 11.5193 15.1463 11.4564 14.9821C11.3936 14.8179 11.3662 14.6423 11.3759 14.4667C11.3855 14.2912 11.4321 14.1197 11.5126 13.9634C11.5931 13.8071 11.7056 13.6695 11.8428 13.5596L13.147 12.5171C13.3956 12.3182 13.696 12.1947 14.0127 12.1612C14.3293 12.1277 14.6489 12.1855 14.9337 12.328L16.1587 12.9405C16.5267 13.1245 16.8437 13.3966 17.0814 13.7326C17.319 14.0685 17.4701 14.458 17.5212 14.8663L17.6128 15.6005C18.1454 14.7697 18.4869 13.8311 18.6128 12.8524C18.7387 11.8737 18.6458 10.8792 18.3409 9.94069C18.036 9.00219 17.5266 8.14305 16.8495 7.42522C16.1724 6.70739 15.3444 6.14877 14.4253 5.78964ZM14.1878 13.8188L13.2478 14.5705L13.9512 15.273C14.2079 15.5301 14.4056 15.84 14.5303 16.1813L14.587 16.3546L15.0395 17.9363C15.3312 17.7863 15.6112 17.6155 15.8762 17.4263L16.137 17.2296L15.8678 15.073C15.8529 14.9542 15.8126 14.84 15.7496 14.7382C15.6867 14.6364 15.6025 14.5493 15.5028 14.483L15.4128 14.4313L14.1878 13.8188ZM12.0003 5.33464C10.6605 5.33254 9.35144 5.73607 8.24533 6.49214C8.24866 6.52214 8.25033 6.55297 8.25033 6.58464V9.51797C8.25017 9.69647 8.30733 9.87031 8.4134 10.0139C8.51946 10.1574 8.66882 10.2632 8.83949 10.3155L9.91533 10.6438L9.76949 9.77047C9.66468 9.1418 9.80394 8.49683 10.1588 7.96741C10.5137 7.43799 11.0573 7.06409 11.6787 6.92214L12.0128 6.8463C12.1696 6.81047 12.3127 6.73003 12.4248 6.61469C12.5368 6.49935 12.6132 6.35405 12.6445 6.1963L12.8078 5.38297C12.5399 5.35069 12.2702 5.33455 12.0003 5.33464Z" fill="#171719"/>
</svg>
