<svg width="16" height="16" viewBox="0 0 16 16" fill="none" xmlns="http://www.w3.org/2000/svg">
<path opacity="0.2" d="M10 4.5V13.5L6 11.5V2.5L10 4.5Z" fill="#0B99FF"/>
<path d="M14.3075 3.10569C14.2476 3.05903 14.1779 3.02661 14.1036 3.01091C14.0293 2.99521 13.9524 2.99663 13.8787 3.01507L10.0581 3.97007L6.22375 2.05257C6.11692 1.99928 5.99454 1.98598 5.87875 2.01507L1.87875 3.01507C1.77058 3.04211 1.67455 3.10453 1.60593 3.1924C1.5373 3.28028 1.50002 3.38857 1.5 3.50007V12.5001C1.50001 12.576 1.51734 12.651 1.55066 12.7193C1.58398 12.7876 1.63243 12.8474 1.69232 12.8941C1.7522 12.9409 1.82196 12.9734 1.89628 12.9891C1.9706 13.0049 2.04754 13.0035 2.12125 12.9851L5.94187 12.0301L9.77625 13.9476C9.84586 13.9819 9.92239 13.9998 10 14.0001C10.0409 14 10.0816 13.995 10.1213 13.9851L14.1213 12.9851C14.2294 12.958 14.3254 12.8956 14.3941 12.8077C14.4627 12.7199 14.5 12.6116 14.5 12.5001V3.50007C14.5 3.42402 14.4827 3.34897 14.4493 3.28063C14.416 3.21229 14.3675 3.15246 14.3075 3.10569ZM6.5 3.30882L9.5 4.80882V12.6913L6.5 11.1913V3.30882ZM2.5 3.89069L5.5 3.14069V11.1094L2.5 11.8594V3.89069ZM13.5 12.1094L10.5 12.8594V4.89069L13.5 4.14069V12.1094Z" fill="#0B99FF"/>
</svg>
