<svg width="20" height="20" viewBox="0 0 20 20" fill="none" xmlns="http://www.w3.org/2000/svg">
<path opacity="0.2" d="M10 1.875C8.3424 1.875 6.75269 2.53348 5.58058 3.70558C4.40848 4.87769 3.75 6.4674 3.75 8.125C3.75 13.75 10 18.125 10 18.125C10 18.125 16.25 13.75 16.25 8.125C16.25 6.4674 15.5915 4.87769 14.4194 3.70558C13.2473 2.53348 11.6576 1.875 10 1.875ZM10 10.625C9.50555 10.625 9.0222 10.4784 8.61107 10.2037C8.19995 9.92897 7.87952 9.53852 7.6903 9.08171C7.50108 8.62489 7.45157 8.12223 7.54804 7.63727C7.6445 7.15232 7.8826 6.70686 8.23223 6.35723C8.58186 6.0076 9.02732 5.7695 9.51227 5.67304C9.99723 5.57657 10.4999 5.62608 10.9567 5.8153C11.4135 6.00452 11.804 6.32495 12.0787 6.73607C12.3534 7.1472 12.5 7.63055 12.5 8.125C12.5 8.78804 12.2366 9.42393 11.7678 9.89277C11.2989 10.3616 10.663 10.625 10 10.625Z" fill="#0B99FF"/>
<path d="M15.625 17.5H11.7609C12.41 16.9204 13.0222 16.3007 13.5938 15.6445C15.7383 13.1781 16.875 10.5781 16.875 8.125C16.875 6.30164 16.1507 4.55295 14.8614 3.26364C13.572 1.97433 11.8234 1.25 10 1.25C8.17664 1.25 6.42795 1.97433 5.13864 3.26364C3.84933 4.55295 3.125 6.30164 3.125 8.125C3.125 10.5781 4.25859 13.1781 6.40625 15.6445C6.97782 16.3007 7.58996 16.9204 8.23906 17.5H4.375C4.20924 17.5 4.05027 17.5658 3.93306 17.6831C3.81585 17.8003 3.75 17.9592 3.75 18.125C3.75 18.2908 3.81585 18.4497 3.93306 18.5669C4.05027 18.6842 4.20924 18.75 4.375 18.75H15.625C15.7908 18.75 15.9497 18.6842 16.0669 18.5669C16.1842 18.4497 16.25 18.2908 16.25 18.125C16.25 17.9592 16.1842 17.8003 16.0669 17.6831C15.9497 17.5658 15.7908 17.5 15.625 17.5ZM4.375 8.125C4.375 6.63316 4.96763 5.20242 6.02252 4.14752C7.07742 3.09263 8.50816 2.5 10 2.5C11.4918 2.5 12.9226 3.09263 13.9775 4.14752C15.0324 5.20242 15.625 6.63316 15.625 8.125C15.625 12.5961 11.2914 16.3281 10 17.3438C8.70859 16.3281 4.375 12.5961 4.375 8.125ZM13.125 8.125C13.125 7.50693 12.9417 6.90275 12.5983 6.38884C12.255 5.87494 11.7669 5.4744 11.1959 5.23788C10.6249 5.00135 9.99653 4.93947 9.39034 5.06005C8.78415 5.18062 8.22733 5.47825 7.79029 5.91529C7.35325 6.35233 7.05562 6.90915 6.93505 7.51534C6.81447 8.12153 6.87635 8.74987 7.11288 9.32089C7.3494 9.8919 7.74994 10.38 8.26384 10.7233C8.77775 11.0667 9.38193 11.25 10 11.25C10.8288 11.25 11.6237 10.9208 12.2097 10.3347C12.7958 9.74866 13.125 8.9538 13.125 8.125ZM8.125 8.125C8.125 7.75416 8.23497 7.39165 8.44099 7.08331C8.64702 6.77496 8.93986 6.53464 9.28247 6.39273C9.62508 6.25081 10.0021 6.21368 10.3658 6.28603C10.7295 6.35837 11.0636 6.53695 11.3258 6.79917C11.588 7.0614 11.7666 7.39549 11.839 7.75921C11.9113 8.12292 11.8742 8.49992 11.7323 8.84253C11.5904 9.18514 11.35 9.47798 11.0417 9.68401C10.7334 9.89003 10.3708 10 10 10C9.50272 10 9.02581 9.80246 8.67417 9.45083C8.32254 9.09919 8.125 8.62228 8.125 8.125Z" fill="#0B99FF"/>
</svg>
