<svg width="12" height="13" viewBox="0 0 12 13" fill="none" xmlns="http://www.w3.org/2000/svg">
<path d="M5.99979 0.332031C4.76211 0.332031 3.57513 0.823696 2.69996 1.69887C1.82479 2.57404 1.33312 3.76102 1.33312 4.9987V7.3507C1.33322 7.45412 1.30926 7.55614 1.26312 7.6487L0.118457 9.93737C0.0625418 10.0492 0.0361389 10.1734 0.0417565 10.2983C0.0473741 10.4232 0.0848257 10.5446 0.150554 10.6509C0.216283 10.7573 0.308106 10.845 0.417302 10.9059C0.526499 10.9668 0.649443 10.9987 0.774458 10.9987H11.2251C11.3501 10.9987 11.4731 10.9668 11.5823 10.9059C11.6915 10.845 11.7833 10.7573 11.849 10.6509C11.9148 10.5446 11.9522 10.4232 11.9578 10.2983C11.9634 10.1734 11.937 10.0492 11.8811 9.93737L10.7371 7.6487C10.6908 7.5562 10.6666 7.45417 10.6665 7.3507V4.9987C10.6665 3.76102 10.1748 2.57404 9.29962 1.69887C8.42445 0.823696 7.23747 0.332031 5.99979 0.332031ZM5.99979 12.9987C5.58605 12.9988 5.18244 12.8707 4.84456 12.6319C4.50667 12.3931 4.25113 12.0554 4.11312 11.6654H7.88646C7.74845 12.0554 7.49291 12.3931 7.15503 12.6319C6.81714 12.8707 6.41354 12.9988 5.99979 12.9987Z" fill="#F8F8F9"/>
</svg>
