<svg width="24" height="24" viewBox="0 0 24 24" fill="none" xmlns="http://www.w3.org/2000/svg">
<path fill-rule="evenodd" clip-rule="evenodd" d="M7.00016 3.66797C6.55814 3.66797 6.13421 3.84356 5.82165 4.15612C5.50909 4.46868 5.3335 4.89261 5.3335 5.33464V18.668C5.3335 19.11 5.50909 19.5339 5.82165 19.8465C6.13421 20.159 6.55814 20.3346 7.00016 20.3346H16.1668C16.8299 20.3346 17.4658 20.0712 17.9346 19.6024C18.4034 19.1336 18.6668 18.4977 18.6668 17.8346V6.16797C18.6668 5.50493 18.4034 4.86904 17.9346 4.4002C17.4658 3.93136 16.8299 3.66797 16.1668 3.66797H7.00016ZM10.3335 5.33464H7.00016V18.668H16.1668C16.3878 18.668 16.5998 18.5802 16.7561 18.4239C16.9124 18.2676 17.0002 18.0556 17.0002 17.8346V6.16797C17.0002 5.94696 16.9124 5.73499 16.7561 5.57871C16.5998 5.42243 16.3878 5.33464 16.1668 5.33464H15.3335V12.8146C15.3335 13.5646 14.4268 13.9396 13.8968 13.4096L12.8335 12.3463L11.7702 13.4096C11.2402 13.9396 10.3335 13.5646 10.3335 12.8146V5.33464ZM13.6668 5.33464H12.0002V10.823L12.2385 10.5846C12.3963 10.4269 12.6103 10.3383 12.8335 10.3383C13.0566 10.3383 13.2707 10.4269 13.4285 10.5846L13.6668 10.823V5.33464Z" fill="#171719"/>
</svg>
