<svg width="40" height="40" viewBox="0 0 40 40" fill="none" xmlns="http://www.w3.org/2000/svg">
<path d="M35.9333 17.8999L33.6667 15.2666C33.2333 14.7666 32.8833 13.8333 32.8833 13.1666V10.3333C32.8833 8.5666 31.4333 7.1166 29.6667 7.1166H26.8333C26.1833 7.1166 25.2333 6.7666 24.7333 6.33327L22.1 4.0666C20.95 3.08327 19.0667 3.08327 17.9 4.0666L15.2833 6.34993C14.7833 6.7666 13.8333 7.1166 13.1833 7.1166H10.3C8.53333 7.1166 7.08333 8.5666 7.08333 10.3333V13.1833C7.08333 13.8333 6.73333 14.7666 6.31666 15.2666L4.06666 17.9166C3.09999 19.0666 3.09999 20.9333 4.06666 22.0833L6.31666 24.7333C6.73333 25.2333 7.08333 26.1666 7.08333 26.8166V29.6666C7.08333 31.4333 8.53333 32.8833 10.3 32.8833H13.1833C13.8333 32.8833 14.7833 33.2333 15.2833 33.6666L17.9167 35.9333C19.0667 36.9166 20.95 36.9166 22.1167 35.9333L24.75 33.6666C25.25 33.2333 26.1833 32.8833 26.85 32.8833H29.6833C31.45 32.8833 32.9 31.4333 32.9 29.6666V26.8333C32.9 26.1833 33.25 25.2333 33.6833 24.7333L35.95 22.0999C36.9167 20.9499 36.9167 19.0499 35.9333 17.8999Z" fill="#F41E21"/>
<path d="M9.92045 24V17.4545H10.892V18.4773H10.9773C11.1136 18.1278 11.3338 17.8565 11.6378 17.6634C11.9418 17.4673 12.3068 17.3693 12.733 17.3693C13.1648 17.3693 13.5241 17.4673 13.8111 17.6634C14.1009 17.8565 14.3267 18.1278 14.4886 18.4773H14.5568C14.7244 18.1392 14.9759 17.8707 15.3111 17.6719C15.6463 17.4702 16.0483 17.3693 16.517 17.3693C17.1023 17.3693 17.581 17.5526 17.9531 17.919C18.3253 18.2827 18.5114 18.8494 18.5114 19.6193V24H17.5057V19.6193C17.5057 19.1364 17.3736 18.7912 17.1094 18.5838C16.8452 18.3764 16.5341 18.2727 16.1761 18.2727C15.7159 18.2727 15.3594 18.4119 15.1065 18.6903C14.8537 18.9659 14.7273 19.3153 14.7273 19.7386V24H13.7045V19.517C13.7045 19.1449 13.5838 18.8452 13.3423 18.6179C13.1009 18.3878 12.7898 18.2727 12.4091 18.2727C12.1477 18.2727 11.9034 18.3423 11.6761 18.4815C11.4517 18.6207 11.2699 18.8139 11.1307 19.0611C10.9943 19.3054 10.9261 19.5881 10.9261 19.9091V24H9.92045ZM25.6683 16.9602H26.6058C26.6058 17.608 26.4638 18.1222 26.1797 18.5028C25.8984 18.8835 25.4041 19.0739 24.6967 19.0739V18.358C24.9808 18.358 25.1911 18.2997 25.3274 18.1832C25.4666 18.0668 25.5575 17.9034 25.6001 17.6932C25.6456 17.483 25.6683 17.2386 25.6683 16.9602ZM23.0092 24.1364C22.4183 24.1364 21.8999 23.9957 21.4538 23.7145C21.0107 23.4332 20.6641 23.0398 20.4141 22.5341C20.1669 22.0284 20.0433 21.4375 20.0433 20.7614C20.0433 20.0795 20.1669 19.4844 20.4141 18.9759C20.6641 18.4673 21.0107 18.0724 21.4538 17.7912C21.8999 17.5099 22.4183 17.3693 23.0092 17.3693C23.6001 17.3693 24.1172 17.5099 24.5604 17.7912C25.0064 18.0724 25.353 18.4673 25.6001 18.9759C25.8501 19.4844 25.9751 20.0795 25.9751 20.7614C25.9751 21.4375 25.8501 22.0284 25.6001 22.5341C25.353 23.0398 25.0064 23.4332 24.5604 23.7145C24.1172 23.9957 23.6001 24.1364 23.0092 24.1364ZM23.0092 23.233C23.4581 23.233 23.8274 23.1179 24.1172 22.8878C24.407 22.6577 24.6214 22.3551 24.7607 21.9801C24.8999 21.6051 24.9695 21.1989 24.9695 20.7614C24.9695 20.3239 24.8999 19.9162 24.7607 19.5384C24.6214 19.1605 24.407 18.8551 24.1172 18.6222C23.8274 18.3892 23.4581 18.2727 23.0092 18.2727C22.5604 18.2727 22.1911 18.3892 21.9013 18.6222C21.6115 18.8551 21.397 19.1605 21.2578 19.5384C21.1186 19.9162 21.049 20.3239 21.049 20.7614C21.049 21.1989 21.1186 21.6051 21.2578 21.9801C21.397 22.3551 21.6115 22.6577 21.9013 22.8878C22.1911 23.1179 22.5604 23.233 23.0092 23.233ZM22.549 16.5682L23.5888 14.5909H24.7649L23.4354 16.5682H22.549ZM27.522 24V17.4545H28.5277V24H27.522ZM28.0334 16.3636C27.8374 16.3636 27.6683 16.2969 27.5263 16.1634C27.3871 16.0298 27.3175 15.8693 27.3175 15.6818C27.3175 15.4943 27.3871 15.3338 27.5263 15.2003C27.6683 15.0668 27.8374 15 28.0334 15C28.2294 15 28.397 15.0668 28.5362 15.2003C28.6783 15.3338 28.7493 15.4943 28.7493 15.6818C28.7493 15.8693 28.6783 16.0298 28.5362 16.1634C28.397 16.2969 28.2294 16.3636 28.0334 16.3636Z" fill="white"/>
</svg>
