<svg width="12" height="12" viewBox="0 0 12 12" fill="none" xmlns="http://www.w3.org/2000/svg">
<path d="M3.71286 0.509644C3.95008 0.509644 4.16866 0.638304 4.28383 0.845729L5.08265 2.28469C5.18724 2.4731 5.19217 2.70098 5.09578 2.89373L4.32621 4.4329C4.32621 4.4329 4.54923 5.57948 5.48259 6.51283C6.41597 7.44619 7.5587 7.66536 7.5587 7.66536L9.09761 6.89592C9.29049 6.79946 9.51854 6.80446 9.70701 6.90924L11.15 7.71153C11.3573 7.82676 11.4858 8.04521 11.4858 8.2823L11.4858 9.93896C11.4858 10.7826 10.7021 11.392 9.9028 11.1222C8.261 10.5682 5.71253 9.51349 4.09725 7.89817C2.48197 6.28289 1.42718 3.73442 0.873212 2.09265C0.603492 1.29327 1.21283 0.509644 2.05647 0.509644L3.71286 0.509644Z" fill="#0B99FF"/>
</svg>
