<svg width="20" height="20" viewBox="0 0 20 20" fill="none" xmlns="http://www.w3.org/2000/svg">
<path fill-rule="evenodd" clip-rule="evenodd" d="M6.80967 13.1909C10.0138 16.3951 12.983 16.7459 13.8547 16.7784C14.908 16.8167 15.983 15.9567 16.448 15.0759C15.7063 14.2059 14.7405 13.5309 13.683 12.7992C13.0588 13.4226 12.2897 14.5809 11.2655 14.1659C10.683 13.9317 9.24467 13.2692 7.98801 12.0117C6.73051 10.7551 6.06884 9.31672 5.83301 8.73506C5.41801 7.70922 6.57967 6.93839 7.20384 6.31422C6.47217 5.23922 5.80884 4.24839 4.94051 3.54422C4.04717 4.01089 3.18217 5.07756 3.22134 6.14506C3.25384 7.01672 3.60467 9.98589 6.80967 13.1909ZM13.793 18.4442C12.593 18.4001 9.19217 17.9301 5.63051 14.3692C2.06967 10.8076 1.60051 7.40756 1.55551 6.20672C1.48884 4.37672 2.89051 2.59922 4.50967 1.90506C4.70465 1.82086 4.91818 1.78881 5.12928 1.81204C5.34039 1.83527 5.54183 1.91298 5.71384 2.03756C7.05384 3.01506 7.97801 4.49589 8.77217 5.65589C8.93738 5.8971 9.01307 6.18848 8.98613 6.47959C8.9592 6.77071 8.83133 7.04325 8.62467 7.25006L7.49467 8.38089C7.75717 8.96006 8.29134 9.95839 9.16634 10.8334C10.0413 11.7084 11.0397 12.2426 11.6197 12.5051L12.7488 11.3751C12.9564 11.168 13.2301 11.0403 13.5222 11.0142C13.8143 10.9882 14.1062 11.0655 14.3472 11.2326C15.5305 12.0526 16.9205 12.9634 17.9338 14.2609C18.0685 14.4341 18.1542 14.6404 18.1819 14.8581C18.2096 15.0758 18.1783 15.2969 18.0913 15.4984C17.3938 17.1259 15.6288 18.5117 13.793 18.4442Z" fill="#171719"/>
</svg>
