<svg width="24" height="24" viewBox="0 0 24 24" fill="none" xmlns="http://www.w3.org/2000/svg">
<g clip-path="url(#clip0_39367_8765)">
<path d="M1.26993 12.5319C0.981667 12.5319 0.721364 12.3334 0.654743 12.0409C-1.32941 3.36732 3.87874 0.21591 4.10162 0.086167C4.40223 -0.0894247 4.78919 0.0117346 4.96561 0.313368C5.14079 0.61418 5.04004 1.00011 4.73985 1.17632C4.53917 1.29599 0.120565 4.04029 1.88595 11.7592C1.96367 12.0993 1.75107 12.4379 1.41099 12.5158C1.3637 12.5265 1.3164 12.5319 1.26993 12.5319Z" fill="#1B84FF"/>
<path d="M5.6834 5.05327C5.33468 5.05327 5.05176 4.77056 5.05176 4.42163C5.05135 1.57021 7.36489 0.149218 7.46359 0.0902105C7.76173 -0.089289 8.15033 0.00734779 8.33004 0.30672C8.50892 0.605267 8.41311 0.992024 8.11579 1.17214C8.04095 1.21779 6.31463 2.29972 6.31504 4.42164C6.31504 4.77035 6.03253 5.05327 5.6834 5.05327Z" fill="#1B84FF"/>
<path d="M4.07094 9.73015C3.84435 9.73015 3.62558 9.60781 3.51208 9.39356C2.4832 7.44786 3.11566 5.52189 3.14321 5.44088C3.25506 5.11046 3.61119 4.93363 3.94428 5.04508C4.27449 5.15693 4.45173 5.51552 4.33987 5.84594C4.33576 5.85807 3.86039 7.3502 4.62896 8.80305C4.79181 9.11147 4.6742 9.49349 4.36578 9.65675C4.27161 9.7065 4.17045 9.73015 4.07094 9.73015Z" fill="#1B84FF"/>
<path d="M10.5343 6.6143C10.4237 6.6143 10.3119 6.5853 10.2099 6.52444C8.11057 5.2661 8.24175 3.2986 8.99183 1.99604C9.16577 1.69338 9.55191 1.59037 9.85457 1.76391C10.1568 1.93806 10.2605 2.3242 10.0865 2.62645C9.78384 3.15199 9.25336 4.47819 10.8596 5.44086C11.1586 5.62016 11.256 6.00815 11.0763 6.30731C10.9583 6.50491 10.749 6.6143 10.5343 6.6143Z" fill="#1B84FF"/>
<path d="M8.11227 16.8238C7.80057 16.8238 7.52916 16.5931 7.4868 16.2757C7.44074 15.9298 7.68378 15.6122 8.02962 15.5661L9.53881 15.3648C9.88341 15.3196 10.2025 15.5616 10.2486 15.9074C10.2946 16.2533 10.0516 16.5709 9.70577 16.617L8.19658 16.8183C8.1682 16.822 8.14024 16.8238 8.11227 16.8238Z" fill="#1B84FF"/>
<path d="M10.0975 13.9192C9.98278 13.9192 9.86722 13.8882 9.76318 13.8232L8.50155 13.0345C8.20547 12.8494 8.11582 12.4598 8.30087 12.1641C8.48551 11.8676 8.87618 11.7788 9.17103 11.9632L10.4327 12.752C10.7287 12.937 10.8184 13.3267 10.6333 13.6223C10.5137 13.8142 10.3081 13.9192 10.0975 13.9192Z" fill="#1B84FF"/>
<path d="M12.1089 12.1064C11.8634 12.1064 11.6302 11.9626 11.5278 11.7229L11.0438 10.5912C10.9065 10.2705 11.0553 9.89933 11.3761 9.76198C11.6981 9.62464 12.0682 9.77412 12.2051 10.0945L12.6891 11.2261C12.8265 11.5469 12.6776 11.918 12.3569 12.0554C12.2758 12.0899 12.1915 12.1064 12.1089 12.1064Z" fill="#1B84FF"/>
<path d="M8.02015 21.4735C7.52709 21.4735 7.03075 21.3462 6.58251 21.0853C3.79976 19.4743 2.00436 17.6789 0.387011 14.8894C-0.259843 13.769 -0.0801414 12.3558 0.823732 11.452L6.42008 5.85581C7.08668 5.18921 8.03825 4.88984 8.96638 5.05742L13.3796 5.85334C13.7226 5.91523 13.9508 6.2438 13.8891 6.58697C13.8271 6.93054 13.5001 7.15774 13.1551 7.09647L8.74227 6.30055C8.22207 6.2072 7.68748 6.37477 7.31327 6.74899L1.71692 12.3451C1.21687 12.8454 1.11941 13.6314 1.48046 14.2567C2.99706 16.8727 4.60536 18.4812 7.21663 19.9927C7.84005 20.3556 8.62713 20.2577 9.13335 19.7546L12.273 16.6105C12.5198 16.3634 12.9195 16.3636 13.1662 16.6099C13.4134 16.8565 13.4134 17.2564 13.167 17.5033L10.0257 20.649C9.47959 21.1914 8.75378 21.4735 8.02015 21.4735Z" fill="#1B84FF"/>
<path d="M15.4534 11.3683C15.1537 11.3683 14.8876 11.1541 14.8325 10.8485L14.376 8.31766C14.3143 7.97449 14.5426 7.64593 14.8855 7.58404C15.2306 7.52338 15.5575 7.74996 15.6196 8.09354L16.076 10.6244C16.1377 10.9676 15.9095 11.2962 15.5665 11.358C15.5283 11.3648 15.4909 11.3683 15.4534 11.3683Z" fill="#1B84FF"/>
<path d="M14.9964 8.83985C14.8348 8.83985 14.6732 8.77817 14.5498 8.6548L12.8198 6.92478C12.5731 6.67825 12.5731 6.27833 12.8198 6.0316L17.4806 1.37038L17.7516 0.648061C17.8713 0.328746 18.1419 0.0947573 18.4754 0.022384C18.8085 -0.0485534 19.1514 0.0511699 19.3928 0.292351L21.1816 2.08159C21.4226 2.32277 21.5238 2.66573 21.4518 2.99903C21.3794 3.33232 21.1459 3.60291 20.8268 3.72278L20.1042 3.99377L15.443 8.65479C15.3196 8.77816 15.158 8.83985 14.9964 8.83985ZM14.1596 6.47819L14.9964 7.31503L19.3077 3.00375C19.3714 2.94001 19.4479 2.89067 19.5326 2.859L19.9981 2.68444L18.7904 1.47626L18.6156 1.94177C18.5839 2.02627 18.5346 2.10297 18.4709 2.16671L14.1596 6.47819Z" fill="#1B84FF"/>
<path d="M16.8954 6.93943C16.7338 6.93943 16.5722 6.87775 16.4489 6.75438L14.718 5.02354C14.4713 4.77701 14.4713 4.37689 14.718 4.13036C14.9647 3.88363 15.3645 3.88363 15.6112 4.13036L17.342 5.86121C17.5888 6.10773 17.5888 6.50785 17.342 6.75438C17.2187 6.87775 17.0571 6.93943 16.8954 6.93943Z" fill="#1B84FF"/>
<path d="M18.7487 5.08808C18.5871 5.08808 18.4255 5.02639 18.3021 4.90303L16.5713 3.17198C16.3245 2.92524 16.3245 2.52533 16.5713 2.2788C16.818 2.03207 17.2177 2.03207 17.4645 2.2788L19.1953 4.00985C19.442 4.25658 19.442 4.6565 19.1953 4.90303C19.0719 5.02639 18.9103 5.08808 18.7487 5.08808Z" fill="#1B84FF"/>
<path d="M18.0025 24.0005C14.695 24.0005 12.0044 21.3097 12.0044 18.0022C12.0044 14.6948 14.695 12.0039 18.0025 12.0039C21.31 12.0039 24.001 14.6948 24.001 18.0022C24.001 21.3097 21.31 24.0005 18.0025 24.0005ZM18.0025 13.2672C15.3916 13.2672 13.2677 15.3914 13.2677 18.0022C13.2677 20.6131 15.3916 22.7373 18.0025 22.7373C20.6134 22.7373 22.7378 20.6131 22.7378 18.0022C22.7378 15.3914 20.6134 13.2672 18.0025 13.2672Z" fill="#1B84FF"/>
<path d="M18.0026 18.8445C18.4677 18.8445 18.8448 18.4675 18.8448 18.0023C18.8448 17.5372 18.4677 17.1602 18.0026 17.1602C17.5375 17.1602 17.1604 17.5372 17.1604 18.0023C17.1604 18.4675 17.5375 18.8445 18.0026 18.8445Z" fill="#1B84FF"/>
<path d="M18.0026 22.1062C18.4677 22.1062 18.8448 21.7292 18.8448 21.2641C18.8448 20.7989 18.4677 20.4219 18.0026 20.4219C17.5375 20.4219 17.1604 20.7989 17.1604 21.2641C17.1604 21.7292 17.5375 22.1062 18.0026 22.1062Z" fill="#1B84FF"/>
<path d="M21.1044 19.8523C21.5695 19.8523 21.9466 19.4753 21.9466 19.0102C21.9466 18.545 21.5695 18.168 21.1044 18.168C20.6393 18.168 20.2622 18.545 20.2622 19.0102C20.2622 19.4753 20.6393 19.8523 21.1044 19.8523Z" fill="#1B84FF"/>
<path d="M19.9196 16.2078C20.3847 16.2078 20.7618 15.8308 20.7618 15.3656C20.7618 14.9005 20.3847 14.5234 19.9196 14.5234C19.4545 14.5234 19.0774 14.9005 19.0774 15.3656C19.0774 15.8308 19.4545 16.2078 19.9196 16.2078Z" fill="#1B84FF"/>
<path d="M16.0858 16.2078C16.551 16.2078 16.928 15.8308 16.928 15.3656C16.928 14.9005 16.551 14.5234 16.0858 14.5234C15.6207 14.5234 15.2437 14.9005 15.2437 15.3656C15.2437 15.8308 15.6207 16.2078 16.0858 16.2078Z" fill="#1B84FF"/>
<path d="M14.9013 19.8523C15.3664 19.8523 15.7435 19.4753 15.7435 19.0102C15.7435 18.545 15.3664 18.168 14.9013 18.168C14.4361 18.168 14.0591 18.545 14.0591 19.0102C14.0591 19.4753 14.4361 19.8523 14.9013 19.8523Z" fill="#1B84FF"/>
</g>
<defs>
<clipPath id="clip0_39367_8765">
<rect width="24" height="24" fill="white"/>
</clipPath>
</defs>
</svg>
