<svg width="10" height="10" viewBox="0 0 10 10" fill="none" xmlns="http://www.w3.org/2000/svg">
<path d="M4.5 9C4.5 9.13261 4.55268 9.25979 4.64645 9.35355C4.74021 9.44732 4.86739 9.5 5 9.5C5.13261 9.5 5.25979 9.44732 5.35355 9.35355C5.44732 9.25979 5.5 9.13261 5.5 9V5.5H9C9.13261 5.5 9.25979 5.44732 9.35355 5.35355C9.44732 5.25979 9.5 5.13261 9.5 5C9.5 4.86739 9.44732 4.74021 9.35355 4.64645C9.25979 4.55268 9.13261 4.5 9 4.5H5.5V1C5.5 0.867392 5.44732 0.740215 5.35355 0.646447C5.25979 0.552678 5.13261 0.5 5 0.5C4.86739 0.5 4.74021 0.552678 4.64645 0.646447C4.55268 0.740215 4.5 0.867392 4.5 1V4.5H1C0.867392 4.5 0.740215 4.55268 0.646447 4.64645C0.552678 4.74021 0.5 4.86739 0.5 5C0.5 5.13261 0.552678 5.25979 0.646447 5.35355C0.740215 5.44732 0.867392 5.5 1 5.5H4.5V9Z" fill="#1B84FF"/>
</svg>
