<svg width="16" height="16" viewBox="0 0 16 16" fill="none" xmlns="http://www.w3.org/2000/svg">
<path fill-rule="evenodd" clip-rule="evenodd" d="M13.3335 3.33203C13.6871 3.33203 14.0263 3.47251 14.2763 3.72256C14.5264 3.9726 14.6668 4.31174 14.6668 4.66536V11.332C14.6668 11.6857 14.5264 12.0248 14.2763 12.2748C14.0263 12.5249 13.6871 12.6654 13.3335 12.6654H2.66683C2.31321 12.6654 1.97407 12.5249 1.72402 12.2748C1.47397 12.0248 1.3335 11.6857 1.3335 11.332V4.66536C1.3335 4.31174 1.47397 3.9726 1.72402 3.72256C1.97407 3.47251 2.31321 3.33203 2.66683 3.33203H13.3335ZM13.3335 4.66536H8.66683V6.11203C9.04702 6.24643 9.37772 6.49258 9.61558 6.81821C9.85343 7.14384 9.98734 7.53374 9.99974 7.9368C10.0121 8.33985 9.90245 8.73725 9.68505 9.07688C9.46766 9.41651 9.15271 9.68252 8.7815 9.84003L8.66683 9.88536V11.332H13.3335V10.6654H12.0002C11.6638 10.6655 11.3398 10.5384 11.0931 10.3097C10.8465 10.081 10.6954 9.76747 10.6702 9.43203L10.6668 9.33203V6.66536C10.6667 6.32898 10.7938 6.00499 11.0225 5.75833C11.2512 5.51168 11.5647 5.36059 11.9002 5.33536L12.0002 5.33203H13.3335V4.66536ZM7.3335 4.66536H2.66683V5.33203H4.00016C4.33655 5.33192 4.66054 5.45897 4.90719 5.6877C5.15385 5.91642 5.30493 6.22993 5.33016 6.56536L5.3335 6.66536V9.33203C5.3336 9.66842 5.20656 9.99241 4.97783 10.2391C4.7491 10.4857 4.4356 10.6368 4.10016 10.662L4.00016 10.6654H2.66683V11.332H7.3335V9.88536C6.95331 9.75096 6.6226 9.50481 6.38475 9.17919C6.14689 8.85356 6.01299 8.46366 6.00059 8.0606C5.98819 7.65754 6.09788 7.26015 6.31527 6.92052C6.53267 6.58089 6.84762 6.31488 7.21883 6.15736L7.3335 6.11203V4.66536ZM13.3335 6.66536H12.0002V9.33203H13.3335V6.66536ZM4.00016 6.66536H2.66683V9.33203H4.00016V6.66536ZM8.00016 7.33203C7.82335 7.33203 7.65378 7.40227 7.52876 7.52729C7.40373 7.65232 7.3335 7.82189 7.3335 7.9987C7.3335 8.17551 7.40373 8.34508 7.52876 8.4701C7.65378 8.59513 7.82335 8.66536 8.00016 8.66536C8.17697 8.66536 8.34654 8.59513 8.47157 8.4701C8.59659 8.34508 8.66683 8.17551 8.66683 7.9987C8.66683 7.82189 8.59659 7.65232 8.47157 7.52729C8.34654 7.40227 8.17697 7.33203 8.00016 7.33203Z" fill="#6A6A73"/>
</svg>
