<svg width="24" height="25" viewBox="0 0 24 25" fill="none" xmlns="http://www.w3.org/2000/svg">
<path d="M12 2.94434C9.38 2.94434 7.25 5.07434 7.25 7.69434C7.25 10.2643 9.26 12.3443 11.88 12.4343C11.96 12.4243 12.04 12.4243 12.1 12.4343C12.12 12.4343 12.13 12.4343 12.15 12.4343C12.16 12.4343 12.16 12.4343 12.17 12.4343C14.73 12.3443 16.74 10.2643 16.75 7.69434C16.75 5.07434 14.62 2.94434 12 2.94434Z" fill="#0B99FF"/>
<path d="M17.08 15.0942C14.29 13.2342 9.73996 13.2342 6.92996 15.0942C5.65996 15.9442 4.95996 17.0942 4.95996 18.3242C4.95996 19.5542 5.65996 20.6942 6.91996 21.5342C8.31996 22.4742 10.16 22.9442 12 22.9442C13.84 22.9442 15.68 22.4742 17.08 21.5342C18.34 20.6842 19.04 19.5442 19.04 18.3042C19.03 17.0742 18.34 15.9342 17.08 15.0942Z" fill="#0B99FF"/>
</svg>
