<svg width="24" height="24" viewBox="0 0 24 24" fill="none" xmlns="http://www.w3.org/2000/svg">
<path d="M11.2966 3.32812H12.7036V4.73506H11.2966V3.32812Z" fill="#15AF77"/>
<path d="M14.1104 3.32812H15.5173V4.73506H14.1104V3.32812Z" fill="#15AF77"/>
<path d="M8.48267 3.32812H9.8896V4.73506H8.48267V3.32812Z" fill="#15AF77"/>
<path d="M11.2966 6.14453H12.7036V7.55147H11.2966V6.14453Z" fill="#15AF77"/>
<path d="M14.1104 6.14453H15.5173V7.55147H14.1104V6.14453Z" fill="#15AF77"/>
<path d="M8.48267 6.14453H9.8896V7.55147H8.48267V6.14453Z" fill="#15AF77"/>
<path d="M11.2966 8.95703H12.7036V10.364H11.2966V8.95703Z" fill="#15AF77"/>
<path d="M14.1104 8.95703H15.5173V10.364H14.1104V8.95703Z" fill="#15AF77"/>
<path d="M8.48267 8.95703H9.8896V10.364H8.48267V8.95703Z" fill="#15AF77"/>
<path d="M16.7731 12.7337C17.0427 12.4028 17.2889 12.036 17.5102 11.6337C18.6919 9.48613 18.8684 6.90149 18.8684 5.55196C18.8684 3.01919 17.6768 0 12 0C6.32317 0 5.13159 3.01919 5.13159 5.55201C5.13159 8.58035 5.83998 10.5281 6.43432 11.6288C6.65207 12.0321 6.89608 12.3999 7.1649 12.7315L9.86434 17.3344V19.9945H9.18606V24H14.839V19.9945H14.1355V17.3308L16.7731 12.7337ZM10.9708 16.4398L9.90631 14.6248C10.55 14.8322 11.2496 14.9383 12 14.9383C12.7394 14.9383 13.4308 14.8307 14.0688 14.62L13.0247 16.4399L10.9708 16.4398ZM8.03143 2.3115C8.93018 1.71126 10.2654 1.40694 12 1.40694C13.7345 1.40694 15.0698 1.71126 15.9685 2.3115C16.9731 2.98238 17.4614 4.04232 17.4614 5.55201C17.4614 6.76648 17.3076 9.08347 16.2775 10.9555C15.337 12.6647 13.8979 13.5314 12 13.5314C10.9633 13.5314 10.0616 13.2894 9.32028 12.8121C8.66099 12.3877 8.10656 11.7647 7.67229 10.9605C6.94115 9.60628 6.53848 7.68553 6.53848 5.55205C6.53853 4.04232 7.02688 2.98238 8.03143 2.3115ZM13.4321 22.5931H10.593V21.2086H11.2713V17.8467H12.7286V21.2086H13.4321V22.5931Z" fill="#15AF77"/>
</svg>
