<svg width="21" height="20" viewBox="0 0 21 20" fill="none" xmlns="http://www.w3.org/2000/svg">
<path d="M9.8335 4.16797V7.64297C9.35826 7.81097 8.94488 8.11866 8.64756 8.52569C8.35024 8.93273 8.18286 9.4201 8.16736 9.92393C8.15186 10.4277 8.28898 10.9245 8.56072 11.349C8.83246 11.7736 9.22615 12.1061 9.69016 12.303L9.8335 12.3588V15.8346H4.00016C3.57968 15.8348 3.17469 15.676 2.86637 15.3901C2.55806 15.1041 2.3692 14.7123 2.33766 14.293L2.3335 14.168V13.3346H4.8335C5.25398 13.3348 5.65897 13.176 5.96729 12.8901C6.2756 12.6041 6.46446 12.2123 6.496 11.793L6.50016 11.668V8.33464C6.5003 7.91416 6.34149 7.50916 6.05558 7.20085C5.76967 6.89253 5.37779 6.70367 4.9585 6.67214L4.8335 6.66797H2.3335V5.83464C2.33336 5.41416 2.49217 5.00916 2.77808 4.70085C3.06399 4.39253 3.45587 4.20367 3.87516 4.17214L4.00016 4.16797H9.8335ZM17.3335 4.16797C17.7755 4.16797 18.1994 4.34356 18.512 4.65612C18.8246 4.96868 19.0002 5.39261 19.0002 5.83464V6.66797H16.5002C16.0581 6.66797 15.6342 6.84356 15.3217 7.15612C15.0091 7.46868 14.8335 7.89261 14.8335 8.33464V11.668C14.8335 12.11 15.0091 12.5339 15.3217 12.8465C15.6342 13.159 16.0581 13.3346 16.5002 13.3346H19.0002V14.168C19.0002 14.61 18.8246 15.0339 18.512 15.3465C18.1994 15.659 17.7755 15.8346 17.3335 15.8346H11.5002V12.3596C11.9881 12.1875 12.4106 11.8682 12.7095 11.4458C13.0084 11.0234 13.1689 10.5187 13.1689 10.0013C13.1689 9.48387 13.0084 8.97919 12.7095 8.5568C12.4106 8.13442 11.9881 7.81514 11.5002 7.64297V4.16797H17.3335ZM4.8335 8.33464V11.668H2.3335V8.33464H4.8335ZM19.0002 8.33464V11.668H16.5002V8.33464H19.0002ZM10.6668 9.16797C10.8878 9.16797 11.0998 9.25577 11.2561 9.41205C11.4124 9.56833 11.5002 9.78029 11.5002 10.0013C11.5002 10.2223 11.4124 10.4343 11.2561 10.5906C11.0998 10.7468 10.8878 10.8346 10.6668 10.8346C10.4458 10.8346 10.2339 10.7468 10.0776 10.5906C9.92129 10.4343 9.8335 10.2223 9.8335 10.0013C9.8335 9.78029 9.92129 9.56833 10.0776 9.41205C10.2339 9.25577 10.4458 9.16797 10.6668 9.16797Z" fill="#1B84FF"/>
</svg>
