<svg width="17" height="16" viewBox="0 0 17 16" fill="none" xmlns="http://www.w3.org/2000/svg">
<path fill-rule="evenodd" clip-rule="evenodd" d="M12.9833 0.5C13.2421 0.5 13.4973 0.560242 13.7287 0.675955C13.9601 0.791668 14.1614 0.959673 14.3167 1.16667L16.5567 4.15333C16.6691 4.30064 16.7289 4.48137 16.7267 4.66667H16.7333V5.5C16.7341 6.3121 16.4377 7.09643 15.9 7.705V13.8333C15.9 14.2754 15.7244 14.6993 15.4118 15.0118C15.0993 15.3244 14.6753 15.5 14.2333 15.5H2.56665C2.12463 15.5 1.7007 15.3244 1.38814 15.0118C1.07558 14.6993 0.899987 14.2754 0.899987 13.8333V7.705C0.361917 7.09663 0.0654477 6.31217 0.0666541 5.5V4.66667H0.0733206C0.0710314 4.48137 0.130882 4.30064 0.243321 4.15333L2.48332 1.16667C2.63857 0.959673 2.83987 0.791668 3.0713 0.675955C3.30272 0.560242 3.55791 0.5 3.81665 0.5H12.9833ZM15.0667 5.5H11.7333C11.7314 5.93249 11.8976 6.34879 12.197 6.66096C12.4963 6.97313 12.9053 7.15672 13.3374 7.17295C13.7696 7.18918 14.1912 7.03677 14.5131 6.74792C14.835 6.45908 15.032 6.05641 15.0625 5.625L15.0667 5.5ZM10.0667 5.5H6.73332C6.73139 5.93249 6.89764 6.34879 7.19697 6.66096C7.4963 6.97313 7.90525 7.15672 8.33744 7.17295C8.76962 7.18918 9.19119 7.03677 9.51309 6.74792C9.83498 6.45908 10.032 6.05641 10.0625 5.625L10.0667 5.5ZM5.06665 5.5H1.73332C1.73139 5.93249 1.89764 6.34879 2.19697 6.66096C2.4963 6.97313 2.90525 7.15672 3.33744 7.17295C3.76962 7.18918 4.19119 7.03677 4.51309 6.74792C4.83498 6.45908 5.03199 6.05641 5.06249 5.625L5.06665 5.5Z" fill="#1B84FF"/>
</svg>
