<svg width="17" height="20" viewBox="0 0 17 20" fill="none" xmlns="http://www.w3.org/2000/svg">
<path d="M9.98615 0C10.5165 0.000113275 11.0252 0.210901 11.4001 0.586L15.8141 5C16.1892 5.37499 16.4 5.88361 16.4001 6.414V18C16.4001 18.5304 16.1894 19.0391 15.8144 19.4142C15.4393 19.7893 14.9306 20 14.4001 20H2.40015C1.86971 20 1.36101 19.7893 0.985933 19.4142C0.61086 19.0391 0.400146 18.5304 0.400146 18V2C0.400146 1.46957 0.61086 0.960859 0.985933 0.585786C1.36101 0.210714 1.86971 0 2.40015 0H9.98615ZM8.40015 2H2.40015V18H14.4001V8H9.90015C9.50232 8 9.12079 7.84196 8.83949 7.56066C8.55818 7.27936 8.40015 6.89782 8.40015 6.5V2ZM11.4001 12C11.6654 12 11.9197 12.1054 12.1073 12.2929C12.2948 12.4804 12.4001 12.7348 12.4001 13C12.4001 13.2652 12.2948 13.5196 12.1073 13.7071C11.9197 13.8946 11.6654 14 11.4001 14H5.40015C5.13493 14 4.88058 13.8946 4.69304 13.7071C4.5055 13.5196 4.40015 13.2652 4.40015 13C4.40015 12.7348 4.5055 12.4804 4.69304 12.2929C4.88058 12.1054 5.13493 12 5.40015 12H11.4001ZM6.40015 8C6.66536 8 6.91972 8.10536 7.10725 8.29289C7.29479 8.48043 7.40015 8.73478 7.40015 9C7.40015 9.26522 7.29479 9.51957 7.10725 9.70711C6.91972 9.89464 6.66536 10 6.40015 10H5.40015C5.13493 10 4.88058 9.89464 4.69304 9.70711C4.5055 9.51957 4.40015 9.26522 4.40015 9C4.40015 8.73478 4.5055 8.48043 4.69304 8.29289C4.88058 8.10536 5.13493 8 5.40015 8H6.40015ZM10.4001 2.414V6H13.9861L10.4001 2.414Z" fill="#171719"/>
</svg>
