<svg width="15" height="18" viewBox="0 0 15 18" fill="none" xmlns="http://www.w3.org/2000/svg">
<path d="M7.60008 5.66797C9.14717 5.66797 10.6309 6.28255 11.7249 7.37651C12.8188 8.47048 13.4334 9.95421 13.4334 11.5013C13.4334 13.0484 12.8188 14.5321 11.7249 15.6261C10.6309 16.7201 9.14717 17.3346 7.60008 17.3346C6.05298 17.3346 4.56925 16.7201 3.47529 15.6261C2.38132 14.5321 1.76674 13.0484 1.76674 11.5013C1.76674 9.95421 2.38132 8.47048 3.47529 7.37651C4.56925 6.28255 6.05298 5.66797 7.60008 5.66797ZM7.60008 9.83464C7.15805 9.83464 6.73413 10.0102 6.42157 10.3228C6.109 10.6354 5.93341 11.0593 5.93341 11.5013C5.93341 11.9433 6.109 12.3673 6.42157 12.6798C6.73413 12.9924 7.15805 13.168 7.60008 13.168C8.0421 13.168 8.46603 12.9924 8.77859 12.6798C9.09115 12.3673 9.26674 11.9433 9.26674 11.5013C9.26674 11.0593 9.09115 10.6354 8.77859 10.3228C8.46603 10.0102 8.0421 9.83464 7.60008 9.83464ZM5.45008 0.667969C5.72064 0.667943 5.98713 0.733786 6.22655 0.859811C6.46597 0.985835 6.67111 1.16825 6.82424 1.3913L6.89674 1.50797L8.34258 4.03797C7.33523 3.93604 6.31768 4.03994 5.35172 4.34335C4.38576 4.64676 3.49155 5.14335 2.72341 5.80297L2.53008 5.97464L0.565909 2.53797C0.461763 2.35586 0.405126 2.15046 0.401218 1.94071C0.39731 1.73096 0.446256 1.52359 0.543547 1.33773C0.640838 1.15186 0.783343 0.993476 0.957932 0.877157C1.13252 0.760839 1.33358 0.690333 1.54258 0.672136L1.65008 0.667969H5.45008ZM13.5484 0.667969C13.7674 0.667893 13.9825 0.72534 14.1723 0.834556C14.3621 0.943773 14.5199 1.10093 14.6298 1.29029C14.7398 1.47965 14.7981 1.69457 14.7988 1.91354C14.7996 2.1325 14.7429 2.34783 14.6342 2.53797L12.6701 5.97464C11.9705 5.33197 11.1552 4.82803 10.2676 4.48964L8.56341 1.50797C8.52455 1.4401 8.48112 1.37495 8.43341 1.31297C8.58918 1.1122 8.7888 0.949702 9.01701 0.83791C9.24521 0.726119 9.49596 0.66799 9.75008 0.667969H13.5484Z" fill="#1B84FF"/>
</svg>
