<svg width="40" height="40" viewBox="0 0 40 40" fill="none" xmlns="http://www.w3.org/2000/svg">
<path d="M26.6137 28.7698C26.1583 29.228 25.6169 29.5918 25.0206 29.8402C24.4242 30.0886 23.7847 30.2167 23.1387 30.2173C22.6049 30.2168 22.0748 30.13 21.5687 29.9605L15.8549 28.0561C15.7631 28.0254 15.6797 27.9739 15.6112 27.9055L11.9499 24.2436C11.8813 24.1753 11.8297 24.0918 11.7993 23.9998L9.89432 18.2861C9.60153 17.4179 9.55789 16.4851 9.76833 15.5934C9.97878 14.7016 10.4349 13.8867 11.0849 13.2411L20.3468 3.97983C21.2723 3.05717 22.5259 2.53906 23.8328 2.53906C25.1396 2.53906 26.3932 3.05717 27.3187 3.97983L35.8749 12.5361C36.7976 13.4616 37.3157 14.7152 37.3157 16.022C37.3157 17.3289 36.7976 18.5824 35.8749 19.508L26.6137 28.7698ZM37.4487 31.8392C37.4487 32.9517 37.1188 34.0393 36.5007 34.9643C35.8826 35.8893 35.0041 36.6103 33.9763 37.036C32.9485 37.4618 31.8175 37.5732 30.7263 37.3561C29.6352 37.1391 28.6329 36.6033 27.8462 35.8167C27.0596 35.03 26.5238 34.0277 26.3068 32.9366C26.0897 31.8454 26.2011 30.7144 26.6269 29.6866C27.0526 28.6588 27.7736 27.7803 28.6986 27.1622C29.6236 26.5441 30.7112 26.2142 31.8237 26.2142C33.315 26.2159 34.7448 26.809 35.7993 27.8636C36.8539 28.9181 37.447 30.3479 37.4487 31.8392ZM31.3237 33.6517C31.3237 33.3921 31.2467 33.1384 31.1025 32.9225C30.9583 32.7067 30.7533 32.5385 30.5135 32.4391C30.2736 32.3398 30.0097 32.3138 29.7551 32.3644C29.5005 32.4151 29.2667 32.5401 29.0831 32.7236C28.8996 32.9072 28.7746 33.141 28.7239 33.3956C28.6733 33.6502 28.6993 33.9141 28.7986 34.154C28.8979 34.3938 29.0662 34.5988 29.282 34.743C29.4979 34.8872 29.7516 34.9642 30.0112 34.9642C30.3592 34.964 30.6929 34.8257 30.9389 34.5796C31.1849 34.3334 31.3237 33.9997 31.3237 33.6517ZM31.3237 30.0267C31.3237 29.7671 31.2467 29.5134 31.1025 29.2975C30.9583 29.0817 30.7533 28.9135 30.5135 28.8141C30.2736 28.7148 30.0097 28.6888 29.7551 28.7394C29.5005 28.7901 29.2667 28.9151 29.0831 29.0986C28.8996 29.2822 28.7746 29.516 28.7239 29.7706C28.6733 30.0252 28.6993 30.2891 28.7986 30.529C28.8979 30.7688 29.0662 30.9738 29.282 31.118C29.4979 31.2622 29.7516 31.3392 30.0112 31.3392C30.3592 31.339 30.6929 31.2007 30.9389 30.9546C31.1849 30.7084 31.3237 30.3747 31.3237 30.0267ZM34.9487 33.6517C34.9487 33.3921 34.8717 33.1384 34.7275 32.9225C34.5833 32.7067 34.3783 32.5385 34.1385 32.4391C33.8986 32.3398 33.6347 32.3138 33.3801 32.3644C33.1255 32.4151 32.8917 32.5401 32.7081 32.7236C32.5246 32.9072 32.3996 33.141 32.3489 33.3956C32.2983 33.6502 32.3243 33.9141 32.4236 34.154C32.5229 34.3938 32.6912 34.5988 32.907 34.743C33.1229 34.8872 33.3766 34.9642 33.6362 34.9642C33.9843 34.9642 34.3181 34.8259 34.5643 34.5798C34.8104 34.3336 34.9487 33.9998 34.9487 33.6517ZM34.9487 30.0267C34.9487 29.7671 34.8717 29.5134 34.7275 29.2975C34.5833 29.0817 34.3783 28.9135 34.1385 28.8141C33.8986 28.7148 33.6347 28.6888 33.3801 28.7394C33.1255 28.7901 32.8917 28.9151 32.7081 29.0986C32.5246 29.2822 32.3996 29.516 32.3489 29.7706C32.2983 30.0252 32.3243 30.2891 32.4236 30.529C32.5229 30.7688 32.6912 30.9738 32.907 31.118C33.1229 31.2622 33.3766 31.3392 33.6362 31.3392C33.9843 31.3392 34.3181 31.2009 34.5643 30.9548C34.8104 30.7086 34.9487 30.3748 34.9487 30.0267ZM14.7268 28.7892L11.0662 25.1261C10.9179 24.9722 10.7973 24.7937 10.7099 24.5986L4.3912 30.9192C4.14185 30.8833 3.88756 30.9064 3.64876 30.9866C3.40996 31.0668 3.1933 31.2019 3.0162 31.3811C2.72037 31.6771 2.5542 32.0785 2.5542 32.497C2.5542 32.9155 2.72037 33.3169 3.0162 33.613L6.24432 36.8411C6.39059 36.9881 6.56456 37.1047 6.75615 37.1841C6.94775 37.2634 7.15318 37.3041 7.36057 37.3036C7.57372 37.303 7.78458 37.2596 7.98063 37.176C8.17668 37.0924 8.35392 36.9702 8.50182 36.8167C8.67607 36.6412 8.80649 36.4271 8.8825 36.1918C8.95852 35.9565 8.97798 35.7066 8.93932 35.4623L15.2543 29.1461C15.0595 29.058 14.8811 28.9373 14.7268 28.7892Z" fill="url(#paint0_linear_40702_20187)"/>
<defs>
<linearGradient id="paint0_linear_40702_20187" x1="11.2778" y1="6.03158" x2="28.7485" y2="37.4512" gradientUnits="userSpaceOnUse">
<stop offset="0.0453246" stop-color="#175BE9"/>
<stop offset="1" stop-color="#2CD0FE"/>
</linearGradient>
</defs>
</svg>
