<svg width="20" height="20" viewBox="0 0 20 20" fill="none" xmlns="http://www.w3.org/2000/svg">
<path fill-rule="evenodd" clip-rule="evenodd" d="M11.6665 2.5C11.8875 2.5 12.0995 2.5878 12.2558 2.74408C12.412 2.90036 12.4998 3.11232 12.4998 3.33333C12.5003 4.1016 12.7659 4.84617 13.2517 5.44132C13.7376 6.03647 14.4139 6.44573 15.1665 6.6C15.3831 6.6442 15.5733 6.77264 15.6952 6.95705C15.8171 7.14146 15.8607 7.36674 15.8165 7.58333C15.7723 7.79993 15.6439 7.99009 15.4595 8.11199C15.275 8.23389 15.0498 8.27754 14.8332 8.23333C13.9648 8.05587 13.1594 7.6503 12.4998 7.05833V14.1667C12.4998 14.9908 12.2555 15.7963 11.7976 16.4815C11.3398 17.1667 10.689 17.7008 9.92769 18.0162C9.16633 18.3315 8.32855 18.414 7.5203 18.2533C6.71204 18.0925 5.96961 17.6957 5.38689 17.1129C4.80418 16.5302 4.40734 15.7878 4.24657 14.9795C4.0858 14.1713 4.16831 13.3335 4.48367 12.5722C4.79904 11.8108 5.33309 11.16 6.0183 10.7022C6.7035 10.2444 7.50908 10 8.33317 10C8.55419 10 8.76615 10.0878 8.92243 10.2441C9.07871 10.4004 9.16651 10.6123 9.16651 10.8333C9.16651 11.0543 9.07871 11.2663 8.92243 11.4226C8.76615 11.5789 8.55419 11.6667 8.33317 11.6667C7.83872 11.6667 7.35537 11.8133 6.94425 12.088C6.53312 12.3627 6.21269 12.7531 6.02347 13.21C5.83425 13.6668 5.78475 14.1694 5.88121 14.6544C5.97767 15.1393 6.21577 15.5848 6.56541 15.9344C6.91504 16.2841 7.36049 16.5222 7.84545 16.6186C8.3304 16.7151 8.83307 16.6656 9.28988 16.4764C9.7467 16.2871 10.1371 15.9667 10.4118 15.5556C10.6865 15.1445 10.8332 14.6611 10.8332 14.1667V3.33333C10.8332 3.11232 10.921 2.90036 11.0772 2.74408C11.2335 2.5878 11.4455 2.5 11.6665 2.5Z" fill="#1B84FF"/>
</svg>
