<svg width="20" height="21" viewBox="0 0 20 21" fill="none" xmlns="http://www.w3.org/2000/svg">
<path d="M10 10.9444C12.3012 10.9444 14.1667 9.07894 14.1667 6.77775C14.1667 4.47656 12.3012 2.61108 10 2.61108C7.69885 2.61108 5.83337 4.47656 5.83337 6.77775C5.83337 9.07894 7.69885 10.9444 10 10.9444Z" stroke="#031427" stroke-width="1.5" stroke-linecap="round" stroke-linejoin="round"/>
<path d="M16.0083 14.061L13.0583 17.0111C12.9416 17.1277 12.8333 17.3444 12.8083 17.5027L12.6499 18.6277C12.5916 19.036 12.875 19.3193 13.2833 19.261L14.4083 19.1027C14.5666 19.0777 14.7916 18.9694 14.9 18.8527L17.8499 15.9027C18.3583 15.3944 18.5999 14.8027 17.8499 14.0527C17.1083 13.311 16.5166 13.5527 16.0083 14.061Z" stroke="#031427" stroke-width="1.5" stroke-miterlimit="10" stroke-linecap="round" stroke-linejoin="round"/>
<path d="M15.5833 14.4861C15.8333 15.3861 16.5332 16.0861 17.4332 16.3361" stroke="#031427" stroke-width="1.5" stroke-miterlimit="10" stroke-linecap="round" stroke-linejoin="round"/>
<path d="M2.84167 19.2777C2.84167 16.0527 6.05003 13.4443 10 13.4443C10.8667 13.4443 11.7 13.5693 12.475 13.8027" stroke="#292D32" stroke-width="1.5" stroke-linecap="round" stroke-linejoin="round"/>
</svg>
