<svg width="20" height="20" viewBox="0 0 20 20" fill="none" xmlns="http://www.w3.org/2000/svg">
<path fill-rule="evenodd" clip-rule="evenodd" d="M4.1665 4.9987C3.94549 4.9987 3.73353 5.0865 3.57725 5.24278C3.42097 5.39906 3.33317 5.61102 3.33317 5.83203V14.1654C3.33317 14.3864 3.42097 14.5983 3.57725 14.7546C3.73353 14.9109 3.94549 14.9987 4.1665 14.9987H10.1415C10.3137 14.5108 10.633 14.0882 11.0553 13.7894C11.4777 13.4905 11.9824 13.33 12.4998 13.33C13.0173 13.33 13.522 13.4905 13.9443 13.7894C14.3667 14.0882 14.686 14.5108 14.8582 14.9987H15.8332C16.0542 14.9987 16.2661 14.9109 16.4224 14.7546C16.5787 14.5983 16.6665 14.3864 16.6665 14.1654V5.83203C16.6665 5.61102 16.5787 5.39906 16.4224 5.24278C16.2661 5.0865 16.0542 4.9987 15.8332 4.9987H14.8582C14.686 5.48664 14.3667 5.90917 13.9443 6.20804C13.522 6.50691 13.0173 6.66741 12.4998 6.66741C11.9824 6.66741 11.4777 6.50691 11.0553 6.20804C10.633 5.90917 10.3137 5.48664 10.1415 4.9987H4.1665ZM1.6665 5.83203C1.6665 5.16899 1.9299 4.53311 2.39874 4.06426C2.86758 3.59542 3.50346 3.33203 4.1665 3.33203H10.8332C11.0542 3.33203 11.2661 3.41983 11.4224 3.57611C11.5787 3.73239 11.6665 3.94435 11.6665 4.16536C11.6665 4.38638 11.7543 4.59834 11.9106 4.75462C12.0669 4.9109 12.2788 4.9987 12.4998 4.9987C12.7209 4.9987 12.9328 4.9109 13.0891 4.75462C13.2454 4.59834 13.3332 4.38638 13.3332 4.16536C13.3332 3.94435 13.421 3.73239 13.5772 3.57611C13.7335 3.41983 13.9455 3.33203 14.1665 3.33203H15.8332C16.4962 3.33203 17.1321 3.59542 17.6009 4.06426C18.0698 4.53311 18.3332 5.16899 18.3332 5.83203V14.1654C18.3332 14.8284 18.0698 15.4643 17.6009 15.9331C17.1321 16.402 16.4962 16.6654 15.8332 16.6654H14.1665C13.9455 16.6654 13.7335 16.5776 13.5772 16.4213C13.421 16.265 13.3332 16.053 13.3332 15.832C13.3332 15.611 13.2454 15.3991 13.0891 15.2428C12.9328 15.0865 12.7209 14.9987 12.4998 14.9987C12.2788 14.9987 12.0669 15.0865 11.9106 15.2428C11.7543 15.3991 11.6665 15.611 11.6665 15.832C11.6665 16.053 11.5787 16.265 11.4224 16.4213C11.2661 16.5776 11.0542 16.6654 10.8332 16.6654H4.1665C3.50346 16.6654 2.86758 16.402 2.39874 15.9331C1.9299 15.4643 1.6665 14.8284 1.6665 14.1654V5.83203ZM12.4998 7.4987C12.7209 7.4987 12.9328 7.5865 13.0891 7.74278C13.2454 7.89906 13.3332 8.11102 13.3332 8.33203V8.7487C13.3332 8.96971 13.2454 9.18167 13.0891 9.33795C12.9328 9.49423 12.7209 9.58203 12.4998 9.58203C12.2788 9.58203 12.0669 9.49423 11.9106 9.33795C11.7543 9.18167 11.6665 8.96971 11.6665 8.7487V8.33203C11.6665 8.11102 11.7543 7.89906 11.9106 7.74278C12.0669 7.5865 12.2788 7.4987 12.4998 7.4987ZM13.3332 11.2487C13.3332 11.0277 13.2454 10.8157 13.0891 10.6594C12.9328 10.5032 12.7209 10.4154 12.4998 10.4154C12.2788 10.4154 12.0669 10.5032 11.9106 10.6594C11.7543 10.8157 11.6665 11.0277 11.6665 11.2487V11.6654C11.6665 11.8864 11.7543 12.0983 11.9106 12.2546C12.0669 12.4109 12.2788 12.4987 12.4998 12.4987C12.7209 12.4987 12.9328 12.4109 13.0891 12.2546C13.2454 12.0983 13.3332 11.8864 13.3332 11.6654V11.2487Z" fill="#171719"/>
</svg>
