<svg width="20" height="21" viewBox="0 0 20 21" fill="none" xmlns="http://www.w3.org/2000/svg">
<path d="M1.90833 7.42769V15.536C1.90833 17.1194 3.03333 17.7694 4.39999 16.986L6.35833 15.8694C6.78333 15.6277 7.49166 15.6027 7.93333 15.8277L12.3083 18.0194C12.75 18.236 13.4583 18.2194 13.8833 17.9777L17.4917 15.911C17.95 15.6444 18.3333 14.9944 18.3333 14.461V6.35269C18.3333 4.76936 17.2083 4.11936 15.8417 4.90269L13.8833 6.01936C13.4583 6.26102 12.75 6.28602 12.3083 6.06102L7.93333 3.87769C7.49166 3.66102 6.78333 3.67769 6.35833 3.91936L2.74999 5.98602C2.28333 6.25269 1.90833 6.90269 1.90833 7.42769Z" stroke="#031427" stroke-width="1.5" stroke-linecap="round" stroke-linejoin="round"/>
<path d="M7.1333 4.27771V15.111" stroke="#031427" stroke-width="1.5" stroke-linecap="round" stroke-linejoin="round"/>
<path d="M13.1083 6.46106V17.6111" stroke="#031427" stroke-width="1.5" stroke-linecap="round" stroke-linejoin="round"/>
</svg>
