<svg width="20" height="21" viewBox="0 0 20 21" fill="none" xmlns="http://www.w3.org/2000/svg">
<path d="M16.6667 6.81096V15.0776C16.6667 16.3443 16.55 17.2443 16.25 17.886C16.25 17.8943 16.2417 17.911 16.2333 17.9193C16.05 18.1526 15.8083 18.2693 15.525 18.2693C15.0833 18.2693 14.55 17.9776 13.975 17.361C13.2917 16.6276 12.2416 16.686 11.6416 17.486L10.8 18.6026C10.4667 19.0526 10.025 19.2776 9.58333 19.2776C9.14167 19.2776 8.69998 19.0526 8.36665 18.6026L7.51668 17.4776C6.92502 16.686 5.88333 16.6276 5.19999 17.3526L5.19165 17.361C4.24998 18.3693 3.41668 18.5193 2.93335 17.9193C2.92502 17.911 2.91667 17.8943 2.91667 17.886C2.61667 17.2443 2.5 16.3443 2.5 15.0776V6.81096C2.5 5.5443 2.61667 4.64429 2.91667 4.00263C2.91667 3.99429 2.91668 3.98596 2.93335 3.97763C3.40835 3.36929 4.24998 3.51929 5.19165 4.52763L5.19999 4.53596C5.88333 5.26096 6.92502 5.20263 7.51668 4.41096L8.36665 3.28596C8.69998 2.83596 9.14167 2.61096 9.58333 2.61096C10.025 2.61096 10.4667 2.83596 10.8 3.28596L11.6416 4.40263C12.2416 5.20263 13.2917 5.26096 13.975 4.52763C14.55 3.91096 15.0833 3.61929 15.525 3.61929C15.8083 3.61929 16.05 3.74429 16.2333 3.97763C16.25 3.98596 16.25 3.99429 16.25 4.00263C16.55 4.64429 16.6667 5.5443 16.6667 6.81096Z" stroke="#031427" stroke-width="1.5" stroke-linecap="round" stroke-linejoin="round"/>
<path d="M6.66663 9.48596H13.3333" stroke="#031427" stroke-width="1.5" stroke-linecap="round" stroke-linejoin="round"/>
<path d="M6.66663 12.4027H11.6666" stroke="#031427" stroke-width="1.5" stroke-linecap="round" stroke-linejoin="round"/>
</svg>
