<svg width="16" height="18" viewBox="0 0 16 18" fill="none" xmlns="http://www.w3.org/2000/svg">
<path fill-rule="evenodd" clip-rule="evenodd" d="M8.19995 9.83464C10.1966 9.83464 12.0125 10.413 13.3483 11.228C14.015 11.6346 14.585 12.1146 14.9966 12.6363C15.4016 13.1488 15.7 13.7621 15.7 14.418C15.7 15.1221 15.3575 15.6771 14.8641 16.073C14.3975 16.448 13.7816 16.6963 13.1275 16.8696C11.8125 17.2171 10.0575 17.3346 8.19995 17.3346C6.34245 17.3346 4.58745 17.218 3.27245 16.8696C2.61828 16.6963 2.00245 16.448 1.53578 16.073C1.04162 15.6763 0.699951 15.1221 0.699951 14.418C0.699951 13.7621 0.998285 13.1488 1.40328 12.6355C1.81495 12.1146 2.38412 11.6355 3.05162 11.2271C4.38745 10.4138 6.20412 9.83464 8.19995 9.83464ZM8.19995 11.5013C6.51412 11.5013 4.99745 11.993 3.91995 12.6505C3.38078 12.9788 2.97412 13.3355 2.71162 13.6688C2.44162 14.0105 2.36662 14.2688 2.36662 14.418C2.36662 14.5196 2.39745 14.6271 2.57912 14.773C2.78662 14.9396 3.14745 15.1121 3.69912 15.258C4.79745 15.5496 6.37578 15.668 8.19995 15.668C10.025 15.668 11.6025 15.5488 12.7 15.258C13.2525 15.1121 13.6133 14.9396 13.8208 14.773C14.0025 14.6271 14.0333 14.5196 14.0333 14.418C14.0333 14.268 13.9583 14.0105 13.6891 13.6688C13.4258 13.3355 13.0191 12.9788 12.48 12.6505C11.4025 11.9921 9.88578 11.5013 8.19995 11.5013ZM8.19995 0.667969C9.30502 0.667969 10.3648 1.10696 11.1462 1.88836C11.9276 2.66976 12.3666 3.72957 12.3666 4.83464C12.3666 5.9397 11.9276 6.99951 11.1462 7.78091C10.3648 8.56232 9.30502 9.0013 8.19995 9.0013C7.09488 9.0013 6.03507 8.56232 5.25367 7.78091C4.47227 6.99951 4.03328 5.9397 4.03328 4.83464C4.03328 3.72957 4.47227 2.66976 5.25367 1.88836C6.03507 1.10696 7.09488 0.667969 8.19995 0.667969ZM8.19995 2.33464C7.87165 2.33464 7.54656 2.3993 7.24324 2.52494C6.93993 2.65057 6.66433 2.83472 6.43218 3.06687C6.20004 3.29902 6.01589 3.57461 5.89025 3.87793C5.76462 4.18124 5.69995 4.50633 5.69995 4.83464C5.69995 5.16294 5.76462 5.48803 5.89025 5.79134C6.01589 6.09466 6.20004 6.37026 6.43218 6.6024C6.66433 6.83455 6.93993 7.0187 7.24324 7.14433C7.54656 7.26997 7.87165 7.33464 8.19995 7.33464C8.86299 7.33464 9.49888 7.07124 9.96772 6.6024C10.4366 6.13356 10.7 5.49768 10.7 4.83464C10.7 4.17159 10.4366 3.53571 9.96772 3.06687C9.49888 2.59803 8.86299 2.33464 8.19995 2.33464Z" fill="#171719"/>
</svg>
