<svg width="20" height="20" viewBox="0 0 20 20" fill="none" xmlns="http://www.w3.org/2000/svg">
<path fill-rule="evenodd" clip-rule="evenodd" d="M9.99984 1.66406C14.6023 1.66406 18.3332 5.3949 18.3332 9.9974C18.3332 13.5807 16.0715 16.6357 12.8982 17.8124C12.8445 17.8419 12.7878 17.8653 12.729 17.8824L12.6498 17.9007C11.7956 18.1865 10.9006 18.3317 9.99984 18.3307C5.39734 18.3307 1.6665 14.5999 1.6665 9.9974C1.6665 5.3949 5.39734 1.66406 9.99984 1.66406ZM12.4248 3.78573L12.2782 4.5199C12.1836 4.99241 11.9546 5.42754 11.6185 5.7729C11.2825 6.11827 10.8538 6.35915 10.384 6.46656L10.0498 6.54323C9.84256 6.59049 9.66118 6.71518 9.54283 6.89178C9.42447 7.06839 9.37809 7.28355 9.41317 7.49323L9.559 8.36656C9.60547 8.6465 9.57968 8.93366 9.4841 9.20084C9.38852 9.46802 9.22631 9.70638 9.01282 9.89332C8.79934 10.0803 8.54166 10.2096 8.2642 10.2691C7.98674 10.3286 7.69869 10.3162 7.42734 10.2332L6.35234 9.9049C5.8403 9.74837 5.39204 9.43159 5.07355 9.00119C4.75505 8.57078 4.58316 8.04949 4.58317 7.51406V6.1099C3.79413 7.20844 3.3579 8.52099 3.33238 9.8733C3.30687 11.2256 3.69329 12.5537 4.44033 13.6812C5.18737 14.8087 6.25969 15.6824 7.51493 16.1861C8.77016 16.6898 10.1489 16.7999 11.4682 16.5016L10.984 14.8082C10.9449 14.6721 10.8718 14.5482 10.7715 14.4482L9.73984 13.4157C9.61549 13.2915 9.51876 13.1424 9.45596 12.9782C9.39316 12.814 9.3657 12.6384 9.37537 12.4628C9.38504 12.2873 9.43163 12.1158 9.5121 11.9595C9.59256 11.8032 9.70509 11.6656 9.84234 11.5557L11.1465 10.5132C11.3951 10.3143 11.6955 10.1908 12.0122 10.1573C12.3288 10.1238 12.6484 10.1816 12.9332 10.3241L14.1582 10.9366C14.5262 11.1206 14.8432 11.3927 15.0809 11.7287C15.3185 12.0646 15.4696 12.454 15.5207 12.8624L15.6123 13.5966C16.1449 12.7658 16.4864 11.8272 16.6123 10.8485C16.7382 9.86976 16.6454 8.87529 16.3404 7.93678C16.0355 6.99828 15.5261 6.13914 14.849 5.42131C14.1719 4.70349 13.344 4.14486 12.4248 3.78573ZM12.1873 11.8149L11.2473 12.5666L11.9507 13.2691C12.2074 13.5262 12.4051 13.8361 12.5298 14.1774L12.5865 14.3507L13.039 15.9324C13.3307 15.7824 13.6107 15.6116 13.8757 15.4224L14.1365 15.2257L13.8673 13.0691C13.8525 12.9503 13.8121 12.8361 13.7492 12.7343C13.6862 12.6325 13.602 12.5454 13.5023 12.4791L13.4123 12.4274L12.1873 11.8149ZM9.99984 3.33073C8.66002 3.32864 7.35095 3.73216 6.24484 4.48823C6.24817 4.51823 6.24984 4.54906 6.24984 4.58073V7.51406C6.24968 7.69256 6.30684 7.8664 6.41291 8.00997C6.51897 8.15354 6.66834 8.25926 6.839 8.31156L7.91484 8.6399L7.769 7.76656C7.66419 7.13789 7.80345 6.49293 8.15831 5.9635C8.51317 5.43408 9.05683 5.06018 9.67817 4.91823L10.0123 4.8424C10.1691 4.80656 10.3122 4.72612 10.4243 4.61078C10.5364 4.49545 10.6127 4.35014 10.644 4.1924L10.8073 3.37906C10.5394 3.34679 10.2697 3.33065 9.99984 3.33073Z" fill="#1B84FF"/>
</svg>
